M48
;DRILL file {KiCad 5.0.2-bee76a0~70~ubuntu18.10.1} date Mon 13 May 2019 16:43:59 BST
;FORMAT={-:-/ absolute / inch / decimal}
FMAT,2
INCH,TZ
T1C0.0157
T2C0.0300
T3C0.0315
T4C0.0394
T5C0.0512
T6C0.1260
%
G90
G05
T1
X2.4409Y-4.6063
X2.874Y-4.6063
X2.9134Y-3.5433
X2.9134Y-3.622
X3.1102Y-3.4252
X3.1496Y-3.4646
X3.937Y-3.4252
X3.937Y-3.4646
X4.0945Y-3.5039
X4.1339Y-4.6063
X4.1732Y-3.5039
X4.5669Y-4.6063
X4.7736Y-3.4252
X4.8031Y-4.2126
X4.8031Y-4.3701
T2
X2.874Y-2.6378
X2.874Y-3.2874
X4.3504Y-2.6378
X4.3504Y-3.2874
T3
X2.3Y-4.75
X2.3Y-5.05
X2.4Y-4.75
X2.4Y-5.05
X2.5Y-4.75
X2.5Y-5.05
X2.6Y-4.75
X2.6Y-5.05
X2.7Y-4.75
X2.7Y-5.05
X2.8Y-4.75
X2.8Y-5.05
X2.9Y-4.75
X2.9Y-5.05
X3.Y-4.75
X3.Y-5.05
X4.Y-4.75
X4.Y-5.05
X4.1Y-4.75
X4.1Y-5.05
X4.2Y-4.75
X4.2Y-5.05
X4.3Y-4.75
X4.3Y-5.05
X4.4Y-4.75
X4.4Y-5.05
X4.5Y-4.75
X4.5Y-5.05
X4.6Y-4.75
X4.6Y-5.05
X4.7Y-4.75
X4.7Y-5.05
X2.5Y-3.5
X2.5Y-3.6
X2.5Y-3.7
X2.5Y-3.8
X2.5Y-3.9
X2.5Y-4.
X2.5Y-4.1
X2.5Y-4.2
X2.8Y-3.5
X2.8Y-3.6
X2.8Y-3.7
X2.8Y-3.8
X2.8Y-3.9
X2.8Y-4.
X2.8Y-4.1
X2.8Y-4.2
T4
X4.6181Y-3.2283
X4.7181Y-3.2283
X4.8181Y-3.2283
X4.9181Y-3.2283
X5.0181Y-3.2283
X5.1181Y-3.2283
T5
X2.7559Y-5.5512
X2.9528Y-5.5512
X3.1496Y-5.5512
X3.3465Y-5.5512
X1.9587Y-4.0157
X1.9587Y-4.2126
X1.9587Y-4.4094
X1.9587Y-4.6063
X1.9587Y-3.1496
X1.9587Y-3.3465
X1.9587Y-3.5433
X1.9587Y-3.7402
X2.3984Y-2.7559
X2.5984Y-2.7559
X3.622Y-5.5512
X3.8189Y-5.5512
X4.0157Y-5.5512
X4.2126Y-5.5512
X4.4882Y-5.5512
X4.685Y-5.5512
X4.8819Y-5.5512
X5.0787Y-5.5512
X1.8898Y-5.5512
X2.0866Y-5.5512
X2.2835Y-5.5512
X2.4803Y-5.5512
T6
X1.8898Y-2.6772
X1.8898Y-4.9606
X5.0787Y-2.6772
X5.0787Y-4.9606
T0
M30
