G04 #@! TF.GenerationSoftware,KiCad,Pcbnew,5.0.2-bee76a0~70~ubuntu18.10.1*
G04 #@! TF.CreationDate,2019-05-13T16:40:49+01:00*
G04 #@! TF.ProjectId,alarm-monitor,616c6172-6d2d-46d6-9f6e-69746f722e6b,rev?*
G04 #@! TF.SameCoordinates,Original*
G04 #@! TF.FileFunction,Paste,Top*
G04 #@! TF.FilePolarity,Positive*
%FSLAX46Y46*%
G04 Gerber Fmt 4.6, Leading zero omitted, Abs format (unit mm)*
G04 Created by KiCad (PCBNEW 5.0.2-bee76a0~70~ubuntu18.10.1) date Mon 13 May 2019 16:40:49 BST*
%MOMM*%
%LPD*%
G01*
G04 APERTURE LIST*
%ADD10C,0.100000*%
%ADD11C,0.570000*%
%ADD12C,0.855000*%
%ADD13R,1.650000X0.600000*%
%ADD14O,0.540000X1.500000*%
%ADD15O,1.500000X0.540000*%
%ADD16R,3.600000X3.600000*%
G04 APERTURE END LIST*
D10*
G04 #@! TO.C,C1*
G36*
X128436467Y-112715686D02*
X128450300Y-112717738D01*
X128463866Y-112721136D01*
X128477032Y-112725847D01*
X128489674Y-112731826D01*
X128501669Y-112739016D01*
X128512901Y-112747346D01*
X128523263Y-112756737D01*
X128532654Y-112767099D01*
X128540984Y-112778331D01*
X128548174Y-112790326D01*
X128554153Y-112802968D01*
X128558864Y-112816134D01*
X128562262Y-112829700D01*
X128564314Y-112843533D01*
X128565000Y-112857500D01*
X128565000Y-113142500D01*
X128564314Y-113156467D01*
X128562262Y-113170300D01*
X128558864Y-113183866D01*
X128554153Y-113197032D01*
X128548174Y-113209674D01*
X128540984Y-113221669D01*
X128532654Y-113232901D01*
X128523263Y-113243263D01*
X128512901Y-113252654D01*
X128501669Y-113260984D01*
X128489674Y-113268174D01*
X128477032Y-113274153D01*
X128463866Y-113278864D01*
X128450300Y-113282262D01*
X128436467Y-113284314D01*
X128422500Y-113285000D01*
X128077500Y-113285000D01*
X128063533Y-113284314D01*
X128049700Y-113282262D01*
X128036134Y-113278864D01*
X128022968Y-113274153D01*
X128010326Y-113268174D01*
X127998331Y-113260984D01*
X127987099Y-113252654D01*
X127976737Y-113243263D01*
X127967346Y-113232901D01*
X127959016Y-113221669D01*
X127951826Y-113209674D01*
X127945847Y-113197032D01*
X127941136Y-113183866D01*
X127937738Y-113170300D01*
X127935686Y-113156467D01*
X127935000Y-113142500D01*
X127935000Y-112857500D01*
X127935686Y-112843533D01*
X127937738Y-112829700D01*
X127941136Y-112816134D01*
X127945847Y-112802968D01*
X127951826Y-112790326D01*
X127959016Y-112778331D01*
X127967346Y-112767099D01*
X127976737Y-112756737D01*
X127987099Y-112747346D01*
X127998331Y-112739016D01*
X128010326Y-112731826D01*
X128022968Y-112725847D01*
X128036134Y-112721136D01*
X128049700Y-112717738D01*
X128063533Y-112715686D01*
X128077500Y-112715000D01*
X128422500Y-112715000D01*
X128436467Y-112715686D01*
X128436467Y-112715686D01*
G37*
D11*
X128250000Y-113000000D03*
D10*
G36*
X130186467Y-112715686D02*
X130200300Y-112717738D01*
X130213866Y-112721136D01*
X130227032Y-112725847D01*
X130239674Y-112731826D01*
X130251669Y-112739016D01*
X130262901Y-112747346D01*
X130273263Y-112756737D01*
X130282654Y-112767099D01*
X130290984Y-112778331D01*
X130298174Y-112790326D01*
X130304153Y-112802968D01*
X130308864Y-112816134D01*
X130312262Y-112829700D01*
X130314314Y-112843533D01*
X130315000Y-112857500D01*
X130315000Y-113142500D01*
X130314314Y-113156467D01*
X130312262Y-113170300D01*
X130308864Y-113183866D01*
X130304153Y-113197032D01*
X130298174Y-113209674D01*
X130290984Y-113221669D01*
X130282654Y-113232901D01*
X130273263Y-113243263D01*
X130262901Y-113252654D01*
X130251669Y-113260984D01*
X130239674Y-113268174D01*
X130227032Y-113274153D01*
X130213866Y-113278864D01*
X130200300Y-113282262D01*
X130186467Y-113284314D01*
X130172500Y-113285000D01*
X129827500Y-113285000D01*
X129813533Y-113284314D01*
X129799700Y-113282262D01*
X129786134Y-113278864D01*
X129772968Y-113274153D01*
X129760326Y-113268174D01*
X129748331Y-113260984D01*
X129737099Y-113252654D01*
X129726737Y-113243263D01*
X129717346Y-113232901D01*
X129709016Y-113221669D01*
X129701826Y-113209674D01*
X129695847Y-113197032D01*
X129691136Y-113183866D01*
X129687738Y-113170300D01*
X129685686Y-113156467D01*
X129685000Y-113142500D01*
X129685000Y-112857500D01*
X129685686Y-112843533D01*
X129687738Y-112829700D01*
X129691136Y-112816134D01*
X129695847Y-112802968D01*
X129701826Y-112790326D01*
X129709016Y-112778331D01*
X129717346Y-112767099D01*
X129726737Y-112756737D01*
X129737099Y-112747346D01*
X129748331Y-112739016D01*
X129760326Y-112731826D01*
X129772968Y-112725847D01*
X129786134Y-112721136D01*
X129799700Y-112717738D01*
X129813533Y-112715686D01*
X129827500Y-112715000D01*
X130172500Y-112715000D01*
X130186467Y-112715686D01*
X130186467Y-112715686D01*
G37*
D11*
X130000000Y-113000000D03*
G04 #@! TD*
D10*
G04 #@! TO.C,C2*
G36*
X93156467Y-111435686D02*
X93170300Y-111437738D01*
X93183866Y-111441136D01*
X93197032Y-111445847D01*
X93209674Y-111451826D01*
X93221669Y-111459016D01*
X93232901Y-111467346D01*
X93243263Y-111476737D01*
X93252654Y-111487099D01*
X93260984Y-111498331D01*
X93268174Y-111510326D01*
X93274153Y-111522968D01*
X93278864Y-111536134D01*
X93282262Y-111549700D01*
X93284314Y-111563533D01*
X93285000Y-111577500D01*
X93285000Y-111922500D01*
X93284314Y-111936467D01*
X93282262Y-111950300D01*
X93278864Y-111963866D01*
X93274153Y-111977032D01*
X93268174Y-111989674D01*
X93260984Y-112001669D01*
X93252654Y-112012901D01*
X93243263Y-112023263D01*
X93232901Y-112032654D01*
X93221669Y-112040984D01*
X93209674Y-112048174D01*
X93197032Y-112054153D01*
X93183866Y-112058864D01*
X93170300Y-112062262D01*
X93156467Y-112064314D01*
X93142500Y-112065000D01*
X92857500Y-112065000D01*
X92843533Y-112064314D01*
X92829700Y-112062262D01*
X92816134Y-112058864D01*
X92802968Y-112054153D01*
X92790326Y-112048174D01*
X92778331Y-112040984D01*
X92767099Y-112032654D01*
X92756737Y-112023263D01*
X92747346Y-112012901D01*
X92739016Y-112001669D01*
X92731826Y-111989674D01*
X92725847Y-111977032D01*
X92721136Y-111963866D01*
X92717738Y-111950300D01*
X92715686Y-111936467D01*
X92715000Y-111922500D01*
X92715000Y-111577500D01*
X92715686Y-111563533D01*
X92717738Y-111549700D01*
X92721136Y-111536134D01*
X92725847Y-111522968D01*
X92731826Y-111510326D01*
X92739016Y-111498331D01*
X92747346Y-111487099D01*
X92756737Y-111476737D01*
X92767099Y-111467346D01*
X92778331Y-111459016D01*
X92790326Y-111451826D01*
X92802968Y-111445847D01*
X92816134Y-111441136D01*
X92829700Y-111437738D01*
X92843533Y-111435686D01*
X92857500Y-111435000D01*
X93142500Y-111435000D01*
X93156467Y-111435686D01*
X93156467Y-111435686D01*
G37*
D11*
X93000000Y-111750000D03*
D10*
G36*
X93156467Y-109685686D02*
X93170300Y-109687738D01*
X93183866Y-109691136D01*
X93197032Y-109695847D01*
X93209674Y-109701826D01*
X93221669Y-109709016D01*
X93232901Y-109717346D01*
X93243263Y-109726737D01*
X93252654Y-109737099D01*
X93260984Y-109748331D01*
X93268174Y-109760326D01*
X93274153Y-109772968D01*
X93278864Y-109786134D01*
X93282262Y-109799700D01*
X93284314Y-109813533D01*
X93285000Y-109827500D01*
X93285000Y-110172500D01*
X93284314Y-110186467D01*
X93282262Y-110200300D01*
X93278864Y-110213866D01*
X93274153Y-110227032D01*
X93268174Y-110239674D01*
X93260984Y-110251669D01*
X93252654Y-110262901D01*
X93243263Y-110273263D01*
X93232901Y-110282654D01*
X93221669Y-110290984D01*
X93209674Y-110298174D01*
X93197032Y-110304153D01*
X93183866Y-110308864D01*
X93170300Y-110312262D01*
X93156467Y-110314314D01*
X93142500Y-110315000D01*
X92857500Y-110315000D01*
X92843533Y-110314314D01*
X92829700Y-110312262D01*
X92816134Y-110308864D01*
X92802968Y-110304153D01*
X92790326Y-110298174D01*
X92778331Y-110290984D01*
X92767099Y-110282654D01*
X92756737Y-110273263D01*
X92747346Y-110262901D01*
X92739016Y-110251669D01*
X92731826Y-110239674D01*
X92725847Y-110227032D01*
X92721136Y-110213866D01*
X92717738Y-110200300D01*
X92715686Y-110186467D01*
X92715000Y-110172500D01*
X92715000Y-109827500D01*
X92715686Y-109813533D01*
X92717738Y-109799700D01*
X92721136Y-109786134D01*
X92725847Y-109772968D01*
X92731826Y-109760326D01*
X92739016Y-109748331D01*
X92747346Y-109737099D01*
X92756737Y-109726737D01*
X92767099Y-109717346D01*
X92778331Y-109709016D01*
X92790326Y-109701826D01*
X92802968Y-109695847D01*
X92816134Y-109691136D01*
X92829700Y-109687738D01*
X92843533Y-109685686D01*
X92857500Y-109685000D01*
X93142500Y-109685000D01*
X93156467Y-109685686D01*
X93156467Y-109685686D01*
G37*
D11*
X93000000Y-110000000D03*
G04 #@! TD*
D10*
G04 #@! TO.C,C3*
G36*
X90156467Y-109685686D02*
X90170300Y-109687738D01*
X90183866Y-109691136D01*
X90197032Y-109695847D01*
X90209674Y-109701826D01*
X90221669Y-109709016D01*
X90232901Y-109717346D01*
X90243263Y-109726737D01*
X90252654Y-109737099D01*
X90260984Y-109748331D01*
X90268174Y-109760326D01*
X90274153Y-109772968D01*
X90278864Y-109786134D01*
X90282262Y-109799700D01*
X90284314Y-109813533D01*
X90285000Y-109827500D01*
X90285000Y-110172500D01*
X90284314Y-110186467D01*
X90282262Y-110200300D01*
X90278864Y-110213866D01*
X90274153Y-110227032D01*
X90268174Y-110239674D01*
X90260984Y-110251669D01*
X90252654Y-110262901D01*
X90243263Y-110273263D01*
X90232901Y-110282654D01*
X90221669Y-110290984D01*
X90209674Y-110298174D01*
X90197032Y-110304153D01*
X90183866Y-110308864D01*
X90170300Y-110312262D01*
X90156467Y-110314314D01*
X90142500Y-110315000D01*
X89857500Y-110315000D01*
X89843533Y-110314314D01*
X89829700Y-110312262D01*
X89816134Y-110308864D01*
X89802968Y-110304153D01*
X89790326Y-110298174D01*
X89778331Y-110290984D01*
X89767099Y-110282654D01*
X89756737Y-110273263D01*
X89747346Y-110262901D01*
X89739016Y-110251669D01*
X89731826Y-110239674D01*
X89725847Y-110227032D01*
X89721136Y-110213866D01*
X89717738Y-110200300D01*
X89715686Y-110186467D01*
X89715000Y-110172500D01*
X89715000Y-109827500D01*
X89715686Y-109813533D01*
X89717738Y-109799700D01*
X89721136Y-109786134D01*
X89725847Y-109772968D01*
X89731826Y-109760326D01*
X89739016Y-109748331D01*
X89747346Y-109737099D01*
X89756737Y-109726737D01*
X89767099Y-109717346D01*
X89778331Y-109709016D01*
X89790326Y-109701826D01*
X89802968Y-109695847D01*
X89816134Y-109691136D01*
X89829700Y-109687738D01*
X89843533Y-109685686D01*
X89857500Y-109685000D01*
X90142500Y-109685000D01*
X90156467Y-109685686D01*
X90156467Y-109685686D01*
G37*
D11*
X90000000Y-110000000D03*
D10*
G36*
X90156467Y-111435686D02*
X90170300Y-111437738D01*
X90183866Y-111441136D01*
X90197032Y-111445847D01*
X90209674Y-111451826D01*
X90221669Y-111459016D01*
X90232901Y-111467346D01*
X90243263Y-111476737D01*
X90252654Y-111487099D01*
X90260984Y-111498331D01*
X90268174Y-111510326D01*
X90274153Y-111522968D01*
X90278864Y-111536134D01*
X90282262Y-111549700D01*
X90284314Y-111563533D01*
X90285000Y-111577500D01*
X90285000Y-111922500D01*
X90284314Y-111936467D01*
X90282262Y-111950300D01*
X90278864Y-111963866D01*
X90274153Y-111977032D01*
X90268174Y-111989674D01*
X90260984Y-112001669D01*
X90252654Y-112012901D01*
X90243263Y-112023263D01*
X90232901Y-112032654D01*
X90221669Y-112040984D01*
X90209674Y-112048174D01*
X90197032Y-112054153D01*
X90183866Y-112058864D01*
X90170300Y-112062262D01*
X90156467Y-112064314D01*
X90142500Y-112065000D01*
X89857500Y-112065000D01*
X89843533Y-112064314D01*
X89829700Y-112062262D01*
X89816134Y-112058864D01*
X89802968Y-112054153D01*
X89790326Y-112048174D01*
X89778331Y-112040984D01*
X89767099Y-112032654D01*
X89756737Y-112023263D01*
X89747346Y-112012901D01*
X89739016Y-112001669D01*
X89731826Y-111989674D01*
X89725847Y-111977032D01*
X89721136Y-111963866D01*
X89717738Y-111950300D01*
X89715686Y-111936467D01*
X89715000Y-111922500D01*
X89715000Y-111577500D01*
X89715686Y-111563533D01*
X89717738Y-111549700D01*
X89721136Y-111536134D01*
X89725847Y-111522968D01*
X89731826Y-111510326D01*
X89739016Y-111498331D01*
X89747346Y-111487099D01*
X89756737Y-111476737D01*
X89767099Y-111467346D01*
X89778331Y-111459016D01*
X89790326Y-111451826D01*
X89802968Y-111445847D01*
X89816134Y-111441136D01*
X89829700Y-111437738D01*
X89843533Y-111435686D01*
X89857500Y-111435000D01*
X90142500Y-111435000D01*
X90156467Y-111435686D01*
X90156467Y-111435686D01*
G37*
D11*
X90000000Y-111750000D03*
G04 #@! TD*
D10*
G04 #@! TO.C,D1*
G36*
X119186467Y-104715686D02*
X119200300Y-104717738D01*
X119213866Y-104721136D01*
X119227032Y-104725847D01*
X119239674Y-104731826D01*
X119251669Y-104739016D01*
X119262901Y-104747346D01*
X119273263Y-104756737D01*
X119282654Y-104767099D01*
X119290984Y-104778331D01*
X119298174Y-104790326D01*
X119304153Y-104802968D01*
X119308864Y-104816134D01*
X119312262Y-104829700D01*
X119314314Y-104843533D01*
X119315000Y-104857500D01*
X119315000Y-105142500D01*
X119314314Y-105156467D01*
X119312262Y-105170300D01*
X119308864Y-105183866D01*
X119304153Y-105197032D01*
X119298174Y-105209674D01*
X119290984Y-105221669D01*
X119282654Y-105232901D01*
X119273263Y-105243263D01*
X119262901Y-105252654D01*
X119251669Y-105260984D01*
X119239674Y-105268174D01*
X119227032Y-105274153D01*
X119213866Y-105278864D01*
X119200300Y-105282262D01*
X119186467Y-105284314D01*
X119172500Y-105285000D01*
X118827500Y-105285000D01*
X118813533Y-105284314D01*
X118799700Y-105282262D01*
X118786134Y-105278864D01*
X118772968Y-105274153D01*
X118760326Y-105268174D01*
X118748331Y-105260984D01*
X118737099Y-105252654D01*
X118726737Y-105243263D01*
X118717346Y-105232901D01*
X118709016Y-105221669D01*
X118701826Y-105209674D01*
X118695847Y-105197032D01*
X118691136Y-105183866D01*
X118687738Y-105170300D01*
X118685686Y-105156467D01*
X118685000Y-105142500D01*
X118685000Y-104857500D01*
X118685686Y-104843533D01*
X118687738Y-104829700D01*
X118691136Y-104816134D01*
X118695847Y-104802968D01*
X118701826Y-104790326D01*
X118709016Y-104778331D01*
X118717346Y-104767099D01*
X118726737Y-104756737D01*
X118737099Y-104747346D01*
X118748331Y-104739016D01*
X118760326Y-104731826D01*
X118772968Y-104725847D01*
X118786134Y-104721136D01*
X118799700Y-104717738D01*
X118813533Y-104715686D01*
X118827500Y-104715000D01*
X119172500Y-104715000D01*
X119186467Y-104715686D01*
X119186467Y-104715686D01*
G37*
D11*
X119000000Y-105000000D03*
D10*
G36*
X117436467Y-104715686D02*
X117450300Y-104717738D01*
X117463866Y-104721136D01*
X117477032Y-104725847D01*
X117489674Y-104731826D01*
X117501669Y-104739016D01*
X117512901Y-104747346D01*
X117523263Y-104756737D01*
X117532654Y-104767099D01*
X117540984Y-104778331D01*
X117548174Y-104790326D01*
X117554153Y-104802968D01*
X117558864Y-104816134D01*
X117562262Y-104829700D01*
X117564314Y-104843533D01*
X117565000Y-104857500D01*
X117565000Y-105142500D01*
X117564314Y-105156467D01*
X117562262Y-105170300D01*
X117558864Y-105183866D01*
X117554153Y-105197032D01*
X117548174Y-105209674D01*
X117540984Y-105221669D01*
X117532654Y-105232901D01*
X117523263Y-105243263D01*
X117512901Y-105252654D01*
X117501669Y-105260984D01*
X117489674Y-105268174D01*
X117477032Y-105274153D01*
X117463866Y-105278864D01*
X117450300Y-105282262D01*
X117436467Y-105284314D01*
X117422500Y-105285000D01*
X117077500Y-105285000D01*
X117063533Y-105284314D01*
X117049700Y-105282262D01*
X117036134Y-105278864D01*
X117022968Y-105274153D01*
X117010326Y-105268174D01*
X116998331Y-105260984D01*
X116987099Y-105252654D01*
X116976737Y-105243263D01*
X116967346Y-105232901D01*
X116959016Y-105221669D01*
X116951826Y-105209674D01*
X116945847Y-105197032D01*
X116941136Y-105183866D01*
X116937738Y-105170300D01*
X116935686Y-105156467D01*
X116935000Y-105142500D01*
X116935000Y-104857500D01*
X116935686Y-104843533D01*
X116937738Y-104829700D01*
X116941136Y-104816134D01*
X116945847Y-104802968D01*
X116951826Y-104790326D01*
X116959016Y-104778331D01*
X116967346Y-104767099D01*
X116976737Y-104756737D01*
X116987099Y-104747346D01*
X116998331Y-104739016D01*
X117010326Y-104731826D01*
X117022968Y-104725847D01*
X117036134Y-104721136D01*
X117049700Y-104717738D01*
X117063533Y-104715686D01*
X117077500Y-104715000D01*
X117422500Y-104715000D01*
X117436467Y-104715686D01*
X117436467Y-104715686D01*
G37*
D11*
X117250000Y-105000000D03*
G04 #@! TD*
D10*
G04 #@! TO.C,D2*
G36*
X117436467Y-94715686D02*
X117450300Y-94717738D01*
X117463866Y-94721136D01*
X117477032Y-94725847D01*
X117489674Y-94731826D01*
X117501669Y-94739016D01*
X117512901Y-94747346D01*
X117523263Y-94756737D01*
X117532654Y-94767099D01*
X117540984Y-94778331D01*
X117548174Y-94790326D01*
X117554153Y-94802968D01*
X117558864Y-94816134D01*
X117562262Y-94829700D01*
X117564314Y-94843533D01*
X117565000Y-94857500D01*
X117565000Y-95142500D01*
X117564314Y-95156467D01*
X117562262Y-95170300D01*
X117558864Y-95183866D01*
X117554153Y-95197032D01*
X117548174Y-95209674D01*
X117540984Y-95221669D01*
X117532654Y-95232901D01*
X117523263Y-95243263D01*
X117512901Y-95252654D01*
X117501669Y-95260984D01*
X117489674Y-95268174D01*
X117477032Y-95274153D01*
X117463866Y-95278864D01*
X117450300Y-95282262D01*
X117436467Y-95284314D01*
X117422500Y-95285000D01*
X117077500Y-95285000D01*
X117063533Y-95284314D01*
X117049700Y-95282262D01*
X117036134Y-95278864D01*
X117022968Y-95274153D01*
X117010326Y-95268174D01*
X116998331Y-95260984D01*
X116987099Y-95252654D01*
X116976737Y-95243263D01*
X116967346Y-95232901D01*
X116959016Y-95221669D01*
X116951826Y-95209674D01*
X116945847Y-95197032D01*
X116941136Y-95183866D01*
X116937738Y-95170300D01*
X116935686Y-95156467D01*
X116935000Y-95142500D01*
X116935000Y-94857500D01*
X116935686Y-94843533D01*
X116937738Y-94829700D01*
X116941136Y-94816134D01*
X116945847Y-94802968D01*
X116951826Y-94790326D01*
X116959016Y-94778331D01*
X116967346Y-94767099D01*
X116976737Y-94756737D01*
X116987099Y-94747346D01*
X116998331Y-94739016D01*
X117010326Y-94731826D01*
X117022968Y-94725847D01*
X117036134Y-94721136D01*
X117049700Y-94717738D01*
X117063533Y-94715686D01*
X117077500Y-94715000D01*
X117422500Y-94715000D01*
X117436467Y-94715686D01*
X117436467Y-94715686D01*
G37*
D11*
X117250000Y-95000000D03*
D10*
G36*
X119186467Y-94715686D02*
X119200300Y-94717738D01*
X119213866Y-94721136D01*
X119227032Y-94725847D01*
X119239674Y-94731826D01*
X119251669Y-94739016D01*
X119262901Y-94747346D01*
X119273263Y-94756737D01*
X119282654Y-94767099D01*
X119290984Y-94778331D01*
X119298174Y-94790326D01*
X119304153Y-94802968D01*
X119308864Y-94816134D01*
X119312262Y-94829700D01*
X119314314Y-94843533D01*
X119315000Y-94857500D01*
X119315000Y-95142500D01*
X119314314Y-95156467D01*
X119312262Y-95170300D01*
X119308864Y-95183866D01*
X119304153Y-95197032D01*
X119298174Y-95209674D01*
X119290984Y-95221669D01*
X119282654Y-95232901D01*
X119273263Y-95243263D01*
X119262901Y-95252654D01*
X119251669Y-95260984D01*
X119239674Y-95268174D01*
X119227032Y-95274153D01*
X119213866Y-95278864D01*
X119200300Y-95282262D01*
X119186467Y-95284314D01*
X119172500Y-95285000D01*
X118827500Y-95285000D01*
X118813533Y-95284314D01*
X118799700Y-95282262D01*
X118786134Y-95278864D01*
X118772968Y-95274153D01*
X118760326Y-95268174D01*
X118748331Y-95260984D01*
X118737099Y-95252654D01*
X118726737Y-95243263D01*
X118717346Y-95232901D01*
X118709016Y-95221669D01*
X118701826Y-95209674D01*
X118695847Y-95197032D01*
X118691136Y-95183866D01*
X118687738Y-95170300D01*
X118685686Y-95156467D01*
X118685000Y-95142500D01*
X118685000Y-94857500D01*
X118685686Y-94843533D01*
X118687738Y-94829700D01*
X118691136Y-94816134D01*
X118695847Y-94802968D01*
X118701826Y-94790326D01*
X118709016Y-94778331D01*
X118717346Y-94767099D01*
X118726737Y-94756737D01*
X118737099Y-94747346D01*
X118748331Y-94739016D01*
X118760326Y-94731826D01*
X118772968Y-94725847D01*
X118786134Y-94721136D01*
X118799700Y-94717738D01*
X118813533Y-94715686D01*
X118827500Y-94715000D01*
X119172500Y-94715000D01*
X119186467Y-94715686D01*
X119186467Y-94715686D01*
G37*
D11*
X119000000Y-95000000D03*
G04 #@! TD*
D10*
G04 #@! TO.C,R1*
G36*
X48317203Y-132475722D02*
X48331764Y-132477882D01*
X48346043Y-132481459D01*
X48359903Y-132486418D01*
X48373210Y-132492712D01*
X48385836Y-132500280D01*
X48397659Y-132509048D01*
X48408566Y-132518934D01*
X48418452Y-132529841D01*
X48427220Y-132541664D01*
X48434788Y-132554290D01*
X48441082Y-132567597D01*
X48446041Y-132581457D01*
X48449618Y-132595736D01*
X48451778Y-132610297D01*
X48452500Y-132625000D01*
X48452500Y-133375000D01*
X48451778Y-133389703D01*
X48449618Y-133404264D01*
X48446041Y-133418543D01*
X48441082Y-133432403D01*
X48434788Y-133445710D01*
X48427220Y-133458336D01*
X48418452Y-133470159D01*
X48408566Y-133481066D01*
X48397659Y-133490952D01*
X48385836Y-133499720D01*
X48373210Y-133507288D01*
X48359903Y-133513582D01*
X48346043Y-133518541D01*
X48331764Y-133522118D01*
X48317203Y-133524278D01*
X48302500Y-133525000D01*
X47747500Y-133525000D01*
X47732797Y-133524278D01*
X47718236Y-133522118D01*
X47703957Y-133518541D01*
X47690097Y-133513582D01*
X47676790Y-133507288D01*
X47664164Y-133499720D01*
X47652341Y-133490952D01*
X47641434Y-133481066D01*
X47631548Y-133470159D01*
X47622780Y-133458336D01*
X47615212Y-133445710D01*
X47608918Y-133432403D01*
X47603959Y-133418543D01*
X47600382Y-133404264D01*
X47598222Y-133389703D01*
X47597500Y-133375000D01*
X47597500Y-132625000D01*
X47598222Y-132610297D01*
X47600382Y-132595736D01*
X47603959Y-132581457D01*
X47608918Y-132567597D01*
X47615212Y-132554290D01*
X47622780Y-132541664D01*
X47631548Y-132529841D01*
X47641434Y-132518934D01*
X47652341Y-132509048D01*
X47664164Y-132500280D01*
X47676790Y-132492712D01*
X47690097Y-132486418D01*
X47703957Y-132481459D01*
X47718236Y-132477882D01*
X47732797Y-132475722D01*
X47747500Y-132475000D01*
X48302500Y-132475000D01*
X48317203Y-132475722D01*
X48317203Y-132475722D01*
G37*
D12*
X48025000Y-133000000D03*
D10*
G36*
X51292203Y-132475722D02*
X51306764Y-132477882D01*
X51321043Y-132481459D01*
X51334903Y-132486418D01*
X51348210Y-132492712D01*
X51360836Y-132500280D01*
X51372659Y-132509048D01*
X51383566Y-132518934D01*
X51393452Y-132529841D01*
X51402220Y-132541664D01*
X51409788Y-132554290D01*
X51416082Y-132567597D01*
X51421041Y-132581457D01*
X51424618Y-132595736D01*
X51426778Y-132610297D01*
X51427500Y-132625000D01*
X51427500Y-133375000D01*
X51426778Y-133389703D01*
X51424618Y-133404264D01*
X51421041Y-133418543D01*
X51416082Y-133432403D01*
X51409788Y-133445710D01*
X51402220Y-133458336D01*
X51393452Y-133470159D01*
X51383566Y-133481066D01*
X51372659Y-133490952D01*
X51360836Y-133499720D01*
X51348210Y-133507288D01*
X51334903Y-133513582D01*
X51321043Y-133518541D01*
X51306764Y-133522118D01*
X51292203Y-133524278D01*
X51277500Y-133525000D01*
X50722500Y-133525000D01*
X50707797Y-133524278D01*
X50693236Y-133522118D01*
X50678957Y-133518541D01*
X50665097Y-133513582D01*
X50651790Y-133507288D01*
X50639164Y-133499720D01*
X50627341Y-133490952D01*
X50616434Y-133481066D01*
X50606548Y-133470159D01*
X50597780Y-133458336D01*
X50590212Y-133445710D01*
X50583918Y-133432403D01*
X50578959Y-133418543D01*
X50575382Y-133404264D01*
X50573222Y-133389703D01*
X50572500Y-133375000D01*
X50572500Y-132625000D01*
X50573222Y-132610297D01*
X50575382Y-132595736D01*
X50578959Y-132581457D01*
X50583918Y-132567597D01*
X50590212Y-132554290D01*
X50597780Y-132541664D01*
X50606548Y-132529841D01*
X50616434Y-132518934D01*
X50627341Y-132509048D01*
X50639164Y-132500280D01*
X50651790Y-132492712D01*
X50665097Y-132486418D01*
X50678957Y-132481459D01*
X50693236Y-132477882D01*
X50707797Y-132475722D01*
X50722500Y-132475000D01*
X51277500Y-132475000D01*
X51292203Y-132475722D01*
X51292203Y-132475722D01*
G37*
D12*
X51000000Y-133000000D03*
G04 #@! TD*
D10*
G04 #@! TO.C,R2*
G36*
X61292203Y-132475722D02*
X61306764Y-132477882D01*
X61321043Y-132481459D01*
X61334903Y-132486418D01*
X61348210Y-132492712D01*
X61360836Y-132500280D01*
X61372659Y-132509048D01*
X61383566Y-132518934D01*
X61393452Y-132529841D01*
X61402220Y-132541664D01*
X61409788Y-132554290D01*
X61416082Y-132567597D01*
X61421041Y-132581457D01*
X61424618Y-132595736D01*
X61426778Y-132610297D01*
X61427500Y-132625000D01*
X61427500Y-133375000D01*
X61426778Y-133389703D01*
X61424618Y-133404264D01*
X61421041Y-133418543D01*
X61416082Y-133432403D01*
X61409788Y-133445710D01*
X61402220Y-133458336D01*
X61393452Y-133470159D01*
X61383566Y-133481066D01*
X61372659Y-133490952D01*
X61360836Y-133499720D01*
X61348210Y-133507288D01*
X61334903Y-133513582D01*
X61321043Y-133518541D01*
X61306764Y-133522118D01*
X61292203Y-133524278D01*
X61277500Y-133525000D01*
X60722500Y-133525000D01*
X60707797Y-133524278D01*
X60693236Y-133522118D01*
X60678957Y-133518541D01*
X60665097Y-133513582D01*
X60651790Y-133507288D01*
X60639164Y-133499720D01*
X60627341Y-133490952D01*
X60616434Y-133481066D01*
X60606548Y-133470159D01*
X60597780Y-133458336D01*
X60590212Y-133445710D01*
X60583918Y-133432403D01*
X60578959Y-133418543D01*
X60575382Y-133404264D01*
X60573222Y-133389703D01*
X60572500Y-133375000D01*
X60572500Y-132625000D01*
X60573222Y-132610297D01*
X60575382Y-132595736D01*
X60578959Y-132581457D01*
X60583918Y-132567597D01*
X60590212Y-132554290D01*
X60597780Y-132541664D01*
X60606548Y-132529841D01*
X60616434Y-132518934D01*
X60627341Y-132509048D01*
X60639164Y-132500280D01*
X60651790Y-132492712D01*
X60665097Y-132486418D01*
X60678957Y-132481459D01*
X60693236Y-132477882D01*
X60707797Y-132475722D01*
X60722500Y-132475000D01*
X61277500Y-132475000D01*
X61292203Y-132475722D01*
X61292203Y-132475722D01*
G37*
D12*
X61000000Y-133000000D03*
D10*
G36*
X58317203Y-132475722D02*
X58331764Y-132477882D01*
X58346043Y-132481459D01*
X58359903Y-132486418D01*
X58373210Y-132492712D01*
X58385836Y-132500280D01*
X58397659Y-132509048D01*
X58408566Y-132518934D01*
X58418452Y-132529841D01*
X58427220Y-132541664D01*
X58434788Y-132554290D01*
X58441082Y-132567597D01*
X58446041Y-132581457D01*
X58449618Y-132595736D01*
X58451778Y-132610297D01*
X58452500Y-132625000D01*
X58452500Y-133375000D01*
X58451778Y-133389703D01*
X58449618Y-133404264D01*
X58446041Y-133418543D01*
X58441082Y-133432403D01*
X58434788Y-133445710D01*
X58427220Y-133458336D01*
X58418452Y-133470159D01*
X58408566Y-133481066D01*
X58397659Y-133490952D01*
X58385836Y-133499720D01*
X58373210Y-133507288D01*
X58359903Y-133513582D01*
X58346043Y-133518541D01*
X58331764Y-133522118D01*
X58317203Y-133524278D01*
X58302500Y-133525000D01*
X57747500Y-133525000D01*
X57732797Y-133524278D01*
X57718236Y-133522118D01*
X57703957Y-133518541D01*
X57690097Y-133513582D01*
X57676790Y-133507288D01*
X57664164Y-133499720D01*
X57652341Y-133490952D01*
X57641434Y-133481066D01*
X57631548Y-133470159D01*
X57622780Y-133458336D01*
X57615212Y-133445710D01*
X57608918Y-133432403D01*
X57603959Y-133418543D01*
X57600382Y-133404264D01*
X57598222Y-133389703D01*
X57597500Y-133375000D01*
X57597500Y-132625000D01*
X57598222Y-132610297D01*
X57600382Y-132595736D01*
X57603959Y-132581457D01*
X57608918Y-132567597D01*
X57615212Y-132554290D01*
X57622780Y-132541664D01*
X57631548Y-132529841D01*
X57641434Y-132518934D01*
X57652341Y-132509048D01*
X57664164Y-132500280D01*
X57676790Y-132492712D01*
X57690097Y-132486418D01*
X57703957Y-132481459D01*
X57718236Y-132477882D01*
X57732797Y-132475722D01*
X57747500Y-132475000D01*
X58302500Y-132475000D01*
X58317203Y-132475722D01*
X58317203Y-132475722D01*
G37*
D12*
X58025000Y-133000000D03*
G04 #@! TD*
D10*
G04 #@! TO.C,R3*
G36*
X70317203Y-132475722D02*
X70331764Y-132477882D01*
X70346043Y-132481459D01*
X70359903Y-132486418D01*
X70373210Y-132492712D01*
X70385836Y-132500280D01*
X70397659Y-132509048D01*
X70408566Y-132518934D01*
X70418452Y-132529841D01*
X70427220Y-132541664D01*
X70434788Y-132554290D01*
X70441082Y-132567597D01*
X70446041Y-132581457D01*
X70449618Y-132595736D01*
X70451778Y-132610297D01*
X70452500Y-132625000D01*
X70452500Y-133375000D01*
X70451778Y-133389703D01*
X70449618Y-133404264D01*
X70446041Y-133418543D01*
X70441082Y-133432403D01*
X70434788Y-133445710D01*
X70427220Y-133458336D01*
X70418452Y-133470159D01*
X70408566Y-133481066D01*
X70397659Y-133490952D01*
X70385836Y-133499720D01*
X70373210Y-133507288D01*
X70359903Y-133513582D01*
X70346043Y-133518541D01*
X70331764Y-133522118D01*
X70317203Y-133524278D01*
X70302500Y-133525000D01*
X69747500Y-133525000D01*
X69732797Y-133524278D01*
X69718236Y-133522118D01*
X69703957Y-133518541D01*
X69690097Y-133513582D01*
X69676790Y-133507288D01*
X69664164Y-133499720D01*
X69652341Y-133490952D01*
X69641434Y-133481066D01*
X69631548Y-133470159D01*
X69622780Y-133458336D01*
X69615212Y-133445710D01*
X69608918Y-133432403D01*
X69603959Y-133418543D01*
X69600382Y-133404264D01*
X69598222Y-133389703D01*
X69597500Y-133375000D01*
X69597500Y-132625000D01*
X69598222Y-132610297D01*
X69600382Y-132595736D01*
X69603959Y-132581457D01*
X69608918Y-132567597D01*
X69615212Y-132554290D01*
X69622780Y-132541664D01*
X69631548Y-132529841D01*
X69641434Y-132518934D01*
X69652341Y-132509048D01*
X69664164Y-132500280D01*
X69676790Y-132492712D01*
X69690097Y-132486418D01*
X69703957Y-132481459D01*
X69718236Y-132477882D01*
X69732797Y-132475722D01*
X69747500Y-132475000D01*
X70302500Y-132475000D01*
X70317203Y-132475722D01*
X70317203Y-132475722D01*
G37*
D12*
X70025000Y-133000000D03*
D10*
G36*
X73292203Y-132475722D02*
X73306764Y-132477882D01*
X73321043Y-132481459D01*
X73334903Y-132486418D01*
X73348210Y-132492712D01*
X73360836Y-132500280D01*
X73372659Y-132509048D01*
X73383566Y-132518934D01*
X73393452Y-132529841D01*
X73402220Y-132541664D01*
X73409788Y-132554290D01*
X73416082Y-132567597D01*
X73421041Y-132581457D01*
X73424618Y-132595736D01*
X73426778Y-132610297D01*
X73427500Y-132625000D01*
X73427500Y-133375000D01*
X73426778Y-133389703D01*
X73424618Y-133404264D01*
X73421041Y-133418543D01*
X73416082Y-133432403D01*
X73409788Y-133445710D01*
X73402220Y-133458336D01*
X73393452Y-133470159D01*
X73383566Y-133481066D01*
X73372659Y-133490952D01*
X73360836Y-133499720D01*
X73348210Y-133507288D01*
X73334903Y-133513582D01*
X73321043Y-133518541D01*
X73306764Y-133522118D01*
X73292203Y-133524278D01*
X73277500Y-133525000D01*
X72722500Y-133525000D01*
X72707797Y-133524278D01*
X72693236Y-133522118D01*
X72678957Y-133518541D01*
X72665097Y-133513582D01*
X72651790Y-133507288D01*
X72639164Y-133499720D01*
X72627341Y-133490952D01*
X72616434Y-133481066D01*
X72606548Y-133470159D01*
X72597780Y-133458336D01*
X72590212Y-133445710D01*
X72583918Y-133432403D01*
X72578959Y-133418543D01*
X72575382Y-133404264D01*
X72573222Y-133389703D01*
X72572500Y-133375000D01*
X72572500Y-132625000D01*
X72573222Y-132610297D01*
X72575382Y-132595736D01*
X72578959Y-132581457D01*
X72583918Y-132567597D01*
X72590212Y-132554290D01*
X72597780Y-132541664D01*
X72606548Y-132529841D01*
X72616434Y-132518934D01*
X72627341Y-132509048D01*
X72639164Y-132500280D01*
X72651790Y-132492712D01*
X72665097Y-132486418D01*
X72678957Y-132481459D01*
X72693236Y-132477882D01*
X72707797Y-132475722D01*
X72722500Y-132475000D01*
X73277500Y-132475000D01*
X73292203Y-132475722D01*
X73292203Y-132475722D01*
G37*
D12*
X73000000Y-133000000D03*
G04 #@! TD*
D10*
G04 #@! TO.C,R4*
G36*
X83267203Y-132475722D02*
X83281764Y-132477882D01*
X83296043Y-132481459D01*
X83309903Y-132486418D01*
X83323210Y-132492712D01*
X83335836Y-132500280D01*
X83347659Y-132509048D01*
X83358566Y-132518934D01*
X83368452Y-132529841D01*
X83377220Y-132541664D01*
X83384788Y-132554290D01*
X83391082Y-132567597D01*
X83396041Y-132581457D01*
X83399618Y-132595736D01*
X83401778Y-132610297D01*
X83402500Y-132625000D01*
X83402500Y-133375000D01*
X83401778Y-133389703D01*
X83399618Y-133404264D01*
X83396041Y-133418543D01*
X83391082Y-133432403D01*
X83384788Y-133445710D01*
X83377220Y-133458336D01*
X83368452Y-133470159D01*
X83358566Y-133481066D01*
X83347659Y-133490952D01*
X83335836Y-133499720D01*
X83323210Y-133507288D01*
X83309903Y-133513582D01*
X83296043Y-133518541D01*
X83281764Y-133522118D01*
X83267203Y-133524278D01*
X83252500Y-133525000D01*
X82697500Y-133525000D01*
X82682797Y-133524278D01*
X82668236Y-133522118D01*
X82653957Y-133518541D01*
X82640097Y-133513582D01*
X82626790Y-133507288D01*
X82614164Y-133499720D01*
X82602341Y-133490952D01*
X82591434Y-133481066D01*
X82581548Y-133470159D01*
X82572780Y-133458336D01*
X82565212Y-133445710D01*
X82558918Y-133432403D01*
X82553959Y-133418543D01*
X82550382Y-133404264D01*
X82548222Y-133389703D01*
X82547500Y-133375000D01*
X82547500Y-132625000D01*
X82548222Y-132610297D01*
X82550382Y-132595736D01*
X82553959Y-132581457D01*
X82558918Y-132567597D01*
X82565212Y-132554290D01*
X82572780Y-132541664D01*
X82581548Y-132529841D01*
X82591434Y-132518934D01*
X82602341Y-132509048D01*
X82614164Y-132500280D01*
X82626790Y-132492712D01*
X82640097Y-132486418D01*
X82653957Y-132481459D01*
X82668236Y-132477882D01*
X82682797Y-132475722D01*
X82697500Y-132475000D01*
X83252500Y-132475000D01*
X83267203Y-132475722D01*
X83267203Y-132475722D01*
G37*
D12*
X82975000Y-133000000D03*
D10*
G36*
X80292203Y-132475722D02*
X80306764Y-132477882D01*
X80321043Y-132481459D01*
X80334903Y-132486418D01*
X80348210Y-132492712D01*
X80360836Y-132500280D01*
X80372659Y-132509048D01*
X80383566Y-132518934D01*
X80393452Y-132529841D01*
X80402220Y-132541664D01*
X80409788Y-132554290D01*
X80416082Y-132567597D01*
X80421041Y-132581457D01*
X80424618Y-132595736D01*
X80426778Y-132610297D01*
X80427500Y-132625000D01*
X80427500Y-133375000D01*
X80426778Y-133389703D01*
X80424618Y-133404264D01*
X80421041Y-133418543D01*
X80416082Y-133432403D01*
X80409788Y-133445710D01*
X80402220Y-133458336D01*
X80393452Y-133470159D01*
X80383566Y-133481066D01*
X80372659Y-133490952D01*
X80360836Y-133499720D01*
X80348210Y-133507288D01*
X80334903Y-133513582D01*
X80321043Y-133518541D01*
X80306764Y-133522118D01*
X80292203Y-133524278D01*
X80277500Y-133525000D01*
X79722500Y-133525000D01*
X79707797Y-133524278D01*
X79693236Y-133522118D01*
X79678957Y-133518541D01*
X79665097Y-133513582D01*
X79651790Y-133507288D01*
X79639164Y-133499720D01*
X79627341Y-133490952D01*
X79616434Y-133481066D01*
X79606548Y-133470159D01*
X79597780Y-133458336D01*
X79590212Y-133445710D01*
X79583918Y-133432403D01*
X79578959Y-133418543D01*
X79575382Y-133404264D01*
X79573222Y-133389703D01*
X79572500Y-133375000D01*
X79572500Y-132625000D01*
X79573222Y-132610297D01*
X79575382Y-132595736D01*
X79578959Y-132581457D01*
X79583918Y-132567597D01*
X79590212Y-132554290D01*
X79597780Y-132541664D01*
X79606548Y-132529841D01*
X79616434Y-132518934D01*
X79627341Y-132509048D01*
X79639164Y-132500280D01*
X79651790Y-132492712D01*
X79665097Y-132486418D01*
X79678957Y-132481459D01*
X79693236Y-132477882D01*
X79707797Y-132475722D01*
X79722500Y-132475000D01*
X80277500Y-132475000D01*
X80292203Y-132475722D01*
X80292203Y-132475722D01*
G37*
D12*
X80000000Y-133000000D03*
G04 #@! TD*
D10*
G04 #@! TO.C,R5*
G36*
X92317203Y-132475722D02*
X92331764Y-132477882D01*
X92346043Y-132481459D01*
X92359903Y-132486418D01*
X92373210Y-132492712D01*
X92385836Y-132500280D01*
X92397659Y-132509048D01*
X92408566Y-132518934D01*
X92418452Y-132529841D01*
X92427220Y-132541664D01*
X92434788Y-132554290D01*
X92441082Y-132567597D01*
X92446041Y-132581457D01*
X92449618Y-132595736D01*
X92451778Y-132610297D01*
X92452500Y-132625000D01*
X92452500Y-133375000D01*
X92451778Y-133389703D01*
X92449618Y-133404264D01*
X92446041Y-133418543D01*
X92441082Y-133432403D01*
X92434788Y-133445710D01*
X92427220Y-133458336D01*
X92418452Y-133470159D01*
X92408566Y-133481066D01*
X92397659Y-133490952D01*
X92385836Y-133499720D01*
X92373210Y-133507288D01*
X92359903Y-133513582D01*
X92346043Y-133518541D01*
X92331764Y-133522118D01*
X92317203Y-133524278D01*
X92302500Y-133525000D01*
X91747500Y-133525000D01*
X91732797Y-133524278D01*
X91718236Y-133522118D01*
X91703957Y-133518541D01*
X91690097Y-133513582D01*
X91676790Y-133507288D01*
X91664164Y-133499720D01*
X91652341Y-133490952D01*
X91641434Y-133481066D01*
X91631548Y-133470159D01*
X91622780Y-133458336D01*
X91615212Y-133445710D01*
X91608918Y-133432403D01*
X91603959Y-133418543D01*
X91600382Y-133404264D01*
X91598222Y-133389703D01*
X91597500Y-133375000D01*
X91597500Y-132625000D01*
X91598222Y-132610297D01*
X91600382Y-132595736D01*
X91603959Y-132581457D01*
X91608918Y-132567597D01*
X91615212Y-132554290D01*
X91622780Y-132541664D01*
X91631548Y-132529841D01*
X91641434Y-132518934D01*
X91652341Y-132509048D01*
X91664164Y-132500280D01*
X91676790Y-132492712D01*
X91690097Y-132486418D01*
X91703957Y-132481459D01*
X91718236Y-132477882D01*
X91732797Y-132475722D01*
X91747500Y-132475000D01*
X92302500Y-132475000D01*
X92317203Y-132475722D01*
X92317203Y-132475722D01*
G37*
D12*
X92025000Y-133000000D03*
D10*
G36*
X95292203Y-132475722D02*
X95306764Y-132477882D01*
X95321043Y-132481459D01*
X95334903Y-132486418D01*
X95348210Y-132492712D01*
X95360836Y-132500280D01*
X95372659Y-132509048D01*
X95383566Y-132518934D01*
X95393452Y-132529841D01*
X95402220Y-132541664D01*
X95409788Y-132554290D01*
X95416082Y-132567597D01*
X95421041Y-132581457D01*
X95424618Y-132595736D01*
X95426778Y-132610297D01*
X95427500Y-132625000D01*
X95427500Y-133375000D01*
X95426778Y-133389703D01*
X95424618Y-133404264D01*
X95421041Y-133418543D01*
X95416082Y-133432403D01*
X95409788Y-133445710D01*
X95402220Y-133458336D01*
X95393452Y-133470159D01*
X95383566Y-133481066D01*
X95372659Y-133490952D01*
X95360836Y-133499720D01*
X95348210Y-133507288D01*
X95334903Y-133513582D01*
X95321043Y-133518541D01*
X95306764Y-133522118D01*
X95292203Y-133524278D01*
X95277500Y-133525000D01*
X94722500Y-133525000D01*
X94707797Y-133524278D01*
X94693236Y-133522118D01*
X94678957Y-133518541D01*
X94665097Y-133513582D01*
X94651790Y-133507288D01*
X94639164Y-133499720D01*
X94627341Y-133490952D01*
X94616434Y-133481066D01*
X94606548Y-133470159D01*
X94597780Y-133458336D01*
X94590212Y-133445710D01*
X94583918Y-133432403D01*
X94578959Y-133418543D01*
X94575382Y-133404264D01*
X94573222Y-133389703D01*
X94572500Y-133375000D01*
X94572500Y-132625000D01*
X94573222Y-132610297D01*
X94575382Y-132595736D01*
X94578959Y-132581457D01*
X94583918Y-132567597D01*
X94590212Y-132554290D01*
X94597780Y-132541664D01*
X94606548Y-132529841D01*
X94616434Y-132518934D01*
X94627341Y-132509048D01*
X94639164Y-132500280D01*
X94651790Y-132492712D01*
X94665097Y-132486418D01*
X94678957Y-132481459D01*
X94693236Y-132477882D01*
X94707797Y-132475722D01*
X94722500Y-132475000D01*
X95277500Y-132475000D01*
X95292203Y-132475722D01*
X95292203Y-132475722D01*
G37*
D12*
X95000000Y-133000000D03*
G04 #@! TD*
D10*
G04 #@! TO.C,R6*
G36*
X105292203Y-132475722D02*
X105306764Y-132477882D01*
X105321043Y-132481459D01*
X105334903Y-132486418D01*
X105348210Y-132492712D01*
X105360836Y-132500280D01*
X105372659Y-132509048D01*
X105383566Y-132518934D01*
X105393452Y-132529841D01*
X105402220Y-132541664D01*
X105409788Y-132554290D01*
X105416082Y-132567597D01*
X105421041Y-132581457D01*
X105424618Y-132595736D01*
X105426778Y-132610297D01*
X105427500Y-132625000D01*
X105427500Y-133375000D01*
X105426778Y-133389703D01*
X105424618Y-133404264D01*
X105421041Y-133418543D01*
X105416082Y-133432403D01*
X105409788Y-133445710D01*
X105402220Y-133458336D01*
X105393452Y-133470159D01*
X105383566Y-133481066D01*
X105372659Y-133490952D01*
X105360836Y-133499720D01*
X105348210Y-133507288D01*
X105334903Y-133513582D01*
X105321043Y-133518541D01*
X105306764Y-133522118D01*
X105292203Y-133524278D01*
X105277500Y-133525000D01*
X104722500Y-133525000D01*
X104707797Y-133524278D01*
X104693236Y-133522118D01*
X104678957Y-133518541D01*
X104665097Y-133513582D01*
X104651790Y-133507288D01*
X104639164Y-133499720D01*
X104627341Y-133490952D01*
X104616434Y-133481066D01*
X104606548Y-133470159D01*
X104597780Y-133458336D01*
X104590212Y-133445710D01*
X104583918Y-133432403D01*
X104578959Y-133418543D01*
X104575382Y-133404264D01*
X104573222Y-133389703D01*
X104572500Y-133375000D01*
X104572500Y-132625000D01*
X104573222Y-132610297D01*
X104575382Y-132595736D01*
X104578959Y-132581457D01*
X104583918Y-132567597D01*
X104590212Y-132554290D01*
X104597780Y-132541664D01*
X104606548Y-132529841D01*
X104616434Y-132518934D01*
X104627341Y-132509048D01*
X104639164Y-132500280D01*
X104651790Y-132492712D01*
X104665097Y-132486418D01*
X104678957Y-132481459D01*
X104693236Y-132477882D01*
X104707797Y-132475722D01*
X104722500Y-132475000D01*
X105277500Y-132475000D01*
X105292203Y-132475722D01*
X105292203Y-132475722D01*
G37*
D12*
X105000000Y-133000000D03*
D10*
G36*
X102317203Y-132475722D02*
X102331764Y-132477882D01*
X102346043Y-132481459D01*
X102359903Y-132486418D01*
X102373210Y-132492712D01*
X102385836Y-132500280D01*
X102397659Y-132509048D01*
X102408566Y-132518934D01*
X102418452Y-132529841D01*
X102427220Y-132541664D01*
X102434788Y-132554290D01*
X102441082Y-132567597D01*
X102446041Y-132581457D01*
X102449618Y-132595736D01*
X102451778Y-132610297D01*
X102452500Y-132625000D01*
X102452500Y-133375000D01*
X102451778Y-133389703D01*
X102449618Y-133404264D01*
X102446041Y-133418543D01*
X102441082Y-133432403D01*
X102434788Y-133445710D01*
X102427220Y-133458336D01*
X102418452Y-133470159D01*
X102408566Y-133481066D01*
X102397659Y-133490952D01*
X102385836Y-133499720D01*
X102373210Y-133507288D01*
X102359903Y-133513582D01*
X102346043Y-133518541D01*
X102331764Y-133522118D01*
X102317203Y-133524278D01*
X102302500Y-133525000D01*
X101747500Y-133525000D01*
X101732797Y-133524278D01*
X101718236Y-133522118D01*
X101703957Y-133518541D01*
X101690097Y-133513582D01*
X101676790Y-133507288D01*
X101664164Y-133499720D01*
X101652341Y-133490952D01*
X101641434Y-133481066D01*
X101631548Y-133470159D01*
X101622780Y-133458336D01*
X101615212Y-133445710D01*
X101608918Y-133432403D01*
X101603959Y-133418543D01*
X101600382Y-133404264D01*
X101598222Y-133389703D01*
X101597500Y-133375000D01*
X101597500Y-132625000D01*
X101598222Y-132610297D01*
X101600382Y-132595736D01*
X101603959Y-132581457D01*
X101608918Y-132567597D01*
X101615212Y-132554290D01*
X101622780Y-132541664D01*
X101631548Y-132529841D01*
X101641434Y-132518934D01*
X101652341Y-132509048D01*
X101664164Y-132500280D01*
X101676790Y-132492712D01*
X101690097Y-132486418D01*
X101703957Y-132481459D01*
X101718236Y-132477882D01*
X101732797Y-132475722D01*
X101747500Y-132475000D01*
X102302500Y-132475000D01*
X102317203Y-132475722D01*
X102317203Y-132475722D01*
G37*
D12*
X102025000Y-133000000D03*
G04 #@! TD*
D10*
G04 #@! TO.C,R7*
G36*
X114317203Y-132475722D02*
X114331764Y-132477882D01*
X114346043Y-132481459D01*
X114359903Y-132486418D01*
X114373210Y-132492712D01*
X114385836Y-132500280D01*
X114397659Y-132509048D01*
X114408566Y-132518934D01*
X114418452Y-132529841D01*
X114427220Y-132541664D01*
X114434788Y-132554290D01*
X114441082Y-132567597D01*
X114446041Y-132581457D01*
X114449618Y-132595736D01*
X114451778Y-132610297D01*
X114452500Y-132625000D01*
X114452500Y-133375000D01*
X114451778Y-133389703D01*
X114449618Y-133404264D01*
X114446041Y-133418543D01*
X114441082Y-133432403D01*
X114434788Y-133445710D01*
X114427220Y-133458336D01*
X114418452Y-133470159D01*
X114408566Y-133481066D01*
X114397659Y-133490952D01*
X114385836Y-133499720D01*
X114373210Y-133507288D01*
X114359903Y-133513582D01*
X114346043Y-133518541D01*
X114331764Y-133522118D01*
X114317203Y-133524278D01*
X114302500Y-133525000D01*
X113747500Y-133525000D01*
X113732797Y-133524278D01*
X113718236Y-133522118D01*
X113703957Y-133518541D01*
X113690097Y-133513582D01*
X113676790Y-133507288D01*
X113664164Y-133499720D01*
X113652341Y-133490952D01*
X113641434Y-133481066D01*
X113631548Y-133470159D01*
X113622780Y-133458336D01*
X113615212Y-133445710D01*
X113608918Y-133432403D01*
X113603959Y-133418543D01*
X113600382Y-133404264D01*
X113598222Y-133389703D01*
X113597500Y-133375000D01*
X113597500Y-132625000D01*
X113598222Y-132610297D01*
X113600382Y-132595736D01*
X113603959Y-132581457D01*
X113608918Y-132567597D01*
X113615212Y-132554290D01*
X113622780Y-132541664D01*
X113631548Y-132529841D01*
X113641434Y-132518934D01*
X113652341Y-132509048D01*
X113664164Y-132500280D01*
X113676790Y-132492712D01*
X113690097Y-132486418D01*
X113703957Y-132481459D01*
X113718236Y-132477882D01*
X113732797Y-132475722D01*
X113747500Y-132475000D01*
X114302500Y-132475000D01*
X114317203Y-132475722D01*
X114317203Y-132475722D01*
G37*
D12*
X114025000Y-133000000D03*
D10*
G36*
X117292203Y-132475722D02*
X117306764Y-132477882D01*
X117321043Y-132481459D01*
X117334903Y-132486418D01*
X117348210Y-132492712D01*
X117360836Y-132500280D01*
X117372659Y-132509048D01*
X117383566Y-132518934D01*
X117393452Y-132529841D01*
X117402220Y-132541664D01*
X117409788Y-132554290D01*
X117416082Y-132567597D01*
X117421041Y-132581457D01*
X117424618Y-132595736D01*
X117426778Y-132610297D01*
X117427500Y-132625000D01*
X117427500Y-133375000D01*
X117426778Y-133389703D01*
X117424618Y-133404264D01*
X117421041Y-133418543D01*
X117416082Y-133432403D01*
X117409788Y-133445710D01*
X117402220Y-133458336D01*
X117393452Y-133470159D01*
X117383566Y-133481066D01*
X117372659Y-133490952D01*
X117360836Y-133499720D01*
X117348210Y-133507288D01*
X117334903Y-133513582D01*
X117321043Y-133518541D01*
X117306764Y-133522118D01*
X117292203Y-133524278D01*
X117277500Y-133525000D01*
X116722500Y-133525000D01*
X116707797Y-133524278D01*
X116693236Y-133522118D01*
X116678957Y-133518541D01*
X116665097Y-133513582D01*
X116651790Y-133507288D01*
X116639164Y-133499720D01*
X116627341Y-133490952D01*
X116616434Y-133481066D01*
X116606548Y-133470159D01*
X116597780Y-133458336D01*
X116590212Y-133445710D01*
X116583918Y-133432403D01*
X116578959Y-133418543D01*
X116575382Y-133404264D01*
X116573222Y-133389703D01*
X116572500Y-133375000D01*
X116572500Y-132625000D01*
X116573222Y-132610297D01*
X116575382Y-132595736D01*
X116578959Y-132581457D01*
X116583918Y-132567597D01*
X116590212Y-132554290D01*
X116597780Y-132541664D01*
X116606548Y-132529841D01*
X116616434Y-132518934D01*
X116627341Y-132509048D01*
X116639164Y-132500280D01*
X116651790Y-132492712D01*
X116665097Y-132486418D01*
X116678957Y-132481459D01*
X116693236Y-132477882D01*
X116707797Y-132475722D01*
X116722500Y-132475000D01*
X117277500Y-132475000D01*
X117292203Y-132475722D01*
X117292203Y-132475722D01*
G37*
D12*
X117000000Y-133000000D03*
G04 #@! TD*
D10*
G04 #@! TO.C,R8*
G36*
X127267203Y-132475722D02*
X127281764Y-132477882D01*
X127296043Y-132481459D01*
X127309903Y-132486418D01*
X127323210Y-132492712D01*
X127335836Y-132500280D01*
X127347659Y-132509048D01*
X127358566Y-132518934D01*
X127368452Y-132529841D01*
X127377220Y-132541664D01*
X127384788Y-132554290D01*
X127391082Y-132567597D01*
X127396041Y-132581457D01*
X127399618Y-132595736D01*
X127401778Y-132610297D01*
X127402500Y-132625000D01*
X127402500Y-133375000D01*
X127401778Y-133389703D01*
X127399618Y-133404264D01*
X127396041Y-133418543D01*
X127391082Y-133432403D01*
X127384788Y-133445710D01*
X127377220Y-133458336D01*
X127368452Y-133470159D01*
X127358566Y-133481066D01*
X127347659Y-133490952D01*
X127335836Y-133499720D01*
X127323210Y-133507288D01*
X127309903Y-133513582D01*
X127296043Y-133518541D01*
X127281764Y-133522118D01*
X127267203Y-133524278D01*
X127252500Y-133525000D01*
X126697500Y-133525000D01*
X126682797Y-133524278D01*
X126668236Y-133522118D01*
X126653957Y-133518541D01*
X126640097Y-133513582D01*
X126626790Y-133507288D01*
X126614164Y-133499720D01*
X126602341Y-133490952D01*
X126591434Y-133481066D01*
X126581548Y-133470159D01*
X126572780Y-133458336D01*
X126565212Y-133445710D01*
X126558918Y-133432403D01*
X126553959Y-133418543D01*
X126550382Y-133404264D01*
X126548222Y-133389703D01*
X126547500Y-133375000D01*
X126547500Y-132625000D01*
X126548222Y-132610297D01*
X126550382Y-132595736D01*
X126553959Y-132581457D01*
X126558918Y-132567597D01*
X126565212Y-132554290D01*
X126572780Y-132541664D01*
X126581548Y-132529841D01*
X126591434Y-132518934D01*
X126602341Y-132509048D01*
X126614164Y-132500280D01*
X126626790Y-132492712D01*
X126640097Y-132486418D01*
X126653957Y-132481459D01*
X126668236Y-132477882D01*
X126682797Y-132475722D01*
X126697500Y-132475000D01*
X127252500Y-132475000D01*
X127267203Y-132475722D01*
X127267203Y-132475722D01*
G37*
D12*
X126975000Y-133000000D03*
D10*
G36*
X124292203Y-132475722D02*
X124306764Y-132477882D01*
X124321043Y-132481459D01*
X124334903Y-132486418D01*
X124348210Y-132492712D01*
X124360836Y-132500280D01*
X124372659Y-132509048D01*
X124383566Y-132518934D01*
X124393452Y-132529841D01*
X124402220Y-132541664D01*
X124409788Y-132554290D01*
X124416082Y-132567597D01*
X124421041Y-132581457D01*
X124424618Y-132595736D01*
X124426778Y-132610297D01*
X124427500Y-132625000D01*
X124427500Y-133375000D01*
X124426778Y-133389703D01*
X124424618Y-133404264D01*
X124421041Y-133418543D01*
X124416082Y-133432403D01*
X124409788Y-133445710D01*
X124402220Y-133458336D01*
X124393452Y-133470159D01*
X124383566Y-133481066D01*
X124372659Y-133490952D01*
X124360836Y-133499720D01*
X124348210Y-133507288D01*
X124334903Y-133513582D01*
X124321043Y-133518541D01*
X124306764Y-133522118D01*
X124292203Y-133524278D01*
X124277500Y-133525000D01*
X123722500Y-133525000D01*
X123707797Y-133524278D01*
X123693236Y-133522118D01*
X123678957Y-133518541D01*
X123665097Y-133513582D01*
X123651790Y-133507288D01*
X123639164Y-133499720D01*
X123627341Y-133490952D01*
X123616434Y-133481066D01*
X123606548Y-133470159D01*
X123597780Y-133458336D01*
X123590212Y-133445710D01*
X123583918Y-133432403D01*
X123578959Y-133418543D01*
X123575382Y-133404264D01*
X123573222Y-133389703D01*
X123572500Y-133375000D01*
X123572500Y-132625000D01*
X123573222Y-132610297D01*
X123575382Y-132595736D01*
X123578959Y-132581457D01*
X123583918Y-132567597D01*
X123590212Y-132554290D01*
X123597780Y-132541664D01*
X123606548Y-132529841D01*
X123616434Y-132518934D01*
X123627341Y-132509048D01*
X123639164Y-132500280D01*
X123651790Y-132492712D01*
X123665097Y-132486418D01*
X123678957Y-132481459D01*
X123693236Y-132477882D01*
X123707797Y-132475722D01*
X123722500Y-132475000D01*
X124277500Y-132475000D01*
X124292203Y-132475722D01*
X124292203Y-132475722D01*
G37*
D12*
X124000000Y-133000000D03*
G04 #@! TD*
D10*
G04 #@! TO.C,R9*
G36*
X58139703Y-79598222D02*
X58154264Y-79600382D01*
X58168543Y-79603959D01*
X58182403Y-79608918D01*
X58195710Y-79615212D01*
X58208336Y-79622780D01*
X58220159Y-79631548D01*
X58231066Y-79641434D01*
X58240952Y-79652341D01*
X58249720Y-79664164D01*
X58257288Y-79676790D01*
X58263582Y-79690097D01*
X58268541Y-79703957D01*
X58272118Y-79718236D01*
X58274278Y-79732797D01*
X58275000Y-79747500D01*
X58275000Y-80302500D01*
X58274278Y-80317203D01*
X58272118Y-80331764D01*
X58268541Y-80346043D01*
X58263582Y-80359903D01*
X58257288Y-80373210D01*
X58249720Y-80385836D01*
X58240952Y-80397659D01*
X58231066Y-80408566D01*
X58220159Y-80418452D01*
X58208336Y-80427220D01*
X58195710Y-80434788D01*
X58182403Y-80441082D01*
X58168543Y-80446041D01*
X58154264Y-80449618D01*
X58139703Y-80451778D01*
X58125000Y-80452500D01*
X57375000Y-80452500D01*
X57360297Y-80451778D01*
X57345736Y-80449618D01*
X57331457Y-80446041D01*
X57317597Y-80441082D01*
X57304290Y-80434788D01*
X57291664Y-80427220D01*
X57279841Y-80418452D01*
X57268934Y-80408566D01*
X57259048Y-80397659D01*
X57250280Y-80385836D01*
X57242712Y-80373210D01*
X57236418Y-80359903D01*
X57231459Y-80346043D01*
X57227882Y-80331764D01*
X57225722Y-80317203D01*
X57225000Y-80302500D01*
X57225000Y-79747500D01*
X57225722Y-79732797D01*
X57227882Y-79718236D01*
X57231459Y-79703957D01*
X57236418Y-79690097D01*
X57242712Y-79676790D01*
X57250280Y-79664164D01*
X57259048Y-79652341D01*
X57268934Y-79641434D01*
X57279841Y-79631548D01*
X57291664Y-79622780D01*
X57304290Y-79615212D01*
X57317597Y-79608918D01*
X57331457Y-79603959D01*
X57345736Y-79600382D01*
X57360297Y-79598222D01*
X57375000Y-79597500D01*
X58125000Y-79597500D01*
X58139703Y-79598222D01*
X58139703Y-79598222D01*
G37*
D12*
X57750000Y-80025000D03*
D10*
G36*
X58139703Y-82573222D02*
X58154264Y-82575382D01*
X58168543Y-82578959D01*
X58182403Y-82583918D01*
X58195710Y-82590212D01*
X58208336Y-82597780D01*
X58220159Y-82606548D01*
X58231066Y-82616434D01*
X58240952Y-82627341D01*
X58249720Y-82639164D01*
X58257288Y-82651790D01*
X58263582Y-82665097D01*
X58268541Y-82678957D01*
X58272118Y-82693236D01*
X58274278Y-82707797D01*
X58275000Y-82722500D01*
X58275000Y-83277500D01*
X58274278Y-83292203D01*
X58272118Y-83306764D01*
X58268541Y-83321043D01*
X58263582Y-83334903D01*
X58257288Y-83348210D01*
X58249720Y-83360836D01*
X58240952Y-83372659D01*
X58231066Y-83383566D01*
X58220159Y-83393452D01*
X58208336Y-83402220D01*
X58195710Y-83409788D01*
X58182403Y-83416082D01*
X58168543Y-83421041D01*
X58154264Y-83424618D01*
X58139703Y-83426778D01*
X58125000Y-83427500D01*
X57375000Y-83427500D01*
X57360297Y-83426778D01*
X57345736Y-83424618D01*
X57331457Y-83421041D01*
X57317597Y-83416082D01*
X57304290Y-83409788D01*
X57291664Y-83402220D01*
X57279841Y-83393452D01*
X57268934Y-83383566D01*
X57259048Y-83372659D01*
X57250280Y-83360836D01*
X57242712Y-83348210D01*
X57236418Y-83334903D01*
X57231459Y-83321043D01*
X57227882Y-83306764D01*
X57225722Y-83292203D01*
X57225000Y-83277500D01*
X57225000Y-82722500D01*
X57225722Y-82707797D01*
X57227882Y-82693236D01*
X57231459Y-82678957D01*
X57236418Y-82665097D01*
X57242712Y-82651790D01*
X57250280Y-82639164D01*
X57259048Y-82627341D01*
X57268934Y-82616434D01*
X57279841Y-82606548D01*
X57291664Y-82597780D01*
X57304290Y-82590212D01*
X57317597Y-82583918D01*
X57331457Y-82578959D01*
X57345736Y-82575382D01*
X57360297Y-82573222D01*
X57375000Y-82572500D01*
X58125000Y-82572500D01*
X58139703Y-82573222D01*
X58139703Y-82573222D01*
G37*
D12*
X57750000Y-83000000D03*
G04 #@! TD*
D10*
G04 #@! TO.C,R10*
G36*
X58139703Y-92548222D02*
X58154264Y-92550382D01*
X58168543Y-92553959D01*
X58182403Y-92558918D01*
X58195710Y-92565212D01*
X58208336Y-92572780D01*
X58220159Y-92581548D01*
X58231066Y-92591434D01*
X58240952Y-92602341D01*
X58249720Y-92614164D01*
X58257288Y-92626790D01*
X58263582Y-92640097D01*
X58268541Y-92653957D01*
X58272118Y-92668236D01*
X58274278Y-92682797D01*
X58275000Y-92697500D01*
X58275000Y-93252500D01*
X58274278Y-93267203D01*
X58272118Y-93281764D01*
X58268541Y-93296043D01*
X58263582Y-93309903D01*
X58257288Y-93323210D01*
X58249720Y-93335836D01*
X58240952Y-93347659D01*
X58231066Y-93358566D01*
X58220159Y-93368452D01*
X58208336Y-93377220D01*
X58195710Y-93384788D01*
X58182403Y-93391082D01*
X58168543Y-93396041D01*
X58154264Y-93399618D01*
X58139703Y-93401778D01*
X58125000Y-93402500D01*
X57375000Y-93402500D01*
X57360297Y-93401778D01*
X57345736Y-93399618D01*
X57331457Y-93396041D01*
X57317597Y-93391082D01*
X57304290Y-93384788D01*
X57291664Y-93377220D01*
X57279841Y-93368452D01*
X57268934Y-93358566D01*
X57259048Y-93347659D01*
X57250280Y-93335836D01*
X57242712Y-93323210D01*
X57236418Y-93309903D01*
X57231459Y-93296043D01*
X57227882Y-93281764D01*
X57225722Y-93267203D01*
X57225000Y-93252500D01*
X57225000Y-92697500D01*
X57225722Y-92682797D01*
X57227882Y-92668236D01*
X57231459Y-92653957D01*
X57236418Y-92640097D01*
X57242712Y-92626790D01*
X57250280Y-92614164D01*
X57259048Y-92602341D01*
X57268934Y-92591434D01*
X57279841Y-92581548D01*
X57291664Y-92572780D01*
X57304290Y-92565212D01*
X57317597Y-92558918D01*
X57331457Y-92553959D01*
X57345736Y-92550382D01*
X57360297Y-92548222D01*
X57375000Y-92547500D01*
X58125000Y-92547500D01*
X58139703Y-92548222D01*
X58139703Y-92548222D01*
G37*
D12*
X57750000Y-92975000D03*
D10*
G36*
X58139703Y-89573222D02*
X58154264Y-89575382D01*
X58168543Y-89578959D01*
X58182403Y-89583918D01*
X58195710Y-89590212D01*
X58208336Y-89597780D01*
X58220159Y-89606548D01*
X58231066Y-89616434D01*
X58240952Y-89627341D01*
X58249720Y-89639164D01*
X58257288Y-89651790D01*
X58263582Y-89665097D01*
X58268541Y-89678957D01*
X58272118Y-89693236D01*
X58274278Y-89707797D01*
X58275000Y-89722500D01*
X58275000Y-90277500D01*
X58274278Y-90292203D01*
X58272118Y-90306764D01*
X58268541Y-90321043D01*
X58263582Y-90334903D01*
X58257288Y-90348210D01*
X58249720Y-90360836D01*
X58240952Y-90372659D01*
X58231066Y-90383566D01*
X58220159Y-90393452D01*
X58208336Y-90402220D01*
X58195710Y-90409788D01*
X58182403Y-90416082D01*
X58168543Y-90421041D01*
X58154264Y-90424618D01*
X58139703Y-90426778D01*
X58125000Y-90427500D01*
X57375000Y-90427500D01*
X57360297Y-90426778D01*
X57345736Y-90424618D01*
X57331457Y-90421041D01*
X57317597Y-90416082D01*
X57304290Y-90409788D01*
X57291664Y-90402220D01*
X57279841Y-90393452D01*
X57268934Y-90383566D01*
X57259048Y-90372659D01*
X57250280Y-90360836D01*
X57242712Y-90348210D01*
X57236418Y-90334903D01*
X57231459Y-90321043D01*
X57227882Y-90306764D01*
X57225722Y-90292203D01*
X57225000Y-90277500D01*
X57225000Y-89722500D01*
X57225722Y-89707797D01*
X57227882Y-89693236D01*
X57231459Y-89678957D01*
X57236418Y-89665097D01*
X57242712Y-89651790D01*
X57250280Y-89639164D01*
X57259048Y-89627341D01*
X57268934Y-89616434D01*
X57279841Y-89606548D01*
X57291664Y-89597780D01*
X57304290Y-89590212D01*
X57317597Y-89583918D01*
X57331457Y-89578959D01*
X57345736Y-89575382D01*
X57360297Y-89573222D01*
X57375000Y-89572500D01*
X58125000Y-89572500D01*
X58139703Y-89573222D01*
X58139703Y-89573222D01*
G37*
D12*
X57750000Y-90000000D03*
G04 #@! TD*
D10*
G04 #@! TO.C,R11*
G36*
X58436467Y-116715686D02*
X58450300Y-116717738D01*
X58463866Y-116721136D01*
X58477032Y-116725847D01*
X58489674Y-116731826D01*
X58501669Y-116739016D01*
X58512901Y-116747346D01*
X58523263Y-116756737D01*
X58532654Y-116767099D01*
X58540984Y-116778331D01*
X58548174Y-116790326D01*
X58554153Y-116802968D01*
X58558864Y-116816134D01*
X58562262Y-116829700D01*
X58564314Y-116843533D01*
X58565000Y-116857500D01*
X58565000Y-117142500D01*
X58564314Y-117156467D01*
X58562262Y-117170300D01*
X58558864Y-117183866D01*
X58554153Y-117197032D01*
X58548174Y-117209674D01*
X58540984Y-117221669D01*
X58532654Y-117232901D01*
X58523263Y-117243263D01*
X58512901Y-117252654D01*
X58501669Y-117260984D01*
X58489674Y-117268174D01*
X58477032Y-117274153D01*
X58463866Y-117278864D01*
X58450300Y-117282262D01*
X58436467Y-117284314D01*
X58422500Y-117285000D01*
X58077500Y-117285000D01*
X58063533Y-117284314D01*
X58049700Y-117282262D01*
X58036134Y-117278864D01*
X58022968Y-117274153D01*
X58010326Y-117268174D01*
X57998331Y-117260984D01*
X57987099Y-117252654D01*
X57976737Y-117243263D01*
X57967346Y-117232901D01*
X57959016Y-117221669D01*
X57951826Y-117209674D01*
X57945847Y-117197032D01*
X57941136Y-117183866D01*
X57937738Y-117170300D01*
X57935686Y-117156467D01*
X57935000Y-117142500D01*
X57935000Y-116857500D01*
X57935686Y-116843533D01*
X57937738Y-116829700D01*
X57941136Y-116816134D01*
X57945847Y-116802968D01*
X57951826Y-116790326D01*
X57959016Y-116778331D01*
X57967346Y-116767099D01*
X57976737Y-116756737D01*
X57987099Y-116747346D01*
X57998331Y-116739016D01*
X58010326Y-116731826D01*
X58022968Y-116725847D01*
X58036134Y-116721136D01*
X58049700Y-116717738D01*
X58063533Y-116715686D01*
X58077500Y-116715000D01*
X58422500Y-116715000D01*
X58436467Y-116715686D01*
X58436467Y-116715686D01*
G37*
D11*
X58250000Y-117000000D03*
D10*
G36*
X60186467Y-116715686D02*
X60200300Y-116717738D01*
X60213866Y-116721136D01*
X60227032Y-116725847D01*
X60239674Y-116731826D01*
X60251669Y-116739016D01*
X60262901Y-116747346D01*
X60273263Y-116756737D01*
X60282654Y-116767099D01*
X60290984Y-116778331D01*
X60298174Y-116790326D01*
X60304153Y-116802968D01*
X60308864Y-116816134D01*
X60312262Y-116829700D01*
X60314314Y-116843533D01*
X60315000Y-116857500D01*
X60315000Y-117142500D01*
X60314314Y-117156467D01*
X60312262Y-117170300D01*
X60308864Y-117183866D01*
X60304153Y-117197032D01*
X60298174Y-117209674D01*
X60290984Y-117221669D01*
X60282654Y-117232901D01*
X60273263Y-117243263D01*
X60262901Y-117252654D01*
X60251669Y-117260984D01*
X60239674Y-117268174D01*
X60227032Y-117274153D01*
X60213866Y-117278864D01*
X60200300Y-117282262D01*
X60186467Y-117284314D01*
X60172500Y-117285000D01*
X59827500Y-117285000D01*
X59813533Y-117284314D01*
X59799700Y-117282262D01*
X59786134Y-117278864D01*
X59772968Y-117274153D01*
X59760326Y-117268174D01*
X59748331Y-117260984D01*
X59737099Y-117252654D01*
X59726737Y-117243263D01*
X59717346Y-117232901D01*
X59709016Y-117221669D01*
X59701826Y-117209674D01*
X59695847Y-117197032D01*
X59691136Y-117183866D01*
X59687738Y-117170300D01*
X59685686Y-117156467D01*
X59685000Y-117142500D01*
X59685000Y-116857500D01*
X59685686Y-116843533D01*
X59687738Y-116829700D01*
X59691136Y-116816134D01*
X59695847Y-116802968D01*
X59701826Y-116790326D01*
X59709016Y-116778331D01*
X59717346Y-116767099D01*
X59726737Y-116756737D01*
X59737099Y-116747346D01*
X59748331Y-116739016D01*
X59760326Y-116731826D01*
X59772968Y-116725847D01*
X59786134Y-116721136D01*
X59799700Y-116717738D01*
X59813533Y-116715686D01*
X59827500Y-116715000D01*
X60172500Y-116715000D01*
X60186467Y-116715686D01*
X60186467Y-116715686D01*
G37*
D11*
X60000000Y-117000000D03*
G04 #@! TD*
D10*
G04 #@! TO.C,R12*
G36*
X63186467Y-116715686D02*
X63200300Y-116717738D01*
X63213866Y-116721136D01*
X63227032Y-116725847D01*
X63239674Y-116731826D01*
X63251669Y-116739016D01*
X63262901Y-116747346D01*
X63273263Y-116756737D01*
X63282654Y-116767099D01*
X63290984Y-116778331D01*
X63298174Y-116790326D01*
X63304153Y-116802968D01*
X63308864Y-116816134D01*
X63312262Y-116829700D01*
X63314314Y-116843533D01*
X63315000Y-116857500D01*
X63315000Y-117142500D01*
X63314314Y-117156467D01*
X63312262Y-117170300D01*
X63308864Y-117183866D01*
X63304153Y-117197032D01*
X63298174Y-117209674D01*
X63290984Y-117221669D01*
X63282654Y-117232901D01*
X63273263Y-117243263D01*
X63262901Y-117252654D01*
X63251669Y-117260984D01*
X63239674Y-117268174D01*
X63227032Y-117274153D01*
X63213866Y-117278864D01*
X63200300Y-117282262D01*
X63186467Y-117284314D01*
X63172500Y-117285000D01*
X62827500Y-117285000D01*
X62813533Y-117284314D01*
X62799700Y-117282262D01*
X62786134Y-117278864D01*
X62772968Y-117274153D01*
X62760326Y-117268174D01*
X62748331Y-117260984D01*
X62737099Y-117252654D01*
X62726737Y-117243263D01*
X62717346Y-117232901D01*
X62709016Y-117221669D01*
X62701826Y-117209674D01*
X62695847Y-117197032D01*
X62691136Y-117183866D01*
X62687738Y-117170300D01*
X62685686Y-117156467D01*
X62685000Y-117142500D01*
X62685000Y-116857500D01*
X62685686Y-116843533D01*
X62687738Y-116829700D01*
X62691136Y-116816134D01*
X62695847Y-116802968D01*
X62701826Y-116790326D01*
X62709016Y-116778331D01*
X62717346Y-116767099D01*
X62726737Y-116756737D01*
X62737099Y-116747346D01*
X62748331Y-116739016D01*
X62760326Y-116731826D01*
X62772968Y-116725847D01*
X62786134Y-116721136D01*
X62799700Y-116717738D01*
X62813533Y-116715686D01*
X62827500Y-116715000D01*
X63172500Y-116715000D01*
X63186467Y-116715686D01*
X63186467Y-116715686D01*
G37*
D11*
X63000000Y-117000000D03*
D10*
G36*
X64936467Y-116715686D02*
X64950300Y-116717738D01*
X64963866Y-116721136D01*
X64977032Y-116725847D01*
X64989674Y-116731826D01*
X65001669Y-116739016D01*
X65012901Y-116747346D01*
X65023263Y-116756737D01*
X65032654Y-116767099D01*
X65040984Y-116778331D01*
X65048174Y-116790326D01*
X65054153Y-116802968D01*
X65058864Y-116816134D01*
X65062262Y-116829700D01*
X65064314Y-116843533D01*
X65065000Y-116857500D01*
X65065000Y-117142500D01*
X65064314Y-117156467D01*
X65062262Y-117170300D01*
X65058864Y-117183866D01*
X65054153Y-117197032D01*
X65048174Y-117209674D01*
X65040984Y-117221669D01*
X65032654Y-117232901D01*
X65023263Y-117243263D01*
X65012901Y-117252654D01*
X65001669Y-117260984D01*
X64989674Y-117268174D01*
X64977032Y-117274153D01*
X64963866Y-117278864D01*
X64950300Y-117282262D01*
X64936467Y-117284314D01*
X64922500Y-117285000D01*
X64577500Y-117285000D01*
X64563533Y-117284314D01*
X64549700Y-117282262D01*
X64536134Y-117278864D01*
X64522968Y-117274153D01*
X64510326Y-117268174D01*
X64498331Y-117260984D01*
X64487099Y-117252654D01*
X64476737Y-117243263D01*
X64467346Y-117232901D01*
X64459016Y-117221669D01*
X64451826Y-117209674D01*
X64445847Y-117197032D01*
X64441136Y-117183866D01*
X64437738Y-117170300D01*
X64435686Y-117156467D01*
X64435000Y-117142500D01*
X64435000Y-116857500D01*
X64435686Y-116843533D01*
X64437738Y-116829700D01*
X64441136Y-116816134D01*
X64445847Y-116802968D01*
X64451826Y-116790326D01*
X64459016Y-116778331D01*
X64467346Y-116767099D01*
X64476737Y-116756737D01*
X64487099Y-116747346D01*
X64498331Y-116739016D01*
X64510326Y-116731826D01*
X64522968Y-116725847D01*
X64536134Y-116721136D01*
X64549700Y-116717738D01*
X64563533Y-116715686D01*
X64577500Y-116715000D01*
X64922500Y-116715000D01*
X64936467Y-116715686D01*
X64936467Y-116715686D01*
G37*
D11*
X64750000Y-117000000D03*
G04 #@! TD*
D10*
G04 #@! TO.C,R13*
G36*
X69436467Y-116715686D02*
X69450300Y-116717738D01*
X69463866Y-116721136D01*
X69477032Y-116725847D01*
X69489674Y-116731826D01*
X69501669Y-116739016D01*
X69512901Y-116747346D01*
X69523263Y-116756737D01*
X69532654Y-116767099D01*
X69540984Y-116778331D01*
X69548174Y-116790326D01*
X69554153Y-116802968D01*
X69558864Y-116816134D01*
X69562262Y-116829700D01*
X69564314Y-116843533D01*
X69565000Y-116857500D01*
X69565000Y-117142500D01*
X69564314Y-117156467D01*
X69562262Y-117170300D01*
X69558864Y-117183866D01*
X69554153Y-117197032D01*
X69548174Y-117209674D01*
X69540984Y-117221669D01*
X69532654Y-117232901D01*
X69523263Y-117243263D01*
X69512901Y-117252654D01*
X69501669Y-117260984D01*
X69489674Y-117268174D01*
X69477032Y-117274153D01*
X69463866Y-117278864D01*
X69450300Y-117282262D01*
X69436467Y-117284314D01*
X69422500Y-117285000D01*
X69077500Y-117285000D01*
X69063533Y-117284314D01*
X69049700Y-117282262D01*
X69036134Y-117278864D01*
X69022968Y-117274153D01*
X69010326Y-117268174D01*
X68998331Y-117260984D01*
X68987099Y-117252654D01*
X68976737Y-117243263D01*
X68967346Y-117232901D01*
X68959016Y-117221669D01*
X68951826Y-117209674D01*
X68945847Y-117197032D01*
X68941136Y-117183866D01*
X68937738Y-117170300D01*
X68935686Y-117156467D01*
X68935000Y-117142500D01*
X68935000Y-116857500D01*
X68935686Y-116843533D01*
X68937738Y-116829700D01*
X68941136Y-116816134D01*
X68945847Y-116802968D01*
X68951826Y-116790326D01*
X68959016Y-116778331D01*
X68967346Y-116767099D01*
X68976737Y-116756737D01*
X68987099Y-116747346D01*
X68998331Y-116739016D01*
X69010326Y-116731826D01*
X69022968Y-116725847D01*
X69036134Y-116721136D01*
X69049700Y-116717738D01*
X69063533Y-116715686D01*
X69077500Y-116715000D01*
X69422500Y-116715000D01*
X69436467Y-116715686D01*
X69436467Y-116715686D01*
G37*
D11*
X69250000Y-117000000D03*
D10*
G36*
X71186467Y-116715686D02*
X71200300Y-116717738D01*
X71213866Y-116721136D01*
X71227032Y-116725847D01*
X71239674Y-116731826D01*
X71251669Y-116739016D01*
X71262901Y-116747346D01*
X71273263Y-116756737D01*
X71282654Y-116767099D01*
X71290984Y-116778331D01*
X71298174Y-116790326D01*
X71304153Y-116802968D01*
X71308864Y-116816134D01*
X71312262Y-116829700D01*
X71314314Y-116843533D01*
X71315000Y-116857500D01*
X71315000Y-117142500D01*
X71314314Y-117156467D01*
X71312262Y-117170300D01*
X71308864Y-117183866D01*
X71304153Y-117197032D01*
X71298174Y-117209674D01*
X71290984Y-117221669D01*
X71282654Y-117232901D01*
X71273263Y-117243263D01*
X71262901Y-117252654D01*
X71251669Y-117260984D01*
X71239674Y-117268174D01*
X71227032Y-117274153D01*
X71213866Y-117278864D01*
X71200300Y-117282262D01*
X71186467Y-117284314D01*
X71172500Y-117285000D01*
X70827500Y-117285000D01*
X70813533Y-117284314D01*
X70799700Y-117282262D01*
X70786134Y-117278864D01*
X70772968Y-117274153D01*
X70760326Y-117268174D01*
X70748331Y-117260984D01*
X70737099Y-117252654D01*
X70726737Y-117243263D01*
X70717346Y-117232901D01*
X70709016Y-117221669D01*
X70701826Y-117209674D01*
X70695847Y-117197032D01*
X70691136Y-117183866D01*
X70687738Y-117170300D01*
X70685686Y-117156467D01*
X70685000Y-117142500D01*
X70685000Y-116857500D01*
X70685686Y-116843533D01*
X70687738Y-116829700D01*
X70691136Y-116816134D01*
X70695847Y-116802968D01*
X70701826Y-116790326D01*
X70709016Y-116778331D01*
X70717346Y-116767099D01*
X70726737Y-116756737D01*
X70737099Y-116747346D01*
X70748331Y-116739016D01*
X70760326Y-116731826D01*
X70772968Y-116725847D01*
X70786134Y-116721136D01*
X70799700Y-116717738D01*
X70813533Y-116715686D01*
X70827500Y-116715000D01*
X71172500Y-116715000D01*
X71186467Y-116715686D01*
X71186467Y-116715686D01*
G37*
D11*
X71000000Y-117000000D03*
G04 #@! TD*
D10*
G04 #@! TO.C,R14*
G36*
X76061467Y-116715686D02*
X76075300Y-116717738D01*
X76088866Y-116721136D01*
X76102032Y-116725847D01*
X76114674Y-116731826D01*
X76126669Y-116739016D01*
X76137901Y-116747346D01*
X76148263Y-116756737D01*
X76157654Y-116767099D01*
X76165984Y-116778331D01*
X76173174Y-116790326D01*
X76179153Y-116802968D01*
X76183864Y-116816134D01*
X76187262Y-116829700D01*
X76189314Y-116843533D01*
X76190000Y-116857500D01*
X76190000Y-117142500D01*
X76189314Y-117156467D01*
X76187262Y-117170300D01*
X76183864Y-117183866D01*
X76179153Y-117197032D01*
X76173174Y-117209674D01*
X76165984Y-117221669D01*
X76157654Y-117232901D01*
X76148263Y-117243263D01*
X76137901Y-117252654D01*
X76126669Y-117260984D01*
X76114674Y-117268174D01*
X76102032Y-117274153D01*
X76088866Y-117278864D01*
X76075300Y-117282262D01*
X76061467Y-117284314D01*
X76047500Y-117285000D01*
X75702500Y-117285000D01*
X75688533Y-117284314D01*
X75674700Y-117282262D01*
X75661134Y-117278864D01*
X75647968Y-117274153D01*
X75635326Y-117268174D01*
X75623331Y-117260984D01*
X75612099Y-117252654D01*
X75601737Y-117243263D01*
X75592346Y-117232901D01*
X75584016Y-117221669D01*
X75576826Y-117209674D01*
X75570847Y-117197032D01*
X75566136Y-117183866D01*
X75562738Y-117170300D01*
X75560686Y-117156467D01*
X75560000Y-117142500D01*
X75560000Y-116857500D01*
X75560686Y-116843533D01*
X75562738Y-116829700D01*
X75566136Y-116816134D01*
X75570847Y-116802968D01*
X75576826Y-116790326D01*
X75584016Y-116778331D01*
X75592346Y-116767099D01*
X75601737Y-116756737D01*
X75612099Y-116747346D01*
X75623331Y-116739016D01*
X75635326Y-116731826D01*
X75647968Y-116725847D01*
X75661134Y-116721136D01*
X75674700Y-116717738D01*
X75688533Y-116715686D01*
X75702500Y-116715000D01*
X76047500Y-116715000D01*
X76061467Y-116715686D01*
X76061467Y-116715686D01*
G37*
D11*
X75875000Y-117000000D03*
D10*
G36*
X74311467Y-116715686D02*
X74325300Y-116717738D01*
X74338866Y-116721136D01*
X74352032Y-116725847D01*
X74364674Y-116731826D01*
X74376669Y-116739016D01*
X74387901Y-116747346D01*
X74398263Y-116756737D01*
X74407654Y-116767099D01*
X74415984Y-116778331D01*
X74423174Y-116790326D01*
X74429153Y-116802968D01*
X74433864Y-116816134D01*
X74437262Y-116829700D01*
X74439314Y-116843533D01*
X74440000Y-116857500D01*
X74440000Y-117142500D01*
X74439314Y-117156467D01*
X74437262Y-117170300D01*
X74433864Y-117183866D01*
X74429153Y-117197032D01*
X74423174Y-117209674D01*
X74415984Y-117221669D01*
X74407654Y-117232901D01*
X74398263Y-117243263D01*
X74387901Y-117252654D01*
X74376669Y-117260984D01*
X74364674Y-117268174D01*
X74352032Y-117274153D01*
X74338866Y-117278864D01*
X74325300Y-117282262D01*
X74311467Y-117284314D01*
X74297500Y-117285000D01*
X73952500Y-117285000D01*
X73938533Y-117284314D01*
X73924700Y-117282262D01*
X73911134Y-117278864D01*
X73897968Y-117274153D01*
X73885326Y-117268174D01*
X73873331Y-117260984D01*
X73862099Y-117252654D01*
X73851737Y-117243263D01*
X73842346Y-117232901D01*
X73834016Y-117221669D01*
X73826826Y-117209674D01*
X73820847Y-117197032D01*
X73816136Y-117183866D01*
X73812738Y-117170300D01*
X73810686Y-117156467D01*
X73810000Y-117142500D01*
X73810000Y-116857500D01*
X73810686Y-116843533D01*
X73812738Y-116829700D01*
X73816136Y-116816134D01*
X73820847Y-116802968D01*
X73826826Y-116790326D01*
X73834016Y-116778331D01*
X73842346Y-116767099D01*
X73851737Y-116756737D01*
X73862099Y-116747346D01*
X73873331Y-116739016D01*
X73885326Y-116731826D01*
X73897968Y-116725847D01*
X73911134Y-116721136D01*
X73924700Y-116717738D01*
X73938533Y-116715686D01*
X73952500Y-116715000D01*
X74297500Y-116715000D01*
X74311467Y-116715686D01*
X74311467Y-116715686D01*
G37*
D11*
X74125000Y-117000000D03*
G04 #@! TD*
D10*
G04 #@! TO.C,R15*
G36*
X103186467Y-116715686D02*
X103200300Y-116717738D01*
X103213866Y-116721136D01*
X103227032Y-116725847D01*
X103239674Y-116731826D01*
X103251669Y-116739016D01*
X103262901Y-116747346D01*
X103273263Y-116756737D01*
X103282654Y-116767099D01*
X103290984Y-116778331D01*
X103298174Y-116790326D01*
X103304153Y-116802968D01*
X103308864Y-116816134D01*
X103312262Y-116829700D01*
X103314314Y-116843533D01*
X103315000Y-116857500D01*
X103315000Y-117142500D01*
X103314314Y-117156467D01*
X103312262Y-117170300D01*
X103308864Y-117183866D01*
X103304153Y-117197032D01*
X103298174Y-117209674D01*
X103290984Y-117221669D01*
X103282654Y-117232901D01*
X103273263Y-117243263D01*
X103262901Y-117252654D01*
X103251669Y-117260984D01*
X103239674Y-117268174D01*
X103227032Y-117274153D01*
X103213866Y-117278864D01*
X103200300Y-117282262D01*
X103186467Y-117284314D01*
X103172500Y-117285000D01*
X102827500Y-117285000D01*
X102813533Y-117284314D01*
X102799700Y-117282262D01*
X102786134Y-117278864D01*
X102772968Y-117274153D01*
X102760326Y-117268174D01*
X102748331Y-117260984D01*
X102737099Y-117252654D01*
X102726737Y-117243263D01*
X102717346Y-117232901D01*
X102709016Y-117221669D01*
X102701826Y-117209674D01*
X102695847Y-117197032D01*
X102691136Y-117183866D01*
X102687738Y-117170300D01*
X102685686Y-117156467D01*
X102685000Y-117142500D01*
X102685000Y-116857500D01*
X102685686Y-116843533D01*
X102687738Y-116829700D01*
X102691136Y-116816134D01*
X102695847Y-116802968D01*
X102701826Y-116790326D01*
X102709016Y-116778331D01*
X102717346Y-116767099D01*
X102726737Y-116756737D01*
X102737099Y-116747346D01*
X102748331Y-116739016D01*
X102760326Y-116731826D01*
X102772968Y-116725847D01*
X102786134Y-116721136D01*
X102799700Y-116717738D01*
X102813533Y-116715686D01*
X102827500Y-116715000D01*
X103172500Y-116715000D01*
X103186467Y-116715686D01*
X103186467Y-116715686D01*
G37*
D11*
X103000000Y-117000000D03*
D10*
G36*
X101436467Y-116715686D02*
X101450300Y-116717738D01*
X101463866Y-116721136D01*
X101477032Y-116725847D01*
X101489674Y-116731826D01*
X101501669Y-116739016D01*
X101512901Y-116747346D01*
X101523263Y-116756737D01*
X101532654Y-116767099D01*
X101540984Y-116778331D01*
X101548174Y-116790326D01*
X101554153Y-116802968D01*
X101558864Y-116816134D01*
X101562262Y-116829700D01*
X101564314Y-116843533D01*
X101565000Y-116857500D01*
X101565000Y-117142500D01*
X101564314Y-117156467D01*
X101562262Y-117170300D01*
X101558864Y-117183866D01*
X101554153Y-117197032D01*
X101548174Y-117209674D01*
X101540984Y-117221669D01*
X101532654Y-117232901D01*
X101523263Y-117243263D01*
X101512901Y-117252654D01*
X101501669Y-117260984D01*
X101489674Y-117268174D01*
X101477032Y-117274153D01*
X101463866Y-117278864D01*
X101450300Y-117282262D01*
X101436467Y-117284314D01*
X101422500Y-117285000D01*
X101077500Y-117285000D01*
X101063533Y-117284314D01*
X101049700Y-117282262D01*
X101036134Y-117278864D01*
X101022968Y-117274153D01*
X101010326Y-117268174D01*
X100998331Y-117260984D01*
X100987099Y-117252654D01*
X100976737Y-117243263D01*
X100967346Y-117232901D01*
X100959016Y-117221669D01*
X100951826Y-117209674D01*
X100945847Y-117197032D01*
X100941136Y-117183866D01*
X100937738Y-117170300D01*
X100935686Y-117156467D01*
X100935000Y-117142500D01*
X100935000Y-116857500D01*
X100935686Y-116843533D01*
X100937738Y-116829700D01*
X100941136Y-116816134D01*
X100945847Y-116802968D01*
X100951826Y-116790326D01*
X100959016Y-116778331D01*
X100967346Y-116767099D01*
X100976737Y-116756737D01*
X100987099Y-116747346D01*
X100998331Y-116739016D01*
X101010326Y-116731826D01*
X101022968Y-116725847D01*
X101036134Y-116721136D01*
X101049700Y-116717738D01*
X101063533Y-116715686D01*
X101077500Y-116715000D01*
X101422500Y-116715000D01*
X101436467Y-116715686D01*
X101436467Y-116715686D01*
G37*
D11*
X101250000Y-117000000D03*
G04 #@! TD*
D10*
G04 #@! TO.C,R16*
G36*
X106186467Y-116715686D02*
X106200300Y-116717738D01*
X106213866Y-116721136D01*
X106227032Y-116725847D01*
X106239674Y-116731826D01*
X106251669Y-116739016D01*
X106262901Y-116747346D01*
X106273263Y-116756737D01*
X106282654Y-116767099D01*
X106290984Y-116778331D01*
X106298174Y-116790326D01*
X106304153Y-116802968D01*
X106308864Y-116816134D01*
X106312262Y-116829700D01*
X106314314Y-116843533D01*
X106315000Y-116857500D01*
X106315000Y-117142500D01*
X106314314Y-117156467D01*
X106312262Y-117170300D01*
X106308864Y-117183866D01*
X106304153Y-117197032D01*
X106298174Y-117209674D01*
X106290984Y-117221669D01*
X106282654Y-117232901D01*
X106273263Y-117243263D01*
X106262901Y-117252654D01*
X106251669Y-117260984D01*
X106239674Y-117268174D01*
X106227032Y-117274153D01*
X106213866Y-117278864D01*
X106200300Y-117282262D01*
X106186467Y-117284314D01*
X106172500Y-117285000D01*
X105827500Y-117285000D01*
X105813533Y-117284314D01*
X105799700Y-117282262D01*
X105786134Y-117278864D01*
X105772968Y-117274153D01*
X105760326Y-117268174D01*
X105748331Y-117260984D01*
X105737099Y-117252654D01*
X105726737Y-117243263D01*
X105717346Y-117232901D01*
X105709016Y-117221669D01*
X105701826Y-117209674D01*
X105695847Y-117197032D01*
X105691136Y-117183866D01*
X105687738Y-117170300D01*
X105685686Y-117156467D01*
X105685000Y-117142500D01*
X105685000Y-116857500D01*
X105685686Y-116843533D01*
X105687738Y-116829700D01*
X105691136Y-116816134D01*
X105695847Y-116802968D01*
X105701826Y-116790326D01*
X105709016Y-116778331D01*
X105717346Y-116767099D01*
X105726737Y-116756737D01*
X105737099Y-116747346D01*
X105748331Y-116739016D01*
X105760326Y-116731826D01*
X105772968Y-116725847D01*
X105786134Y-116721136D01*
X105799700Y-116717738D01*
X105813533Y-116715686D01*
X105827500Y-116715000D01*
X106172500Y-116715000D01*
X106186467Y-116715686D01*
X106186467Y-116715686D01*
G37*
D11*
X106000000Y-117000000D03*
D10*
G36*
X107936467Y-116715686D02*
X107950300Y-116717738D01*
X107963866Y-116721136D01*
X107977032Y-116725847D01*
X107989674Y-116731826D01*
X108001669Y-116739016D01*
X108012901Y-116747346D01*
X108023263Y-116756737D01*
X108032654Y-116767099D01*
X108040984Y-116778331D01*
X108048174Y-116790326D01*
X108054153Y-116802968D01*
X108058864Y-116816134D01*
X108062262Y-116829700D01*
X108064314Y-116843533D01*
X108065000Y-116857500D01*
X108065000Y-117142500D01*
X108064314Y-117156467D01*
X108062262Y-117170300D01*
X108058864Y-117183866D01*
X108054153Y-117197032D01*
X108048174Y-117209674D01*
X108040984Y-117221669D01*
X108032654Y-117232901D01*
X108023263Y-117243263D01*
X108012901Y-117252654D01*
X108001669Y-117260984D01*
X107989674Y-117268174D01*
X107977032Y-117274153D01*
X107963866Y-117278864D01*
X107950300Y-117282262D01*
X107936467Y-117284314D01*
X107922500Y-117285000D01*
X107577500Y-117285000D01*
X107563533Y-117284314D01*
X107549700Y-117282262D01*
X107536134Y-117278864D01*
X107522968Y-117274153D01*
X107510326Y-117268174D01*
X107498331Y-117260984D01*
X107487099Y-117252654D01*
X107476737Y-117243263D01*
X107467346Y-117232901D01*
X107459016Y-117221669D01*
X107451826Y-117209674D01*
X107445847Y-117197032D01*
X107441136Y-117183866D01*
X107437738Y-117170300D01*
X107435686Y-117156467D01*
X107435000Y-117142500D01*
X107435000Y-116857500D01*
X107435686Y-116843533D01*
X107437738Y-116829700D01*
X107441136Y-116816134D01*
X107445847Y-116802968D01*
X107451826Y-116790326D01*
X107459016Y-116778331D01*
X107467346Y-116767099D01*
X107476737Y-116756737D01*
X107487099Y-116747346D01*
X107498331Y-116739016D01*
X107510326Y-116731826D01*
X107522968Y-116725847D01*
X107536134Y-116721136D01*
X107549700Y-116717738D01*
X107563533Y-116715686D01*
X107577500Y-116715000D01*
X107922500Y-116715000D01*
X107936467Y-116715686D01*
X107936467Y-116715686D01*
G37*
D11*
X107750000Y-117000000D03*
G04 #@! TD*
D10*
G04 #@! TO.C,R17*
G36*
X112436467Y-116715686D02*
X112450300Y-116717738D01*
X112463866Y-116721136D01*
X112477032Y-116725847D01*
X112489674Y-116731826D01*
X112501669Y-116739016D01*
X112512901Y-116747346D01*
X112523263Y-116756737D01*
X112532654Y-116767099D01*
X112540984Y-116778331D01*
X112548174Y-116790326D01*
X112554153Y-116802968D01*
X112558864Y-116816134D01*
X112562262Y-116829700D01*
X112564314Y-116843533D01*
X112565000Y-116857500D01*
X112565000Y-117142500D01*
X112564314Y-117156467D01*
X112562262Y-117170300D01*
X112558864Y-117183866D01*
X112554153Y-117197032D01*
X112548174Y-117209674D01*
X112540984Y-117221669D01*
X112532654Y-117232901D01*
X112523263Y-117243263D01*
X112512901Y-117252654D01*
X112501669Y-117260984D01*
X112489674Y-117268174D01*
X112477032Y-117274153D01*
X112463866Y-117278864D01*
X112450300Y-117282262D01*
X112436467Y-117284314D01*
X112422500Y-117285000D01*
X112077500Y-117285000D01*
X112063533Y-117284314D01*
X112049700Y-117282262D01*
X112036134Y-117278864D01*
X112022968Y-117274153D01*
X112010326Y-117268174D01*
X111998331Y-117260984D01*
X111987099Y-117252654D01*
X111976737Y-117243263D01*
X111967346Y-117232901D01*
X111959016Y-117221669D01*
X111951826Y-117209674D01*
X111945847Y-117197032D01*
X111941136Y-117183866D01*
X111937738Y-117170300D01*
X111935686Y-117156467D01*
X111935000Y-117142500D01*
X111935000Y-116857500D01*
X111935686Y-116843533D01*
X111937738Y-116829700D01*
X111941136Y-116816134D01*
X111945847Y-116802968D01*
X111951826Y-116790326D01*
X111959016Y-116778331D01*
X111967346Y-116767099D01*
X111976737Y-116756737D01*
X111987099Y-116747346D01*
X111998331Y-116739016D01*
X112010326Y-116731826D01*
X112022968Y-116725847D01*
X112036134Y-116721136D01*
X112049700Y-116717738D01*
X112063533Y-116715686D01*
X112077500Y-116715000D01*
X112422500Y-116715000D01*
X112436467Y-116715686D01*
X112436467Y-116715686D01*
G37*
D11*
X112250000Y-117000000D03*
D10*
G36*
X114186467Y-116715686D02*
X114200300Y-116717738D01*
X114213866Y-116721136D01*
X114227032Y-116725847D01*
X114239674Y-116731826D01*
X114251669Y-116739016D01*
X114262901Y-116747346D01*
X114273263Y-116756737D01*
X114282654Y-116767099D01*
X114290984Y-116778331D01*
X114298174Y-116790326D01*
X114304153Y-116802968D01*
X114308864Y-116816134D01*
X114312262Y-116829700D01*
X114314314Y-116843533D01*
X114315000Y-116857500D01*
X114315000Y-117142500D01*
X114314314Y-117156467D01*
X114312262Y-117170300D01*
X114308864Y-117183866D01*
X114304153Y-117197032D01*
X114298174Y-117209674D01*
X114290984Y-117221669D01*
X114282654Y-117232901D01*
X114273263Y-117243263D01*
X114262901Y-117252654D01*
X114251669Y-117260984D01*
X114239674Y-117268174D01*
X114227032Y-117274153D01*
X114213866Y-117278864D01*
X114200300Y-117282262D01*
X114186467Y-117284314D01*
X114172500Y-117285000D01*
X113827500Y-117285000D01*
X113813533Y-117284314D01*
X113799700Y-117282262D01*
X113786134Y-117278864D01*
X113772968Y-117274153D01*
X113760326Y-117268174D01*
X113748331Y-117260984D01*
X113737099Y-117252654D01*
X113726737Y-117243263D01*
X113717346Y-117232901D01*
X113709016Y-117221669D01*
X113701826Y-117209674D01*
X113695847Y-117197032D01*
X113691136Y-117183866D01*
X113687738Y-117170300D01*
X113685686Y-117156467D01*
X113685000Y-117142500D01*
X113685000Y-116857500D01*
X113685686Y-116843533D01*
X113687738Y-116829700D01*
X113691136Y-116816134D01*
X113695847Y-116802968D01*
X113701826Y-116790326D01*
X113709016Y-116778331D01*
X113717346Y-116767099D01*
X113726737Y-116756737D01*
X113737099Y-116747346D01*
X113748331Y-116739016D01*
X113760326Y-116731826D01*
X113772968Y-116725847D01*
X113786134Y-116721136D01*
X113799700Y-116717738D01*
X113813533Y-116715686D01*
X113827500Y-116715000D01*
X114172500Y-116715000D01*
X114186467Y-116715686D01*
X114186467Y-116715686D01*
G37*
D11*
X114000000Y-117000000D03*
G04 #@! TD*
D10*
G04 #@! TO.C,R18*
G36*
X117436467Y-116715686D02*
X117450300Y-116717738D01*
X117463866Y-116721136D01*
X117477032Y-116725847D01*
X117489674Y-116731826D01*
X117501669Y-116739016D01*
X117512901Y-116747346D01*
X117523263Y-116756737D01*
X117532654Y-116767099D01*
X117540984Y-116778331D01*
X117548174Y-116790326D01*
X117554153Y-116802968D01*
X117558864Y-116816134D01*
X117562262Y-116829700D01*
X117564314Y-116843533D01*
X117565000Y-116857500D01*
X117565000Y-117142500D01*
X117564314Y-117156467D01*
X117562262Y-117170300D01*
X117558864Y-117183866D01*
X117554153Y-117197032D01*
X117548174Y-117209674D01*
X117540984Y-117221669D01*
X117532654Y-117232901D01*
X117523263Y-117243263D01*
X117512901Y-117252654D01*
X117501669Y-117260984D01*
X117489674Y-117268174D01*
X117477032Y-117274153D01*
X117463866Y-117278864D01*
X117450300Y-117282262D01*
X117436467Y-117284314D01*
X117422500Y-117285000D01*
X117077500Y-117285000D01*
X117063533Y-117284314D01*
X117049700Y-117282262D01*
X117036134Y-117278864D01*
X117022968Y-117274153D01*
X117010326Y-117268174D01*
X116998331Y-117260984D01*
X116987099Y-117252654D01*
X116976737Y-117243263D01*
X116967346Y-117232901D01*
X116959016Y-117221669D01*
X116951826Y-117209674D01*
X116945847Y-117197032D01*
X116941136Y-117183866D01*
X116937738Y-117170300D01*
X116935686Y-117156467D01*
X116935000Y-117142500D01*
X116935000Y-116857500D01*
X116935686Y-116843533D01*
X116937738Y-116829700D01*
X116941136Y-116816134D01*
X116945847Y-116802968D01*
X116951826Y-116790326D01*
X116959016Y-116778331D01*
X116967346Y-116767099D01*
X116976737Y-116756737D01*
X116987099Y-116747346D01*
X116998331Y-116739016D01*
X117010326Y-116731826D01*
X117022968Y-116725847D01*
X117036134Y-116721136D01*
X117049700Y-116717738D01*
X117063533Y-116715686D01*
X117077500Y-116715000D01*
X117422500Y-116715000D01*
X117436467Y-116715686D01*
X117436467Y-116715686D01*
G37*
D11*
X117250000Y-117000000D03*
D10*
G36*
X119186467Y-116715686D02*
X119200300Y-116717738D01*
X119213866Y-116721136D01*
X119227032Y-116725847D01*
X119239674Y-116731826D01*
X119251669Y-116739016D01*
X119262901Y-116747346D01*
X119273263Y-116756737D01*
X119282654Y-116767099D01*
X119290984Y-116778331D01*
X119298174Y-116790326D01*
X119304153Y-116802968D01*
X119308864Y-116816134D01*
X119312262Y-116829700D01*
X119314314Y-116843533D01*
X119315000Y-116857500D01*
X119315000Y-117142500D01*
X119314314Y-117156467D01*
X119312262Y-117170300D01*
X119308864Y-117183866D01*
X119304153Y-117197032D01*
X119298174Y-117209674D01*
X119290984Y-117221669D01*
X119282654Y-117232901D01*
X119273263Y-117243263D01*
X119262901Y-117252654D01*
X119251669Y-117260984D01*
X119239674Y-117268174D01*
X119227032Y-117274153D01*
X119213866Y-117278864D01*
X119200300Y-117282262D01*
X119186467Y-117284314D01*
X119172500Y-117285000D01*
X118827500Y-117285000D01*
X118813533Y-117284314D01*
X118799700Y-117282262D01*
X118786134Y-117278864D01*
X118772968Y-117274153D01*
X118760326Y-117268174D01*
X118748331Y-117260984D01*
X118737099Y-117252654D01*
X118726737Y-117243263D01*
X118717346Y-117232901D01*
X118709016Y-117221669D01*
X118701826Y-117209674D01*
X118695847Y-117197032D01*
X118691136Y-117183866D01*
X118687738Y-117170300D01*
X118685686Y-117156467D01*
X118685000Y-117142500D01*
X118685000Y-116857500D01*
X118685686Y-116843533D01*
X118687738Y-116829700D01*
X118691136Y-116816134D01*
X118695847Y-116802968D01*
X118701826Y-116790326D01*
X118709016Y-116778331D01*
X118717346Y-116767099D01*
X118726737Y-116756737D01*
X118737099Y-116747346D01*
X118748331Y-116739016D01*
X118760326Y-116731826D01*
X118772968Y-116725847D01*
X118786134Y-116721136D01*
X118799700Y-116717738D01*
X118813533Y-116715686D01*
X118827500Y-116715000D01*
X119172500Y-116715000D01*
X119186467Y-116715686D01*
X119186467Y-116715686D01*
G37*
D11*
X119000000Y-117000000D03*
G04 #@! TD*
D10*
G04 #@! TO.C,R19*
G36*
X75936467Y-88715686D02*
X75950300Y-88717738D01*
X75963866Y-88721136D01*
X75977032Y-88725847D01*
X75989674Y-88731826D01*
X76001669Y-88739016D01*
X76012901Y-88747346D01*
X76023263Y-88756737D01*
X76032654Y-88767099D01*
X76040984Y-88778331D01*
X76048174Y-88790326D01*
X76054153Y-88802968D01*
X76058864Y-88816134D01*
X76062262Y-88829700D01*
X76064314Y-88843533D01*
X76065000Y-88857500D01*
X76065000Y-89142500D01*
X76064314Y-89156467D01*
X76062262Y-89170300D01*
X76058864Y-89183866D01*
X76054153Y-89197032D01*
X76048174Y-89209674D01*
X76040984Y-89221669D01*
X76032654Y-89232901D01*
X76023263Y-89243263D01*
X76012901Y-89252654D01*
X76001669Y-89260984D01*
X75989674Y-89268174D01*
X75977032Y-89274153D01*
X75963866Y-89278864D01*
X75950300Y-89282262D01*
X75936467Y-89284314D01*
X75922500Y-89285000D01*
X75577500Y-89285000D01*
X75563533Y-89284314D01*
X75549700Y-89282262D01*
X75536134Y-89278864D01*
X75522968Y-89274153D01*
X75510326Y-89268174D01*
X75498331Y-89260984D01*
X75487099Y-89252654D01*
X75476737Y-89243263D01*
X75467346Y-89232901D01*
X75459016Y-89221669D01*
X75451826Y-89209674D01*
X75445847Y-89197032D01*
X75441136Y-89183866D01*
X75437738Y-89170300D01*
X75435686Y-89156467D01*
X75435000Y-89142500D01*
X75435000Y-88857500D01*
X75435686Y-88843533D01*
X75437738Y-88829700D01*
X75441136Y-88816134D01*
X75445847Y-88802968D01*
X75451826Y-88790326D01*
X75459016Y-88778331D01*
X75467346Y-88767099D01*
X75476737Y-88756737D01*
X75487099Y-88747346D01*
X75498331Y-88739016D01*
X75510326Y-88731826D01*
X75522968Y-88725847D01*
X75536134Y-88721136D01*
X75549700Y-88717738D01*
X75563533Y-88715686D01*
X75577500Y-88715000D01*
X75922500Y-88715000D01*
X75936467Y-88715686D01*
X75936467Y-88715686D01*
G37*
D11*
X75750000Y-89000000D03*
D10*
G36*
X74186467Y-88715686D02*
X74200300Y-88717738D01*
X74213866Y-88721136D01*
X74227032Y-88725847D01*
X74239674Y-88731826D01*
X74251669Y-88739016D01*
X74262901Y-88747346D01*
X74273263Y-88756737D01*
X74282654Y-88767099D01*
X74290984Y-88778331D01*
X74298174Y-88790326D01*
X74304153Y-88802968D01*
X74308864Y-88816134D01*
X74312262Y-88829700D01*
X74314314Y-88843533D01*
X74315000Y-88857500D01*
X74315000Y-89142500D01*
X74314314Y-89156467D01*
X74312262Y-89170300D01*
X74308864Y-89183866D01*
X74304153Y-89197032D01*
X74298174Y-89209674D01*
X74290984Y-89221669D01*
X74282654Y-89232901D01*
X74273263Y-89243263D01*
X74262901Y-89252654D01*
X74251669Y-89260984D01*
X74239674Y-89268174D01*
X74227032Y-89274153D01*
X74213866Y-89278864D01*
X74200300Y-89282262D01*
X74186467Y-89284314D01*
X74172500Y-89285000D01*
X73827500Y-89285000D01*
X73813533Y-89284314D01*
X73799700Y-89282262D01*
X73786134Y-89278864D01*
X73772968Y-89274153D01*
X73760326Y-89268174D01*
X73748331Y-89260984D01*
X73737099Y-89252654D01*
X73726737Y-89243263D01*
X73717346Y-89232901D01*
X73709016Y-89221669D01*
X73701826Y-89209674D01*
X73695847Y-89197032D01*
X73691136Y-89183866D01*
X73687738Y-89170300D01*
X73685686Y-89156467D01*
X73685000Y-89142500D01*
X73685000Y-88857500D01*
X73685686Y-88843533D01*
X73687738Y-88829700D01*
X73691136Y-88816134D01*
X73695847Y-88802968D01*
X73701826Y-88790326D01*
X73709016Y-88778331D01*
X73717346Y-88767099D01*
X73726737Y-88756737D01*
X73737099Y-88747346D01*
X73748331Y-88739016D01*
X73760326Y-88731826D01*
X73772968Y-88725847D01*
X73786134Y-88721136D01*
X73799700Y-88717738D01*
X73813533Y-88715686D01*
X73827500Y-88715000D01*
X74172500Y-88715000D01*
X74186467Y-88715686D01*
X74186467Y-88715686D01*
G37*
D11*
X74000000Y-89000000D03*
G04 #@! TD*
D10*
G04 #@! TO.C,R20*
G36*
X74186467Y-93715686D02*
X74200300Y-93717738D01*
X74213866Y-93721136D01*
X74227032Y-93725847D01*
X74239674Y-93731826D01*
X74251669Y-93739016D01*
X74262901Y-93747346D01*
X74273263Y-93756737D01*
X74282654Y-93767099D01*
X74290984Y-93778331D01*
X74298174Y-93790326D01*
X74304153Y-93802968D01*
X74308864Y-93816134D01*
X74312262Y-93829700D01*
X74314314Y-93843533D01*
X74315000Y-93857500D01*
X74315000Y-94142500D01*
X74314314Y-94156467D01*
X74312262Y-94170300D01*
X74308864Y-94183866D01*
X74304153Y-94197032D01*
X74298174Y-94209674D01*
X74290984Y-94221669D01*
X74282654Y-94232901D01*
X74273263Y-94243263D01*
X74262901Y-94252654D01*
X74251669Y-94260984D01*
X74239674Y-94268174D01*
X74227032Y-94274153D01*
X74213866Y-94278864D01*
X74200300Y-94282262D01*
X74186467Y-94284314D01*
X74172500Y-94285000D01*
X73827500Y-94285000D01*
X73813533Y-94284314D01*
X73799700Y-94282262D01*
X73786134Y-94278864D01*
X73772968Y-94274153D01*
X73760326Y-94268174D01*
X73748331Y-94260984D01*
X73737099Y-94252654D01*
X73726737Y-94243263D01*
X73717346Y-94232901D01*
X73709016Y-94221669D01*
X73701826Y-94209674D01*
X73695847Y-94197032D01*
X73691136Y-94183866D01*
X73687738Y-94170300D01*
X73685686Y-94156467D01*
X73685000Y-94142500D01*
X73685000Y-93857500D01*
X73685686Y-93843533D01*
X73687738Y-93829700D01*
X73691136Y-93816134D01*
X73695847Y-93802968D01*
X73701826Y-93790326D01*
X73709016Y-93778331D01*
X73717346Y-93767099D01*
X73726737Y-93756737D01*
X73737099Y-93747346D01*
X73748331Y-93739016D01*
X73760326Y-93731826D01*
X73772968Y-93725847D01*
X73786134Y-93721136D01*
X73799700Y-93717738D01*
X73813533Y-93715686D01*
X73827500Y-93715000D01*
X74172500Y-93715000D01*
X74186467Y-93715686D01*
X74186467Y-93715686D01*
G37*
D11*
X74000000Y-94000000D03*
D10*
G36*
X75936467Y-93715686D02*
X75950300Y-93717738D01*
X75963866Y-93721136D01*
X75977032Y-93725847D01*
X75989674Y-93731826D01*
X76001669Y-93739016D01*
X76012901Y-93747346D01*
X76023263Y-93756737D01*
X76032654Y-93767099D01*
X76040984Y-93778331D01*
X76048174Y-93790326D01*
X76054153Y-93802968D01*
X76058864Y-93816134D01*
X76062262Y-93829700D01*
X76064314Y-93843533D01*
X76065000Y-93857500D01*
X76065000Y-94142500D01*
X76064314Y-94156467D01*
X76062262Y-94170300D01*
X76058864Y-94183866D01*
X76054153Y-94197032D01*
X76048174Y-94209674D01*
X76040984Y-94221669D01*
X76032654Y-94232901D01*
X76023263Y-94243263D01*
X76012901Y-94252654D01*
X76001669Y-94260984D01*
X75989674Y-94268174D01*
X75977032Y-94274153D01*
X75963866Y-94278864D01*
X75950300Y-94282262D01*
X75936467Y-94284314D01*
X75922500Y-94285000D01*
X75577500Y-94285000D01*
X75563533Y-94284314D01*
X75549700Y-94282262D01*
X75536134Y-94278864D01*
X75522968Y-94274153D01*
X75510326Y-94268174D01*
X75498331Y-94260984D01*
X75487099Y-94252654D01*
X75476737Y-94243263D01*
X75467346Y-94232901D01*
X75459016Y-94221669D01*
X75451826Y-94209674D01*
X75445847Y-94197032D01*
X75441136Y-94183866D01*
X75437738Y-94170300D01*
X75435686Y-94156467D01*
X75435000Y-94142500D01*
X75435000Y-93857500D01*
X75435686Y-93843533D01*
X75437738Y-93829700D01*
X75441136Y-93816134D01*
X75445847Y-93802968D01*
X75451826Y-93790326D01*
X75459016Y-93778331D01*
X75467346Y-93767099D01*
X75476737Y-93756737D01*
X75487099Y-93747346D01*
X75498331Y-93739016D01*
X75510326Y-93731826D01*
X75522968Y-93725847D01*
X75536134Y-93721136D01*
X75549700Y-93717738D01*
X75563533Y-93715686D01*
X75577500Y-93715000D01*
X75922500Y-93715000D01*
X75936467Y-93715686D01*
X75936467Y-93715686D01*
G37*
D11*
X75750000Y-94000000D03*
G04 #@! TD*
D10*
G04 #@! TO.C,R21*
G36*
X125186467Y-112715686D02*
X125200300Y-112717738D01*
X125213866Y-112721136D01*
X125227032Y-112725847D01*
X125239674Y-112731826D01*
X125251669Y-112739016D01*
X125262901Y-112747346D01*
X125273263Y-112756737D01*
X125282654Y-112767099D01*
X125290984Y-112778331D01*
X125298174Y-112790326D01*
X125304153Y-112802968D01*
X125308864Y-112816134D01*
X125312262Y-112829700D01*
X125314314Y-112843533D01*
X125315000Y-112857500D01*
X125315000Y-113142500D01*
X125314314Y-113156467D01*
X125312262Y-113170300D01*
X125308864Y-113183866D01*
X125304153Y-113197032D01*
X125298174Y-113209674D01*
X125290984Y-113221669D01*
X125282654Y-113232901D01*
X125273263Y-113243263D01*
X125262901Y-113252654D01*
X125251669Y-113260984D01*
X125239674Y-113268174D01*
X125227032Y-113274153D01*
X125213866Y-113278864D01*
X125200300Y-113282262D01*
X125186467Y-113284314D01*
X125172500Y-113285000D01*
X124827500Y-113285000D01*
X124813533Y-113284314D01*
X124799700Y-113282262D01*
X124786134Y-113278864D01*
X124772968Y-113274153D01*
X124760326Y-113268174D01*
X124748331Y-113260984D01*
X124737099Y-113252654D01*
X124726737Y-113243263D01*
X124717346Y-113232901D01*
X124709016Y-113221669D01*
X124701826Y-113209674D01*
X124695847Y-113197032D01*
X124691136Y-113183866D01*
X124687738Y-113170300D01*
X124685686Y-113156467D01*
X124685000Y-113142500D01*
X124685000Y-112857500D01*
X124685686Y-112843533D01*
X124687738Y-112829700D01*
X124691136Y-112816134D01*
X124695847Y-112802968D01*
X124701826Y-112790326D01*
X124709016Y-112778331D01*
X124717346Y-112767099D01*
X124726737Y-112756737D01*
X124737099Y-112747346D01*
X124748331Y-112739016D01*
X124760326Y-112731826D01*
X124772968Y-112725847D01*
X124786134Y-112721136D01*
X124799700Y-112717738D01*
X124813533Y-112715686D01*
X124827500Y-112715000D01*
X125172500Y-112715000D01*
X125186467Y-112715686D01*
X125186467Y-112715686D01*
G37*
D11*
X125000000Y-113000000D03*
D10*
G36*
X123436467Y-112715686D02*
X123450300Y-112717738D01*
X123463866Y-112721136D01*
X123477032Y-112725847D01*
X123489674Y-112731826D01*
X123501669Y-112739016D01*
X123512901Y-112747346D01*
X123523263Y-112756737D01*
X123532654Y-112767099D01*
X123540984Y-112778331D01*
X123548174Y-112790326D01*
X123554153Y-112802968D01*
X123558864Y-112816134D01*
X123562262Y-112829700D01*
X123564314Y-112843533D01*
X123565000Y-112857500D01*
X123565000Y-113142500D01*
X123564314Y-113156467D01*
X123562262Y-113170300D01*
X123558864Y-113183866D01*
X123554153Y-113197032D01*
X123548174Y-113209674D01*
X123540984Y-113221669D01*
X123532654Y-113232901D01*
X123523263Y-113243263D01*
X123512901Y-113252654D01*
X123501669Y-113260984D01*
X123489674Y-113268174D01*
X123477032Y-113274153D01*
X123463866Y-113278864D01*
X123450300Y-113282262D01*
X123436467Y-113284314D01*
X123422500Y-113285000D01*
X123077500Y-113285000D01*
X123063533Y-113284314D01*
X123049700Y-113282262D01*
X123036134Y-113278864D01*
X123022968Y-113274153D01*
X123010326Y-113268174D01*
X122998331Y-113260984D01*
X122987099Y-113252654D01*
X122976737Y-113243263D01*
X122967346Y-113232901D01*
X122959016Y-113221669D01*
X122951826Y-113209674D01*
X122945847Y-113197032D01*
X122941136Y-113183866D01*
X122937738Y-113170300D01*
X122935686Y-113156467D01*
X122935000Y-113142500D01*
X122935000Y-112857500D01*
X122935686Y-112843533D01*
X122937738Y-112829700D01*
X122941136Y-112816134D01*
X122945847Y-112802968D01*
X122951826Y-112790326D01*
X122959016Y-112778331D01*
X122967346Y-112767099D01*
X122976737Y-112756737D01*
X122987099Y-112747346D01*
X122998331Y-112739016D01*
X123010326Y-112731826D01*
X123022968Y-112725847D01*
X123036134Y-112721136D01*
X123049700Y-112717738D01*
X123063533Y-112715686D01*
X123077500Y-112715000D01*
X123422500Y-112715000D01*
X123436467Y-112715686D01*
X123436467Y-112715686D01*
G37*
D11*
X123250000Y-113000000D03*
G04 #@! TD*
D10*
G04 #@! TO.C,R22*
G36*
X117436467Y-102715686D02*
X117450300Y-102717738D01*
X117463866Y-102721136D01*
X117477032Y-102725847D01*
X117489674Y-102731826D01*
X117501669Y-102739016D01*
X117512901Y-102747346D01*
X117523263Y-102756737D01*
X117532654Y-102767099D01*
X117540984Y-102778331D01*
X117548174Y-102790326D01*
X117554153Y-102802968D01*
X117558864Y-102816134D01*
X117562262Y-102829700D01*
X117564314Y-102843533D01*
X117565000Y-102857500D01*
X117565000Y-103142500D01*
X117564314Y-103156467D01*
X117562262Y-103170300D01*
X117558864Y-103183866D01*
X117554153Y-103197032D01*
X117548174Y-103209674D01*
X117540984Y-103221669D01*
X117532654Y-103232901D01*
X117523263Y-103243263D01*
X117512901Y-103252654D01*
X117501669Y-103260984D01*
X117489674Y-103268174D01*
X117477032Y-103274153D01*
X117463866Y-103278864D01*
X117450300Y-103282262D01*
X117436467Y-103284314D01*
X117422500Y-103285000D01*
X117077500Y-103285000D01*
X117063533Y-103284314D01*
X117049700Y-103282262D01*
X117036134Y-103278864D01*
X117022968Y-103274153D01*
X117010326Y-103268174D01*
X116998331Y-103260984D01*
X116987099Y-103252654D01*
X116976737Y-103243263D01*
X116967346Y-103232901D01*
X116959016Y-103221669D01*
X116951826Y-103209674D01*
X116945847Y-103197032D01*
X116941136Y-103183866D01*
X116937738Y-103170300D01*
X116935686Y-103156467D01*
X116935000Y-103142500D01*
X116935000Y-102857500D01*
X116935686Y-102843533D01*
X116937738Y-102829700D01*
X116941136Y-102816134D01*
X116945847Y-102802968D01*
X116951826Y-102790326D01*
X116959016Y-102778331D01*
X116967346Y-102767099D01*
X116976737Y-102756737D01*
X116987099Y-102747346D01*
X116998331Y-102739016D01*
X117010326Y-102731826D01*
X117022968Y-102725847D01*
X117036134Y-102721136D01*
X117049700Y-102717738D01*
X117063533Y-102715686D01*
X117077500Y-102715000D01*
X117422500Y-102715000D01*
X117436467Y-102715686D01*
X117436467Y-102715686D01*
G37*
D11*
X117250000Y-103000000D03*
D10*
G36*
X119186467Y-102715686D02*
X119200300Y-102717738D01*
X119213866Y-102721136D01*
X119227032Y-102725847D01*
X119239674Y-102731826D01*
X119251669Y-102739016D01*
X119262901Y-102747346D01*
X119273263Y-102756737D01*
X119282654Y-102767099D01*
X119290984Y-102778331D01*
X119298174Y-102790326D01*
X119304153Y-102802968D01*
X119308864Y-102816134D01*
X119312262Y-102829700D01*
X119314314Y-102843533D01*
X119315000Y-102857500D01*
X119315000Y-103142500D01*
X119314314Y-103156467D01*
X119312262Y-103170300D01*
X119308864Y-103183866D01*
X119304153Y-103197032D01*
X119298174Y-103209674D01*
X119290984Y-103221669D01*
X119282654Y-103232901D01*
X119273263Y-103243263D01*
X119262901Y-103252654D01*
X119251669Y-103260984D01*
X119239674Y-103268174D01*
X119227032Y-103274153D01*
X119213866Y-103278864D01*
X119200300Y-103282262D01*
X119186467Y-103284314D01*
X119172500Y-103285000D01*
X118827500Y-103285000D01*
X118813533Y-103284314D01*
X118799700Y-103282262D01*
X118786134Y-103278864D01*
X118772968Y-103274153D01*
X118760326Y-103268174D01*
X118748331Y-103260984D01*
X118737099Y-103252654D01*
X118726737Y-103243263D01*
X118717346Y-103232901D01*
X118709016Y-103221669D01*
X118701826Y-103209674D01*
X118695847Y-103197032D01*
X118691136Y-103183866D01*
X118687738Y-103170300D01*
X118685686Y-103156467D01*
X118685000Y-103142500D01*
X118685000Y-102857500D01*
X118685686Y-102843533D01*
X118687738Y-102829700D01*
X118691136Y-102816134D01*
X118695847Y-102802968D01*
X118701826Y-102790326D01*
X118709016Y-102778331D01*
X118717346Y-102767099D01*
X118726737Y-102756737D01*
X118737099Y-102747346D01*
X118748331Y-102739016D01*
X118760326Y-102731826D01*
X118772968Y-102725847D01*
X118786134Y-102721136D01*
X118799700Y-102717738D01*
X118813533Y-102715686D01*
X118827500Y-102715000D01*
X119172500Y-102715000D01*
X119186467Y-102715686D01*
X119186467Y-102715686D01*
G37*
D11*
X119000000Y-103000000D03*
G04 #@! TD*
D10*
G04 #@! TO.C,R23*
G36*
X119186467Y-96715686D02*
X119200300Y-96717738D01*
X119213866Y-96721136D01*
X119227032Y-96725847D01*
X119239674Y-96731826D01*
X119251669Y-96739016D01*
X119262901Y-96747346D01*
X119273263Y-96756737D01*
X119282654Y-96767099D01*
X119290984Y-96778331D01*
X119298174Y-96790326D01*
X119304153Y-96802968D01*
X119308864Y-96816134D01*
X119312262Y-96829700D01*
X119314314Y-96843533D01*
X119315000Y-96857500D01*
X119315000Y-97142500D01*
X119314314Y-97156467D01*
X119312262Y-97170300D01*
X119308864Y-97183866D01*
X119304153Y-97197032D01*
X119298174Y-97209674D01*
X119290984Y-97221669D01*
X119282654Y-97232901D01*
X119273263Y-97243263D01*
X119262901Y-97252654D01*
X119251669Y-97260984D01*
X119239674Y-97268174D01*
X119227032Y-97274153D01*
X119213866Y-97278864D01*
X119200300Y-97282262D01*
X119186467Y-97284314D01*
X119172500Y-97285000D01*
X118827500Y-97285000D01*
X118813533Y-97284314D01*
X118799700Y-97282262D01*
X118786134Y-97278864D01*
X118772968Y-97274153D01*
X118760326Y-97268174D01*
X118748331Y-97260984D01*
X118737099Y-97252654D01*
X118726737Y-97243263D01*
X118717346Y-97232901D01*
X118709016Y-97221669D01*
X118701826Y-97209674D01*
X118695847Y-97197032D01*
X118691136Y-97183866D01*
X118687738Y-97170300D01*
X118685686Y-97156467D01*
X118685000Y-97142500D01*
X118685000Y-96857500D01*
X118685686Y-96843533D01*
X118687738Y-96829700D01*
X118691136Y-96816134D01*
X118695847Y-96802968D01*
X118701826Y-96790326D01*
X118709016Y-96778331D01*
X118717346Y-96767099D01*
X118726737Y-96756737D01*
X118737099Y-96747346D01*
X118748331Y-96739016D01*
X118760326Y-96731826D01*
X118772968Y-96725847D01*
X118786134Y-96721136D01*
X118799700Y-96717738D01*
X118813533Y-96715686D01*
X118827500Y-96715000D01*
X119172500Y-96715000D01*
X119186467Y-96715686D01*
X119186467Y-96715686D01*
G37*
D11*
X119000000Y-97000000D03*
D10*
G36*
X117436467Y-96715686D02*
X117450300Y-96717738D01*
X117463866Y-96721136D01*
X117477032Y-96725847D01*
X117489674Y-96731826D01*
X117501669Y-96739016D01*
X117512901Y-96747346D01*
X117523263Y-96756737D01*
X117532654Y-96767099D01*
X117540984Y-96778331D01*
X117548174Y-96790326D01*
X117554153Y-96802968D01*
X117558864Y-96816134D01*
X117562262Y-96829700D01*
X117564314Y-96843533D01*
X117565000Y-96857500D01*
X117565000Y-97142500D01*
X117564314Y-97156467D01*
X117562262Y-97170300D01*
X117558864Y-97183866D01*
X117554153Y-97197032D01*
X117548174Y-97209674D01*
X117540984Y-97221669D01*
X117532654Y-97232901D01*
X117523263Y-97243263D01*
X117512901Y-97252654D01*
X117501669Y-97260984D01*
X117489674Y-97268174D01*
X117477032Y-97274153D01*
X117463866Y-97278864D01*
X117450300Y-97282262D01*
X117436467Y-97284314D01*
X117422500Y-97285000D01*
X117077500Y-97285000D01*
X117063533Y-97284314D01*
X117049700Y-97282262D01*
X117036134Y-97278864D01*
X117022968Y-97274153D01*
X117010326Y-97268174D01*
X116998331Y-97260984D01*
X116987099Y-97252654D01*
X116976737Y-97243263D01*
X116967346Y-97232901D01*
X116959016Y-97221669D01*
X116951826Y-97209674D01*
X116945847Y-97197032D01*
X116941136Y-97183866D01*
X116937738Y-97170300D01*
X116935686Y-97156467D01*
X116935000Y-97142500D01*
X116935000Y-96857500D01*
X116935686Y-96843533D01*
X116937738Y-96829700D01*
X116941136Y-96816134D01*
X116945847Y-96802968D01*
X116951826Y-96790326D01*
X116959016Y-96778331D01*
X116967346Y-96767099D01*
X116976737Y-96756737D01*
X116987099Y-96747346D01*
X116998331Y-96739016D01*
X117010326Y-96731826D01*
X117022968Y-96725847D01*
X117036134Y-96721136D01*
X117049700Y-96717738D01*
X117063533Y-96715686D01*
X117077500Y-96715000D01*
X117422500Y-96715000D01*
X117436467Y-96715686D01*
X117436467Y-96715686D01*
G37*
D11*
X117250000Y-97000000D03*
G04 #@! TD*
D10*
G04 #@! TO.C,R24*
G36*
X117436467Y-90715686D02*
X117450300Y-90717738D01*
X117463866Y-90721136D01*
X117477032Y-90725847D01*
X117489674Y-90731826D01*
X117501669Y-90739016D01*
X117512901Y-90747346D01*
X117523263Y-90756737D01*
X117532654Y-90767099D01*
X117540984Y-90778331D01*
X117548174Y-90790326D01*
X117554153Y-90802968D01*
X117558864Y-90816134D01*
X117562262Y-90829700D01*
X117564314Y-90843533D01*
X117565000Y-90857500D01*
X117565000Y-91142500D01*
X117564314Y-91156467D01*
X117562262Y-91170300D01*
X117558864Y-91183866D01*
X117554153Y-91197032D01*
X117548174Y-91209674D01*
X117540984Y-91221669D01*
X117532654Y-91232901D01*
X117523263Y-91243263D01*
X117512901Y-91252654D01*
X117501669Y-91260984D01*
X117489674Y-91268174D01*
X117477032Y-91274153D01*
X117463866Y-91278864D01*
X117450300Y-91282262D01*
X117436467Y-91284314D01*
X117422500Y-91285000D01*
X117077500Y-91285000D01*
X117063533Y-91284314D01*
X117049700Y-91282262D01*
X117036134Y-91278864D01*
X117022968Y-91274153D01*
X117010326Y-91268174D01*
X116998331Y-91260984D01*
X116987099Y-91252654D01*
X116976737Y-91243263D01*
X116967346Y-91232901D01*
X116959016Y-91221669D01*
X116951826Y-91209674D01*
X116945847Y-91197032D01*
X116941136Y-91183866D01*
X116937738Y-91170300D01*
X116935686Y-91156467D01*
X116935000Y-91142500D01*
X116935000Y-90857500D01*
X116935686Y-90843533D01*
X116937738Y-90829700D01*
X116941136Y-90816134D01*
X116945847Y-90802968D01*
X116951826Y-90790326D01*
X116959016Y-90778331D01*
X116967346Y-90767099D01*
X116976737Y-90756737D01*
X116987099Y-90747346D01*
X116998331Y-90739016D01*
X117010326Y-90731826D01*
X117022968Y-90725847D01*
X117036134Y-90721136D01*
X117049700Y-90717738D01*
X117063533Y-90715686D01*
X117077500Y-90715000D01*
X117422500Y-90715000D01*
X117436467Y-90715686D01*
X117436467Y-90715686D01*
G37*
D11*
X117250000Y-91000000D03*
D10*
G36*
X119186467Y-90715686D02*
X119200300Y-90717738D01*
X119213866Y-90721136D01*
X119227032Y-90725847D01*
X119239674Y-90731826D01*
X119251669Y-90739016D01*
X119262901Y-90747346D01*
X119273263Y-90756737D01*
X119282654Y-90767099D01*
X119290984Y-90778331D01*
X119298174Y-90790326D01*
X119304153Y-90802968D01*
X119308864Y-90816134D01*
X119312262Y-90829700D01*
X119314314Y-90843533D01*
X119315000Y-90857500D01*
X119315000Y-91142500D01*
X119314314Y-91156467D01*
X119312262Y-91170300D01*
X119308864Y-91183866D01*
X119304153Y-91197032D01*
X119298174Y-91209674D01*
X119290984Y-91221669D01*
X119282654Y-91232901D01*
X119273263Y-91243263D01*
X119262901Y-91252654D01*
X119251669Y-91260984D01*
X119239674Y-91268174D01*
X119227032Y-91274153D01*
X119213866Y-91278864D01*
X119200300Y-91282262D01*
X119186467Y-91284314D01*
X119172500Y-91285000D01*
X118827500Y-91285000D01*
X118813533Y-91284314D01*
X118799700Y-91282262D01*
X118786134Y-91278864D01*
X118772968Y-91274153D01*
X118760326Y-91268174D01*
X118748331Y-91260984D01*
X118737099Y-91252654D01*
X118726737Y-91243263D01*
X118717346Y-91232901D01*
X118709016Y-91221669D01*
X118701826Y-91209674D01*
X118695847Y-91197032D01*
X118691136Y-91183866D01*
X118687738Y-91170300D01*
X118685686Y-91156467D01*
X118685000Y-91142500D01*
X118685000Y-90857500D01*
X118685686Y-90843533D01*
X118687738Y-90829700D01*
X118691136Y-90816134D01*
X118695847Y-90802968D01*
X118701826Y-90790326D01*
X118709016Y-90778331D01*
X118717346Y-90767099D01*
X118726737Y-90756737D01*
X118737099Y-90747346D01*
X118748331Y-90739016D01*
X118760326Y-90731826D01*
X118772968Y-90725847D01*
X118786134Y-90721136D01*
X118799700Y-90717738D01*
X118813533Y-90715686D01*
X118827500Y-90715000D01*
X119172500Y-90715000D01*
X119186467Y-90715686D01*
X119186467Y-90715686D01*
G37*
D11*
X119000000Y-91000000D03*
G04 #@! TD*
D10*
G04 #@! TO.C,R25*
G36*
X75936467Y-101715686D02*
X75950300Y-101717738D01*
X75963866Y-101721136D01*
X75977032Y-101725847D01*
X75989674Y-101731826D01*
X76001669Y-101739016D01*
X76012901Y-101747346D01*
X76023263Y-101756737D01*
X76032654Y-101767099D01*
X76040984Y-101778331D01*
X76048174Y-101790326D01*
X76054153Y-101802968D01*
X76058864Y-101816134D01*
X76062262Y-101829700D01*
X76064314Y-101843533D01*
X76065000Y-101857500D01*
X76065000Y-102142500D01*
X76064314Y-102156467D01*
X76062262Y-102170300D01*
X76058864Y-102183866D01*
X76054153Y-102197032D01*
X76048174Y-102209674D01*
X76040984Y-102221669D01*
X76032654Y-102232901D01*
X76023263Y-102243263D01*
X76012901Y-102252654D01*
X76001669Y-102260984D01*
X75989674Y-102268174D01*
X75977032Y-102274153D01*
X75963866Y-102278864D01*
X75950300Y-102282262D01*
X75936467Y-102284314D01*
X75922500Y-102285000D01*
X75577500Y-102285000D01*
X75563533Y-102284314D01*
X75549700Y-102282262D01*
X75536134Y-102278864D01*
X75522968Y-102274153D01*
X75510326Y-102268174D01*
X75498331Y-102260984D01*
X75487099Y-102252654D01*
X75476737Y-102243263D01*
X75467346Y-102232901D01*
X75459016Y-102221669D01*
X75451826Y-102209674D01*
X75445847Y-102197032D01*
X75441136Y-102183866D01*
X75437738Y-102170300D01*
X75435686Y-102156467D01*
X75435000Y-102142500D01*
X75435000Y-101857500D01*
X75435686Y-101843533D01*
X75437738Y-101829700D01*
X75441136Y-101816134D01*
X75445847Y-101802968D01*
X75451826Y-101790326D01*
X75459016Y-101778331D01*
X75467346Y-101767099D01*
X75476737Y-101756737D01*
X75487099Y-101747346D01*
X75498331Y-101739016D01*
X75510326Y-101731826D01*
X75522968Y-101725847D01*
X75536134Y-101721136D01*
X75549700Y-101717738D01*
X75563533Y-101715686D01*
X75577500Y-101715000D01*
X75922500Y-101715000D01*
X75936467Y-101715686D01*
X75936467Y-101715686D01*
G37*
D11*
X75750000Y-102000000D03*
D10*
G36*
X74186467Y-101715686D02*
X74200300Y-101717738D01*
X74213866Y-101721136D01*
X74227032Y-101725847D01*
X74239674Y-101731826D01*
X74251669Y-101739016D01*
X74262901Y-101747346D01*
X74273263Y-101756737D01*
X74282654Y-101767099D01*
X74290984Y-101778331D01*
X74298174Y-101790326D01*
X74304153Y-101802968D01*
X74308864Y-101816134D01*
X74312262Y-101829700D01*
X74314314Y-101843533D01*
X74315000Y-101857500D01*
X74315000Y-102142500D01*
X74314314Y-102156467D01*
X74312262Y-102170300D01*
X74308864Y-102183866D01*
X74304153Y-102197032D01*
X74298174Y-102209674D01*
X74290984Y-102221669D01*
X74282654Y-102232901D01*
X74273263Y-102243263D01*
X74262901Y-102252654D01*
X74251669Y-102260984D01*
X74239674Y-102268174D01*
X74227032Y-102274153D01*
X74213866Y-102278864D01*
X74200300Y-102282262D01*
X74186467Y-102284314D01*
X74172500Y-102285000D01*
X73827500Y-102285000D01*
X73813533Y-102284314D01*
X73799700Y-102282262D01*
X73786134Y-102278864D01*
X73772968Y-102274153D01*
X73760326Y-102268174D01*
X73748331Y-102260984D01*
X73737099Y-102252654D01*
X73726737Y-102243263D01*
X73717346Y-102232901D01*
X73709016Y-102221669D01*
X73701826Y-102209674D01*
X73695847Y-102197032D01*
X73691136Y-102183866D01*
X73687738Y-102170300D01*
X73685686Y-102156467D01*
X73685000Y-102142500D01*
X73685000Y-101857500D01*
X73685686Y-101843533D01*
X73687738Y-101829700D01*
X73691136Y-101816134D01*
X73695847Y-101802968D01*
X73701826Y-101790326D01*
X73709016Y-101778331D01*
X73717346Y-101767099D01*
X73726737Y-101756737D01*
X73737099Y-101747346D01*
X73748331Y-101739016D01*
X73760326Y-101731826D01*
X73772968Y-101725847D01*
X73786134Y-101721136D01*
X73799700Y-101717738D01*
X73813533Y-101715686D01*
X73827500Y-101715000D01*
X74172500Y-101715000D01*
X74186467Y-101715686D01*
X74186467Y-101715686D01*
G37*
D11*
X74000000Y-102000000D03*
G04 #@! TD*
D10*
G04 #@! TO.C,R26*
G36*
X74186467Y-106715686D02*
X74200300Y-106717738D01*
X74213866Y-106721136D01*
X74227032Y-106725847D01*
X74239674Y-106731826D01*
X74251669Y-106739016D01*
X74262901Y-106747346D01*
X74273263Y-106756737D01*
X74282654Y-106767099D01*
X74290984Y-106778331D01*
X74298174Y-106790326D01*
X74304153Y-106802968D01*
X74308864Y-106816134D01*
X74312262Y-106829700D01*
X74314314Y-106843533D01*
X74315000Y-106857500D01*
X74315000Y-107142500D01*
X74314314Y-107156467D01*
X74312262Y-107170300D01*
X74308864Y-107183866D01*
X74304153Y-107197032D01*
X74298174Y-107209674D01*
X74290984Y-107221669D01*
X74282654Y-107232901D01*
X74273263Y-107243263D01*
X74262901Y-107252654D01*
X74251669Y-107260984D01*
X74239674Y-107268174D01*
X74227032Y-107274153D01*
X74213866Y-107278864D01*
X74200300Y-107282262D01*
X74186467Y-107284314D01*
X74172500Y-107285000D01*
X73827500Y-107285000D01*
X73813533Y-107284314D01*
X73799700Y-107282262D01*
X73786134Y-107278864D01*
X73772968Y-107274153D01*
X73760326Y-107268174D01*
X73748331Y-107260984D01*
X73737099Y-107252654D01*
X73726737Y-107243263D01*
X73717346Y-107232901D01*
X73709016Y-107221669D01*
X73701826Y-107209674D01*
X73695847Y-107197032D01*
X73691136Y-107183866D01*
X73687738Y-107170300D01*
X73685686Y-107156467D01*
X73685000Y-107142500D01*
X73685000Y-106857500D01*
X73685686Y-106843533D01*
X73687738Y-106829700D01*
X73691136Y-106816134D01*
X73695847Y-106802968D01*
X73701826Y-106790326D01*
X73709016Y-106778331D01*
X73717346Y-106767099D01*
X73726737Y-106756737D01*
X73737099Y-106747346D01*
X73748331Y-106739016D01*
X73760326Y-106731826D01*
X73772968Y-106725847D01*
X73786134Y-106721136D01*
X73799700Y-106717738D01*
X73813533Y-106715686D01*
X73827500Y-106715000D01*
X74172500Y-106715000D01*
X74186467Y-106715686D01*
X74186467Y-106715686D01*
G37*
D11*
X74000000Y-107000000D03*
D10*
G36*
X75936467Y-106715686D02*
X75950300Y-106717738D01*
X75963866Y-106721136D01*
X75977032Y-106725847D01*
X75989674Y-106731826D01*
X76001669Y-106739016D01*
X76012901Y-106747346D01*
X76023263Y-106756737D01*
X76032654Y-106767099D01*
X76040984Y-106778331D01*
X76048174Y-106790326D01*
X76054153Y-106802968D01*
X76058864Y-106816134D01*
X76062262Y-106829700D01*
X76064314Y-106843533D01*
X76065000Y-106857500D01*
X76065000Y-107142500D01*
X76064314Y-107156467D01*
X76062262Y-107170300D01*
X76058864Y-107183866D01*
X76054153Y-107197032D01*
X76048174Y-107209674D01*
X76040984Y-107221669D01*
X76032654Y-107232901D01*
X76023263Y-107243263D01*
X76012901Y-107252654D01*
X76001669Y-107260984D01*
X75989674Y-107268174D01*
X75977032Y-107274153D01*
X75963866Y-107278864D01*
X75950300Y-107282262D01*
X75936467Y-107284314D01*
X75922500Y-107285000D01*
X75577500Y-107285000D01*
X75563533Y-107284314D01*
X75549700Y-107282262D01*
X75536134Y-107278864D01*
X75522968Y-107274153D01*
X75510326Y-107268174D01*
X75498331Y-107260984D01*
X75487099Y-107252654D01*
X75476737Y-107243263D01*
X75467346Y-107232901D01*
X75459016Y-107221669D01*
X75451826Y-107209674D01*
X75445847Y-107197032D01*
X75441136Y-107183866D01*
X75437738Y-107170300D01*
X75435686Y-107156467D01*
X75435000Y-107142500D01*
X75435000Y-106857500D01*
X75435686Y-106843533D01*
X75437738Y-106829700D01*
X75441136Y-106816134D01*
X75445847Y-106802968D01*
X75451826Y-106790326D01*
X75459016Y-106778331D01*
X75467346Y-106767099D01*
X75476737Y-106756737D01*
X75487099Y-106747346D01*
X75498331Y-106739016D01*
X75510326Y-106731826D01*
X75522968Y-106725847D01*
X75536134Y-106721136D01*
X75549700Y-106717738D01*
X75563533Y-106715686D01*
X75577500Y-106715000D01*
X75922500Y-106715000D01*
X75936467Y-106715686D01*
X75936467Y-106715686D01*
G37*
D11*
X75750000Y-107000000D03*
G04 #@! TD*
D10*
G04 #@! TO.C,R27*
G36*
X58139703Y-104573222D02*
X58154264Y-104575382D01*
X58168543Y-104578959D01*
X58182403Y-104583918D01*
X58195710Y-104590212D01*
X58208336Y-104597780D01*
X58220159Y-104606548D01*
X58231066Y-104616434D01*
X58240952Y-104627341D01*
X58249720Y-104639164D01*
X58257288Y-104651790D01*
X58263582Y-104665097D01*
X58268541Y-104678957D01*
X58272118Y-104693236D01*
X58274278Y-104707797D01*
X58275000Y-104722500D01*
X58275000Y-105277500D01*
X58274278Y-105292203D01*
X58272118Y-105306764D01*
X58268541Y-105321043D01*
X58263582Y-105334903D01*
X58257288Y-105348210D01*
X58249720Y-105360836D01*
X58240952Y-105372659D01*
X58231066Y-105383566D01*
X58220159Y-105393452D01*
X58208336Y-105402220D01*
X58195710Y-105409788D01*
X58182403Y-105416082D01*
X58168543Y-105421041D01*
X58154264Y-105424618D01*
X58139703Y-105426778D01*
X58125000Y-105427500D01*
X57375000Y-105427500D01*
X57360297Y-105426778D01*
X57345736Y-105424618D01*
X57331457Y-105421041D01*
X57317597Y-105416082D01*
X57304290Y-105409788D01*
X57291664Y-105402220D01*
X57279841Y-105393452D01*
X57268934Y-105383566D01*
X57259048Y-105372659D01*
X57250280Y-105360836D01*
X57242712Y-105348210D01*
X57236418Y-105334903D01*
X57231459Y-105321043D01*
X57227882Y-105306764D01*
X57225722Y-105292203D01*
X57225000Y-105277500D01*
X57225000Y-104722500D01*
X57225722Y-104707797D01*
X57227882Y-104693236D01*
X57231459Y-104678957D01*
X57236418Y-104665097D01*
X57242712Y-104651790D01*
X57250280Y-104639164D01*
X57259048Y-104627341D01*
X57268934Y-104616434D01*
X57279841Y-104606548D01*
X57291664Y-104597780D01*
X57304290Y-104590212D01*
X57317597Y-104583918D01*
X57331457Y-104578959D01*
X57345736Y-104575382D01*
X57360297Y-104573222D01*
X57375000Y-104572500D01*
X58125000Y-104572500D01*
X58139703Y-104573222D01*
X58139703Y-104573222D01*
G37*
D12*
X57750000Y-105000000D03*
D10*
G36*
X58139703Y-101598222D02*
X58154264Y-101600382D01*
X58168543Y-101603959D01*
X58182403Y-101608918D01*
X58195710Y-101615212D01*
X58208336Y-101622780D01*
X58220159Y-101631548D01*
X58231066Y-101641434D01*
X58240952Y-101652341D01*
X58249720Y-101664164D01*
X58257288Y-101676790D01*
X58263582Y-101690097D01*
X58268541Y-101703957D01*
X58272118Y-101718236D01*
X58274278Y-101732797D01*
X58275000Y-101747500D01*
X58275000Y-102302500D01*
X58274278Y-102317203D01*
X58272118Y-102331764D01*
X58268541Y-102346043D01*
X58263582Y-102359903D01*
X58257288Y-102373210D01*
X58249720Y-102385836D01*
X58240952Y-102397659D01*
X58231066Y-102408566D01*
X58220159Y-102418452D01*
X58208336Y-102427220D01*
X58195710Y-102434788D01*
X58182403Y-102441082D01*
X58168543Y-102446041D01*
X58154264Y-102449618D01*
X58139703Y-102451778D01*
X58125000Y-102452500D01*
X57375000Y-102452500D01*
X57360297Y-102451778D01*
X57345736Y-102449618D01*
X57331457Y-102446041D01*
X57317597Y-102441082D01*
X57304290Y-102434788D01*
X57291664Y-102427220D01*
X57279841Y-102418452D01*
X57268934Y-102408566D01*
X57259048Y-102397659D01*
X57250280Y-102385836D01*
X57242712Y-102373210D01*
X57236418Y-102359903D01*
X57231459Y-102346043D01*
X57227882Y-102331764D01*
X57225722Y-102317203D01*
X57225000Y-102302500D01*
X57225000Y-101747500D01*
X57225722Y-101732797D01*
X57227882Y-101718236D01*
X57231459Y-101703957D01*
X57236418Y-101690097D01*
X57242712Y-101676790D01*
X57250280Y-101664164D01*
X57259048Y-101652341D01*
X57268934Y-101641434D01*
X57279841Y-101631548D01*
X57291664Y-101622780D01*
X57304290Y-101615212D01*
X57317597Y-101608918D01*
X57331457Y-101603959D01*
X57345736Y-101600382D01*
X57360297Y-101598222D01*
X57375000Y-101597500D01*
X58125000Y-101597500D01*
X58139703Y-101598222D01*
X58139703Y-101598222D01*
G37*
D12*
X57750000Y-102025000D03*
G04 #@! TD*
D10*
G04 #@! TO.C,R28*
G36*
X58139703Y-110573222D02*
X58154264Y-110575382D01*
X58168543Y-110578959D01*
X58182403Y-110583918D01*
X58195710Y-110590212D01*
X58208336Y-110597780D01*
X58220159Y-110606548D01*
X58231066Y-110616434D01*
X58240952Y-110627341D01*
X58249720Y-110639164D01*
X58257288Y-110651790D01*
X58263582Y-110665097D01*
X58268541Y-110678957D01*
X58272118Y-110693236D01*
X58274278Y-110707797D01*
X58275000Y-110722500D01*
X58275000Y-111277500D01*
X58274278Y-111292203D01*
X58272118Y-111306764D01*
X58268541Y-111321043D01*
X58263582Y-111334903D01*
X58257288Y-111348210D01*
X58249720Y-111360836D01*
X58240952Y-111372659D01*
X58231066Y-111383566D01*
X58220159Y-111393452D01*
X58208336Y-111402220D01*
X58195710Y-111409788D01*
X58182403Y-111416082D01*
X58168543Y-111421041D01*
X58154264Y-111424618D01*
X58139703Y-111426778D01*
X58125000Y-111427500D01*
X57375000Y-111427500D01*
X57360297Y-111426778D01*
X57345736Y-111424618D01*
X57331457Y-111421041D01*
X57317597Y-111416082D01*
X57304290Y-111409788D01*
X57291664Y-111402220D01*
X57279841Y-111393452D01*
X57268934Y-111383566D01*
X57259048Y-111372659D01*
X57250280Y-111360836D01*
X57242712Y-111348210D01*
X57236418Y-111334903D01*
X57231459Y-111321043D01*
X57227882Y-111306764D01*
X57225722Y-111292203D01*
X57225000Y-111277500D01*
X57225000Y-110722500D01*
X57225722Y-110707797D01*
X57227882Y-110693236D01*
X57231459Y-110678957D01*
X57236418Y-110665097D01*
X57242712Y-110651790D01*
X57250280Y-110639164D01*
X57259048Y-110627341D01*
X57268934Y-110616434D01*
X57279841Y-110606548D01*
X57291664Y-110597780D01*
X57304290Y-110590212D01*
X57317597Y-110583918D01*
X57331457Y-110578959D01*
X57345736Y-110575382D01*
X57360297Y-110573222D01*
X57375000Y-110572500D01*
X58125000Y-110572500D01*
X58139703Y-110573222D01*
X58139703Y-110573222D01*
G37*
D12*
X57750000Y-111000000D03*
D10*
G36*
X58139703Y-107598222D02*
X58154264Y-107600382D01*
X58168543Y-107603959D01*
X58182403Y-107608918D01*
X58195710Y-107615212D01*
X58208336Y-107622780D01*
X58220159Y-107631548D01*
X58231066Y-107641434D01*
X58240952Y-107652341D01*
X58249720Y-107664164D01*
X58257288Y-107676790D01*
X58263582Y-107690097D01*
X58268541Y-107703957D01*
X58272118Y-107718236D01*
X58274278Y-107732797D01*
X58275000Y-107747500D01*
X58275000Y-108302500D01*
X58274278Y-108317203D01*
X58272118Y-108331764D01*
X58268541Y-108346043D01*
X58263582Y-108359903D01*
X58257288Y-108373210D01*
X58249720Y-108385836D01*
X58240952Y-108397659D01*
X58231066Y-108408566D01*
X58220159Y-108418452D01*
X58208336Y-108427220D01*
X58195710Y-108434788D01*
X58182403Y-108441082D01*
X58168543Y-108446041D01*
X58154264Y-108449618D01*
X58139703Y-108451778D01*
X58125000Y-108452500D01*
X57375000Y-108452500D01*
X57360297Y-108451778D01*
X57345736Y-108449618D01*
X57331457Y-108446041D01*
X57317597Y-108441082D01*
X57304290Y-108434788D01*
X57291664Y-108427220D01*
X57279841Y-108418452D01*
X57268934Y-108408566D01*
X57259048Y-108397659D01*
X57250280Y-108385836D01*
X57242712Y-108373210D01*
X57236418Y-108359903D01*
X57231459Y-108346043D01*
X57227882Y-108331764D01*
X57225722Y-108317203D01*
X57225000Y-108302500D01*
X57225000Y-107747500D01*
X57225722Y-107732797D01*
X57227882Y-107718236D01*
X57231459Y-107703957D01*
X57236418Y-107690097D01*
X57242712Y-107676790D01*
X57250280Y-107664164D01*
X57259048Y-107652341D01*
X57268934Y-107641434D01*
X57279841Y-107631548D01*
X57291664Y-107622780D01*
X57304290Y-107615212D01*
X57317597Y-107608918D01*
X57331457Y-107603959D01*
X57345736Y-107600382D01*
X57360297Y-107598222D01*
X57375000Y-107597500D01*
X58125000Y-107597500D01*
X58139703Y-107598222D01*
X58139703Y-107598222D01*
G37*
D12*
X57750000Y-108025000D03*
G04 #@! TD*
D13*
G04 #@! TO.C,SW1*
X129880000Y-105000000D03*
X124120000Y-105000000D03*
X124120000Y-109000000D03*
X129880000Y-109000000D03*
G04 #@! TD*
G04 #@! TO.C,SW2*
X129880000Y-95000000D03*
X124120000Y-95000000D03*
X124120000Y-91000000D03*
X129880000Y-91000000D03*
G04 #@! TD*
D14*
G04 #@! TO.C,U5*
X95750000Y-91000000D03*
X97020000Y-91000000D03*
X98290000Y-91000000D03*
X99560000Y-91000000D03*
X100830000Y-91000000D03*
X102100000Y-91000000D03*
X103370000Y-91000000D03*
X104640000Y-91000000D03*
X105910000Y-91000000D03*
X107180000Y-91000000D03*
X108450000Y-91000000D03*
X109720000Y-91000000D03*
X110990000Y-91000000D03*
X112260000Y-91000000D03*
D15*
X113750000Y-94285000D03*
X113750000Y-95555000D03*
X113750000Y-96825000D03*
X113750000Y-98095000D03*
X113750000Y-99365000D03*
X113750000Y-100635000D03*
X113750000Y-101905000D03*
X113750000Y-103175000D03*
X113750000Y-104445000D03*
X113750000Y-105715000D03*
D14*
X112260000Y-109000000D03*
X110990000Y-109000000D03*
X109720000Y-109000000D03*
X108450000Y-109000000D03*
X107180000Y-109000000D03*
X105910000Y-109000000D03*
X104640000Y-109000000D03*
X103370000Y-109000000D03*
X102100000Y-109000000D03*
X100830000Y-109000000D03*
X99560000Y-109000000D03*
X98290000Y-109000000D03*
X97020000Y-109000000D03*
X95750000Y-109000000D03*
D16*
X103450000Y-100300000D03*
G04 #@! TD*
M02*
