G04 #@! TF.GenerationSoftware,KiCad,Pcbnew,5.0.2-bee76a0~70~ubuntu18.10.1*
G04 #@! TF.CreationDate,2019-05-13T16:40:49+01:00*
G04 #@! TF.ProjectId,alarm-monitor,616c6172-6d2d-46d6-9f6e-69746f722e6b,rev?*
G04 #@! TF.SameCoordinates,Original*
G04 #@! TF.FileFunction,Copper,L2,Bot*
G04 #@! TF.FilePolarity,Positive*
%FSLAX46Y46*%
G04 Gerber Fmt 4.6, Leading zero omitted, Abs format (unit mm)*
G04 Created by KiCad (PCBNEW 5.0.2-bee76a0~70~ubuntu18.10.1) date Mon 13 May 2019 16:40:49 BST*
%MOMM*%
%LPD*%
G01*
G04 APERTURE LIST*
G04 #@! TA.AperFunction,ComponentPad*
%ADD10C,5.700000*%
G04 #@! TD*
G04 #@! TA.AperFunction,ComponentPad*
%ADD11R,2.600000X2.600000*%
G04 #@! TD*
G04 #@! TA.AperFunction,ComponentPad*
%ADD12C,2.600000*%
G04 #@! TD*
G04 #@! TA.AperFunction,ComponentPad*
%ADD13C,1.524000*%
G04 #@! TD*
G04 #@! TA.AperFunction,ComponentPad*
%ADD14R,1.700000X1.700000*%
G04 #@! TD*
G04 #@! TA.AperFunction,ComponentPad*
%ADD15O,1.700000X1.700000*%
G04 #@! TD*
G04 #@! TA.AperFunction,ComponentPad*
%ADD16R,1.600000X1.600000*%
G04 #@! TD*
G04 #@! TA.AperFunction,ComponentPad*
%ADD17O,1.600000X1.600000*%
G04 #@! TD*
G04 #@! TA.AperFunction,ViaPad*
%ADD18C,0.800000*%
G04 #@! TD*
G04 #@! TA.AperFunction,Conductor*
%ADD19C,0.250000*%
G04 #@! TD*
G04 APERTURE END LIST*
D10*
G04 #@! TO.P,REF\002A\002A,*
G04 #@! TO.N,*
X129000000Y-126000000D03*
G04 #@! TD*
G04 #@! TO.P,REF\002A\002A,*
G04 #@! TO.N,*
X48000000Y-126000000D03*
G04 #@! TD*
G04 #@! TO.P,REF\002A\002A,*
G04 #@! TO.N,*
X48000000Y-68000000D03*
G04 #@! TD*
D11*
G04 #@! TO.P,J1,1*
G04 #@! TO.N,+12V*
X66000000Y-70000000D03*
D12*
G04 #@! TO.P,J1,2*
G04 #@! TO.N,GND*
X60920000Y-70000000D03*
G04 #@! TD*
G04 #@! TO.P,J2,4*
G04 #@! TO.N,Net-(J2-Pad4)*
X63000000Y-141000000D03*
G04 #@! TO.P,J2,3*
G04 #@! TO.N,Net-(J2-Pad3)*
X58000000Y-141000000D03*
G04 #@! TO.P,J2,2*
G04 #@! TO.N,Net-(J2-Pad2)*
X53000000Y-141000000D03*
D11*
G04 #@! TO.P,J2,1*
G04 #@! TO.N,Net-(J2-Pad1)*
X48000000Y-141000000D03*
G04 #@! TD*
G04 #@! TO.P,J3,1*
G04 #@! TO.N,Net-(J3-Pad1)*
X70000000Y-141000000D03*
D12*
G04 #@! TO.P,J3,2*
G04 #@! TO.N,Net-(J3-Pad2)*
X75000000Y-141000000D03*
G04 #@! TO.P,J3,3*
G04 #@! TO.N,Net-(J3-Pad3)*
X80000000Y-141000000D03*
G04 #@! TO.P,J3,4*
G04 #@! TO.N,Net-(J3-Pad4)*
X85000000Y-141000000D03*
G04 #@! TD*
D11*
G04 #@! TO.P,J4,1*
G04 #@! TO.N,Net-(J4-Pad1)*
X92000000Y-141000000D03*
D12*
G04 #@! TO.P,J4,2*
G04 #@! TO.N,Net-(J4-Pad2)*
X97000000Y-141000000D03*
G04 #@! TO.P,J4,3*
G04 #@! TO.N,Net-(J4-Pad3)*
X102000000Y-141000000D03*
G04 #@! TO.P,J4,4*
G04 #@! TO.N,Net-(J4-Pad4)*
X107000000Y-141000000D03*
G04 #@! TD*
G04 #@! TO.P,J5,4*
G04 #@! TO.N,Net-(J5-Pad4)*
X129000000Y-141000000D03*
G04 #@! TO.P,J5,3*
G04 #@! TO.N,Net-(J5-Pad3)*
X124000000Y-141000000D03*
G04 #@! TO.P,J5,2*
G04 #@! TO.N,Net-(J5-Pad2)*
X119000000Y-141000000D03*
D11*
G04 #@! TO.P,J5,1*
G04 #@! TO.N,Net-(J5-Pad1)*
X114000000Y-141000000D03*
G04 #@! TD*
G04 #@! TO.P,J6,1*
G04 #@! TO.N,Net-(J6-Pad1)*
X49750000Y-80000000D03*
D12*
G04 #@! TO.P,J6,2*
G04 #@! TO.N,Net-(J6-Pad2)*
X49750000Y-85000000D03*
G04 #@! TO.P,J6,3*
G04 #@! TO.N,Net-(J6-Pad3)*
X49750000Y-90000000D03*
G04 #@! TO.P,J6,4*
G04 #@! TO.N,Net-(J6-Pad4)*
X49750000Y-95000000D03*
G04 #@! TD*
G04 #@! TO.P,J7,4*
G04 #@! TO.N,Net-(J7-Pad4)*
X49750000Y-117000000D03*
G04 #@! TO.P,J7,3*
G04 #@! TO.N,Net-(J7-Pad3)*
X49750000Y-112000000D03*
G04 #@! TO.P,J7,2*
G04 #@! TO.N,Net-(J7-Pad2)*
X49750000Y-107000000D03*
D11*
G04 #@! TO.P,J7,1*
G04 #@! TO.N,Net-(J7-Pad1)*
X49750000Y-102000000D03*
G04 #@! TD*
D13*
G04 #@! TO.P,U4,1*
G04 #@! TO.N,+12V*
X73000000Y-67000000D03*
G04 #@! TO.P,U4,3*
G04 #@! TO.N,+3V3*
X110500000Y-67000000D03*
G04 #@! TO.P,U4,4*
G04 #@! TO.N,GND*
X110500000Y-83500000D03*
G04 #@! TO.P,U4,2*
X73000000Y-83500000D03*
G04 #@! TD*
D14*
G04 #@! TO.P,J8,1*
G04 #@! TO.N,GND*
X130000000Y-82000000D03*
D15*
G04 #@! TO.P,J8,2*
G04 #@! TO.N,Net-(J8-Pad2)*
X127460000Y-82000000D03*
G04 #@! TO.P,J8,3*
G04 #@! TO.N,+3V3*
X124920000Y-82000000D03*
G04 #@! TO.P,J8,4*
G04 #@! TO.N,RXDI*
X122380000Y-82000000D03*
G04 #@! TO.P,J8,5*
G04 #@! TO.N,TXDO*
X119840000Y-82000000D03*
G04 #@! TO.P,J8,6*
G04 #@! TO.N,Net-(J8-Pad6)*
X117300000Y-82000000D03*
G04 #@! TD*
D10*
G04 #@! TO.P,REF\002A\002A,*
G04 #@! TO.N,*
X129000000Y-68000000D03*
G04 #@! TD*
D16*
G04 #@! TO.P,U1,1*
G04 #@! TO.N,Net-(R1-Pad1)*
X58420000Y-128270000D03*
D17*
G04 #@! TO.P,U1,9*
G04 #@! TO.N,GND*
X76200000Y-120650000D03*
G04 #@! TO.P,U1,2*
G04 #@! TO.N,Net-(J2-Pad2)*
X60960000Y-128270000D03*
G04 #@! TO.P,U1,10*
G04 #@! TO.N,ZONE4*
X73660000Y-120650000D03*
G04 #@! TO.P,U1,3*
G04 #@! TO.N,Net-(R2-Pad1)*
X63500000Y-128270000D03*
G04 #@! TO.P,U1,11*
G04 #@! TO.N,GND*
X71120000Y-120650000D03*
G04 #@! TO.P,U1,4*
G04 #@! TO.N,Net-(J2-Pad4)*
X66040000Y-128270000D03*
G04 #@! TO.P,U1,12*
G04 #@! TO.N,ZONE3*
X68580000Y-120650000D03*
G04 #@! TO.P,U1,5*
G04 #@! TO.N,Net-(R3-Pad1)*
X68580000Y-128270000D03*
G04 #@! TO.P,U1,13*
G04 #@! TO.N,GND*
X66040000Y-120650000D03*
G04 #@! TO.P,U1,6*
G04 #@! TO.N,Net-(J3-Pad2)*
X71120000Y-128270000D03*
G04 #@! TO.P,U1,14*
G04 #@! TO.N,ZONE2*
X63500000Y-120650000D03*
G04 #@! TO.P,U1,7*
G04 #@! TO.N,Net-(R4-Pad1)*
X73660000Y-128270000D03*
G04 #@! TO.P,U1,15*
G04 #@! TO.N,GND*
X60960000Y-120650000D03*
G04 #@! TO.P,U1,8*
G04 #@! TO.N,Net-(J3-Pad4)*
X76200000Y-128270000D03*
G04 #@! TO.P,U1,16*
G04 #@! TO.N,ZONE1*
X58420000Y-120650000D03*
G04 #@! TD*
G04 #@! TO.P,U2,16*
G04 #@! TO.N,ZONE5*
X101600000Y-120650000D03*
G04 #@! TO.P,U2,8*
G04 #@! TO.N,Net-(J5-Pad4)*
X119380000Y-128270000D03*
G04 #@! TO.P,U2,15*
G04 #@! TO.N,GND*
X104140000Y-120650000D03*
G04 #@! TO.P,U2,7*
G04 #@! TO.N,Net-(R8-Pad1)*
X116840000Y-128270000D03*
G04 #@! TO.P,U2,14*
G04 #@! TO.N,ZONE6*
X106680000Y-120650000D03*
G04 #@! TO.P,U2,6*
G04 #@! TO.N,Net-(J5-Pad2)*
X114300000Y-128270000D03*
G04 #@! TO.P,U2,13*
G04 #@! TO.N,GND*
X109220000Y-120650000D03*
G04 #@! TO.P,U2,5*
G04 #@! TO.N,Net-(R7-Pad1)*
X111760000Y-128270000D03*
G04 #@! TO.P,U2,12*
G04 #@! TO.N,ZONE7*
X111760000Y-120650000D03*
G04 #@! TO.P,U2,4*
G04 #@! TO.N,Net-(J4-Pad4)*
X109220000Y-128270000D03*
G04 #@! TO.P,U2,11*
G04 #@! TO.N,GND*
X114300000Y-120650000D03*
G04 #@! TO.P,U2,3*
G04 #@! TO.N,Net-(R6-Pad1)*
X106680000Y-128270000D03*
G04 #@! TO.P,U2,10*
G04 #@! TO.N,ZONE8*
X116840000Y-120650000D03*
G04 #@! TO.P,U2,2*
G04 #@! TO.N,Net-(J4-Pad2)*
X104140000Y-128270000D03*
G04 #@! TO.P,U2,9*
G04 #@! TO.N,GND*
X119380000Y-120650000D03*
D16*
G04 #@! TO.P,U2,1*
G04 #@! TO.N,Net-(R5-Pad1)*
X101600000Y-128270000D03*
G04 #@! TD*
G04 #@! TO.P,U3,1*
G04 #@! TO.N,Net-(R9-Pad1)*
X63500000Y-88900000D03*
D17*
G04 #@! TO.P,U3,9*
G04 #@! TO.N,Net-(J7-Pad4)*
X71120000Y-106680000D03*
G04 #@! TO.P,U3,2*
G04 #@! TO.N,Net-(J6-Pad2)*
X63500000Y-91440000D03*
G04 #@! TO.P,U3,10*
G04 #@! TO.N,Net-(J7-Pad3)*
X71120000Y-104140000D03*
G04 #@! TO.P,U3,3*
G04 #@! TO.N,Net-(R10-Pad1)*
X63500000Y-93980000D03*
G04 #@! TO.P,U3,11*
G04 #@! TO.N,Net-(J7-Pad2)*
X71120000Y-101600000D03*
G04 #@! TO.P,U3,4*
G04 #@! TO.N,Net-(J6-Pad4)*
X63500000Y-96520000D03*
G04 #@! TO.P,U3,12*
G04 #@! TO.N,Net-(J7-Pad1)*
X71120000Y-99060000D03*
G04 #@! TO.P,U3,5*
G04 #@! TO.N,Net-(R25-Pad2)*
X63500000Y-99060000D03*
G04 #@! TO.P,U3,13*
G04 #@! TO.N,GND*
X71120000Y-96520000D03*
G04 #@! TO.P,U3,6*
X63500000Y-101600000D03*
G04 #@! TO.P,U3,14*
G04 #@! TO.N,CLK_IN*
X71120000Y-93980000D03*
G04 #@! TO.P,U3,7*
G04 #@! TO.N,Net-(R26-Pad2)*
X63500000Y-104140000D03*
G04 #@! TO.P,U3,15*
G04 #@! TO.N,GND*
X71120000Y-91440000D03*
G04 #@! TO.P,U3,8*
X63500000Y-106680000D03*
G04 #@! TO.P,U3,16*
G04 #@! TO.N,DATA_IN*
X71120000Y-88900000D03*
G04 #@! TD*
D18*
G04 #@! TO.N,+3V3*
X122000000Y-111000000D03*
X122000000Y-107000000D03*
X116000000Y-117000000D03*
X105000000Y-117000000D03*
X73000000Y-117000000D03*
X62000000Y-117000000D03*
X121250000Y-87000000D03*
G04 #@! TO.N,DATA_IN*
X74000000Y-90000000D03*
X104000000Y-89000000D03*
G04 #@! TO.N,CLK_IN*
X74000000Y-92000000D03*
X106000000Y-89000000D03*
G04 #@! TO.N,DATA_OUT*
X79000000Y-87000000D03*
X100000000Y-87000000D03*
G04 #@! TO.N,CLK_OUT*
X80000000Y-88000000D03*
X100000000Y-88000000D03*
G04 #@! TD*
D19*
G04 #@! TO.N,GND*
X130000000Y-83100000D02*
X130000000Y-82000000D01*
X129600000Y-83500000D02*
X130000000Y-83100000D01*
X110500000Y-83500000D02*
X129600000Y-83500000D01*
X73000000Y-83500000D02*
X110500000Y-83500000D01*
X71919999Y-92239999D02*
X71120000Y-91440000D01*
X72245001Y-92565001D02*
X71919999Y-92239999D01*
X72245001Y-95394999D02*
X72245001Y-92565001D01*
X71120000Y-96520000D02*
X72245001Y-95394999D01*
X62700001Y-105880001D02*
X63500000Y-106680000D01*
X62374999Y-105554999D02*
X62700001Y-105880001D01*
X62374999Y-102725001D02*
X62374999Y-105554999D01*
X63500000Y-101600000D02*
X62374999Y-102725001D01*
X71120000Y-96520000D02*
X69994999Y-95394999D01*
X62959999Y-95394999D02*
X62230000Y-96124998D01*
X69994999Y-95394999D02*
X62959999Y-95394999D01*
X62230000Y-100330000D02*
X63500000Y-101600000D01*
X62230000Y-96124998D02*
X62230000Y-100330000D01*
X73000000Y-89560000D02*
X71120000Y-91440000D01*
X73000000Y-83500000D02*
X73000000Y-89560000D01*
G04 #@! TO.N,+3V3*
X122000000Y-111000000D02*
X122000000Y-107000000D01*
X122000000Y-111000000D02*
X116000000Y-117000000D01*
X116000000Y-117000000D02*
X105000000Y-117000000D01*
X105000000Y-117000000D02*
X73000000Y-117000000D01*
X73000000Y-117000000D02*
X62000000Y-117000000D01*
X122000000Y-87750000D02*
X121250000Y-87000000D01*
X122000000Y-107000000D02*
X122000000Y-87750000D01*
G04 #@! TO.N,DATA_IN*
X74000000Y-90000000D02*
X75000000Y-89000000D01*
X75000000Y-89000000D02*
X104000000Y-89000000D01*
G04 #@! TO.N,CLK_IN*
X105600001Y-89399999D02*
X106000000Y-89000000D01*
X105000000Y-90000000D02*
X105600001Y-89399999D01*
X76000000Y-90000000D02*
X105000000Y-90000000D01*
X74000000Y-92000000D02*
X76000000Y-90000000D01*
G04 #@! TO.N,DATA_OUT*
X79000000Y-87000000D02*
X100000000Y-87000000D01*
G04 #@! TO.N,CLK_OUT*
X80000000Y-88000000D02*
X100000000Y-88000000D01*
G04 #@! TD*
M02*
