G04 #@! TF.GenerationSoftware,KiCad,Pcbnew,5.0.2-bee76a0~70~ubuntu18.10.1*
G04 #@! TF.CreationDate,2019-05-13T16:40:49+01:00*
G04 #@! TF.ProjectId,alarm-monitor,616c6172-6d2d-46d6-9f6e-69746f722e6b,rev?*
G04 #@! TF.SameCoordinates,Original*
G04 #@! TF.FileFunction,Legend,Top*
G04 #@! TF.FilePolarity,Positive*
%FSLAX46Y46*%
G04 Gerber Fmt 4.6, Leading zero omitted, Abs format (unit mm)*
G04 Created by KiCad (PCBNEW 5.0.2-bee76a0~70~ubuntu18.10.1) date Mon 13 May 2019 16:40:49 BST*
%MOMM*%
%LPD*%
G01*
G04 APERTURE LIST*
%ADD10C,0.200000*%
%ADD11C,0.300000*%
%ADD12C,0.120000*%
%ADD13C,0.150000*%
%ADD14C,0.500000*%
G04 APERTURE END LIST*
D10*
X66392857Y-63928571D02*
X65630952Y-63928571D01*
X66011904Y-63547619D02*
X66011904Y-64309523D01*
X63869047Y-63547619D02*
X64440476Y-63547619D01*
X64154761Y-63547619D02*
X64154761Y-64547619D01*
X64250000Y-64404761D01*
X64345238Y-64309523D01*
X64440476Y-64261904D01*
X63488095Y-64452380D02*
X63440476Y-64500000D01*
X63345238Y-64547619D01*
X63107142Y-64547619D01*
X63011904Y-64500000D01*
X62964285Y-64452380D01*
X62916666Y-64357142D01*
X62916666Y-64261904D01*
X62964285Y-64119047D01*
X63535714Y-63547619D01*
X62916666Y-63547619D01*
X62630952Y-64547619D02*
X62297619Y-63547619D01*
X61964285Y-64547619D01*
X60869047Y-63928571D02*
X60107142Y-63928571D01*
X123785714Y-147071428D02*
X124547619Y-147071428D01*
X124166666Y-147452380D02*
X124166666Y-146690476D01*
X125690476Y-146452380D02*
X126357142Y-146452380D01*
X125690476Y-147452380D01*
X126357142Y-147452380D01*
X126880952Y-146880952D02*
X126785714Y-146833333D01*
X126738095Y-146785714D01*
X126690476Y-146690476D01*
X126690476Y-146642857D01*
X126738095Y-146547619D01*
X126785714Y-146500000D01*
X126880952Y-146452380D01*
X127071428Y-146452380D01*
X127166666Y-146500000D01*
X127214285Y-146547619D01*
X127261904Y-146642857D01*
X127261904Y-146690476D01*
X127214285Y-146785714D01*
X127166666Y-146833333D01*
X127071428Y-146880952D01*
X126880952Y-146880952D01*
X126785714Y-146928571D01*
X126738095Y-146976190D01*
X126690476Y-147071428D01*
X126690476Y-147261904D01*
X126738095Y-147357142D01*
X126785714Y-147404761D01*
X126880952Y-147452380D01*
X127071428Y-147452380D01*
X127166666Y-147404761D01*
X127214285Y-147357142D01*
X127261904Y-147261904D01*
X127261904Y-147071428D01*
X127214285Y-146976190D01*
X127166666Y-146928571D01*
X127071428Y-146880952D01*
X128452380Y-147071428D02*
X129214285Y-147071428D01*
X113785714Y-147071428D02*
X114547619Y-147071428D01*
X114166666Y-147452380D02*
X114166666Y-146690476D01*
X115690476Y-146452380D02*
X116357142Y-146452380D01*
X115690476Y-147452380D01*
X116357142Y-147452380D01*
X116642857Y-146452380D02*
X117309523Y-146452380D01*
X116880952Y-147452380D01*
X118452380Y-147071428D02*
X119214285Y-147071428D01*
X101785714Y-147071428D02*
X102547619Y-147071428D01*
X102166666Y-147452380D02*
X102166666Y-146690476D01*
X103690476Y-146452380D02*
X104357142Y-146452380D01*
X103690476Y-147452380D01*
X104357142Y-147452380D01*
X105166666Y-146452380D02*
X104976190Y-146452380D01*
X104880952Y-146500000D01*
X104833333Y-146547619D01*
X104738095Y-146690476D01*
X104690476Y-146880952D01*
X104690476Y-147261904D01*
X104738095Y-147357142D01*
X104785714Y-147404761D01*
X104880952Y-147452380D01*
X105071428Y-147452380D01*
X105166666Y-147404761D01*
X105214285Y-147357142D01*
X105261904Y-147261904D01*
X105261904Y-147023809D01*
X105214285Y-146928571D01*
X105166666Y-146880952D01*
X105071428Y-146833333D01*
X104880952Y-146833333D01*
X104785714Y-146880952D01*
X104738095Y-146928571D01*
X104690476Y-147023809D01*
X106452380Y-147071428D02*
X107214285Y-147071428D01*
X91785714Y-147071428D02*
X92547619Y-147071428D01*
X92166666Y-147452380D02*
X92166666Y-146690476D01*
X93690476Y-146452380D02*
X94357142Y-146452380D01*
X93690476Y-147452380D01*
X94357142Y-147452380D01*
X95214285Y-146452380D02*
X94738095Y-146452380D01*
X94690476Y-146928571D01*
X94738095Y-146880952D01*
X94833333Y-146833333D01*
X95071428Y-146833333D01*
X95166666Y-146880952D01*
X95214285Y-146928571D01*
X95261904Y-147023809D01*
X95261904Y-147261904D01*
X95214285Y-147357142D01*
X95166666Y-147404761D01*
X95071428Y-147452380D01*
X94833333Y-147452380D01*
X94738095Y-147404761D01*
X94690476Y-147357142D01*
X96452380Y-147071428D02*
X97214285Y-147071428D01*
X79785714Y-147071428D02*
X80547619Y-147071428D01*
X80166666Y-147452380D02*
X80166666Y-146690476D01*
X81690476Y-146452380D02*
X82357142Y-146452380D01*
X81690476Y-147452380D01*
X82357142Y-147452380D01*
X83166666Y-146785714D02*
X83166666Y-147452380D01*
X82928571Y-146404761D02*
X82690476Y-147119047D01*
X83309523Y-147119047D01*
X84452380Y-147071428D02*
X85214285Y-147071428D01*
X69785714Y-147071428D02*
X70547619Y-147071428D01*
X70166666Y-147452380D02*
X70166666Y-146690476D01*
X71690476Y-146452380D02*
X72357142Y-146452380D01*
X71690476Y-147452380D01*
X72357142Y-147452380D01*
X72642857Y-146452380D02*
X73261904Y-146452380D01*
X72928571Y-146833333D01*
X73071428Y-146833333D01*
X73166666Y-146880952D01*
X73214285Y-146928571D01*
X73261904Y-147023809D01*
X73261904Y-147261904D01*
X73214285Y-147357142D01*
X73166666Y-147404761D01*
X73071428Y-147452380D01*
X72785714Y-147452380D01*
X72690476Y-147404761D01*
X72642857Y-147357142D01*
X74452380Y-147071428D02*
X75214285Y-147071428D01*
X57785714Y-147071428D02*
X58547619Y-147071428D01*
X58166666Y-147452380D02*
X58166666Y-146690476D01*
X59690476Y-146452380D02*
X60357142Y-146452380D01*
X59690476Y-147452380D01*
X60357142Y-147452380D01*
X60690476Y-146547619D02*
X60738095Y-146500000D01*
X60833333Y-146452380D01*
X61071428Y-146452380D01*
X61166666Y-146500000D01*
X61214285Y-146547619D01*
X61261904Y-146642857D01*
X61261904Y-146738095D01*
X61214285Y-146880952D01*
X60642857Y-147452380D01*
X61261904Y-147452380D01*
X62452380Y-147071428D02*
X63214285Y-147071428D01*
X47535714Y-147071428D02*
X48297619Y-147071428D01*
X47916666Y-147452380D02*
X47916666Y-146690476D01*
X49440476Y-146452380D02*
X50107142Y-146452380D01*
X49440476Y-147452380D01*
X50107142Y-147452380D01*
X51011904Y-147452380D02*
X50440476Y-147452380D01*
X50726190Y-147452380D02*
X50726190Y-146452380D01*
X50630952Y-146595238D01*
X50535714Y-146690476D01*
X50440476Y-146738095D01*
X52202380Y-147071428D02*
X52964285Y-147071428D01*
D11*
X81452380Y-114971428D02*
X81928571Y-116304761D01*
X82404761Y-114971428D01*
X84404761Y-115352380D02*
X84309523Y-115257142D01*
X84119047Y-115161904D01*
X83928571Y-115161904D01*
X83738095Y-115257142D01*
X83642857Y-115352380D01*
X83547619Y-115542857D01*
X83547619Y-115733333D01*
X83642857Y-115923809D01*
X83738095Y-116019047D01*
X83928571Y-116114285D01*
X84119047Y-116114285D01*
X84309523Y-116019047D01*
X84404761Y-115923809D01*
X84404761Y-115161904D02*
X84404761Y-115923809D01*
X84500000Y-116019047D01*
X84595238Y-116019047D01*
X84785714Y-115923809D01*
X84880952Y-115733333D01*
X84880952Y-115257142D01*
X84690476Y-114971428D01*
X84404761Y-114780952D01*
X84023809Y-114685714D01*
X83642857Y-114780952D01*
X83357142Y-114971428D01*
X83166666Y-115257142D01*
X83071428Y-115638095D01*
X83166666Y-116019047D01*
X83357142Y-116304761D01*
X83642857Y-116495238D01*
X84023809Y-116590476D01*
X84404761Y-116495238D01*
X84690476Y-116304761D01*
X85738095Y-114971428D02*
X85738095Y-116304761D01*
X85738095Y-115161904D02*
X85833333Y-115066666D01*
X86023809Y-114971428D01*
X86309523Y-114971428D01*
X86500000Y-115066666D01*
X86595238Y-115257142D01*
X86595238Y-116304761D01*
X88404761Y-116209523D02*
X88214285Y-116304761D01*
X87833333Y-116304761D01*
X87642857Y-116209523D01*
X87547619Y-116114285D01*
X87452380Y-115923809D01*
X87452380Y-115352380D01*
X87547619Y-115161904D01*
X87642857Y-115066666D01*
X87833333Y-114971428D01*
X88214285Y-114971428D01*
X88404761Y-115066666D01*
X90023809Y-116209523D02*
X89833333Y-116304761D01*
X89452380Y-116304761D01*
X89261904Y-116209523D01*
X89166666Y-116019047D01*
X89166666Y-115257142D01*
X89261904Y-115066666D01*
X89452380Y-114971428D01*
X89833333Y-114971428D01*
X90023809Y-115066666D01*
X90119047Y-115257142D01*
X90119047Y-115447619D01*
X89166666Y-115638095D01*
X90976190Y-116114285D02*
X91071428Y-116209523D01*
X90976190Y-116304761D01*
X90880952Y-116209523D01*
X90976190Y-116114285D01*
X90976190Y-116304761D01*
X91928571Y-116304761D02*
X91928571Y-114971428D01*
X91928571Y-115161904D02*
X92023809Y-115066666D01*
X92214285Y-114971428D01*
X92500000Y-114971428D01*
X92690476Y-115066666D01*
X92785714Y-115257142D01*
X92785714Y-116304761D01*
X92785714Y-115257142D02*
X92880952Y-115066666D01*
X93071428Y-114971428D01*
X93357142Y-114971428D01*
X93547619Y-115066666D01*
X93642857Y-115257142D01*
X93642857Y-116304761D01*
X95357142Y-116209523D02*
X95166666Y-116304761D01*
X94785714Y-116304761D01*
X94595238Y-116209523D01*
X94500000Y-116019047D01*
X94500000Y-115257142D01*
X94595238Y-115066666D01*
X94785714Y-114971428D01*
X95166666Y-114971428D01*
X95357142Y-115066666D01*
X95452380Y-115257142D01*
X95452380Y-115447619D01*
X94500000Y-115638095D01*
X84642857Y-122333333D02*
X85595238Y-122333333D01*
X84452380Y-122904761D02*
X85119047Y-120904761D01*
X85785714Y-122904761D01*
X86738095Y-122904761D02*
X86547619Y-122809523D01*
X86452380Y-122619047D01*
X86452380Y-120904761D01*
X88357142Y-122904761D02*
X88357142Y-121857142D01*
X88261904Y-121666666D01*
X88071428Y-121571428D01*
X87690476Y-121571428D01*
X87500000Y-121666666D01*
X88357142Y-122809523D02*
X88166666Y-122904761D01*
X87690476Y-122904761D01*
X87500000Y-122809523D01*
X87404761Y-122619047D01*
X87404761Y-122428571D01*
X87500000Y-122238095D01*
X87690476Y-122142857D01*
X88166666Y-122142857D01*
X88357142Y-122047619D01*
X89309523Y-122904761D02*
X89309523Y-121571428D01*
X89309523Y-121952380D02*
X89404761Y-121761904D01*
X89500000Y-121666666D01*
X89690476Y-121571428D01*
X89880952Y-121571428D01*
X90547619Y-122904761D02*
X90547619Y-121571428D01*
X90547619Y-121761904D02*
X90642857Y-121666666D01*
X90833333Y-121571428D01*
X91119047Y-121571428D01*
X91309523Y-121666666D01*
X91404761Y-121857142D01*
X91404761Y-122904761D01*
X91404761Y-121857142D02*
X91500000Y-121666666D01*
X91690476Y-121571428D01*
X91976190Y-121571428D01*
X92166666Y-121666666D01*
X92261904Y-121857142D01*
X92261904Y-122904761D01*
X83452380Y-126204761D02*
X83452380Y-124204761D01*
X84119047Y-125633333D01*
X84785714Y-124204761D01*
X84785714Y-126204761D01*
X86023809Y-126204761D02*
X85833333Y-126109523D01*
X85738095Y-126014285D01*
X85642857Y-125823809D01*
X85642857Y-125252380D01*
X85738095Y-125061904D01*
X85833333Y-124966666D01*
X86023809Y-124871428D01*
X86309523Y-124871428D01*
X86500000Y-124966666D01*
X86595238Y-125061904D01*
X86690476Y-125252380D01*
X86690476Y-125823809D01*
X86595238Y-126014285D01*
X86500000Y-126109523D01*
X86309523Y-126204761D01*
X86023809Y-126204761D01*
X87547619Y-124871428D02*
X87547619Y-126204761D01*
X87547619Y-125061904D02*
X87642857Y-124966666D01*
X87833333Y-124871428D01*
X88119047Y-124871428D01*
X88309523Y-124966666D01*
X88404761Y-125157142D01*
X88404761Y-126204761D01*
X89357142Y-126204761D02*
X89357142Y-124871428D01*
X89357142Y-124204761D02*
X89261904Y-124300000D01*
X89357142Y-124395238D01*
X89452380Y-124300000D01*
X89357142Y-124204761D01*
X89357142Y-124395238D01*
X90023809Y-124871428D02*
X90785714Y-124871428D01*
X90309523Y-124204761D02*
X90309523Y-125919047D01*
X90404761Y-126109523D01*
X90595238Y-126204761D01*
X90785714Y-126204761D01*
X91738095Y-126204761D02*
X91547619Y-126109523D01*
X91452380Y-126014285D01*
X91357142Y-125823809D01*
X91357142Y-125252380D01*
X91452380Y-125061904D01*
X91547619Y-124966666D01*
X91738095Y-124871428D01*
X92023809Y-124871428D01*
X92214285Y-124966666D01*
X92309523Y-125061904D01*
X92404761Y-125252380D01*
X92404761Y-125823809D01*
X92309523Y-126014285D01*
X92214285Y-126109523D01*
X92023809Y-126204761D01*
X91738095Y-126204761D01*
X93261904Y-126204761D02*
X93261904Y-124871428D01*
X93261904Y-125252380D02*
X93357142Y-125061904D01*
X93452380Y-124966666D01*
X93642857Y-124871428D01*
X93833333Y-124871428D01*
X85452380Y-127504761D02*
X86119047Y-129504761D01*
X86785714Y-127504761D01*
X87357142Y-127695238D02*
X87452380Y-127600000D01*
X87642857Y-127504761D01*
X88119047Y-127504761D01*
X88309523Y-127600000D01*
X88404761Y-127695238D01*
X88500000Y-127885714D01*
X88500000Y-128076190D01*
X88404761Y-128361904D01*
X87261904Y-129504761D01*
X88500000Y-129504761D01*
X89357142Y-129314285D02*
X89452380Y-129409523D01*
X89357142Y-129504761D01*
X89261904Y-129409523D01*
X89357142Y-129314285D01*
X89357142Y-129504761D01*
X90690476Y-127504761D02*
X90880952Y-127504761D01*
X91071428Y-127600000D01*
X91166666Y-127695238D01*
X91261904Y-127885714D01*
X91357142Y-128266666D01*
X91357142Y-128742857D01*
X91261904Y-129123809D01*
X91166666Y-129314285D01*
X91071428Y-129409523D01*
X90880952Y-129504761D01*
X90690476Y-129504761D01*
X90500000Y-129409523D01*
X90404761Y-129314285D01*
X90309523Y-129123809D01*
X90214285Y-128742857D01*
X90214285Y-128266666D01*
X90309523Y-127885714D01*
X90404761Y-127695238D01*
X90500000Y-127600000D01*
X90690476Y-127504761D01*
X122928571Y-78214285D02*
X121785714Y-78214285D01*
X122857142Y-78285714D02*
X121857142Y-78285714D01*
X122857142Y-78357142D02*
X121857142Y-78357142D01*
X122785714Y-78428571D02*
X121928571Y-78428571D01*
X122785714Y-78500000D02*
X121928571Y-78500000D01*
X122714285Y-78571428D02*
X122000000Y-78571428D01*
X122714285Y-78642857D02*
X122000000Y-78642857D01*
X122642857Y-78714285D02*
X122071428Y-78714285D01*
X122571428Y-78785714D02*
X122142857Y-78785714D01*
X122571428Y-78857142D02*
X122142857Y-78857142D01*
X122500000Y-78928571D02*
X122214285Y-78928571D01*
X122500000Y-79000000D02*
X122214285Y-79000000D01*
X122357142Y-79071428D02*
X122357142Y-79142857D01*
X122428571Y-79071428D02*
X122285714Y-79071428D01*
X122928571Y-78142857D02*
X122357142Y-79214285D01*
X121785714Y-78142857D01*
X122357142Y-79285714D02*
X121714285Y-78142857D01*
X123000000Y-78142857D01*
X122357142Y-79285714D01*
X122928571Y-76571428D02*
X122214285Y-77071428D01*
X122928571Y-77428571D02*
X121428571Y-77428571D01*
X121428571Y-76857142D01*
X121500000Y-76714285D01*
X121571428Y-76642857D01*
X121714285Y-76571428D01*
X121928571Y-76571428D01*
X122071428Y-76642857D01*
X122142857Y-76714285D01*
X122214285Y-76857142D01*
X122214285Y-77428571D01*
X121428571Y-76071428D02*
X122928571Y-75071428D01*
X121428571Y-75071428D02*
X122928571Y-76071428D01*
X119285714Y-79035714D02*
X120428571Y-79035714D01*
X119357142Y-78964285D02*
X120357142Y-78964285D01*
X119357142Y-78892857D02*
X120357142Y-78892857D01*
X119428571Y-78821428D02*
X120285714Y-78821428D01*
X119428571Y-78750000D02*
X120285714Y-78750000D01*
X119500000Y-78678571D02*
X120214285Y-78678571D01*
X119500000Y-78607142D02*
X120214285Y-78607142D01*
X119571428Y-78535714D02*
X120142857Y-78535714D01*
X119642857Y-78464285D02*
X120071428Y-78464285D01*
X119642857Y-78392857D02*
X120071428Y-78392857D01*
X119714285Y-78321428D02*
X120000000Y-78321428D01*
X119714285Y-78250000D02*
X120000000Y-78250000D01*
X119857142Y-78178571D02*
X119857142Y-78107142D01*
X119785714Y-78178571D02*
X119928571Y-78178571D01*
X119285714Y-79107142D02*
X119857142Y-78035714D01*
X120428571Y-79107142D01*
X119857142Y-77964285D02*
X120500000Y-79107142D01*
X119214285Y-79107142D01*
X119857142Y-77964285D01*
X118928571Y-77464285D02*
X118928571Y-76607142D01*
X120428571Y-77035714D02*
X118928571Y-77035714D01*
X118928571Y-76250000D02*
X120428571Y-75250000D01*
X118928571Y-75250000D02*
X120428571Y-76250000D01*
X124178571Y-78857142D02*
X124178571Y-77928571D01*
X124750000Y-78428571D01*
X124750000Y-78214285D01*
X124821428Y-78071428D01*
X124892857Y-78000000D01*
X125035714Y-77928571D01*
X125392857Y-77928571D01*
X125535714Y-78000000D01*
X125607142Y-78071428D01*
X125678571Y-78214285D01*
X125678571Y-78642857D01*
X125607142Y-78785714D01*
X125535714Y-78857142D01*
X124178571Y-77500000D02*
X125678571Y-77000000D01*
X124178571Y-76500000D01*
X124178571Y-76142857D02*
X124178571Y-75214285D01*
X124750000Y-75714285D01*
X124750000Y-75500000D01*
X124821428Y-75357142D01*
X124892857Y-75285714D01*
X125035714Y-75214285D01*
X125392857Y-75214285D01*
X125535714Y-75285714D01*
X125607142Y-75357142D01*
X125678571Y-75500000D01*
X125678571Y-75928571D01*
X125607142Y-76071428D01*
X125535714Y-76142857D01*
X129250000Y-78142857D02*
X129178571Y-78285714D01*
X129178571Y-78500000D01*
X129250000Y-78714285D01*
X129392857Y-78857142D01*
X129535714Y-78928571D01*
X129821428Y-79000000D01*
X130035714Y-79000000D01*
X130321428Y-78928571D01*
X130464285Y-78857142D01*
X130607142Y-78714285D01*
X130678571Y-78500000D01*
X130678571Y-78357142D01*
X130607142Y-78142857D01*
X130535714Y-78071428D01*
X130035714Y-78071428D01*
X130035714Y-78357142D01*
X130678571Y-77428571D02*
X129178571Y-77428571D01*
X130678571Y-76571428D01*
X129178571Y-76571428D01*
X130678571Y-75857142D02*
X129178571Y-75857142D01*
X129178571Y-75500000D01*
X129250000Y-75285714D01*
X129392857Y-75142857D01*
X129535714Y-75071428D01*
X129821428Y-75000000D01*
X130035714Y-75000000D01*
X130321428Y-75071428D01*
X130464285Y-75142857D01*
X130607142Y-75285714D01*
X130678571Y-75500000D01*
X130678571Y-75857142D01*
X133428571Y-95678571D02*
X131928571Y-95678571D01*
X131928571Y-95107142D01*
X132000000Y-94964285D01*
X132071428Y-94892857D01*
X132214285Y-94821428D01*
X132428571Y-94821428D01*
X132571428Y-94892857D01*
X132642857Y-94964285D01*
X132714285Y-95107142D01*
X132714285Y-95678571D01*
X133428571Y-93321428D02*
X132714285Y-93821428D01*
X133428571Y-94178571D02*
X131928571Y-94178571D01*
X131928571Y-93607142D01*
X132000000Y-93464285D01*
X132071428Y-93392857D01*
X132214285Y-93321428D01*
X132428571Y-93321428D01*
X132571428Y-93392857D01*
X132642857Y-93464285D01*
X132714285Y-93607142D01*
X132714285Y-94178571D01*
X131928571Y-92392857D02*
X131928571Y-92107142D01*
X132000000Y-91964285D01*
X132142857Y-91821428D01*
X132428571Y-91750000D01*
X132928571Y-91750000D01*
X133214285Y-91821428D01*
X133357142Y-91964285D01*
X133428571Y-92107142D01*
X133428571Y-92392857D01*
X133357142Y-92535714D01*
X133214285Y-92678571D01*
X132928571Y-92750000D01*
X132428571Y-92750000D01*
X132142857Y-92678571D01*
X132000000Y-92535714D01*
X131928571Y-92392857D01*
X132000000Y-90321428D02*
X131928571Y-90464285D01*
X131928571Y-90678571D01*
X132000000Y-90892857D01*
X132142857Y-91035714D01*
X132285714Y-91107142D01*
X132571428Y-91178571D01*
X132785714Y-91178571D01*
X133071428Y-91107142D01*
X133214285Y-91035714D01*
X133357142Y-90892857D01*
X133428571Y-90678571D01*
X133428571Y-90535714D01*
X133357142Y-90321428D01*
X133285714Y-90250000D01*
X132785714Y-90250000D01*
X132785714Y-90535714D01*
X133428571Y-109178571D02*
X132714285Y-109678571D01*
X133428571Y-110035714D02*
X131928571Y-110035714D01*
X131928571Y-109464285D01*
X132000000Y-109321428D01*
X132071428Y-109250000D01*
X132214285Y-109178571D01*
X132428571Y-109178571D01*
X132571428Y-109250000D01*
X132642857Y-109321428D01*
X132714285Y-109464285D01*
X132714285Y-110035714D01*
X132642857Y-108535714D02*
X132642857Y-108035714D01*
X133428571Y-107821428D02*
X133428571Y-108535714D01*
X131928571Y-108535714D01*
X131928571Y-107821428D01*
X133357142Y-107250000D02*
X133428571Y-107035714D01*
X133428571Y-106678571D01*
X133357142Y-106535714D01*
X133285714Y-106464285D01*
X133142857Y-106392857D01*
X133000000Y-106392857D01*
X132857142Y-106464285D01*
X132785714Y-106535714D01*
X132714285Y-106678571D01*
X132642857Y-106964285D01*
X132571428Y-107107142D01*
X132500000Y-107178571D01*
X132357142Y-107250000D01*
X132214285Y-107250000D01*
X132071428Y-107178571D01*
X132000000Y-107107142D01*
X131928571Y-106964285D01*
X131928571Y-106607142D01*
X132000000Y-106392857D01*
X132642857Y-105750000D02*
X132642857Y-105250000D01*
X133428571Y-105035714D02*
X133428571Y-105750000D01*
X131928571Y-105750000D01*
X131928571Y-105035714D01*
X131928571Y-104607142D02*
X131928571Y-103750000D01*
X133428571Y-104178571D02*
X131928571Y-104178571D01*
D10*
X43928571Y-111738095D02*
X43928571Y-112500000D01*
X43547619Y-112119047D02*
X44309523Y-112119047D01*
X43642857Y-114309523D02*
X43595238Y-114261904D01*
X43547619Y-114119047D01*
X43547619Y-114023809D01*
X43595238Y-113880952D01*
X43690476Y-113785714D01*
X43785714Y-113738095D01*
X43976190Y-113690476D01*
X44119047Y-113690476D01*
X44309523Y-113738095D01*
X44404761Y-113785714D01*
X44500000Y-113880952D01*
X44547619Y-114023809D01*
X44547619Y-114119047D01*
X44500000Y-114261904D01*
X44452380Y-114309523D01*
X43928571Y-115500000D02*
X43928571Y-116261904D01*
X43928571Y-101738095D02*
X43928571Y-102500000D01*
X43547619Y-102119047D02*
X44309523Y-102119047D01*
X43547619Y-103738095D02*
X44547619Y-103738095D01*
X44547619Y-103976190D01*
X44500000Y-104119047D01*
X44404761Y-104214285D01*
X44309523Y-104261904D01*
X44119047Y-104309523D01*
X43976190Y-104309523D01*
X43785714Y-104261904D01*
X43690476Y-104214285D01*
X43595238Y-104119047D01*
X43547619Y-103976190D01*
X43547619Y-103738095D01*
X43928571Y-105500000D02*
X43928571Y-106261904D01*
D11*
X45571428Y-122678571D02*
X45571428Y-121178571D01*
X45928571Y-121178571D01*
X46142857Y-121250000D01*
X46285714Y-121392857D01*
X46357142Y-121535714D01*
X46428571Y-121821428D01*
X46428571Y-122035714D01*
X46357142Y-122321428D01*
X46285714Y-122464285D01*
X46142857Y-122607142D01*
X45928571Y-122678571D01*
X45571428Y-122678571D01*
X49071428Y-122535714D02*
X49000000Y-122607142D01*
X48785714Y-122678571D01*
X48642857Y-122678571D01*
X48428571Y-122607142D01*
X48285714Y-122464285D01*
X48214285Y-122321428D01*
X48142857Y-122035714D01*
X48142857Y-121821428D01*
X48214285Y-121535714D01*
X48285714Y-121392857D01*
X48428571Y-121250000D01*
X48642857Y-121178571D01*
X48785714Y-121178571D01*
X49000000Y-121250000D01*
X49071428Y-121321428D01*
X51142857Y-121178571D02*
X51428571Y-121178571D01*
X51571428Y-121250000D01*
X51714285Y-121392857D01*
X51785714Y-121678571D01*
X51785714Y-122178571D01*
X51714285Y-122464285D01*
X51571428Y-122607142D01*
X51428571Y-122678571D01*
X51142857Y-122678571D01*
X51000000Y-122607142D01*
X50857142Y-122464285D01*
X50785714Y-122178571D01*
X50785714Y-121678571D01*
X50857142Y-121392857D01*
X51000000Y-121250000D01*
X51142857Y-121178571D01*
X52428571Y-121178571D02*
X52428571Y-122392857D01*
X52500000Y-122535714D01*
X52571428Y-122607142D01*
X52714285Y-122678571D01*
X53000000Y-122678571D01*
X53142857Y-122607142D01*
X53214285Y-122535714D01*
X53285714Y-122392857D01*
X53285714Y-121178571D01*
X53785714Y-121178571D02*
X54642857Y-121178571D01*
X54214285Y-122678571D02*
X54214285Y-121178571D01*
X46571428Y-75678571D02*
X46571428Y-74178571D01*
X46928571Y-74178571D01*
X47142857Y-74250000D01*
X47285714Y-74392857D01*
X47357142Y-74535714D01*
X47428571Y-74821428D01*
X47428571Y-75035714D01*
X47357142Y-75321428D01*
X47285714Y-75464285D01*
X47142857Y-75607142D01*
X46928571Y-75678571D01*
X46571428Y-75678571D01*
X50071428Y-75535714D02*
X50000000Y-75607142D01*
X49785714Y-75678571D01*
X49642857Y-75678571D01*
X49428571Y-75607142D01*
X49285714Y-75464285D01*
X49214285Y-75321428D01*
X49142857Y-75035714D01*
X49142857Y-74821428D01*
X49214285Y-74535714D01*
X49285714Y-74392857D01*
X49428571Y-74250000D01*
X49642857Y-74178571D01*
X49785714Y-74178571D01*
X50000000Y-74250000D01*
X50071428Y-74321428D01*
X51857142Y-75678571D02*
X51857142Y-74178571D01*
X52571428Y-75678571D02*
X52571428Y-74178571D01*
X53428571Y-75678571D01*
X53428571Y-74178571D01*
D10*
X43928571Y-89738095D02*
X43928571Y-90500000D01*
X43547619Y-90119047D02*
X44309523Y-90119047D01*
X43642857Y-92309523D02*
X43595238Y-92261904D01*
X43547619Y-92119047D01*
X43547619Y-92023809D01*
X43595238Y-91880952D01*
X43690476Y-91785714D01*
X43785714Y-91738095D01*
X43976190Y-91690476D01*
X44119047Y-91690476D01*
X44309523Y-91738095D01*
X44404761Y-91785714D01*
X44500000Y-91880952D01*
X44547619Y-92023809D01*
X44547619Y-92119047D01*
X44500000Y-92261904D01*
X44452380Y-92309523D01*
X43928571Y-93500000D02*
X43928571Y-94261904D01*
X43928571Y-79738095D02*
X43928571Y-80500000D01*
X43547619Y-80119047D02*
X44309523Y-80119047D01*
X43547619Y-81738095D02*
X44547619Y-81738095D01*
X44547619Y-81976190D01*
X44500000Y-82119047D01*
X44404761Y-82214285D01*
X44309523Y-82261904D01*
X44119047Y-82309523D01*
X43976190Y-82309523D01*
X43785714Y-82261904D01*
X43690476Y-82214285D01*
X43595238Y-82119047D01*
X43547619Y-81976190D01*
X43547619Y-81738095D01*
X43928571Y-83500000D02*
X43928571Y-84261904D01*
D12*
G04 #@! TO.C,C1*
X128953733Y-112490000D02*
X129296267Y-112490000D01*
X128953733Y-113510000D02*
X129296267Y-113510000D01*
G04 #@! TO.C,C2*
X92490000Y-111046267D02*
X92490000Y-110703733D01*
X93510000Y-111046267D02*
X93510000Y-110703733D01*
G04 #@! TO.C,C3*
X90510000Y-111046267D02*
X90510000Y-110703733D01*
X89490000Y-111046267D02*
X89490000Y-110703733D01*
G04 #@! TO.C,D1*
X116465000Y-105735000D02*
X118925000Y-105735000D01*
X116465000Y-104265000D02*
X116465000Y-105735000D01*
X118925000Y-104265000D02*
X116465000Y-104265000D01*
G04 #@! TO.C,D2*
X118925000Y-94265000D02*
X116465000Y-94265000D01*
X116465000Y-94265000D02*
X116465000Y-95735000D01*
X116465000Y-95735000D02*
X118925000Y-95735000D01*
G04 #@! TO.C,J1*
X65316682Y-68465244D02*
G75*
G02X66000000Y-68320000I683318J-1534756D01*
G01*
X64464574Y-70683042D02*
G75*
G02X64465000Y-69316000I1535426J683042D01*
G01*
X66683042Y-71535426D02*
G75*
G02X65316000Y-71535000I-683042J1535426D01*
G01*
X67535426Y-69316958D02*
G75*
G02X67535000Y-70684000I-1535426J-683042D01*
G01*
X65971195Y-68319747D02*
G75*
G02X66684000Y-68465000I28805J-1680253D01*
G01*
X62600000Y-70000000D02*
G75*
G03X62600000Y-70000000I-1680000J0D01*
G01*
X68600000Y-65900000D02*
X58320000Y-65900000D01*
X68600000Y-67400000D02*
X58320000Y-67400000D01*
X68600000Y-72301000D02*
X58320000Y-72301000D01*
X68600000Y-75261000D02*
X58320000Y-75261000D01*
X68600000Y-65340000D02*
X58320000Y-65340000D01*
X68600000Y-75261000D02*
X68600000Y-65340000D01*
X58320000Y-75261000D02*
X58320000Y-65340000D01*
X59645000Y-71069000D02*
X59692000Y-71023000D01*
X61954000Y-68761000D02*
X61989000Y-68726000D01*
X59850000Y-71275000D02*
X59885000Y-71239000D01*
X62147000Y-68977000D02*
X62194000Y-68931000D01*
X68840000Y-65840000D02*
X68840000Y-65100000D01*
X68840000Y-65100000D02*
X68340000Y-65100000D01*
G04 #@! TO.C,J2*
X45200000Y-145900000D02*
X45700000Y-145900000D01*
X45200000Y-145160000D02*
X45200000Y-145900000D01*
X61773000Y-142023000D02*
X61726000Y-142069000D01*
X64070000Y-139725000D02*
X64035000Y-139761000D01*
X61966000Y-142239000D02*
X61931000Y-142274000D01*
X64275000Y-139931000D02*
X64228000Y-139977000D01*
X56773000Y-142023000D02*
X56726000Y-142069000D01*
X59070000Y-139725000D02*
X59035000Y-139761000D01*
X56966000Y-142239000D02*
X56931000Y-142274000D01*
X59275000Y-139931000D02*
X59228000Y-139977000D01*
X51773000Y-142023000D02*
X51726000Y-142069000D01*
X54070000Y-139725000D02*
X54035000Y-139761000D01*
X51966000Y-142239000D02*
X51931000Y-142274000D01*
X54275000Y-139931000D02*
X54228000Y-139977000D01*
X65561000Y-135739000D02*
X65561000Y-145660000D01*
X45440000Y-135739000D02*
X45440000Y-145660000D01*
X45440000Y-145660000D02*
X65561000Y-145660000D01*
X45440000Y-135739000D02*
X65561000Y-135739000D01*
X45440000Y-138699000D02*
X65561000Y-138699000D01*
X45440000Y-143600000D02*
X65561000Y-143600000D01*
X45440000Y-145100000D02*
X65561000Y-145100000D01*
X64680000Y-141000000D02*
G75*
G03X64680000Y-141000000I-1680000J0D01*
G01*
X59680000Y-141000000D02*
G75*
G03X59680000Y-141000000I-1680000J0D01*
G01*
X54680000Y-141000000D02*
G75*
G03X54680000Y-141000000I-1680000J0D01*
G01*
X48028805Y-142680253D02*
G75*
G02X47316000Y-142535000I-28805J1680253D01*
G01*
X46464574Y-141683042D02*
G75*
G02X46465000Y-140316000I1535426J683042D01*
G01*
X47316958Y-139464574D02*
G75*
G02X48684000Y-139465000I683042J-1535426D01*
G01*
X49535426Y-140316958D02*
G75*
G02X49535000Y-141684000I-1535426J-683042D01*
G01*
X48683318Y-142534756D02*
G75*
G02X48000000Y-142680000I-683318J1534756D01*
G01*
G04 #@! TO.C,J3*
X70683318Y-142534756D02*
G75*
G02X70000000Y-142680000I-683318J1534756D01*
G01*
X71535426Y-140316958D02*
G75*
G02X71535000Y-141684000I-1535426J-683042D01*
G01*
X69316958Y-139464574D02*
G75*
G02X70684000Y-139465000I683042J-1535426D01*
G01*
X68464574Y-141683042D02*
G75*
G02X68465000Y-140316000I1535426J683042D01*
G01*
X70028805Y-142680253D02*
G75*
G02X69316000Y-142535000I-28805J1680253D01*
G01*
X76680000Y-141000000D02*
G75*
G03X76680000Y-141000000I-1680000J0D01*
G01*
X81680000Y-141000000D02*
G75*
G03X81680000Y-141000000I-1680000J0D01*
G01*
X86680000Y-141000000D02*
G75*
G03X86680000Y-141000000I-1680000J0D01*
G01*
X67440000Y-145100000D02*
X87561000Y-145100000D01*
X67440000Y-143600000D02*
X87561000Y-143600000D01*
X67440000Y-138699000D02*
X87561000Y-138699000D01*
X67440000Y-135739000D02*
X87561000Y-135739000D01*
X67440000Y-145660000D02*
X87561000Y-145660000D01*
X67440000Y-135739000D02*
X67440000Y-145660000D01*
X87561000Y-135739000D02*
X87561000Y-145660000D01*
X76275000Y-139931000D02*
X76228000Y-139977000D01*
X73966000Y-142239000D02*
X73931000Y-142274000D01*
X76070000Y-139725000D02*
X76035000Y-139761000D01*
X73773000Y-142023000D02*
X73726000Y-142069000D01*
X81275000Y-139931000D02*
X81228000Y-139977000D01*
X78966000Y-142239000D02*
X78931000Y-142274000D01*
X81070000Y-139725000D02*
X81035000Y-139761000D01*
X78773000Y-142023000D02*
X78726000Y-142069000D01*
X86275000Y-139931000D02*
X86228000Y-139977000D01*
X83966000Y-142239000D02*
X83931000Y-142274000D01*
X86070000Y-139725000D02*
X86035000Y-139761000D01*
X83773000Y-142023000D02*
X83726000Y-142069000D01*
X67200000Y-145160000D02*
X67200000Y-145900000D01*
X67200000Y-145900000D02*
X67700000Y-145900000D01*
G04 #@! TO.C,J4*
X92683318Y-142534756D02*
G75*
G02X92000000Y-142680000I-683318J1534756D01*
G01*
X93535426Y-140316958D02*
G75*
G02X93535000Y-141684000I-1535426J-683042D01*
G01*
X91316958Y-139464574D02*
G75*
G02X92684000Y-139465000I683042J-1535426D01*
G01*
X90464574Y-141683042D02*
G75*
G02X90465000Y-140316000I1535426J683042D01*
G01*
X92028805Y-142680253D02*
G75*
G02X91316000Y-142535000I-28805J1680253D01*
G01*
X98680000Y-141000000D02*
G75*
G03X98680000Y-141000000I-1680000J0D01*
G01*
X103680000Y-141000000D02*
G75*
G03X103680000Y-141000000I-1680000J0D01*
G01*
X108680000Y-141000000D02*
G75*
G03X108680000Y-141000000I-1680000J0D01*
G01*
X89440000Y-145100000D02*
X109561000Y-145100000D01*
X89440000Y-143600000D02*
X109561000Y-143600000D01*
X89440000Y-138699000D02*
X109561000Y-138699000D01*
X89440000Y-135739000D02*
X109561000Y-135739000D01*
X89440000Y-145660000D02*
X109561000Y-145660000D01*
X89440000Y-135739000D02*
X89440000Y-145660000D01*
X109561000Y-135739000D02*
X109561000Y-145660000D01*
X98275000Y-139931000D02*
X98228000Y-139977000D01*
X95966000Y-142239000D02*
X95931000Y-142274000D01*
X98070000Y-139725000D02*
X98035000Y-139761000D01*
X95773000Y-142023000D02*
X95726000Y-142069000D01*
X103275000Y-139931000D02*
X103228000Y-139977000D01*
X100966000Y-142239000D02*
X100931000Y-142274000D01*
X103070000Y-139725000D02*
X103035000Y-139761000D01*
X100773000Y-142023000D02*
X100726000Y-142069000D01*
X108275000Y-139931000D02*
X108228000Y-139977000D01*
X105966000Y-142239000D02*
X105931000Y-142274000D01*
X108070000Y-139725000D02*
X108035000Y-139761000D01*
X105773000Y-142023000D02*
X105726000Y-142069000D01*
X89200000Y-145160000D02*
X89200000Y-145900000D01*
X89200000Y-145900000D02*
X89700000Y-145900000D01*
G04 #@! TO.C,J5*
X111200000Y-145900000D02*
X111700000Y-145900000D01*
X111200000Y-145160000D02*
X111200000Y-145900000D01*
X127773000Y-142023000D02*
X127726000Y-142069000D01*
X130070000Y-139725000D02*
X130035000Y-139761000D01*
X127966000Y-142239000D02*
X127931000Y-142274000D01*
X130275000Y-139931000D02*
X130228000Y-139977000D01*
X122773000Y-142023000D02*
X122726000Y-142069000D01*
X125070000Y-139725000D02*
X125035000Y-139761000D01*
X122966000Y-142239000D02*
X122931000Y-142274000D01*
X125275000Y-139931000D02*
X125228000Y-139977000D01*
X117773000Y-142023000D02*
X117726000Y-142069000D01*
X120070000Y-139725000D02*
X120035000Y-139761000D01*
X117966000Y-142239000D02*
X117931000Y-142274000D01*
X120275000Y-139931000D02*
X120228000Y-139977000D01*
X131561000Y-135739000D02*
X131561000Y-145660000D01*
X111440000Y-135739000D02*
X111440000Y-145660000D01*
X111440000Y-145660000D02*
X131561000Y-145660000D01*
X111440000Y-135739000D02*
X131561000Y-135739000D01*
X111440000Y-138699000D02*
X131561000Y-138699000D01*
X111440000Y-143600000D02*
X131561000Y-143600000D01*
X111440000Y-145100000D02*
X131561000Y-145100000D01*
X130680000Y-141000000D02*
G75*
G03X130680000Y-141000000I-1680000J0D01*
G01*
X125680000Y-141000000D02*
G75*
G03X125680000Y-141000000I-1680000J0D01*
G01*
X120680000Y-141000000D02*
G75*
G03X120680000Y-141000000I-1680000J0D01*
G01*
X114028805Y-142680253D02*
G75*
G02X113316000Y-142535000I-28805J1680253D01*
G01*
X112464574Y-141683042D02*
G75*
G02X112465000Y-140316000I1535426J683042D01*
G01*
X113316958Y-139464574D02*
G75*
G02X114684000Y-139465000I683042J-1535426D01*
G01*
X115535426Y-140316958D02*
G75*
G02X115535000Y-141684000I-1535426J-683042D01*
G01*
X114683318Y-142534756D02*
G75*
G02X114000000Y-142680000I-683318J1534756D01*
G01*
G04 #@! TO.C,J6*
X48215244Y-80683318D02*
G75*
G02X48070000Y-80000000I1534756J683318D01*
G01*
X50433042Y-81535426D02*
G75*
G02X49066000Y-81535000I-683042J1535426D01*
G01*
X51285426Y-79316958D02*
G75*
G02X51285000Y-80684000I-1535426J-683042D01*
G01*
X49066958Y-78464574D02*
G75*
G02X50434000Y-78465000I683042J-1535426D01*
G01*
X48069747Y-80028805D02*
G75*
G02X48215000Y-79316000I1680253J28805D01*
G01*
X51430000Y-85000000D02*
G75*
G03X51430000Y-85000000I-1680000J0D01*
G01*
X51430000Y-90000000D02*
G75*
G03X51430000Y-90000000I-1680000J0D01*
G01*
X51430000Y-95000000D02*
G75*
G03X51430000Y-95000000I-1680000J0D01*
G01*
X45650000Y-77440000D02*
X45650000Y-97561000D01*
X47150000Y-77440000D02*
X47150000Y-97561000D01*
X52051000Y-77440000D02*
X52051000Y-97561000D01*
X55011000Y-77440000D02*
X55011000Y-97561000D01*
X45090000Y-77440000D02*
X45090000Y-97561000D01*
X55011000Y-77440000D02*
X45090000Y-77440000D01*
X55011000Y-97561000D02*
X45090000Y-97561000D01*
X50819000Y-86275000D02*
X50773000Y-86228000D01*
X48511000Y-83966000D02*
X48476000Y-83931000D01*
X51025000Y-86070000D02*
X50989000Y-86035000D01*
X48727000Y-83773000D02*
X48681000Y-83726000D01*
X50819000Y-91275000D02*
X50773000Y-91228000D01*
X48511000Y-88966000D02*
X48476000Y-88931000D01*
X51025000Y-91070000D02*
X50989000Y-91035000D01*
X48727000Y-88773000D02*
X48681000Y-88726000D01*
X50819000Y-96275000D02*
X50773000Y-96228000D01*
X48511000Y-93966000D02*
X48476000Y-93931000D01*
X51025000Y-96070000D02*
X50989000Y-96035000D01*
X48727000Y-93773000D02*
X48681000Y-93726000D01*
X45590000Y-77200000D02*
X44850000Y-77200000D01*
X44850000Y-77200000D02*
X44850000Y-77700000D01*
G04 #@! TO.C,J7*
X44850000Y-99200000D02*
X44850000Y-99700000D01*
X45590000Y-99200000D02*
X44850000Y-99200000D01*
X48727000Y-115773000D02*
X48681000Y-115726000D01*
X51025000Y-118070000D02*
X50989000Y-118035000D01*
X48511000Y-115966000D02*
X48476000Y-115931000D01*
X50819000Y-118275000D02*
X50773000Y-118228000D01*
X48727000Y-110773000D02*
X48681000Y-110726000D01*
X51025000Y-113070000D02*
X50989000Y-113035000D01*
X48511000Y-110966000D02*
X48476000Y-110931000D01*
X50819000Y-113275000D02*
X50773000Y-113228000D01*
X48727000Y-105773000D02*
X48681000Y-105726000D01*
X51025000Y-108070000D02*
X50989000Y-108035000D01*
X48511000Y-105966000D02*
X48476000Y-105931000D01*
X50819000Y-108275000D02*
X50773000Y-108228000D01*
X55011000Y-119561000D02*
X45090000Y-119561000D01*
X55011000Y-99440000D02*
X45090000Y-99440000D01*
X45090000Y-99440000D02*
X45090000Y-119561000D01*
X55011000Y-99440000D02*
X55011000Y-119561000D01*
X52051000Y-99440000D02*
X52051000Y-119561000D01*
X47150000Y-99440000D02*
X47150000Y-119561000D01*
X45650000Y-99440000D02*
X45650000Y-119561000D01*
X51430000Y-117000000D02*
G75*
G03X51430000Y-117000000I-1680000J0D01*
G01*
X51430000Y-112000000D02*
G75*
G03X51430000Y-112000000I-1680000J0D01*
G01*
X51430000Y-107000000D02*
G75*
G03X51430000Y-107000000I-1680000J0D01*
G01*
X48069747Y-102028805D02*
G75*
G02X48215000Y-101316000I1680253J28805D01*
G01*
X49066958Y-100464574D02*
G75*
G02X50434000Y-100465000I683042J-1535426D01*
G01*
X51285426Y-101316958D02*
G75*
G02X51285000Y-102684000I-1535426J-683042D01*
G01*
X50433042Y-103535426D02*
G75*
G02X49066000Y-103535000I-683042J1535426D01*
G01*
X48215244Y-102683318D02*
G75*
G02X48070000Y-102000000I1534756J683318D01*
G01*
G04 #@! TO.C,R1*
X50114564Y-132090000D02*
X48910436Y-132090000D01*
X50114564Y-133910000D02*
X48910436Y-133910000D01*
G04 #@! TO.C,R2*
X60114564Y-133910000D02*
X58910436Y-133910000D01*
X60114564Y-132090000D02*
X58910436Y-132090000D01*
G04 #@! TO.C,R3*
X72114564Y-132090000D02*
X70910436Y-132090000D01*
X72114564Y-133910000D02*
X70910436Y-133910000D01*
G04 #@! TO.C,R4*
X82089564Y-133910000D02*
X80885436Y-133910000D01*
X82089564Y-132090000D02*
X80885436Y-132090000D01*
G04 #@! TO.C,R5*
X94114564Y-132090000D02*
X92910436Y-132090000D01*
X94114564Y-133910000D02*
X92910436Y-133910000D01*
G04 #@! TO.C,R6*
X104114564Y-133910000D02*
X102910436Y-133910000D01*
X104114564Y-132090000D02*
X102910436Y-132090000D01*
G04 #@! TO.C,R7*
X116114564Y-132090000D02*
X114910436Y-132090000D01*
X116114564Y-133910000D02*
X114910436Y-133910000D01*
G04 #@! TO.C,R8*
X126089564Y-133910000D02*
X124885436Y-133910000D01*
X126089564Y-132090000D02*
X124885436Y-132090000D01*
G04 #@! TO.C,R9*
X58660000Y-82114564D02*
X58660000Y-80910436D01*
X56840000Y-82114564D02*
X56840000Y-80910436D01*
G04 #@! TO.C,R10*
X56840000Y-92089564D02*
X56840000Y-90885436D01*
X58660000Y-92089564D02*
X58660000Y-90885436D01*
G04 #@! TO.C,R11*
X59296267Y-116490000D02*
X58953733Y-116490000D01*
X59296267Y-117510000D02*
X58953733Y-117510000D01*
G04 #@! TO.C,R12*
X63703733Y-116490000D02*
X64046267Y-116490000D01*
X63703733Y-117510000D02*
X64046267Y-117510000D01*
G04 #@! TO.C,R13*
X70296267Y-116490000D02*
X69953733Y-116490000D01*
X70296267Y-117510000D02*
X69953733Y-117510000D01*
G04 #@! TO.C,R14*
X74828733Y-117510000D02*
X75171267Y-117510000D01*
X74828733Y-116490000D02*
X75171267Y-116490000D01*
G04 #@! TO.C,R15*
X102296267Y-117510000D02*
X101953733Y-117510000D01*
X102296267Y-116490000D02*
X101953733Y-116490000D01*
G04 #@! TO.C,R16*
X106703733Y-116490000D02*
X107046267Y-116490000D01*
X106703733Y-117510000D02*
X107046267Y-117510000D01*
G04 #@! TO.C,R17*
X113296267Y-116490000D02*
X112953733Y-116490000D01*
X113296267Y-117510000D02*
X112953733Y-117510000D01*
G04 #@! TO.C,R18*
X117953733Y-116490000D02*
X118296267Y-116490000D01*
X117953733Y-117510000D02*
X118296267Y-117510000D01*
G04 #@! TO.C,R19*
X75046267Y-89510000D02*
X74703733Y-89510000D01*
X75046267Y-88490000D02*
X74703733Y-88490000D01*
G04 #@! TO.C,R20*
X75046267Y-93490000D02*
X74703733Y-93490000D01*
X75046267Y-94510000D02*
X74703733Y-94510000D01*
G04 #@! TO.C,R21*
X123953733Y-113510000D02*
X124296267Y-113510000D01*
X123953733Y-112490000D02*
X124296267Y-112490000D01*
G04 #@! TO.C,R22*
X118296267Y-102490000D02*
X117953733Y-102490000D01*
X118296267Y-103510000D02*
X117953733Y-103510000D01*
G04 #@! TO.C,R23*
X118296267Y-97510000D02*
X117953733Y-97510000D01*
X118296267Y-96490000D02*
X117953733Y-96490000D01*
G04 #@! TO.C,R24*
X117953733Y-90490000D02*
X118296267Y-90490000D01*
X117953733Y-91510000D02*
X118296267Y-91510000D01*
G04 #@! TO.C,R25*
X75046267Y-102510000D02*
X74703733Y-102510000D01*
X75046267Y-101490000D02*
X74703733Y-101490000D01*
G04 #@! TO.C,R26*
X75046267Y-106490000D02*
X74703733Y-106490000D01*
X75046267Y-107510000D02*
X74703733Y-107510000D01*
G04 #@! TO.C,R27*
X56840000Y-102910436D02*
X56840000Y-104114564D01*
X58660000Y-102910436D02*
X58660000Y-104114564D01*
G04 #@! TO.C,R28*
X56840000Y-110114564D02*
X56840000Y-108910436D01*
X58660000Y-110114564D02*
X58660000Y-108910436D01*
G04 #@! TO.C,SW1*
X123850000Y-109650000D02*
X123850000Y-110100000D01*
X123850000Y-110100000D02*
X130150000Y-110100000D01*
X130150000Y-110100000D02*
X130150000Y-109700000D01*
X123850000Y-108350000D02*
X123850000Y-105650000D01*
X130150000Y-105650000D02*
X130150000Y-108350000D01*
X123850000Y-103900000D02*
X130150000Y-103900000D01*
X130150000Y-103900000D02*
X130150000Y-104350000D01*
X123850000Y-104350000D02*
X123850000Y-103900000D01*
G04 #@! TO.C,SW2*
X123850000Y-90350000D02*
X123850000Y-89900000D01*
X130150000Y-89900000D02*
X130150000Y-90350000D01*
X123850000Y-89900000D02*
X130150000Y-89900000D01*
X130150000Y-91650000D02*
X130150000Y-94350000D01*
X123850000Y-94350000D02*
X123850000Y-91650000D01*
X130150000Y-96100000D02*
X130150000Y-95700000D01*
X123850000Y-96100000D02*
X130150000Y-96100000D01*
X123850000Y-95650000D02*
X123850000Y-96100000D01*
D13*
G04 #@! TO.C,U4*
X71500000Y-85000000D02*
X71500000Y-65500000D01*
X112000000Y-85000000D02*
X71500000Y-85000000D01*
X112000000Y-65500000D02*
X112000000Y-85000000D01*
X71500000Y-65500000D02*
X112000000Y-65500000D01*
D14*
G04 #@! TO.C,U5*
X94679981Y-109906000D02*
G75*
G03X94679981Y-109906000I-283981J0D01*
G01*
D13*
X94250000Y-91000000D02*
X94250000Y-109000000D01*
X88250000Y-109000000D02*
X113750000Y-109000000D01*
X88250000Y-91000000D02*
X113750000Y-91000000D01*
X113750000Y-91000000D02*
X113750000Y-109000000D01*
X88250000Y-91000000D02*
X88250000Y-109000000D01*
D12*
G04 #@! TO.C,J8*
X115970000Y-80670000D02*
X115970000Y-83330000D01*
X128730000Y-80670000D02*
X115970000Y-80670000D01*
X128730000Y-83330000D02*
X115970000Y-83330000D01*
X128730000Y-80670000D02*
X128730000Y-83330000D01*
X130000000Y-80670000D02*
X131330000Y-80670000D01*
X131330000Y-80670000D02*
X131330000Y-82000000D01*
G04 #@! TO.C,U1*
X57090000Y-123460000D02*
G75*
G02X57090000Y-125460000I0J-1000000D01*
G01*
X57090000Y-125460000D02*
X57090000Y-127110000D01*
X57090000Y-127110000D02*
X77530000Y-127110000D01*
X77530000Y-127110000D02*
X77530000Y-121810000D01*
X77530000Y-121810000D02*
X57090000Y-121810000D01*
X57090000Y-121810000D02*
X57090000Y-123460000D01*
G04 #@! TO.C,U2*
X100270000Y-121810000D02*
X100270000Y-123460000D01*
X120710000Y-121810000D02*
X100270000Y-121810000D01*
X120710000Y-127110000D02*
X120710000Y-121810000D01*
X100270000Y-127110000D02*
X120710000Y-127110000D01*
X100270000Y-125460000D02*
X100270000Y-127110000D01*
X100270000Y-123460000D02*
G75*
G02X100270000Y-125460000I0J-1000000D01*
G01*
G04 #@! TO.C,U3*
X68310000Y-87570000D02*
G75*
G02X66310000Y-87570000I-1000000J0D01*
G01*
X66310000Y-87570000D02*
X64660000Y-87570000D01*
X64660000Y-87570000D02*
X64660000Y-108010000D01*
X64660000Y-108010000D02*
X69960000Y-108010000D01*
X69960000Y-108010000D02*
X69960000Y-87570000D01*
X69960000Y-87570000D02*
X68310000Y-87570000D01*
G04 #@! TO.C,C1*
D13*
X128958333Y-111927142D02*
X128910714Y-111974761D01*
X128767857Y-112022380D01*
X128672619Y-112022380D01*
X128529761Y-111974761D01*
X128434523Y-111879523D01*
X128386904Y-111784285D01*
X128339285Y-111593809D01*
X128339285Y-111450952D01*
X128386904Y-111260476D01*
X128434523Y-111165238D01*
X128529761Y-111070000D01*
X128672619Y-111022380D01*
X128767857Y-111022380D01*
X128910714Y-111070000D01*
X128958333Y-111117619D01*
X129910714Y-112022380D02*
X129339285Y-112022380D01*
X129625000Y-112022380D02*
X129625000Y-111022380D01*
X129529761Y-111165238D01*
X129434523Y-111260476D01*
X129339285Y-111308095D01*
G04 #@! TO.C,C2*
X91927142Y-111041666D02*
X91974761Y-111089285D01*
X92022380Y-111232142D01*
X92022380Y-111327380D01*
X91974761Y-111470238D01*
X91879523Y-111565476D01*
X91784285Y-111613095D01*
X91593809Y-111660714D01*
X91450952Y-111660714D01*
X91260476Y-111613095D01*
X91165238Y-111565476D01*
X91070000Y-111470238D01*
X91022380Y-111327380D01*
X91022380Y-111232142D01*
X91070000Y-111089285D01*
X91117619Y-111041666D01*
X91117619Y-110660714D02*
X91070000Y-110613095D01*
X91022380Y-110517857D01*
X91022380Y-110279761D01*
X91070000Y-110184523D01*
X91117619Y-110136904D01*
X91212857Y-110089285D01*
X91308095Y-110089285D01*
X91450952Y-110136904D01*
X92022380Y-110708333D01*
X92022380Y-110089285D01*
G04 #@! TO.C,C3*
X88927142Y-111041666D02*
X88974761Y-111089285D01*
X89022380Y-111232142D01*
X89022380Y-111327380D01*
X88974761Y-111470238D01*
X88879523Y-111565476D01*
X88784285Y-111613095D01*
X88593809Y-111660714D01*
X88450952Y-111660714D01*
X88260476Y-111613095D01*
X88165238Y-111565476D01*
X88070000Y-111470238D01*
X88022380Y-111327380D01*
X88022380Y-111232142D01*
X88070000Y-111089285D01*
X88117619Y-111041666D01*
X88022380Y-110708333D02*
X88022380Y-110089285D01*
X88403333Y-110422619D01*
X88403333Y-110279761D01*
X88450952Y-110184523D01*
X88498571Y-110136904D01*
X88593809Y-110089285D01*
X88831904Y-110089285D01*
X88927142Y-110136904D01*
X88974761Y-110184523D01*
X89022380Y-110279761D01*
X89022380Y-110565476D01*
X88974761Y-110660714D01*
X88927142Y-110708333D01*
G04 #@! TO.C,D1*
X117386904Y-101952380D02*
X117386904Y-100952380D01*
X117625000Y-100952380D01*
X117767857Y-101000000D01*
X117863095Y-101095238D01*
X117910714Y-101190476D01*
X117958333Y-101380952D01*
X117958333Y-101523809D01*
X117910714Y-101714285D01*
X117863095Y-101809523D01*
X117767857Y-101904761D01*
X117625000Y-101952380D01*
X117386904Y-101952380D01*
X118910714Y-101952380D02*
X118339285Y-101952380D01*
X118625000Y-101952380D02*
X118625000Y-100952380D01*
X118529761Y-101095238D01*
X118434523Y-101190476D01*
X118339285Y-101238095D01*
G04 #@! TO.C,D2*
X117386904Y-93952380D02*
X117386904Y-92952380D01*
X117625000Y-92952380D01*
X117767857Y-93000000D01*
X117863095Y-93095238D01*
X117910714Y-93190476D01*
X117958333Y-93380952D01*
X117958333Y-93523809D01*
X117910714Y-93714285D01*
X117863095Y-93809523D01*
X117767857Y-93904761D01*
X117625000Y-93952380D01*
X117386904Y-93952380D01*
X118339285Y-93047619D02*
X118386904Y-93000000D01*
X118482142Y-92952380D01*
X118720238Y-92952380D01*
X118815476Y-93000000D01*
X118863095Y-93047619D01*
X118910714Y-93142857D01*
X118910714Y-93238095D01*
X118863095Y-93380952D01*
X118291666Y-93952380D01*
X118910714Y-93952380D01*
G04 #@! TO.C,J1*
X63126666Y-75712380D02*
X63126666Y-76426666D01*
X63079047Y-76569523D01*
X62983809Y-76664761D01*
X62840952Y-76712380D01*
X62745714Y-76712380D01*
X64126666Y-76712380D02*
X63555238Y-76712380D01*
X63840952Y-76712380D02*
X63840952Y-75712380D01*
X63745714Y-75855238D01*
X63650476Y-75950476D01*
X63555238Y-75998095D01*
G04 #@! TO.C,J2*
X55166666Y-134192380D02*
X55166666Y-134906666D01*
X55119047Y-135049523D01*
X55023809Y-135144761D01*
X54880952Y-135192380D01*
X54785714Y-135192380D01*
X55595238Y-134287619D02*
X55642857Y-134240000D01*
X55738095Y-134192380D01*
X55976190Y-134192380D01*
X56071428Y-134240000D01*
X56119047Y-134287619D01*
X56166666Y-134382857D01*
X56166666Y-134478095D01*
X56119047Y-134620952D01*
X55547619Y-135192380D01*
X56166666Y-135192380D01*
G04 #@! TO.C,J3*
X77166666Y-134192380D02*
X77166666Y-134906666D01*
X77119047Y-135049523D01*
X77023809Y-135144761D01*
X76880952Y-135192380D01*
X76785714Y-135192380D01*
X77547619Y-134192380D02*
X78166666Y-134192380D01*
X77833333Y-134573333D01*
X77976190Y-134573333D01*
X78071428Y-134620952D01*
X78119047Y-134668571D01*
X78166666Y-134763809D01*
X78166666Y-135001904D01*
X78119047Y-135097142D01*
X78071428Y-135144761D01*
X77976190Y-135192380D01*
X77690476Y-135192380D01*
X77595238Y-135144761D01*
X77547619Y-135097142D01*
G04 #@! TO.C,J4*
X99166666Y-134192380D02*
X99166666Y-134906666D01*
X99119047Y-135049523D01*
X99023809Y-135144761D01*
X98880952Y-135192380D01*
X98785714Y-135192380D01*
X100071428Y-134525714D02*
X100071428Y-135192380D01*
X99833333Y-134144761D02*
X99595238Y-134859047D01*
X100214285Y-134859047D01*
G04 #@! TO.C,J5*
X121166666Y-134192380D02*
X121166666Y-134906666D01*
X121119047Y-135049523D01*
X121023809Y-135144761D01*
X120880952Y-135192380D01*
X120785714Y-135192380D01*
X122119047Y-134192380D02*
X121642857Y-134192380D01*
X121595238Y-134668571D01*
X121642857Y-134620952D01*
X121738095Y-134573333D01*
X121976190Y-134573333D01*
X122071428Y-134620952D01*
X122119047Y-134668571D01*
X122166666Y-134763809D01*
X122166666Y-135001904D01*
X122119047Y-135097142D01*
X122071428Y-135144761D01*
X121976190Y-135192380D01*
X121738095Y-135192380D01*
X121642857Y-135144761D01*
X121595238Y-135097142D01*
G04 #@! TO.C,J6*
X55952380Y-78083333D02*
X56666666Y-78083333D01*
X56809523Y-78130952D01*
X56904761Y-78226190D01*
X56952380Y-78369047D01*
X56952380Y-78464285D01*
X55952380Y-77178571D02*
X55952380Y-77369047D01*
X56000000Y-77464285D01*
X56047619Y-77511904D01*
X56190476Y-77607142D01*
X56380952Y-77654761D01*
X56761904Y-77654761D01*
X56857142Y-77607142D01*
X56904761Y-77559523D01*
X56952380Y-77464285D01*
X56952380Y-77273809D01*
X56904761Y-77178571D01*
X56857142Y-77130952D01*
X56761904Y-77083333D01*
X56523809Y-77083333D01*
X56428571Y-77130952D01*
X56380952Y-77178571D01*
X56333333Y-77273809D01*
X56333333Y-77464285D01*
X56380952Y-77559523D01*
X56428571Y-77607142D01*
X56523809Y-77654761D01*
G04 #@! TO.C,J7*
X56202380Y-100083333D02*
X56916666Y-100083333D01*
X57059523Y-100130952D01*
X57154761Y-100226190D01*
X57202380Y-100369047D01*
X57202380Y-100464285D01*
X56202380Y-99702380D02*
X56202380Y-99035714D01*
X57202380Y-99464285D01*
G04 #@! TO.C,R1*
X45833333Y-133452380D02*
X45500000Y-132976190D01*
X45261904Y-133452380D02*
X45261904Y-132452380D01*
X45642857Y-132452380D01*
X45738095Y-132500000D01*
X45785714Y-132547619D01*
X45833333Y-132642857D01*
X45833333Y-132785714D01*
X45785714Y-132880952D01*
X45738095Y-132928571D01*
X45642857Y-132976190D01*
X45261904Y-132976190D01*
X46785714Y-133452380D02*
X46214285Y-133452380D01*
X46500000Y-133452380D02*
X46500000Y-132452380D01*
X46404761Y-132595238D01*
X46309523Y-132690476D01*
X46214285Y-132738095D01*
G04 #@! TO.C,R2*
X63083333Y-133452380D02*
X62750000Y-132976190D01*
X62511904Y-133452380D02*
X62511904Y-132452380D01*
X62892857Y-132452380D01*
X62988095Y-132500000D01*
X63035714Y-132547619D01*
X63083333Y-132642857D01*
X63083333Y-132785714D01*
X63035714Y-132880952D01*
X62988095Y-132928571D01*
X62892857Y-132976190D01*
X62511904Y-132976190D01*
X63464285Y-132547619D02*
X63511904Y-132500000D01*
X63607142Y-132452380D01*
X63845238Y-132452380D01*
X63940476Y-132500000D01*
X63988095Y-132547619D01*
X64035714Y-132642857D01*
X64035714Y-132738095D01*
X63988095Y-132880952D01*
X63416666Y-133452380D01*
X64035714Y-133452380D01*
G04 #@! TO.C,R3*
X67583333Y-133452380D02*
X67250000Y-132976190D01*
X67011904Y-133452380D02*
X67011904Y-132452380D01*
X67392857Y-132452380D01*
X67488095Y-132500000D01*
X67535714Y-132547619D01*
X67583333Y-132642857D01*
X67583333Y-132785714D01*
X67535714Y-132880952D01*
X67488095Y-132928571D01*
X67392857Y-132976190D01*
X67011904Y-132976190D01*
X67916666Y-132452380D02*
X68535714Y-132452380D01*
X68202380Y-132833333D01*
X68345238Y-132833333D01*
X68440476Y-132880952D01*
X68488095Y-132928571D01*
X68535714Y-133023809D01*
X68535714Y-133261904D01*
X68488095Y-133357142D01*
X68440476Y-133404761D01*
X68345238Y-133452380D01*
X68059523Y-133452380D01*
X67964285Y-133404761D01*
X67916666Y-133357142D01*
G04 #@! TO.C,R4*
X85083333Y-133452380D02*
X84750000Y-132976190D01*
X84511904Y-133452380D02*
X84511904Y-132452380D01*
X84892857Y-132452380D01*
X84988095Y-132500000D01*
X85035714Y-132547619D01*
X85083333Y-132642857D01*
X85083333Y-132785714D01*
X85035714Y-132880952D01*
X84988095Y-132928571D01*
X84892857Y-132976190D01*
X84511904Y-132976190D01*
X85940476Y-132785714D02*
X85940476Y-133452380D01*
X85702380Y-132404761D02*
X85464285Y-133119047D01*
X86083333Y-133119047D01*
G04 #@! TO.C,R5*
X89583333Y-133452380D02*
X89250000Y-132976190D01*
X89011904Y-133452380D02*
X89011904Y-132452380D01*
X89392857Y-132452380D01*
X89488095Y-132500000D01*
X89535714Y-132547619D01*
X89583333Y-132642857D01*
X89583333Y-132785714D01*
X89535714Y-132880952D01*
X89488095Y-132928571D01*
X89392857Y-132976190D01*
X89011904Y-132976190D01*
X90488095Y-132452380D02*
X90011904Y-132452380D01*
X89964285Y-132928571D01*
X90011904Y-132880952D01*
X90107142Y-132833333D01*
X90345238Y-132833333D01*
X90440476Y-132880952D01*
X90488095Y-132928571D01*
X90535714Y-133023809D01*
X90535714Y-133261904D01*
X90488095Y-133357142D01*
X90440476Y-133404761D01*
X90345238Y-133452380D01*
X90107142Y-133452380D01*
X90011904Y-133404761D01*
X89964285Y-133357142D01*
G04 #@! TO.C,R6*
X107083333Y-133452380D02*
X106750000Y-132976190D01*
X106511904Y-133452380D02*
X106511904Y-132452380D01*
X106892857Y-132452380D01*
X106988095Y-132500000D01*
X107035714Y-132547619D01*
X107083333Y-132642857D01*
X107083333Y-132785714D01*
X107035714Y-132880952D01*
X106988095Y-132928571D01*
X106892857Y-132976190D01*
X106511904Y-132976190D01*
X107940476Y-132452380D02*
X107750000Y-132452380D01*
X107654761Y-132500000D01*
X107607142Y-132547619D01*
X107511904Y-132690476D01*
X107464285Y-132880952D01*
X107464285Y-133261904D01*
X107511904Y-133357142D01*
X107559523Y-133404761D01*
X107654761Y-133452380D01*
X107845238Y-133452380D01*
X107940476Y-133404761D01*
X107988095Y-133357142D01*
X108035714Y-133261904D01*
X108035714Y-133023809D01*
X107988095Y-132928571D01*
X107940476Y-132880952D01*
X107845238Y-132833333D01*
X107654761Y-132833333D01*
X107559523Y-132880952D01*
X107511904Y-132928571D01*
X107464285Y-133023809D01*
G04 #@! TO.C,R7*
X111583333Y-133452380D02*
X111250000Y-132976190D01*
X111011904Y-133452380D02*
X111011904Y-132452380D01*
X111392857Y-132452380D01*
X111488095Y-132500000D01*
X111535714Y-132547619D01*
X111583333Y-132642857D01*
X111583333Y-132785714D01*
X111535714Y-132880952D01*
X111488095Y-132928571D01*
X111392857Y-132976190D01*
X111011904Y-132976190D01*
X111916666Y-132452380D02*
X112583333Y-132452380D01*
X112154761Y-133452380D01*
G04 #@! TO.C,R8*
X129083333Y-133452380D02*
X128750000Y-132976190D01*
X128511904Y-133452380D02*
X128511904Y-132452380D01*
X128892857Y-132452380D01*
X128988095Y-132500000D01*
X129035714Y-132547619D01*
X129083333Y-132642857D01*
X129083333Y-132785714D01*
X129035714Y-132880952D01*
X128988095Y-132928571D01*
X128892857Y-132976190D01*
X128511904Y-132976190D01*
X129654761Y-132880952D02*
X129559523Y-132833333D01*
X129511904Y-132785714D01*
X129464285Y-132690476D01*
X129464285Y-132642857D01*
X129511904Y-132547619D01*
X129559523Y-132500000D01*
X129654761Y-132452380D01*
X129845238Y-132452380D01*
X129940476Y-132500000D01*
X129988095Y-132547619D01*
X130035714Y-132642857D01*
X130035714Y-132690476D01*
X129988095Y-132785714D01*
X129940476Y-132833333D01*
X129845238Y-132880952D01*
X129654761Y-132880952D01*
X129559523Y-132928571D01*
X129511904Y-132976190D01*
X129464285Y-133071428D01*
X129464285Y-133261904D01*
X129511904Y-133357142D01*
X129559523Y-133404761D01*
X129654761Y-133452380D01*
X129845238Y-133452380D01*
X129940476Y-133404761D01*
X129988095Y-133357142D01*
X130035714Y-133261904D01*
X130035714Y-133071428D01*
X129988095Y-132976190D01*
X129940476Y-132928571D01*
X129845238Y-132880952D01*
G04 #@! TO.C,R9*
X60202380Y-81679166D02*
X59726190Y-82012500D01*
X60202380Y-82250595D02*
X59202380Y-82250595D01*
X59202380Y-81869642D01*
X59250000Y-81774404D01*
X59297619Y-81726785D01*
X59392857Y-81679166D01*
X59535714Y-81679166D01*
X59630952Y-81726785D01*
X59678571Y-81774404D01*
X59726190Y-81869642D01*
X59726190Y-82250595D01*
X60202380Y-81202976D02*
X60202380Y-81012500D01*
X60154761Y-80917261D01*
X60107142Y-80869642D01*
X59964285Y-80774404D01*
X59773809Y-80726785D01*
X59392857Y-80726785D01*
X59297619Y-80774404D01*
X59250000Y-80822023D01*
X59202380Y-80917261D01*
X59202380Y-81107738D01*
X59250000Y-81202976D01*
X59297619Y-81250595D01*
X59392857Y-81298214D01*
X59630952Y-81298214D01*
X59726190Y-81250595D01*
X59773809Y-81202976D01*
X59821428Y-81107738D01*
X59821428Y-80917261D01*
X59773809Y-80822023D01*
X59726190Y-80774404D01*
X59630952Y-80726785D01*
G04 #@! TO.C,R10*
X60202380Y-92142857D02*
X59726190Y-92476190D01*
X60202380Y-92714285D02*
X59202380Y-92714285D01*
X59202380Y-92333333D01*
X59250000Y-92238095D01*
X59297619Y-92190476D01*
X59392857Y-92142857D01*
X59535714Y-92142857D01*
X59630952Y-92190476D01*
X59678571Y-92238095D01*
X59726190Y-92333333D01*
X59726190Y-92714285D01*
X60202380Y-91190476D02*
X60202380Y-91761904D01*
X60202380Y-91476190D02*
X59202380Y-91476190D01*
X59345238Y-91571428D01*
X59440476Y-91666666D01*
X59488095Y-91761904D01*
X59202380Y-90571428D02*
X59202380Y-90476190D01*
X59250000Y-90380952D01*
X59297619Y-90333333D01*
X59392857Y-90285714D01*
X59583333Y-90238095D01*
X59821428Y-90238095D01*
X60011904Y-90285714D01*
X60107142Y-90333333D01*
X60154761Y-90380952D01*
X60202380Y-90476190D01*
X60202380Y-90571428D01*
X60154761Y-90666666D01*
X60107142Y-90714285D01*
X60011904Y-90761904D01*
X59821428Y-90809523D01*
X59583333Y-90809523D01*
X59392857Y-90761904D01*
X59297619Y-90714285D01*
X59250000Y-90666666D01*
X59202380Y-90571428D01*
G04 #@! TO.C,R11*
X58482142Y-115952380D02*
X58148809Y-115476190D01*
X57910714Y-115952380D02*
X57910714Y-114952380D01*
X58291666Y-114952380D01*
X58386904Y-115000000D01*
X58434523Y-115047619D01*
X58482142Y-115142857D01*
X58482142Y-115285714D01*
X58434523Y-115380952D01*
X58386904Y-115428571D01*
X58291666Y-115476190D01*
X57910714Y-115476190D01*
X59434523Y-115952380D02*
X58863095Y-115952380D01*
X59148809Y-115952380D02*
X59148809Y-114952380D01*
X59053571Y-115095238D01*
X58958333Y-115190476D01*
X58863095Y-115238095D01*
X60386904Y-115952380D02*
X59815476Y-115952380D01*
X60101190Y-115952380D02*
X60101190Y-114952380D01*
X60005952Y-115095238D01*
X59910714Y-115190476D01*
X59815476Y-115238095D01*
G04 #@! TO.C,R12*
X63232142Y-115952380D02*
X62898809Y-115476190D01*
X62660714Y-115952380D02*
X62660714Y-114952380D01*
X63041666Y-114952380D01*
X63136904Y-115000000D01*
X63184523Y-115047619D01*
X63232142Y-115142857D01*
X63232142Y-115285714D01*
X63184523Y-115380952D01*
X63136904Y-115428571D01*
X63041666Y-115476190D01*
X62660714Y-115476190D01*
X64184523Y-115952380D02*
X63613095Y-115952380D01*
X63898809Y-115952380D02*
X63898809Y-114952380D01*
X63803571Y-115095238D01*
X63708333Y-115190476D01*
X63613095Y-115238095D01*
X64565476Y-115047619D02*
X64613095Y-115000000D01*
X64708333Y-114952380D01*
X64946428Y-114952380D01*
X65041666Y-115000000D01*
X65089285Y-115047619D01*
X65136904Y-115142857D01*
X65136904Y-115238095D01*
X65089285Y-115380952D01*
X64517857Y-115952380D01*
X65136904Y-115952380D01*
G04 #@! TO.C,R13*
X69482142Y-115952380D02*
X69148809Y-115476190D01*
X68910714Y-115952380D02*
X68910714Y-114952380D01*
X69291666Y-114952380D01*
X69386904Y-115000000D01*
X69434523Y-115047619D01*
X69482142Y-115142857D01*
X69482142Y-115285714D01*
X69434523Y-115380952D01*
X69386904Y-115428571D01*
X69291666Y-115476190D01*
X68910714Y-115476190D01*
X70434523Y-115952380D02*
X69863095Y-115952380D01*
X70148809Y-115952380D02*
X70148809Y-114952380D01*
X70053571Y-115095238D01*
X69958333Y-115190476D01*
X69863095Y-115238095D01*
X70767857Y-114952380D02*
X71386904Y-114952380D01*
X71053571Y-115333333D01*
X71196428Y-115333333D01*
X71291666Y-115380952D01*
X71339285Y-115428571D01*
X71386904Y-115523809D01*
X71386904Y-115761904D01*
X71339285Y-115857142D01*
X71291666Y-115904761D01*
X71196428Y-115952380D01*
X70910714Y-115952380D01*
X70815476Y-115904761D01*
X70767857Y-115857142D01*
G04 #@! TO.C,R14*
X74357142Y-115952380D02*
X74023809Y-115476190D01*
X73785714Y-115952380D02*
X73785714Y-114952380D01*
X74166666Y-114952380D01*
X74261904Y-115000000D01*
X74309523Y-115047619D01*
X74357142Y-115142857D01*
X74357142Y-115285714D01*
X74309523Y-115380952D01*
X74261904Y-115428571D01*
X74166666Y-115476190D01*
X73785714Y-115476190D01*
X75309523Y-115952380D02*
X74738095Y-115952380D01*
X75023809Y-115952380D02*
X75023809Y-114952380D01*
X74928571Y-115095238D01*
X74833333Y-115190476D01*
X74738095Y-115238095D01*
X76166666Y-115285714D02*
X76166666Y-115952380D01*
X75928571Y-114904761D02*
X75690476Y-115619047D01*
X76309523Y-115619047D01*
G04 #@! TO.C,R15*
X101482142Y-115952380D02*
X101148809Y-115476190D01*
X100910714Y-115952380D02*
X100910714Y-114952380D01*
X101291666Y-114952380D01*
X101386904Y-115000000D01*
X101434523Y-115047619D01*
X101482142Y-115142857D01*
X101482142Y-115285714D01*
X101434523Y-115380952D01*
X101386904Y-115428571D01*
X101291666Y-115476190D01*
X100910714Y-115476190D01*
X102434523Y-115952380D02*
X101863095Y-115952380D01*
X102148809Y-115952380D02*
X102148809Y-114952380D01*
X102053571Y-115095238D01*
X101958333Y-115190476D01*
X101863095Y-115238095D01*
X103339285Y-114952380D02*
X102863095Y-114952380D01*
X102815476Y-115428571D01*
X102863095Y-115380952D01*
X102958333Y-115333333D01*
X103196428Y-115333333D01*
X103291666Y-115380952D01*
X103339285Y-115428571D01*
X103386904Y-115523809D01*
X103386904Y-115761904D01*
X103339285Y-115857142D01*
X103291666Y-115904761D01*
X103196428Y-115952380D01*
X102958333Y-115952380D01*
X102863095Y-115904761D01*
X102815476Y-115857142D01*
G04 #@! TO.C,R16*
X106232142Y-116022380D02*
X105898809Y-115546190D01*
X105660714Y-116022380D02*
X105660714Y-115022380D01*
X106041666Y-115022380D01*
X106136904Y-115070000D01*
X106184523Y-115117619D01*
X106232142Y-115212857D01*
X106232142Y-115355714D01*
X106184523Y-115450952D01*
X106136904Y-115498571D01*
X106041666Y-115546190D01*
X105660714Y-115546190D01*
X107184523Y-116022380D02*
X106613095Y-116022380D01*
X106898809Y-116022380D02*
X106898809Y-115022380D01*
X106803571Y-115165238D01*
X106708333Y-115260476D01*
X106613095Y-115308095D01*
X108041666Y-115022380D02*
X107851190Y-115022380D01*
X107755952Y-115070000D01*
X107708333Y-115117619D01*
X107613095Y-115260476D01*
X107565476Y-115450952D01*
X107565476Y-115831904D01*
X107613095Y-115927142D01*
X107660714Y-115974761D01*
X107755952Y-116022380D01*
X107946428Y-116022380D01*
X108041666Y-115974761D01*
X108089285Y-115927142D01*
X108136904Y-115831904D01*
X108136904Y-115593809D01*
X108089285Y-115498571D01*
X108041666Y-115450952D01*
X107946428Y-115403333D01*
X107755952Y-115403333D01*
X107660714Y-115450952D01*
X107613095Y-115498571D01*
X107565476Y-115593809D01*
G04 #@! TO.C,R17*
X112482142Y-115952380D02*
X112148809Y-115476190D01*
X111910714Y-115952380D02*
X111910714Y-114952380D01*
X112291666Y-114952380D01*
X112386904Y-115000000D01*
X112434523Y-115047619D01*
X112482142Y-115142857D01*
X112482142Y-115285714D01*
X112434523Y-115380952D01*
X112386904Y-115428571D01*
X112291666Y-115476190D01*
X111910714Y-115476190D01*
X113434523Y-115952380D02*
X112863095Y-115952380D01*
X113148809Y-115952380D02*
X113148809Y-114952380D01*
X113053571Y-115095238D01*
X112958333Y-115190476D01*
X112863095Y-115238095D01*
X113767857Y-114952380D02*
X114434523Y-114952380D01*
X114005952Y-115952380D01*
G04 #@! TO.C,R18*
X117482142Y-116022380D02*
X117148809Y-115546190D01*
X116910714Y-116022380D02*
X116910714Y-115022380D01*
X117291666Y-115022380D01*
X117386904Y-115070000D01*
X117434523Y-115117619D01*
X117482142Y-115212857D01*
X117482142Y-115355714D01*
X117434523Y-115450952D01*
X117386904Y-115498571D01*
X117291666Y-115546190D01*
X116910714Y-115546190D01*
X118434523Y-116022380D02*
X117863095Y-116022380D01*
X118148809Y-116022380D02*
X118148809Y-115022380D01*
X118053571Y-115165238D01*
X117958333Y-115260476D01*
X117863095Y-115308095D01*
X119005952Y-115450952D02*
X118910714Y-115403333D01*
X118863095Y-115355714D01*
X118815476Y-115260476D01*
X118815476Y-115212857D01*
X118863095Y-115117619D01*
X118910714Y-115070000D01*
X119005952Y-115022380D01*
X119196428Y-115022380D01*
X119291666Y-115070000D01*
X119339285Y-115117619D01*
X119386904Y-115212857D01*
X119386904Y-115260476D01*
X119339285Y-115355714D01*
X119291666Y-115403333D01*
X119196428Y-115450952D01*
X119005952Y-115450952D01*
X118910714Y-115498571D01*
X118863095Y-115546190D01*
X118815476Y-115641428D01*
X118815476Y-115831904D01*
X118863095Y-115927142D01*
X118910714Y-115974761D01*
X119005952Y-116022380D01*
X119196428Y-116022380D01*
X119291666Y-115974761D01*
X119339285Y-115927142D01*
X119386904Y-115831904D01*
X119386904Y-115641428D01*
X119339285Y-115546190D01*
X119291666Y-115498571D01*
X119196428Y-115450952D01*
G04 #@! TO.C,R19*
X74232142Y-90882380D02*
X73898809Y-90406190D01*
X73660714Y-90882380D02*
X73660714Y-89882380D01*
X74041666Y-89882380D01*
X74136904Y-89930000D01*
X74184523Y-89977619D01*
X74232142Y-90072857D01*
X74232142Y-90215714D01*
X74184523Y-90310952D01*
X74136904Y-90358571D01*
X74041666Y-90406190D01*
X73660714Y-90406190D01*
X75184523Y-90882380D02*
X74613095Y-90882380D01*
X74898809Y-90882380D02*
X74898809Y-89882380D01*
X74803571Y-90025238D01*
X74708333Y-90120476D01*
X74613095Y-90168095D01*
X75660714Y-90882380D02*
X75851190Y-90882380D01*
X75946428Y-90834761D01*
X75994047Y-90787142D01*
X76089285Y-90644285D01*
X76136904Y-90453809D01*
X76136904Y-90072857D01*
X76089285Y-89977619D01*
X76041666Y-89930000D01*
X75946428Y-89882380D01*
X75755952Y-89882380D01*
X75660714Y-89930000D01*
X75613095Y-89977619D01*
X75565476Y-90072857D01*
X75565476Y-90310952D01*
X75613095Y-90406190D01*
X75660714Y-90453809D01*
X75755952Y-90501428D01*
X75946428Y-90501428D01*
X76041666Y-90453809D01*
X76089285Y-90406190D01*
X76136904Y-90310952D01*
G04 #@! TO.C,R20*
X74232142Y-95882380D02*
X73898809Y-95406190D01*
X73660714Y-95882380D02*
X73660714Y-94882380D01*
X74041666Y-94882380D01*
X74136904Y-94930000D01*
X74184523Y-94977619D01*
X74232142Y-95072857D01*
X74232142Y-95215714D01*
X74184523Y-95310952D01*
X74136904Y-95358571D01*
X74041666Y-95406190D01*
X73660714Y-95406190D01*
X74613095Y-94977619D02*
X74660714Y-94930000D01*
X74755952Y-94882380D01*
X74994047Y-94882380D01*
X75089285Y-94930000D01*
X75136904Y-94977619D01*
X75184523Y-95072857D01*
X75184523Y-95168095D01*
X75136904Y-95310952D01*
X74565476Y-95882380D01*
X75184523Y-95882380D01*
X75803571Y-94882380D02*
X75898809Y-94882380D01*
X75994047Y-94930000D01*
X76041666Y-94977619D01*
X76089285Y-95072857D01*
X76136904Y-95263333D01*
X76136904Y-95501428D01*
X76089285Y-95691904D01*
X76041666Y-95787142D01*
X75994047Y-95834761D01*
X75898809Y-95882380D01*
X75803571Y-95882380D01*
X75708333Y-95834761D01*
X75660714Y-95787142D01*
X75613095Y-95691904D01*
X75565476Y-95501428D01*
X75565476Y-95263333D01*
X75613095Y-95072857D01*
X75660714Y-94977619D01*
X75708333Y-94930000D01*
X75803571Y-94882380D01*
G04 #@! TO.C,R21*
X123482142Y-112022380D02*
X123148809Y-111546190D01*
X122910714Y-112022380D02*
X122910714Y-111022380D01*
X123291666Y-111022380D01*
X123386904Y-111070000D01*
X123434523Y-111117619D01*
X123482142Y-111212857D01*
X123482142Y-111355714D01*
X123434523Y-111450952D01*
X123386904Y-111498571D01*
X123291666Y-111546190D01*
X122910714Y-111546190D01*
X123863095Y-111117619D02*
X123910714Y-111070000D01*
X124005952Y-111022380D01*
X124244047Y-111022380D01*
X124339285Y-111070000D01*
X124386904Y-111117619D01*
X124434523Y-111212857D01*
X124434523Y-111308095D01*
X124386904Y-111450952D01*
X123815476Y-112022380D01*
X124434523Y-112022380D01*
X125386904Y-112022380D02*
X124815476Y-112022380D01*
X125101190Y-112022380D02*
X125101190Y-111022380D01*
X125005952Y-111165238D01*
X124910714Y-111260476D01*
X124815476Y-111308095D01*
G04 #@! TO.C,R22*
X117482142Y-107202380D02*
X117148809Y-106726190D01*
X116910714Y-107202380D02*
X116910714Y-106202380D01*
X117291666Y-106202380D01*
X117386904Y-106250000D01*
X117434523Y-106297619D01*
X117482142Y-106392857D01*
X117482142Y-106535714D01*
X117434523Y-106630952D01*
X117386904Y-106678571D01*
X117291666Y-106726190D01*
X116910714Y-106726190D01*
X117863095Y-106297619D02*
X117910714Y-106250000D01*
X118005952Y-106202380D01*
X118244047Y-106202380D01*
X118339285Y-106250000D01*
X118386904Y-106297619D01*
X118434523Y-106392857D01*
X118434523Y-106488095D01*
X118386904Y-106630952D01*
X117815476Y-107202380D01*
X118434523Y-107202380D01*
X118815476Y-106297619D02*
X118863095Y-106250000D01*
X118958333Y-106202380D01*
X119196428Y-106202380D01*
X119291666Y-106250000D01*
X119339285Y-106297619D01*
X119386904Y-106392857D01*
X119386904Y-106488095D01*
X119339285Y-106630952D01*
X118767857Y-107202380D01*
X119386904Y-107202380D01*
G04 #@! TO.C,R23*
X117482142Y-99202380D02*
X117148809Y-98726190D01*
X116910714Y-99202380D02*
X116910714Y-98202380D01*
X117291666Y-98202380D01*
X117386904Y-98250000D01*
X117434523Y-98297619D01*
X117482142Y-98392857D01*
X117482142Y-98535714D01*
X117434523Y-98630952D01*
X117386904Y-98678571D01*
X117291666Y-98726190D01*
X116910714Y-98726190D01*
X117863095Y-98297619D02*
X117910714Y-98250000D01*
X118005952Y-98202380D01*
X118244047Y-98202380D01*
X118339285Y-98250000D01*
X118386904Y-98297619D01*
X118434523Y-98392857D01*
X118434523Y-98488095D01*
X118386904Y-98630952D01*
X117815476Y-99202380D01*
X118434523Y-99202380D01*
X118767857Y-98202380D02*
X119386904Y-98202380D01*
X119053571Y-98583333D01*
X119196428Y-98583333D01*
X119291666Y-98630952D01*
X119339285Y-98678571D01*
X119386904Y-98773809D01*
X119386904Y-99011904D01*
X119339285Y-99107142D01*
X119291666Y-99154761D01*
X119196428Y-99202380D01*
X118910714Y-99202380D01*
X118815476Y-99154761D01*
X118767857Y-99107142D01*
G04 #@! TO.C,R24*
X117482142Y-90022380D02*
X117148809Y-89546190D01*
X116910714Y-90022380D02*
X116910714Y-89022380D01*
X117291666Y-89022380D01*
X117386904Y-89070000D01*
X117434523Y-89117619D01*
X117482142Y-89212857D01*
X117482142Y-89355714D01*
X117434523Y-89450952D01*
X117386904Y-89498571D01*
X117291666Y-89546190D01*
X116910714Y-89546190D01*
X117863095Y-89117619D02*
X117910714Y-89070000D01*
X118005952Y-89022380D01*
X118244047Y-89022380D01*
X118339285Y-89070000D01*
X118386904Y-89117619D01*
X118434523Y-89212857D01*
X118434523Y-89308095D01*
X118386904Y-89450952D01*
X117815476Y-90022380D01*
X118434523Y-90022380D01*
X119291666Y-89355714D02*
X119291666Y-90022380D01*
X119053571Y-88974761D02*
X118815476Y-89689047D01*
X119434523Y-89689047D01*
G04 #@! TO.C,R25*
X74232142Y-103882380D02*
X73898809Y-103406190D01*
X73660714Y-103882380D02*
X73660714Y-102882380D01*
X74041666Y-102882380D01*
X74136904Y-102930000D01*
X74184523Y-102977619D01*
X74232142Y-103072857D01*
X74232142Y-103215714D01*
X74184523Y-103310952D01*
X74136904Y-103358571D01*
X74041666Y-103406190D01*
X73660714Y-103406190D01*
X74613095Y-102977619D02*
X74660714Y-102930000D01*
X74755952Y-102882380D01*
X74994047Y-102882380D01*
X75089285Y-102930000D01*
X75136904Y-102977619D01*
X75184523Y-103072857D01*
X75184523Y-103168095D01*
X75136904Y-103310952D01*
X74565476Y-103882380D01*
X75184523Y-103882380D01*
X76089285Y-102882380D02*
X75613095Y-102882380D01*
X75565476Y-103358571D01*
X75613095Y-103310952D01*
X75708333Y-103263333D01*
X75946428Y-103263333D01*
X76041666Y-103310952D01*
X76089285Y-103358571D01*
X76136904Y-103453809D01*
X76136904Y-103691904D01*
X76089285Y-103787142D01*
X76041666Y-103834761D01*
X75946428Y-103882380D01*
X75708333Y-103882380D01*
X75613095Y-103834761D01*
X75565476Y-103787142D01*
G04 #@! TO.C,R26*
X74232142Y-108882380D02*
X73898809Y-108406190D01*
X73660714Y-108882380D02*
X73660714Y-107882380D01*
X74041666Y-107882380D01*
X74136904Y-107930000D01*
X74184523Y-107977619D01*
X74232142Y-108072857D01*
X74232142Y-108215714D01*
X74184523Y-108310952D01*
X74136904Y-108358571D01*
X74041666Y-108406190D01*
X73660714Y-108406190D01*
X74613095Y-107977619D02*
X74660714Y-107930000D01*
X74755952Y-107882380D01*
X74994047Y-107882380D01*
X75089285Y-107930000D01*
X75136904Y-107977619D01*
X75184523Y-108072857D01*
X75184523Y-108168095D01*
X75136904Y-108310952D01*
X74565476Y-108882380D01*
X75184523Y-108882380D01*
X76041666Y-107882380D02*
X75851190Y-107882380D01*
X75755952Y-107930000D01*
X75708333Y-107977619D01*
X75613095Y-108120476D01*
X75565476Y-108310952D01*
X75565476Y-108691904D01*
X75613095Y-108787142D01*
X75660714Y-108834761D01*
X75755952Y-108882380D01*
X75946428Y-108882380D01*
X76041666Y-108834761D01*
X76089285Y-108787142D01*
X76136904Y-108691904D01*
X76136904Y-108453809D01*
X76089285Y-108358571D01*
X76041666Y-108310952D01*
X75946428Y-108263333D01*
X75755952Y-108263333D01*
X75660714Y-108310952D01*
X75613095Y-108358571D01*
X75565476Y-108453809D01*
G04 #@! TO.C,R27*
X60202380Y-104392857D02*
X59726190Y-104726190D01*
X60202380Y-104964285D02*
X59202380Y-104964285D01*
X59202380Y-104583333D01*
X59250000Y-104488095D01*
X59297619Y-104440476D01*
X59392857Y-104392857D01*
X59535714Y-104392857D01*
X59630952Y-104440476D01*
X59678571Y-104488095D01*
X59726190Y-104583333D01*
X59726190Y-104964285D01*
X59297619Y-104011904D02*
X59250000Y-103964285D01*
X59202380Y-103869047D01*
X59202380Y-103630952D01*
X59250000Y-103535714D01*
X59297619Y-103488095D01*
X59392857Y-103440476D01*
X59488095Y-103440476D01*
X59630952Y-103488095D01*
X60202380Y-104059523D01*
X60202380Y-103440476D01*
X59202380Y-103107142D02*
X59202380Y-102440476D01*
X60202380Y-102869047D01*
G04 #@! TO.C,R28*
X60202380Y-110392857D02*
X59726190Y-110726190D01*
X60202380Y-110964285D02*
X59202380Y-110964285D01*
X59202380Y-110583333D01*
X59250000Y-110488095D01*
X59297619Y-110440476D01*
X59392857Y-110392857D01*
X59535714Y-110392857D01*
X59630952Y-110440476D01*
X59678571Y-110488095D01*
X59726190Y-110583333D01*
X59726190Y-110964285D01*
X59297619Y-110011904D02*
X59250000Y-109964285D01*
X59202380Y-109869047D01*
X59202380Y-109630952D01*
X59250000Y-109535714D01*
X59297619Y-109488095D01*
X59392857Y-109440476D01*
X59488095Y-109440476D01*
X59630952Y-109488095D01*
X60202380Y-110059523D01*
X60202380Y-109440476D01*
X59630952Y-108869047D02*
X59583333Y-108964285D01*
X59535714Y-109011904D01*
X59440476Y-109059523D01*
X59392857Y-109059523D01*
X59297619Y-109011904D01*
X59250000Y-108964285D01*
X59202380Y-108869047D01*
X59202380Y-108678571D01*
X59250000Y-108583333D01*
X59297619Y-108535714D01*
X59392857Y-108488095D01*
X59440476Y-108488095D01*
X59535714Y-108535714D01*
X59583333Y-108583333D01*
X59630952Y-108678571D01*
X59630952Y-108869047D01*
X59678571Y-108964285D01*
X59726190Y-109011904D01*
X59821428Y-109059523D01*
X60011904Y-109059523D01*
X60107142Y-109011904D01*
X60154761Y-108964285D01*
X60202380Y-108869047D01*
X60202380Y-108678571D01*
X60154761Y-108583333D01*
X60107142Y-108535714D01*
X60011904Y-108488095D01*
X59821428Y-108488095D01*
X59726190Y-108535714D01*
X59678571Y-108583333D01*
X59630952Y-108678571D01*
G04 #@! TO.C,SW1*
X125666666Y-103504761D02*
X125809523Y-103552380D01*
X126047619Y-103552380D01*
X126142857Y-103504761D01*
X126190476Y-103457142D01*
X126238095Y-103361904D01*
X126238095Y-103266666D01*
X126190476Y-103171428D01*
X126142857Y-103123809D01*
X126047619Y-103076190D01*
X125857142Y-103028571D01*
X125761904Y-102980952D01*
X125714285Y-102933333D01*
X125666666Y-102838095D01*
X125666666Y-102742857D01*
X125714285Y-102647619D01*
X125761904Y-102600000D01*
X125857142Y-102552380D01*
X126095238Y-102552380D01*
X126238095Y-102600000D01*
X126571428Y-102552380D02*
X126809523Y-103552380D01*
X127000000Y-102838095D01*
X127190476Y-103552380D01*
X127428571Y-102552380D01*
X128333333Y-103552380D02*
X127761904Y-103552380D01*
X128047619Y-103552380D02*
X128047619Y-102552380D01*
X127952380Y-102695238D01*
X127857142Y-102790476D01*
X127761904Y-102838095D01*
G04 #@! TO.C,SW2*
X125666666Y-89504761D02*
X125809523Y-89552380D01*
X126047619Y-89552380D01*
X126142857Y-89504761D01*
X126190476Y-89457142D01*
X126238095Y-89361904D01*
X126238095Y-89266666D01*
X126190476Y-89171428D01*
X126142857Y-89123809D01*
X126047619Y-89076190D01*
X125857142Y-89028571D01*
X125761904Y-88980952D01*
X125714285Y-88933333D01*
X125666666Y-88838095D01*
X125666666Y-88742857D01*
X125714285Y-88647619D01*
X125761904Y-88600000D01*
X125857142Y-88552380D01*
X126095238Y-88552380D01*
X126238095Y-88600000D01*
X126571428Y-88552380D02*
X126809523Y-89552380D01*
X127000000Y-88838095D01*
X127190476Y-89552380D01*
X127428571Y-88552380D01*
X127761904Y-88647619D02*
X127809523Y-88600000D01*
X127904761Y-88552380D01*
X128142857Y-88552380D01*
X128238095Y-88600000D01*
X128285714Y-88647619D01*
X128333333Y-88742857D01*
X128333333Y-88838095D01*
X128285714Y-88980952D01*
X127714285Y-89552380D01*
X128333333Y-89552380D01*
G04 #@! TO.C,U4*
X90238095Y-73702380D02*
X90238095Y-74511904D01*
X90285714Y-74607142D01*
X90333333Y-74654761D01*
X90428571Y-74702380D01*
X90619047Y-74702380D01*
X90714285Y-74654761D01*
X90761904Y-74607142D01*
X90809523Y-74511904D01*
X90809523Y-73702380D01*
X91714285Y-74035714D02*
X91714285Y-74702380D01*
X91476190Y-73654761D02*
X91238095Y-74369047D01*
X91857142Y-74369047D01*
G04 #@! TO.C,U5*
X86702380Y-100761904D02*
X87511904Y-100761904D01*
X87607142Y-100714285D01*
X87654761Y-100666666D01*
X87702380Y-100571428D01*
X87702380Y-100380952D01*
X87654761Y-100285714D01*
X87607142Y-100238095D01*
X87511904Y-100190476D01*
X86702380Y-100190476D01*
X86702380Y-99238095D02*
X86702380Y-99714285D01*
X87178571Y-99761904D01*
X87130952Y-99714285D01*
X87083333Y-99619047D01*
X87083333Y-99380952D01*
X87130952Y-99285714D01*
X87178571Y-99238095D01*
X87273809Y-99190476D01*
X87511904Y-99190476D01*
X87607142Y-99238095D01*
X87654761Y-99285714D01*
X87702380Y-99380952D01*
X87702380Y-99619047D01*
X87654761Y-99714285D01*
X87607142Y-99761904D01*
X95317571Y-93070571D02*
X95650904Y-93070571D01*
X95793761Y-93594380D02*
X95317571Y-93594380D01*
X95317571Y-92594380D01*
X95793761Y-92594380D01*
X96174714Y-93546761D02*
X96269952Y-93594380D01*
X96460428Y-93594380D01*
X96555666Y-93546761D01*
X96603285Y-93451523D01*
X96603285Y-93403904D01*
X96555666Y-93308666D01*
X96460428Y-93261047D01*
X96317571Y-93261047D01*
X96222333Y-93213428D01*
X96174714Y-93118190D01*
X96174714Y-93070571D01*
X96222333Y-92975333D01*
X96317571Y-92927714D01*
X96460428Y-92927714D01*
X96555666Y-92975333D01*
X97031857Y-92927714D02*
X97031857Y-93927714D01*
X97031857Y-92975333D02*
X97127095Y-92927714D01*
X97317571Y-92927714D01*
X97412809Y-92975333D01*
X97460428Y-93022952D01*
X97508047Y-93118190D01*
X97508047Y-93403904D01*
X97460428Y-93499142D01*
X97412809Y-93546761D01*
X97317571Y-93594380D01*
X97127095Y-93594380D01*
X97031857Y-93546761D01*
X97936619Y-93594380D02*
X97936619Y-92927714D01*
X97936619Y-93118190D02*
X97984238Y-93022952D01*
X98031857Y-92975333D01*
X98127095Y-92927714D01*
X98222333Y-92927714D01*
X98936619Y-93546761D02*
X98841380Y-93594380D01*
X98650904Y-93594380D01*
X98555666Y-93546761D01*
X98508047Y-93451523D01*
X98508047Y-93070571D01*
X98555666Y-92975333D01*
X98650904Y-92927714D01*
X98841380Y-92927714D01*
X98936619Y-92975333D01*
X98984238Y-93070571D01*
X98984238Y-93165809D01*
X98508047Y-93261047D01*
X99365190Y-93546761D02*
X99460428Y-93594380D01*
X99650904Y-93594380D01*
X99746142Y-93546761D01*
X99793761Y-93451523D01*
X99793761Y-93403904D01*
X99746142Y-93308666D01*
X99650904Y-93261047D01*
X99508047Y-93261047D01*
X99412809Y-93213428D01*
X99365190Y-93118190D01*
X99365190Y-93070571D01*
X99412809Y-92975333D01*
X99508047Y-92927714D01*
X99650904Y-92927714D01*
X99746142Y-92975333D01*
X100174714Y-93546761D02*
X100269952Y-93594380D01*
X100460428Y-93594380D01*
X100555666Y-93546761D01*
X100603285Y-93451523D01*
X100603285Y-93403904D01*
X100555666Y-93308666D01*
X100460428Y-93261047D01*
X100317571Y-93261047D01*
X100222333Y-93213428D01*
X100174714Y-93118190D01*
X100174714Y-93070571D01*
X100222333Y-92975333D01*
X100317571Y-92927714D01*
X100460428Y-92927714D01*
X100555666Y-92975333D01*
X101031857Y-93594380D02*
X101031857Y-92927714D01*
X101031857Y-92594380D02*
X100984238Y-92642000D01*
X101031857Y-92689619D01*
X101079476Y-92642000D01*
X101031857Y-92594380D01*
X101031857Y-92689619D01*
X101365190Y-92927714D02*
X101746142Y-92927714D01*
X101508047Y-93594380D02*
X101508047Y-92737238D01*
X101555666Y-92642000D01*
X101650904Y-92594380D01*
X101746142Y-92594380D01*
X102793761Y-93546761D02*
X102936619Y-93594380D01*
X103174714Y-93594380D01*
X103269952Y-93546761D01*
X103317571Y-93499142D01*
X103365190Y-93403904D01*
X103365190Y-93308666D01*
X103317571Y-93213428D01*
X103269952Y-93165809D01*
X103174714Y-93118190D01*
X102984238Y-93070571D01*
X102889000Y-93022952D01*
X102841380Y-92975333D01*
X102793761Y-92880095D01*
X102793761Y-92784857D01*
X102841380Y-92689619D01*
X102889000Y-92642000D01*
X102984238Y-92594380D01*
X103222333Y-92594380D01*
X103365190Y-92642000D01*
X103698523Y-92927714D02*
X103936619Y-93594380D01*
X104174714Y-92927714D02*
X103936619Y-93594380D01*
X103841380Y-93832476D01*
X103793761Y-93880095D01*
X103698523Y-93927714D01*
X104508047Y-93546761D02*
X104603285Y-93594380D01*
X104793761Y-93594380D01*
X104889000Y-93546761D01*
X104936619Y-93451523D01*
X104936619Y-93403904D01*
X104889000Y-93308666D01*
X104793761Y-93261047D01*
X104650904Y-93261047D01*
X104555666Y-93213428D01*
X104508047Y-93118190D01*
X104508047Y-93070571D01*
X104555666Y-92975333D01*
X104650904Y-92927714D01*
X104793761Y-92927714D01*
X104889000Y-92975333D01*
X105222333Y-92927714D02*
X105603285Y-92927714D01*
X105365190Y-92594380D02*
X105365190Y-93451523D01*
X105412809Y-93546761D01*
X105508047Y-93594380D01*
X105603285Y-93594380D01*
X106317571Y-93546761D02*
X106222333Y-93594380D01*
X106031857Y-93594380D01*
X105936619Y-93546761D01*
X105889000Y-93451523D01*
X105889000Y-93070571D01*
X105936619Y-92975333D01*
X106031857Y-92927714D01*
X106222333Y-92927714D01*
X106317571Y-92975333D01*
X106365190Y-93070571D01*
X106365190Y-93165809D01*
X105889000Y-93261047D01*
X106793761Y-93594380D02*
X106793761Y-92927714D01*
X106793761Y-93022952D02*
X106841380Y-92975333D01*
X106936619Y-92927714D01*
X107079476Y-92927714D01*
X107174714Y-92975333D01*
X107222333Y-93070571D01*
X107222333Y-93594380D01*
X107222333Y-93070571D02*
X107269952Y-92975333D01*
X107365190Y-92927714D01*
X107508047Y-92927714D01*
X107603285Y-92975333D01*
X107650904Y-93070571D01*
X107650904Y-93594380D01*
X108079476Y-93546761D02*
X108174714Y-93594380D01*
X108365190Y-93594380D01*
X108460428Y-93546761D01*
X108508047Y-93451523D01*
X108508047Y-93403904D01*
X108460428Y-93308666D01*
X108365190Y-93261047D01*
X108222333Y-93261047D01*
X108127095Y-93213428D01*
X108079476Y-93118190D01*
X108079476Y-93070571D01*
X108127095Y-92975333D01*
X108222333Y-92927714D01*
X108365190Y-92927714D01*
X108460428Y-92975333D01*
X95293619Y-94721571D02*
X95626952Y-94721571D01*
X95769809Y-95245380D02*
X95293619Y-95245380D01*
X95293619Y-94245380D01*
X95769809Y-94245380D01*
X96150761Y-95197761D02*
X96293619Y-95245380D01*
X96531714Y-95245380D01*
X96626952Y-95197761D01*
X96674571Y-95150142D01*
X96722190Y-95054904D01*
X96722190Y-94959666D01*
X96674571Y-94864428D01*
X96626952Y-94816809D01*
X96531714Y-94769190D01*
X96341238Y-94721571D01*
X96246000Y-94673952D01*
X96198380Y-94626333D01*
X96150761Y-94531095D01*
X96150761Y-94435857D01*
X96198380Y-94340619D01*
X96246000Y-94293000D01*
X96341238Y-94245380D01*
X96579333Y-94245380D01*
X96722190Y-94293000D01*
X97150761Y-95245380D02*
X97150761Y-94245380D01*
X97531714Y-94245380D01*
X97626952Y-94293000D01*
X97674571Y-94340619D01*
X97722190Y-94435857D01*
X97722190Y-94578714D01*
X97674571Y-94673952D01*
X97626952Y-94721571D01*
X97531714Y-94769190D01*
X97150761Y-94769190D01*
X98055523Y-94245380D02*
X98674571Y-94245380D01*
X98341238Y-94626333D01*
X98484095Y-94626333D01*
X98579333Y-94673952D01*
X98626952Y-94721571D01*
X98674571Y-94816809D01*
X98674571Y-95054904D01*
X98626952Y-95150142D01*
X98579333Y-95197761D01*
X98484095Y-95245380D01*
X98198380Y-95245380D01*
X98103142Y-95197761D01*
X98055523Y-95150142D01*
X99055523Y-94340619D02*
X99103142Y-94293000D01*
X99198380Y-94245380D01*
X99436476Y-94245380D01*
X99531714Y-94293000D01*
X99579333Y-94340619D01*
X99626952Y-94435857D01*
X99626952Y-94531095D01*
X99579333Y-94673952D01*
X99007904Y-95245380D01*
X99626952Y-95245380D01*
X100055523Y-94864428D02*
X100817428Y-94864428D01*
X101198380Y-94245380D02*
X101436476Y-95245380D01*
X101626952Y-94531095D01*
X101817428Y-95245380D01*
X102055523Y-94245380D01*
X103007904Y-95245380D02*
X102674571Y-94769190D01*
X102436476Y-95245380D02*
X102436476Y-94245380D01*
X102817428Y-94245380D01*
X102912666Y-94293000D01*
X102960285Y-94340619D01*
X103007904Y-94435857D01*
X103007904Y-94578714D01*
X102960285Y-94673952D01*
X102912666Y-94721571D01*
X102817428Y-94769190D01*
X102436476Y-94769190D01*
X103626952Y-94245380D02*
X103817428Y-94245380D01*
X103912666Y-94293000D01*
X104007904Y-94388238D01*
X104055523Y-94578714D01*
X104055523Y-94912047D01*
X104007904Y-95102523D01*
X103912666Y-95197761D01*
X103817428Y-95245380D01*
X103626952Y-95245380D01*
X103531714Y-95197761D01*
X103436476Y-95102523D01*
X103388857Y-94912047D01*
X103388857Y-94578714D01*
X103436476Y-94388238D01*
X103531714Y-94293000D01*
X103626952Y-94245380D01*
X104674571Y-94245380D02*
X104865047Y-94245380D01*
X104960285Y-94293000D01*
X105055523Y-94388238D01*
X105103142Y-94578714D01*
X105103142Y-94912047D01*
X105055523Y-95102523D01*
X104960285Y-95197761D01*
X104865047Y-95245380D01*
X104674571Y-95245380D01*
X104579333Y-95197761D01*
X104484095Y-95102523D01*
X104436476Y-94912047D01*
X104436476Y-94578714D01*
X104484095Y-94388238D01*
X104579333Y-94293000D01*
X104674571Y-94245380D01*
X105531714Y-95245380D02*
X105531714Y-94245380D01*
X105865047Y-94959666D01*
X106198380Y-94245380D01*
X106198380Y-95245380D01*
G04 #@! TO.C,J8*
X131782380Y-82333333D02*
X132496666Y-82333333D01*
X132639523Y-82380952D01*
X132734761Y-82476190D01*
X132782380Y-82619047D01*
X132782380Y-82714285D01*
X132210952Y-81714285D02*
X132163333Y-81809523D01*
X132115714Y-81857142D01*
X132020476Y-81904761D01*
X131972857Y-81904761D01*
X131877619Y-81857142D01*
X131830000Y-81809523D01*
X131782380Y-81714285D01*
X131782380Y-81523809D01*
X131830000Y-81428571D01*
X131877619Y-81380952D01*
X131972857Y-81333333D01*
X132020476Y-81333333D01*
X132115714Y-81380952D01*
X132163333Y-81428571D01*
X132210952Y-81523809D01*
X132210952Y-81714285D01*
X132258571Y-81809523D01*
X132306190Y-81857142D01*
X132401428Y-81904761D01*
X132591904Y-81904761D01*
X132687142Y-81857142D01*
X132734761Y-81809523D01*
X132782380Y-81714285D01*
X132782380Y-81523809D01*
X132734761Y-81428571D01*
X132687142Y-81380952D01*
X132591904Y-81333333D01*
X132401428Y-81333333D01*
X132306190Y-81380952D01*
X132258571Y-81428571D01*
X132210952Y-81523809D01*
G04 #@! TO.C,U1*
X55542380Y-125221904D02*
X56351904Y-125221904D01*
X56447142Y-125174285D01*
X56494761Y-125126666D01*
X56542380Y-125031428D01*
X56542380Y-124840952D01*
X56494761Y-124745714D01*
X56447142Y-124698095D01*
X56351904Y-124650476D01*
X55542380Y-124650476D01*
X56542380Y-123650476D02*
X56542380Y-124221904D01*
X56542380Y-123936190D02*
X55542380Y-123936190D01*
X55685238Y-124031428D01*
X55780476Y-124126666D01*
X55828095Y-124221904D01*
G04 #@! TO.C,U2*
X98722380Y-125221904D02*
X99531904Y-125221904D01*
X99627142Y-125174285D01*
X99674761Y-125126666D01*
X99722380Y-125031428D01*
X99722380Y-124840952D01*
X99674761Y-124745714D01*
X99627142Y-124698095D01*
X99531904Y-124650476D01*
X98722380Y-124650476D01*
X98817619Y-124221904D02*
X98770000Y-124174285D01*
X98722380Y-124079047D01*
X98722380Y-123840952D01*
X98770000Y-123745714D01*
X98817619Y-123698095D01*
X98912857Y-123650476D01*
X99008095Y-123650476D01*
X99150952Y-123698095D01*
X99722380Y-124269523D01*
X99722380Y-123650476D01*
G04 #@! TO.C,U3*
X66548095Y-86022380D02*
X66548095Y-86831904D01*
X66595714Y-86927142D01*
X66643333Y-86974761D01*
X66738571Y-87022380D01*
X66929047Y-87022380D01*
X67024285Y-86974761D01*
X67071904Y-86927142D01*
X67119523Y-86831904D01*
X67119523Y-86022380D01*
X67500476Y-86022380D02*
X68119523Y-86022380D01*
X67786190Y-86403333D01*
X67929047Y-86403333D01*
X68024285Y-86450952D01*
X68071904Y-86498571D01*
X68119523Y-86593809D01*
X68119523Y-86831904D01*
X68071904Y-86927142D01*
X68024285Y-86974761D01*
X67929047Y-87022380D01*
X67643333Y-87022380D01*
X67548095Y-86974761D01*
X67500476Y-86927142D01*
G04 #@! TD*
M02*
