G04 #@! TF.GenerationSoftware,KiCad,Pcbnew,5.0.2-bee76a0~70~ubuntu18.10.1*
G04 #@! TF.CreationDate,2019-05-13T16:40:49+01:00*
G04 #@! TF.ProjectId,alarm-monitor,616c6172-6d2d-46d6-9f6e-69746f722e6b,rev?*
G04 #@! TF.SameCoordinates,Original*
G04 #@! TF.FileFunction,Soldermask,Bot*
G04 #@! TF.FilePolarity,Negative*
%FSLAX46Y46*%
G04 Gerber Fmt 4.6, Leading zero omitted, Abs format (unit mm)*
G04 Created by KiCad (PCBNEW 5.0.2-bee76a0~70~ubuntu18.10.1) date Mon 13 May 2019 16:40:49 BST*
%MOMM*%
%LPD*%
G01*
G04 APERTURE LIST*
%ADD10C,0.100000*%
G04 APERTURE END LIST*
D10*
G36*
X115351000Y-142351000D02*
X112649000Y-142351000D01*
X112649000Y-139649000D01*
X115351000Y-139649000D01*
X115351000Y-142351000D01*
X115351000Y-142351000D01*
G37*
G36*
X85263567Y-139674959D02*
X85394072Y-139700918D01*
X85639939Y-139802759D01*
X85860464Y-139950110D01*
X85861215Y-139950612D01*
X86049388Y-140138785D01*
X86049390Y-140138788D01*
X86197241Y-140360061D01*
X86299082Y-140605928D01*
X86351000Y-140866938D01*
X86351000Y-141133062D01*
X86299082Y-141394072D01*
X86197241Y-141639939D01*
X86049890Y-141860464D01*
X86049388Y-141861215D01*
X85861215Y-142049388D01*
X85861212Y-142049390D01*
X85639939Y-142197241D01*
X85394072Y-142299082D01*
X85263567Y-142325041D01*
X85133063Y-142351000D01*
X84866937Y-142351000D01*
X84736433Y-142325041D01*
X84605928Y-142299082D01*
X84360061Y-142197241D01*
X84138788Y-142049390D01*
X84138785Y-142049388D01*
X83950612Y-141861215D01*
X83950110Y-141860464D01*
X83802759Y-141639939D01*
X83700918Y-141394072D01*
X83649000Y-141133062D01*
X83649000Y-140866938D01*
X83700918Y-140605928D01*
X83802759Y-140360061D01*
X83950610Y-140138788D01*
X83950612Y-140138785D01*
X84138785Y-139950612D01*
X84139536Y-139950110D01*
X84360061Y-139802759D01*
X84605928Y-139700918D01*
X84736433Y-139674959D01*
X84866937Y-139649000D01*
X85133063Y-139649000D01*
X85263567Y-139674959D01*
X85263567Y-139674959D01*
G37*
G36*
X63263567Y-139674959D02*
X63394072Y-139700918D01*
X63639939Y-139802759D01*
X63860464Y-139950110D01*
X63861215Y-139950612D01*
X64049388Y-140138785D01*
X64049390Y-140138788D01*
X64197241Y-140360061D01*
X64299082Y-140605928D01*
X64351000Y-140866938D01*
X64351000Y-141133062D01*
X64299082Y-141394072D01*
X64197241Y-141639939D01*
X64049890Y-141860464D01*
X64049388Y-141861215D01*
X63861215Y-142049388D01*
X63861212Y-142049390D01*
X63639939Y-142197241D01*
X63394072Y-142299082D01*
X63263567Y-142325041D01*
X63133063Y-142351000D01*
X62866937Y-142351000D01*
X62736433Y-142325041D01*
X62605928Y-142299082D01*
X62360061Y-142197241D01*
X62138788Y-142049390D01*
X62138785Y-142049388D01*
X61950612Y-141861215D01*
X61950110Y-141860464D01*
X61802759Y-141639939D01*
X61700918Y-141394072D01*
X61649000Y-141133062D01*
X61649000Y-140866938D01*
X61700918Y-140605928D01*
X61802759Y-140360061D01*
X61950610Y-140138788D01*
X61950612Y-140138785D01*
X62138785Y-139950612D01*
X62139536Y-139950110D01*
X62360061Y-139802759D01*
X62605928Y-139700918D01*
X62736433Y-139674959D01*
X62866937Y-139649000D01*
X63133063Y-139649000D01*
X63263567Y-139674959D01*
X63263567Y-139674959D01*
G37*
G36*
X58263567Y-139674959D02*
X58394072Y-139700918D01*
X58639939Y-139802759D01*
X58860464Y-139950110D01*
X58861215Y-139950612D01*
X59049388Y-140138785D01*
X59049390Y-140138788D01*
X59197241Y-140360061D01*
X59299082Y-140605928D01*
X59351000Y-140866938D01*
X59351000Y-141133062D01*
X59299082Y-141394072D01*
X59197241Y-141639939D01*
X59049890Y-141860464D01*
X59049388Y-141861215D01*
X58861215Y-142049388D01*
X58861212Y-142049390D01*
X58639939Y-142197241D01*
X58394072Y-142299082D01*
X58263567Y-142325041D01*
X58133063Y-142351000D01*
X57866937Y-142351000D01*
X57736433Y-142325041D01*
X57605928Y-142299082D01*
X57360061Y-142197241D01*
X57138788Y-142049390D01*
X57138785Y-142049388D01*
X56950612Y-141861215D01*
X56950110Y-141860464D01*
X56802759Y-141639939D01*
X56700918Y-141394072D01*
X56649000Y-141133062D01*
X56649000Y-140866938D01*
X56700918Y-140605928D01*
X56802759Y-140360061D01*
X56950610Y-140138788D01*
X56950612Y-140138785D01*
X57138785Y-139950612D01*
X57139536Y-139950110D01*
X57360061Y-139802759D01*
X57605928Y-139700918D01*
X57736433Y-139674959D01*
X57866937Y-139649000D01*
X58133063Y-139649000D01*
X58263567Y-139674959D01*
X58263567Y-139674959D01*
G37*
G36*
X53263567Y-139674959D02*
X53394072Y-139700918D01*
X53639939Y-139802759D01*
X53860464Y-139950110D01*
X53861215Y-139950612D01*
X54049388Y-140138785D01*
X54049390Y-140138788D01*
X54197241Y-140360061D01*
X54299082Y-140605928D01*
X54351000Y-140866938D01*
X54351000Y-141133062D01*
X54299082Y-141394072D01*
X54197241Y-141639939D01*
X54049890Y-141860464D01*
X54049388Y-141861215D01*
X53861215Y-142049388D01*
X53861212Y-142049390D01*
X53639939Y-142197241D01*
X53394072Y-142299082D01*
X53263567Y-142325041D01*
X53133063Y-142351000D01*
X52866937Y-142351000D01*
X52736433Y-142325041D01*
X52605928Y-142299082D01*
X52360061Y-142197241D01*
X52138788Y-142049390D01*
X52138785Y-142049388D01*
X51950612Y-141861215D01*
X51950110Y-141860464D01*
X51802759Y-141639939D01*
X51700918Y-141394072D01*
X51649000Y-141133062D01*
X51649000Y-140866938D01*
X51700918Y-140605928D01*
X51802759Y-140360061D01*
X51950610Y-140138788D01*
X51950612Y-140138785D01*
X52138785Y-139950612D01*
X52139536Y-139950110D01*
X52360061Y-139802759D01*
X52605928Y-139700918D01*
X52736433Y-139674959D01*
X52866937Y-139649000D01*
X53133063Y-139649000D01*
X53263567Y-139674959D01*
X53263567Y-139674959D01*
G37*
G36*
X49351000Y-142351000D02*
X46649000Y-142351000D01*
X46649000Y-139649000D01*
X49351000Y-139649000D01*
X49351000Y-142351000D01*
X49351000Y-142351000D01*
G37*
G36*
X71351000Y-142351000D02*
X68649000Y-142351000D01*
X68649000Y-139649000D01*
X71351000Y-139649000D01*
X71351000Y-142351000D01*
X71351000Y-142351000D01*
G37*
G36*
X75263567Y-139674959D02*
X75394072Y-139700918D01*
X75639939Y-139802759D01*
X75860464Y-139950110D01*
X75861215Y-139950612D01*
X76049388Y-140138785D01*
X76049390Y-140138788D01*
X76197241Y-140360061D01*
X76299082Y-140605928D01*
X76351000Y-140866938D01*
X76351000Y-141133062D01*
X76299082Y-141394072D01*
X76197241Y-141639939D01*
X76049890Y-141860464D01*
X76049388Y-141861215D01*
X75861215Y-142049388D01*
X75861212Y-142049390D01*
X75639939Y-142197241D01*
X75394072Y-142299082D01*
X75263567Y-142325041D01*
X75133063Y-142351000D01*
X74866937Y-142351000D01*
X74736433Y-142325041D01*
X74605928Y-142299082D01*
X74360061Y-142197241D01*
X74138788Y-142049390D01*
X74138785Y-142049388D01*
X73950612Y-141861215D01*
X73950110Y-141860464D01*
X73802759Y-141639939D01*
X73700918Y-141394072D01*
X73649000Y-141133062D01*
X73649000Y-140866938D01*
X73700918Y-140605928D01*
X73802759Y-140360061D01*
X73950610Y-140138788D01*
X73950612Y-140138785D01*
X74138785Y-139950612D01*
X74139536Y-139950110D01*
X74360061Y-139802759D01*
X74605928Y-139700918D01*
X74736433Y-139674959D01*
X74866937Y-139649000D01*
X75133063Y-139649000D01*
X75263567Y-139674959D01*
X75263567Y-139674959D01*
G37*
G36*
X80263567Y-139674959D02*
X80394072Y-139700918D01*
X80639939Y-139802759D01*
X80860464Y-139950110D01*
X80861215Y-139950612D01*
X81049388Y-140138785D01*
X81049390Y-140138788D01*
X81197241Y-140360061D01*
X81299082Y-140605928D01*
X81351000Y-140866938D01*
X81351000Y-141133062D01*
X81299082Y-141394072D01*
X81197241Y-141639939D01*
X81049890Y-141860464D01*
X81049388Y-141861215D01*
X80861215Y-142049388D01*
X80861212Y-142049390D01*
X80639939Y-142197241D01*
X80394072Y-142299082D01*
X80263567Y-142325041D01*
X80133063Y-142351000D01*
X79866937Y-142351000D01*
X79736433Y-142325041D01*
X79605928Y-142299082D01*
X79360061Y-142197241D01*
X79138788Y-142049390D01*
X79138785Y-142049388D01*
X78950612Y-141861215D01*
X78950110Y-141860464D01*
X78802759Y-141639939D01*
X78700918Y-141394072D01*
X78649000Y-141133062D01*
X78649000Y-140866938D01*
X78700918Y-140605928D01*
X78802759Y-140360061D01*
X78950610Y-140138788D01*
X78950612Y-140138785D01*
X79138785Y-139950612D01*
X79139536Y-139950110D01*
X79360061Y-139802759D01*
X79605928Y-139700918D01*
X79736433Y-139674959D01*
X79866937Y-139649000D01*
X80133063Y-139649000D01*
X80263567Y-139674959D01*
X80263567Y-139674959D01*
G37*
G36*
X93351000Y-142351000D02*
X90649000Y-142351000D01*
X90649000Y-139649000D01*
X93351000Y-139649000D01*
X93351000Y-142351000D01*
X93351000Y-142351000D01*
G37*
G36*
X97263567Y-139674959D02*
X97394072Y-139700918D01*
X97639939Y-139802759D01*
X97860464Y-139950110D01*
X97861215Y-139950612D01*
X98049388Y-140138785D01*
X98049390Y-140138788D01*
X98197241Y-140360061D01*
X98299082Y-140605928D01*
X98351000Y-140866938D01*
X98351000Y-141133062D01*
X98299082Y-141394072D01*
X98197241Y-141639939D01*
X98049890Y-141860464D01*
X98049388Y-141861215D01*
X97861215Y-142049388D01*
X97861212Y-142049390D01*
X97639939Y-142197241D01*
X97394072Y-142299082D01*
X97263567Y-142325041D01*
X97133063Y-142351000D01*
X96866937Y-142351000D01*
X96736433Y-142325041D01*
X96605928Y-142299082D01*
X96360061Y-142197241D01*
X96138788Y-142049390D01*
X96138785Y-142049388D01*
X95950612Y-141861215D01*
X95950110Y-141860464D01*
X95802759Y-141639939D01*
X95700918Y-141394072D01*
X95649000Y-141133062D01*
X95649000Y-140866938D01*
X95700918Y-140605928D01*
X95802759Y-140360061D01*
X95950610Y-140138788D01*
X95950612Y-140138785D01*
X96138785Y-139950612D01*
X96139536Y-139950110D01*
X96360061Y-139802759D01*
X96605928Y-139700918D01*
X96736433Y-139674959D01*
X96866937Y-139649000D01*
X97133063Y-139649000D01*
X97263567Y-139674959D01*
X97263567Y-139674959D01*
G37*
G36*
X102263567Y-139674959D02*
X102394072Y-139700918D01*
X102639939Y-139802759D01*
X102860464Y-139950110D01*
X102861215Y-139950612D01*
X103049388Y-140138785D01*
X103049390Y-140138788D01*
X103197241Y-140360061D01*
X103299082Y-140605928D01*
X103351000Y-140866938D01*
X103351000Y-141133062D01*
X103299082Y-141394072D01*
X103197241Y-141639939D01*
X103049890Y-141860464D01*
X103049388Y-141861215D01*
X102861215Y-142049388D01*
X102861212Y-142049390D01*
X102639939Y-142197241D01*
X102394072Y-142299082D01*
X102263567Y-142325041D01*
X102133063Y-142351000D01*
X101866937Y-142351000D01*
X101736433Y-142325041D01*
X101605928Y-142299082D01*
X101360061Y-142197241D01*
X101138788Y-142049390D01*
X101138785Y-142049388D01*
X100950612Y-141861215D01*
X100950110Y-141860464D01*
X100802759Y-141639939D01*
X100700918Y-141394072D01*
X100649000Y-141133062D01*
X100649000Y-140866938D01*
X100700918Y-140605928D01*
X100802759Y-140360061D01*
X100950610Y-140138788D01*
X100950612Y-140138785D01*
X101138785Y-139950612D01*
X101139536Y-139950110D01*
X101360061Y-139802759D01*
X101605928Y-139700918D01*
X101736433Y-139674959D01*
X101866937Y-139649000D01*
X102133063Y-139649000D01*
X102263567Y-139674959D01*
X102263567Y-139674959D01*
G37*
G36*
X107263567Y-139674959D02*
X107394072Y-139700918D01*
X107639939Y-139802759D01*
X107860464Y-139950110D01*
X107861215Y-139950612D01*
X108049388Y-140138785D01*
X108049390Y-140138788D01*
X108197241Y-140360061D01*
X108299082Y-140605928D01*
X108351000Y-140866938D01*
X108351000Y-141133062D01*
X108299082Y-141394072D01*
X108197241Y-141639939D01*
X108049890Y-141860464D01*
X108049388Y-141861215D01*
X107861215Y-142049388D01*
X107861212Y-142049390D01*
X107639939Y-142197241D01*
X107394072Y-142299082D01*
X107263567Y-142325041D01*
X107133063Y-142351000D01*
X106866937Y-142351000D01*
X106736433Y-142325041D01*
X106605928Y-142299082D01*
X106360061Y-142197241D01*
X106138788Y-142049390D01*
X106138785Y-142049388D01*
X105950612Y-141861215D01*
X105950110Y-141860464D01*
X105802759Y-141639939D01*
X105700918Y-141394072D01*
X105649000Y-141133062D01*
X105649000Y-140866938D01*
X105700918Y-140605928D01*
X105802759Y-140360061D01*
X105950610Y-140138788D01*
X105950612Y-140138785D01*
X106138785Y-139950612D01*
X106139536Y-139950110D01*
X106360061Y-139802759D01*
X106605928Y-139700918D01*
X106736433Y-139674959D01*
X106866937Y-139649000D01*
X107133063Y-139649000D01*
X107263567Y-139674959D01*
X107263567Y-139674959D01*
G37*
G36*
X129263567Y-139674959D02*
X129394072Y-139700918D01*
X129639939Y-139802759D01*
X129860464Y-139950110D01*
X129861215Y-139950612D01*
X130049388Y-140138785D01*
X130049390Y-140138788D01*
X130197241Y-140360061D01*
X130299082Y-140605928D01*
X130351000Y-140866938D01*
X130351000Y-141133062D01*
X130299082Y-141394072D01*
X130197241Y-141639939D01*
X130049890Y-141860464D01*
X130049388Y-141861215D01*
X129861215Y-142049388D01*
X129861212Y-142049390D01*
X129639939Y-142197241D01*
X129394072Y-142299082D01*
X129263567Y-142325041D01*
X129133063Y-142351000D01*
X128866937Y-142351000D01*
X128736433Y-142325041D01*
X128605928Y-142299082D01*
X128360061Y-142197241D01*
X128138788Y-142049390D01*
X128138785Y-142049388D01*
X127950612Y-141861215D01*
X127950110Y-141860464D01*
X127802759Y-141639939D01*
X127700918Y-141394072D01*
X127649000Y-141133062D01*
X127649000Y-140866938D01*
X127700918Y-140605928D01*
X127802759Y-140360061D01*
X127950610Y-140138788D01*
X127950612Y-140138785D01*
X128138785Y-139950612D01*
X128139536Y-139950110D01*
X128360061Y-139802759D01*
X128605928Y-139700918D01*
X128736433Y-139674959D01*
X128866937Y-139649000D01*
X129133063Y-139649000D01*
X129263567Y-139674959D01*
X129263567Y-139674959D01*
G37*
G36*
X124263567Y-139674959D02*
X124394072Y-139700918D01*
X124639939Y-139802759D01*
X124860464Y-139950110D01*
X124861215Y-139950612D01*
X125049388Y-140138785D01*
X125049390Y-140138788D01*
X125197241Y-140360061D01*
X125299082Y-140605928D01*
X125351000Y-140866938D01*
X125351000Y-141133062D01*
X125299082Y-141394072D01*
X125197241Y-141639939D01*
X125049890Y-141860464D01*
X125049388Y-141861215D01*
X124861215Y-142049388D01*
X124861212Y-142049390D01*
X124639939Y-142197241D01*
X124394072Y-142299082D01*
X124263567Y-142325041D01*
X124133063Y-142351000D01*
X123866937Y-142351000D01*
X123736433Y-142325041D01*
X123605928Y-142299082D01*
X123360061Y-142197241D01*
X123138788Y-142049390D01*
X123138785Y-142049388D01*
X122950612Y-141861215D01*
X122950110Y-141860464D01*
X122802759Y-141639939D01*
X122700918Y-141394072D01*
X122649000Y-141133062D01*
X122649000Y-140866938D01*
X122700918Y-140605928D01*
X122802759Y-140360061D01*
X122950610Y-140138788D01*
X122950612Y-140138785D01*
X123138785Y-139950612D01*
X123139536Y-139950110D01*
X123360061Y-139802759D01*
X123605928Y-139700918D01*
X123736433Y-139674959D01*
X123866937Y-139649000D01*
X124133063Y-139649000D01*
X124263567Y-139674959D01*
X124263567Y-139674959D01*
G37*
G36*
X119263567Y-139674959D02*
X119394072Y-139700918D01*
X119639939Y-139802759D01*
X119860464Y-139950110D01*
X119861215Y-139950612D01*
X120049388Y-140138785D01*
X120049390Y-140138788D01*
X120197241Y-140360061D01*
X120299082Y-140605928D01*
X120351000Y-140866938D01*
X120351000Y-141133062D01*
X120299082Y-141394072D01*
X120197241Y-141639939D01*
X120049890Y-141860464D01*
X120049388Y-141861215D01*
X119861215Y-142049388D01*
X119861212Y-142049390D01*
X119639939Y-142197241D01*
X119394072Y-142299082D01*
X119263567Y-142325041D01*
X119133063Y-142351000D01*
X118866937Y-142351000D01*
X118736433Y-142325041D01*
X118605928Y-142299082D01*
X118360061Y-142197241D01*
X118138788Y-142049390D01*
X118138785Y-142049388D01*
X117950612Y-141861215D01*
X117950110Y-141860464D01*
X117802759Y-141639939D01*
X117700918Y-141394072D01*
X117649000Y-141133062D01*
X117649000Y-140866938D01*
X117700918Y-140605928D01*
X117802759Y-140360061D01*
X117950610Y-140138788D01*
X117950612Y-140138785D01*
X118138785Y-139950612D01*
X118139536Y-139950110D01*
X118360061Y-139802759D01*
X118605928Y-139700918D01*
X118736433Y-139674959D01*
X118866937Y-139649000D01*
X119133063Y-139649000D01*
X119263567Y-139674959D01*
X119263567Y-139674959D01*
G37*
G36*
X63666821Y-127431313D02*
X63666824Y-127431314D01*
X63666825Y-127431314D01*
X63827239Y-127479975D01*
X63827241Y-127479976D01*
X63827244Y-127479977D01*
X63975078Y-127558995D01*
X64104659Y-127665341D01*
X64211005Y-127794922D01*
X64290023Y-127942756D01*
X64338687Y-128103179D01*
X64355117Y-128270000D01*
X64338687Y-128436821D01*
X64338686Y-128436824D01*
X64338686Y-128436825D01*
X64298035Y-128570834D01*
X64290023Y-128597244D01*
X64211005Y-128745078D01*
X64104659Y-128874659D01*
X63975078Y-128981005D01*
X63827244Y-129060023D01*
X63827241Y-129060024D01*
X63827239Y-129060025D01*
X63666825Y-129108686D01*
X63666824Y-129108686D01*
X63666821Y-129108687D01*
X63541804Y-129121000D01*
X63458196Y-129121000D01*
X63333179Y-129108687D01*
X63333176Y-129108686D01*
X63333175Y-129108686D01*
X63172761Y-129060025D01*
X63172759Y-129060024D01*
X63172756Y-129060023D01*
X63024922Y-128981005D01*
X62895341Y-128874659D01*
X62788995Y-128745078D01*
X62709977Y-128597244D01*
X62701966Y-128570834D01*
X62661314Y-128436825D01*
X62661314Y-128436824D01*
X62661313Y-128436821D01*
X62644883Y-128270000D01*
X62661313Y-128103179D01*
X62709977Y-127942756D01*
X62788995Y-127794922D01*
X62895341Y-127665341D01*
X63024922Y-127558995D01*
X63172756Y-127479977D01*
X63172759Y-127479976D01*
X63172761Y-127479975D01*
X63333175Y-127431314D01*
X63333176Y-127431314D01*
X63333179Y-127431313D01*
X63458196Y-127419000D01*
X63541804Y-127419000D01*
X63666821Y-127431313D01*
X63666821Y-127431313D01*
G37*
G36*
X73826821Y-127431313D02*
X73826824Y-127431314D01*
X73826825Y-127431314D01*
X73987239Y-127479975D01*
X73987241Y-127479976D01*
X73987244Y-127479977D01*
X74135078Y-127558995D01*
X74264659Y-127665341D01*
X74371005Y-127794922D01*
X74450023Y-127942756D01*
X74498687Y-128103179D01*
X74515117Y-128270000D01*
X74498687Y-128436821D01*
X74498686Y-128436824D01*
X74498686Y-128436825D01*
X74458035Y-128570834D01*
X74450023Y-128597244D01*
X74371005Y-128745078D01*
X74264659Y-128874659D01*
X74135078Y-128981005D01*
X73987244Y-129060023D01*
X73987241Y-129060024D01*
X73987239Y-129060025D01*
X73826825Y-129108686D01*
X73826824Y-129108686D01*
X73826821Y-129108687D01*
X73701804Y-129121000D01*
X73618196Y-129121000D01*
X73493179Y-129108687D01*
X73493176Y-129108686D01*
X73493175Y-129108686D01*
X73332761Y-129060025D01*
X73332759Y-129060024D01*
X73332756Y-129060023D01*
X73184922Y-128981005D01*
X73055341Y-128874659D01*
X72948995Y-128745078D01*
X72869977Y-128597244D01*
X72861966Y-128570834D01*
X72821314Y-128436825D01*
X72821314Y-128436824D01*
X72821313Y-128436821D01*
X72804883Y-128270000D01*
X72821313Y-128103179D01*
X72869977Y-127942756D01*
X72948995Y-127794922D01*
X73055341Y-127665341D01*
X73184922Y-127558995D01*
X73332756Y-127479977D01*
X73332759Y-127479976D01*
X73332761Y-127479975D01*
X73493175Y-127431314D01*
X73493176Y-127431314D01*
X73493179Y-127431313D01*
X73618196Y-127419000D01*
X73701804Y-127419000D01*
X73826821Y-127431313D01*
X73826821Y-127431313D01*
G37*
G36*
X102451000Y-129121000D02*
X100749000Y-129121000D01*
X100749000Y-127419000D01*
X102451000Y-127419000D01*
X102451000Y-129121000D01*
X102451000Y-129121000D01*
G37*
G36*
X104306821Y-127431313D02*
X104306824Y-127431314D01*
X104306825Y-127431314D01*
X104467239Y-127479975D01*
X104467241Y-127479976D01*
X104467244Y-127479977D01*
X104615078Y-127558995D01*
X104744659Y-127665341D01*
X104851005Y-127794922D01*
X104930023Y-127942756D01*
X104978687Y-128103179D01*
X104995117Y-128270000D01*
X104978687Y-128436821D01*
X104978686Y-128436824D01*
X104978686Y-128436825D01*
X104938035Y-128570834D01*
X104930023Y-128597244D01*
X104851005Y-128745078D01*
X104744659Y-128874659D01*
X104615078Y-128981005D01*
X104467244Y-129060023D01*
X104467241Y-129060024D01*
X104467239Y-129060025D01*
X104306825Y-129108686D01*
X104306824Y-129108686D01*
X104306821Y-129108687D01*
X104181804Y-129121000D01*
X104098196Y-129121000D01*
X103973179Y-129108687D01*
X103973176Y-129108686D01*
X103973175Y-129108686D01*
X103812761Y-129060025D01*
X103812759Y-129060024D01*
X103812756Y-129060023D01*
X103664922Y-128981005D01*
X103535341Y-128874659D01*
X103428995Y-128745078D01*
X103349977Y-128597244D01*
X103341966Y-128570834D01*
X103301314Y-128436825D01*
X103301314Y-128436824D01*
X103301313Y-128436821D01*
X103284883Y-128270000D01*
X103301313Y-128103179D01*
X103349977Y-127942756D01*
X103428995Y-127794922D01*
X103535341Y-127665341D01*
X103664922Y-127558995D01*
X103812756Y-127479977D01*
X103812759Y-127479976D01*
X103812761Y-127479975D01*
X103973175Y-127431314D01*
X103973176Y-127431314D01*
X103973179Y-127431313D01*
X104098196Y-127419000D01*
X104181804Y-127419000D01*
X104306821Y-127431313D01*
X104306821Y-127431313D01*
G37*
G36*
X106846821Y-127431313D02*
X106846824Y-127431314D01*
X106846825Y-127431314D01*
X107007239Y-127479975D01*
X107007241Y-127479976D01*
X107007244Y-127479977D01*
X107155078Y-127558995D01*
X107284659Y-127665341D01*
X107391005Y-127794922D01*
X107470023Y-127942756D01*
X107518687Y-128103179D01*
X107535117Y-128270000D01*
X107518687Y-128436821D01*
X107518686Y-128436824D01*
X107518686Y-128436825D01*
X107478035Y-128570834D01*
X107470023Y-128597244D01*
X107391005Y-128745078D01*
X107284659Y-128874659D01*
X107155078Y-128981005D01*
X107007244Y-129060023D01*
X107007241Y-129060024D01*
X107007239Y-129060025D01*
X106846825Y-129108686D01*
X106846824Y-129108686D01*
X106846821Y-129108687D01*
X106721804Y-129121000D01*
X106638196Y-129121000D01*
X106513179Y-129108687D01*
X106513176Y-129108686D01*
X106513175Y-129108686D01*
X106352761Y-129060025D01*
X106352759Y-129060024D01*
X106352756Y-129060023D01*
X106204922Y-128981005D01*
X106075341Y-128874659D01*
X105968995Y-128745078D01*
X105889977Y-128597244D01*
X105881966Y-128570834D01*
X105841314Y-128436825D01*
X105841314Y-128436824D01*
X105841313Y-128436821D01*
X105824883Y-128270000D01*
X105841313Y-128103179D01*
X105889977Y-127942756D01*
X105968995Y-127794922D01*
X106075341Y-127665341D01*
X106204922Y-127558995D01*
X106352756Y-127479977D01*
X106352759Y-127479976D01*
X106352761Y-127479975D01*
X106513175Y-127431314D01*
X106513176Y-127431314D01*
X106513179Y-127431313D01*
X106638196Y-127419000D01*
X106721804Y-127419000D01*
X106846821Y-127431313D01*
X106846821Y-127431313D01*
G37*
G36*
X109386821Y-127431313D02*
X109386824Y-127431314D01*
X109386825Y-127431314D01*
X109547239Y-127479975D01*
X109547241Y-127479976D01*
X109547244Y-127479977D01*
X109695078Y-127558995D01*
X109824659Y-127665341D01*
X109931005Y-127794922D01*
X110010023Y-127942756D01*
X110058687Y-128103179D01*
X110075117Y-128270000D01*
X110058687Y-128436821D01*
X110058686Y-128436824D01*
X110058686Y-128436825D01*
X110018035Y-128570834D01*
X110010023Y-128597244D01*
X109931005Y-128745078D01*
X109824659Y-128874659D01*
X109695078Y-128981005D01*
X109547244Y-129060023D01*
X109547241Y-129060024D01*
X109547239Y-129060025D01*
X109386825Y-129108686D01*
X109386824Y-129108686D01*
X109386821Y-129108687D01*
X109261804Y-129121000D01*
X109178196Y-129121000D01*
X109053179Y-129108687D01*
X109053176Y-129108686D01*
X109053175Y-129108686D01*
X108892761Y-129060025D01*
X108892759Y-129060024D01*
X108892756Y-129060023D01*
X108744922Y-128981005D01*
X108615341Y-128874659D01*
X108508995Y-128745078D01*
X108429977Y-128597244D01*
X108421966Y-128570834D01*
X108381314Y-128436825D01*
X108381314Y-128436824D01*
X108381313Y-128436821D01*
X108364883Y-128270000D01*
X108381313Y-128103179D01*
X108429977Y-127942756D01*
X108508995Y-127794922D01*
X108615341Y-127665341D01*
X108744922Y-127558995D01*
X108892756Y-127479977D01*
X108892759Y-127479976D01*
X108892761Y-127479975D01*
X109053175Y-127431314D01*
X109053176Y-127431314D01*
X109053179Y-127431313D01*
X109178196Y-127419000D01*
X109261804Y-127419000D01*
X109386821Y-127431313D01*
X109386821Y-127431313D01*
G37*
G36*
X114466821Y-127431313D02*
X114466824Y-127431314D01*
X114466825Y-127431314D01*
X114627239Y-127479975D01*
X114627241Y-127479976D01*
X114627244Y-127479977D01*
X114775078Y-127558995D01*
X114904659Y-127665341D01*
X115011005Y-127794922D01*
X115090023Y-127942756D01*
X115138687Y-128103179D01*
X115155117Y-128270000D01*
X115138687Y-128436821D01*
X115138686Y-128436824D01*
X115138686Y-128436825D01*
X115098035Y-128570834D01*
X115090023Y-128597244D01*
X115011005Y-128745078D01*
X114904659Y-128874659D01*
X114775078Y-128981005D01*
X114627244Y-129060023D01*
X114627241Y-129060024D01*
X114627239Y-129060025D01*
X114466825Y-129108686D01*
X114466824Y-129108686D01*
X114466821Y-129108687D01*
X114341804Y-129121000D01*
X114258196Y-129121000D01*
X114133179Y-129108687D01*
X114133176Y-129108686D01*
X114133175Y-129108686D01*
X113972761Y-129060025D01*
X113972759Y-129060024D01*
X113972756Y-129060023D01*
X113824922Y-128981005D01*
X113695341Y-128874659D01*
X113588995Y-128745078D01*
X113509977Y-128597244D01*
X113501966Y-128570834D01*
X113461314Y-128436825D01*
X113461314Y-128436824D01*
X113461313Y-128436821D01*
X113444883Y-128270000D01*
X113461313Y-128103179D01*
X113509977Y-127942756D01*
X113588995Y-127794922D01*
X113695341Y-127665341D01*
X113824922Y-127558995D01*
X113972756Y-127479977D01*
X113972759Y-127479976D01*
X113972761Y-127479975D01*
X114133175Y-127431314D01*
X114133176Y-127431314D01*
X114133179Y-127431313D01*
X114258196Y-127419000D01*
X114341804Y-127419000D01*
X114466821Y-127431313D01*
X114466821Y-127431313D01*
G37*
G36*
X76366821Y-127431313D02*
X76366824Y-127431314D01*
X76366825Y-127431314D01*
X76527239Y-127479975D01*
X76527241Y-127479976D01*
X76527244Y-127479977D01*
X76675078Y-127558995D01*
X76804659Y-127665341D01*
X76911005Y-127794922D01*
X76990023Y-127942756D01*
X77038687Y-128103179D01*
X77055117Y-128270000D01*
X77038687Y-128436821D01*
X77038686Y-128436824D01*
X77038686Y-128436825D01*
X76998035Y-128570834D01*
X76990023Y-128597244D01*
X76911005Y-128745078D01*
X76804659Y-128874659D01*
X76675078Y-128981005D01*
X76527244Y-129060023D01*
X76527241Y-129060024D01*
X76527239Y-129060025D01*
X76366825Y-129108686D01*
X76366824Y-129108686D01*
X76366821Y-129108687D01*
X76241804Y-129121000D01*
X76158196Y-129121000D01*
X76033179Y-129108687D01*
X76033176Y-129108686D01*
X76033175Y-129108686D01*
X75872761Y-129060025D01*
X75872759Y-129060024D01*
X75872756Y-129060023D01*
X75724922Y-128981005D01*
X75595341Y-128874659D01*
X75488995Y-128745078D01*
X75409977Y-128597244D01*
X75401966Y-128570834D01*
X75361314Y-128436825D01*
X75361314Y-128436824D01*
X75361313Y-128436821D01*
X75344883Y-128270000D01*
X75361313Y-128103179D01*
X75409977Y-127942756D01*
X75488995Y-127794922D01*
X75595341Y-127665341D01*
X75724922Y-127558995D01*
X75872756Y-127479977D01*
X75872759Y-127479976D01*
X75872761Y-127479975D01*
X76033175Y-127431314D01*
X76033176Y-127431314D01*
X76033179Y-127431313D01*
X76158196Y-127419000D01*
X76241804Y-127419000D01*
X76366821Y-127431313D01*
X76366821Y-127431313D01*
G37*
G36*
X68746821Y-127431313D02*
X68746824Y-127431314D01*
X68746825Y-127431314D01*
X68907239Y-127479975D01*
X68907241Y-127479976D01*
X68907244Y-127479977D01*
X69055078Y-127558995D01*
X69184659Y-127665341D01*
X69291005Y-127794922D01*
X69370023Y-127942756D01*
X69418687Y-128103179D01*
X69435117Y-128270000D01*
X69418687Y-128436821D01*
X69418686Y-128436824D01*
X69418686Y-128436825D01*
X69378035Y-128570834D01*
X69370023Y-128597244D01*
X69291005Y-128745078D01*
X69184659Y-128874659D01*
X69055078Y-128981005D01*
X68907244Y-129060023D01*
X68907241Y-129060024D01*
X68907239Y-129060025D01*
X68746825Y-129108686D01*
X68746824Y-129108686D01*
X68746821Y-129108687D01*
X68621804Y-129121000D01*
X68538196Y-129121000D01*
X68413179Y-129108687D01*
X68413176Y-129108686D01*
X68413175Y-129108686D01*
X68252761Y-129060025D01*
X68252759Y-129060024D01*
X68252756Y-129060023D01*
X68104922Y-128981005D01*
X67975341Y-128874659D01*
X67868995Y-128745078D01*
X67789977Y-128597244D01*
X67781966Y-128570834D01*
X67741314Y-128436825D01*
X67741314Y-128436824D01*
X67741313Y-128436821D01*
X67724883Y-128270000D01*
X67741313Y-128103179D01*
X67789977Y-127942756D01*
X67868995Y-127794922D01*
X67975341Y-127665341D01*
X68104922Y-127558995D01*
X68252756Y-127479977D01*
X68252759Y-127479976D01*
X68252761Y-127479975D01*
X68413175Y-127431314D01*
X68413176Y-127431314D01*
X68413179Y-127431313D01*
X68538196Y-127419000D01*
X68621804Y-127419000D01*
X68746821Y-127431313D01*
X68746821Y-127431313D01*
G37*
G36*
X66206821Y-127431313D02*
X66206824Y-127431314D01*
X66206825Y-127431314D01*
X66367239Y-127479975D01*
X66367241Y-127479976D01*
X66367244Y-127479977D01*
X66515078Y-127558995D01*
X66644659Y-127665341D01*
X66751005Y-127794922D01*
X66830023Y-127942756D01*
X66878687Y-128103179D01*
X66895117Y-128270000D01*
X66878687Y-128436821D01*
X66878686Y-128436824D01*
X66878686Y-128436825D01*
X66838035Y-128570834D01*
X66830023Y-128597244D01*
X66751005Y-128745078D01*
X66644659Y-128874659D01*
X66515078Y-128981005D01*
X66367244Y-129060023D01*
X66367241Y-129060024D01*
X66367239Y-129060025D01*
X66206825Y-129108686D01*
X66206824Y-129108686D01*
X66206821Y-129108687D01*
X66081804Y-129121000D01*
X65998196Y-129121000D01*
X65873179Y-129108687D01*
X65873176Y-129108686D01*
X65873175Y-129108686D01*
X65712761Y-129060025D01*
X65712759Y-129060024D01*
X65712756Y-129060023D01*
X65564922Y-128981005D01*
X65435341Y-128874659D01*
X65328995Y-128745078D01*
X65249977Y-128597244D01*
X65241966Y-128570834D01*
X65201314Y-128436825D01*
X65201314Y-128436824D01*
X65201313Y-128436821D01*
X65184883Y-128270000D01*
X65201313Y-128103179D01*
X65249977Y-127942756D01*
X65328995Y-127794922D01*
X65435341Y-127665341D01*
X65564922Y-127558995D01*
X65712756Y-127479977D01*
X65712759Y-127479976D01*
X65712761Y-127479975D01*
X65873175Y-127431314D01*
X65873176Y-127431314D01*
X65873179Y-127431313D01*
X65998196Y-127419000D01*
X66081804Y-127419000D01*
X66206821Y-127431313D01*
X66206821Y-127431313D01*
G37*
G36*
X111926821Y-127431313D02*
X111926824Y-127431314D01*
X111926825Y-127431314D01*
X112087239Y-127479975D01*
X112087241Y-127479976D01*
X112087244Y-127479977D01*
X112235078Y-127558995D01*
X112364659Y-127665341D01*
X112471005Y-127794922D01*
X112550023Y-127942756D01*
X112598687Y-128103179D01*
X112615117Y-128270000D01*
X112598687Y-128436821D01*
X112598686Y-128436824D01*
X112598686Y-128436825D01*
X112558035Y-128570834D01*
X112550023Y-128597244D01*
X112471005Y-128745078D01*
X112364659Y-128874659D01*
X112235078Y-128981005D01*
X112087244Y-129060023D01*
X112087241Y-129060024D01*
X112087239Y-129060025D01*
X111926825Y-129108686D01*
X111926824Y-129108686D01*
X111926821Y-129108687D01*
X111801804Y-129121000D01*
X111718196Y-129121000D01*
X111593179Y-129108687D01*
X111593176Y-129108686D01*
X111593175Y-129108686D01*
X111432761Y-129060025D01*
X111432759Y-129060024D01*
X111432756Y-129060023D01*
X111284922Y-128981005D01*
X111155341Y-128874659D01*
X111048995Y-128745078D01*
X110969977Y-128597244D01*
X110961966Y-128570834D01*
X110921314Y-128436825D01*
X110921314Y-128436824D01*
X110921313Y-128436821D01*
X110904883Y-128270000D01*
X110921313Y-128103179D01*
X110969977Y-127942756D01*
X111048995Y-127794922D01*
X111155341Y-127665341D01*
X111284922Y-127558995D01*
X111432756Y-127479977D01*
X111432759Y-127479976D01*
X111432761Y-127479975D01*
X111593175Y-127431314D01*
X111593176Y-127431314D01*
X111593179Y-127431313D01*
X111718196Y-127419000D01*
X111801804Y-127419000D01*
X111926821Y-127431313D01*
X111926821Y-127431313D01*
G37*
G36*
X61126821Y-127431313D02*
X61126824Y-127431314D01*
X61126825Y-127431314D01*
X61287239Y-127479975D01*
X61287241Y-127479976D01*
X61287244Y-127479977D01*
X61435078Y-127558995D01*
X61564659Y-127665341D01*
X61671005Y-127794922D01*
X61750023Y-127942756D01*
X61798687Y-128103179D01*
X61815117Y-128270000D01*
X61798687Y-128436821D01*
X61798686Y-128436824D01*
X61798686Y-128436825D01*
X61758035Y-128570834D01*
X61750023Y-128597244D01*
X61671005Y-128745078D01*
X61564659Y-128874659D01*
X61435078Y-128981005D01*
X61287244Y-129060023D01*
X61287241Y-129060024D01*
X61287239Y-129060025D01*
X61126825Y-129108686D01*
X61126824Y-129108686D01*
X61126821Y-129108687D01*
X61001804Y-129121000D01*
X60918196Y-129121000D01*
X60793179Y-129108687D01*
X60793176Y-129108686D01*
X60793175Y-129108686D01*
X60632761Y-129060025D01*
X60632759Y-129060024D01*
X60632756Y-129060023D01*
X60484922Y-128981005D01*
X60355341Y-128874659D01*
X60248995Y-128745078D01*
X60169977Y-128597244D01*
X60161966Y-128570834D01*
X60121314Y-128436825D01*
X60121314Y-128436824D01*
X60121313Y-128436821D01*
X60104883Y-128270000D01*
X60121313Y-128103179D01*
X60169977Y-127942756D01*
X60248995Y-127794922D01*
X60355341Y-127665341D01*
X60484922Y-127558995D01*
X60632756Y-127479977D01*
X60632759Y-127479976D01*
X60632761Y-127479975D01*
X60793175Y-127431314D01*
X60793176Y-127431314D01*
X60793179Y-127431313D01*
X60918196Y-127419000D01*
X61001804Y-127419000D01*
X61126821Y-127431313D01*
X61126821Y-127431313D01*
G37*
G36*
X59271000Y-129121000D02*
X57569000Y-129121000D01*
X57569000Y-127419000D01*
X59271000Y-127419000D01*
X59271000Y-129121000D01*
X59271000Y-129121000D01*
G37*
G36*
X117006821Y-127431313D02*
X117006824Y-127431314D01*
X117006825Y-127431314D01*
X117167239Y-127479975D01*
X117167241Y-127479976D01*
X117167244Y-127479977D01*
X117315078Y-127558995D01*
X117444659Y-127665341D01*
X117551005Y-127794922D01*
X117630023Y-127942756D01*
X117678687Y-128103179D01*
X117695117Y-128270000D01*
X117678687Y-128436821D01*
X117678686Y-128436824D01*
X117678686Y-128436825D01*
X117638035Y-128570834D01*
X117630023Y-128597244D01*
X117551005Y-128745078D01*
X117444659Y-128874659D01*
X117315078Y-128981005D01*
X117167244Y-129060023D01*
X117167241Y-129060024D01*
X117167239Y-129060025D01*
X117006825Y-129108686D01*
X117006824Y-129108686D01*
X117006821Y-129108687D01*
X116881804Y-129121000D01*
X116798196Y-129121000D01*
X116673179Y-129108687D01*
X116673176Y-129108686D01*
X116673175Y-129108686D01*
X116512761Y-129060025D01*
X116512759Y-129060024D01*
X116512756Y-129060023D01*
X116364922Y-128981005D01*
X116235341Y-128874659D01*
X116128995Y-128745078D01*
X116049977Y-128597244D01*
X116041966Y-128570834D01*
X116001314Y-128436825D01*
X116001314Y-128436824D01*
X116001313Y-128436821D01*
X115984883Y-128270000D01*
X116001313Y-128103179D01*
X116049977Y-127942756D01*
X116128995Y-127794922D01*
X116235341Y-127665341D01*
X116364922Y-127558995D01*
X116512756Y-127479977D01*
X116512759Y-127479976D01*
X116512761Y-127479975D01*
X116673175Y-127431314D01*
X116673176Y-127431314D01*
X116673179Y-127431313D01*
X116798196Y-127419000D01*
X116881804Y-127419000D01*
X117006821Y-127431313D01*
X117006821Y-127431313D01*
G37*
G36*
X119546821Y-127431313D02*
X119546824Y-127431314D01*
X119546825Y-127431314D01*
X119707239Y-127479975D01*
X119707241Y-127479976D01*
X119707244Y-127479977D01*
X119855078Y-127558995D01*
X119984659Y-127665341D01*
X120091005Y-127794922D01*
X120170023Y-127942756D01*
X120218687Y-128103179D01*
X120235117Y-128270000D01*
X120218687Y-128436821D01*
X120218686Y-128436824D01*
X120218686Y-128436825D01*
X120178035Y-128570834D01*
X120170023Y-128597244D01*
X120091005Y-128745078D01*
X119984659Y-128874659D01*
X119855078Y-128981005D01*
X119707244Y-129060023D01*
X119707241Y-129060024D01*
X119707239Y-129060025D01*
X119546825Y-129108686D01*
X119546824Y-129108686D01*
X119546821Y-129108687D01*
X119421804Y-129121000D01*
X119338196Y-129121000D01*
X119213179Y-129108687D01*
X119213176Y-129108686D01*
X119213175Y-129108686D01*
X119052761Y-129060025D01*
X119052759Y-129060024D01*
X119052756Y-129060023D01*
X118904922Y-128981005D01*
X118775341Y-128874659D01*
X118668995Y-128745078D01*
X118589977Y-128597244D01*
X118581966Y-128570834D01*
X118541314Y-128436825D01*
X118541314Y-128436824D01*
X118541313Y-128436821D01*
X118524883Y-128270000D01*
X118541313Y-128103179D01*
X118589977Y-127942756D01*
X118668995Y-127794922D01*
X118775341Y-127665341D01*
X118904922Y-127558995D01*
X119052756Y-127479977D01*
X119052759Y-127479976D01*
X119052761Y-127479975D01*
X119213175Y-127431314D01*
X119213176Y-127431314D01*
X119213179Y-127431313D01*
X119338196Y-127419000D01*
X119421804Y-127419000D01*
X119546821Y-127431313D01*
X119546821Y-127431313D01*
G37*
G36*
X71286821Y-127431313D02*
X71286824Y-127431314D01*
X71286825Y-127431314D01*
X71447239Y-127479975D01*
X71447241Y-127479976D01*
X71447244Y-127479977D01*
X71595078Y-127558995D01*
X71724659Y-127665341D01*
X71831005Y-127794922D01*
X71910023Y-127942756D01*
X71958687Y-128103179D01*
X71975117Y-128270000D01*
X71958687Y-128436821D01*
X71958686Y-128436824D01*
X71958686Y-128436825D01*
X71918035Y-128570834D01*
X71910023Y-128597244D01*
X71831005Y-128745078D01*
X71724659Y-128874659D01*
X71595078Y-128981005D01*
X71447244Y-129060023D01*
X71447241Y-129060024D01*
X71447239Y-129060025D01*
X71286825Y-129108686D01*
X71286824Y-129108686D01*
X71286821Y-129108687D01*
X71161804Y-129121000D01*
X71078196Y-129121000D01*
X70953179Y-129108687D01*
X70953176Y-129108686D01*
X70953175Y-129108686D01*
X70792761Y-129060025D01*
X70792759Y-129060024D01*
X70792756Y-129060023D01*
X70644922Y-128981005D01*
X70515341Y-128874659D01*
X70408995Y-128745078D01*
X70329977Y-128597244D01*
X70321966Y-128570834D01*
X70281314Y-128436825D01*
X70281314Y-128436824D01*
X70281313Y-128436821D01*
X70264883Y-128270000D01*
X70281313Y-128103179D01*
X70329977Y-127942756D01*
X70408995Y-127794922D01*
X70515341Y-127665341D01*
X70644922Y-127558995D01*
X70792756Y-127479977D01*
X70792759Y-127479976D01*
X70792761Y-127479975D01*
X70953175Y-127431314D01*
X70953176Y-127431314D01*
X70953179Y-127431313D01*
X71078196Y-127419000D01*
X71161804Y-127419000D01*
X71286821Y-127431313D01*
X71286821Y-127431313D01*
G37*
G36*
X129846190Y-123210483D02*
X130374138Y-123429166D01*
X130849283Y-123746648D01*
X131253352Y-124150717D01*
X131570834Y-124625862D01*
X131789517Y-125153810D01*
X131901000Y-125714275D01*
X131901000Y-126285725D01*
X131789517Y-126846190D01*
X131570834Y-127374138D01*
X131253352Y-127849283D01*
X130849283Y-128253352D01*
X130374138Y-128570834D01*
X129846190Y-128789517D01*
X129285725Y-128901000D01*
X128714275Y-128901000D01*
X128153810Y-128789517D01*
X127625862Y-128570834D01*
X127150717Y-128253352D01*
X126746648Y-127849283D01*
X126429166Y-127374138D01*
X126210483Y-126846190D01*
X126099000Y-126285725D01*
X126099000Y-125714275D01*
X126210483Y-125153810D01*
X126429166Y-124625862D01*
X126746648Y-124150717D01*
X127150717Y-123746648D01*
X127625862Y-123429166D01*
X128153810Y-123210483D01*
X128714275Y-123099000D01*
X129285725Y-123099000D01*
X129846190Y-123210483D01*
X129846190Y-123210483D01*
G37*
G36*
X48846190Y-123210483D02*
X49374138Y-123429166D01*
X49849283Y-123746648D01*
X50253352Y-124150717D01*
X50570834Y-124625862D01*
X50789517Y-125153810D01*
X50901000Y-125714275D01*
X50901000Y-126285725D01*
X50789517Y-126846190D01*
X50570834Y-127374138D01*
X50253352Y-127849283D01*
X49849283Y-128253352D01*
X49374138Y-128570834D01*
X48846190Y-128789517D01*
X48285725Y-128901000D01*
X47714275Y-128901000D01*
X47153810Y-128789517D01*
X46625862Y-128570834D01*
X46150717Y-128253352D01*
X45746648Y-127849283D01*
X45429166Y-127374138D01*
X45210483Y-126846190D01*
X45099000Y-126285725D01*
X45099000Y-125714275D01*
X45210483Y-125153810D01*
X45429166Y-124625862D01*
X45746648Y-124150717D01*
X46150717Y-123746648D01*
X46625862Y-123429166D01*
X47153810Y-123210483D01*
X47714275Y-123099000D01*
X48285725Y-123099000D01*
X48846190Y-123210483D01*
X48846190Y-123210483D01*
G37*
G36*
X71286821Y-119811313D02*
X71286824Y-119811314D01*
X71286825Y-119811314D01*
X71447239Y-119859975D01*
X71447241Y-119859976D01*
X71447244Y-119859977D01*
X71595078Y-119938995D01*
X71724659Y-120045341D01*
X71831005Y-120174922D01*
X71910023Y-120322756D01*
X71958687Y-120483179D01*
X71975117Y-120650000D01*
X71958687Y-120816821D01*
X71910023Y-120977244D01*
X71831005Y-121125078D01*
X71724659Y-121254659D01*
X71595078Y-121361005D01*
X71447244Y-121440023D01*
X71447241Y-121440024D01*
X71447239Y-121440025D01*
X71286825Y-121488686D01*
X71286824Y-121488686D01*
X71286821Y-121488687D01*
X71161804Y-121501000D01*
X71078196Y-121501000D01*
X70953179Y-121488687D01*
X70953176Y-121488686D01*
X70953175Y-121488686D01*
X70792761Y-121440025D01*
X70792759Y-121440024D01*
X70792756Y-121440023D01*
X70644922Y-121361005D01*
X70515341Y-121254659D01*
X70408995Y-121125078D01*
X70329977Y-120977244D01*
X70281313Y-120816821D01*
X70264883Y-120650000D01*
X70281313Y-120483179D01*
X70329977Y-120322756D01*
X70408995Y-120174922D01*
X70515341Y-120045341D01*
X70644922Y-119938995D01*
X70792756Y-119859977D01*
X70792759Y-119859976D01*
X70792761Y-119859975D01*
X70953175Y-119811314D01*
X70953176Y-119811314D01*
X70953179Y-119811313D01*
X71078196Y-119799000D01*
X71161804Y-119799000D01*
X71286821Y-119811313D01*
X71286821Y-119811313D01*
G37*
G36*
X68746821Y-119811313D02*
X68746824Y-119811314D01*
X68746825Y-119811314D01*
X68907239Y-119859975D01*
X68907241Y-119859976D01*
X68907244Y-119859977D01*
X69055078Y-119938995D01*
X69184659Y-120045341D01*
X69291005Y-120174922D01*
X69370023Y-120322756D01*
X69418687Y-120483179D01*
X69435117Y-120650000D01*
X69418687Y-120816821D01*
X69370023Y-120977244D01*
X69291005Y-121125078D01*
X69184659Y-121254659D01*
X69055078Y-121361005D01*
X68907244Y-121440023D01*
X68907241Y-121440024D01*
X68907239Y-121440025D01*
X68746825Y-121488686D01*
X68746824Y-121488686D01*
X68746821Y-121488687D01*
X68621804Y-121501000D01*
X68538196Y-121501000D01*
X68413179Y-121488687D01*
X68413176Y-121488686D01*
X68413175Y-121488686D01*
X68252761Y-121440025D01*
X68252759Y-121440024D01*
X68252756Y-121440023D01*
X68104922Y-121361005D01*
X67975341Y-121254659D01*
X67868995Y-121125078D01*
X67789977Y-120977244D01*
X67741313Y-120816821D01*
X67724883Y-120650000D01*
X67741313Y-120483179D01*
X67789977Y-120322756D01*
X67868995Y-120174922D01*
X67975341Y-120045341D01*
X68104922Y-119938995D01*
X68252756Y-119859977D01*
X68252759Y-119859976D01*
X68252761Y-119859975D01*
X68413175Y-119811314D01*
X68413176Y-119811314D01*
X68413179Y-119811313D01*
X68538196Y-119799000D01*
X68621804Y-119799000D01*
X68746821Y-119811313D01*
X68746821Y-119811313D01*
G37*
G36*
X73826821Y-119811313D02*
X73826824Y-119811314D01*
X73826825Y-119811314D01*
X73987239Y-119859975D01*
X73987241Y-119859976D01*
X73987244Y-119859977D01*
X74135078Y-119938995D01*
X74264659Y-120045341D01*
X74371005Y-120174922D01*
X74450023Y-120322756D01*
X74498687Y-120483179D01*
X74515117Y-120650000D01*
X74498687Y-120816821D01*
X74450023Y-120977244D01*
X74371005Y-121125078D01*
X74264659Y-121254659D01*
X74135078Y-121361005D01*
X73987244Y-121440023D01*
X73987241Y-121440024D01*
X73987239Y-121440025D01*
X73826825Y-121488686D01*
X73826824Y-121488686D01*
X73826821Y-121488687D01*
X73701804Y-121501000D01*
X73618196Y-121501000D01*
X73493179Y-121488687D01*
X73493176Y-121488686D01*
X73493175Y-121488686D01*
X73332761Y-121440025D01*
X73332759Y-121440024D01*
X73332756Y-121440023D01*
X73184922Y-121361005D01*
X73055341Y-121254659D01*
X72948995Y-121125078D01*
X72869977Y-120977244D01*
X72821313Y-120816821D01*
X72804883Y-120650000D01*
X72821313Y-120483179D01*
X72869977Y-120322756D01*
X72948995Y-120174922D01*
X73055341Y-120045341D01*
X73184922Y-119938995D01*
X73332756Y-119859977D01*
X73332759Y-119859976D01*
X73332761Y-119859975D01*
X73493175Y-119811314D01*
X73493176Y-119811314D01*
X73493179Y-119811313D01*
X73618196Y-119799000D01*
X73701804Y-119799000D01*
X73826821Y-119811313D01*
X73826821Y-119811313D01*
G37*
G36*
X66206821Y-119811313D02*
X66206824Y-119811314D01*
X66206825Y-119811314D01*
X66367239Y-119859975D01*
X66367241Y-119859976D01*
X66367244Y-119859977D01*
X66515078Y-119938995D01*
X66644659Y-120045341D01*
X66751005Y-120174922D01*
X66830023Y-120322756D01*
X66878687Y-120483179D01*
X66895117Y-120650000D01*
X66878687Y-120816821D01*
X66830023Y-120977244D01*
X66751005Y-121125078D01*
X66644659Y-121254659D01*
X66515078Y-121361005D01*
X66367244Y-121440023D01*
X66367241Y-121440024D01*
X66367239Y-121440025D01*
X66206825Y-121488686D01*
X66206824Y-121488686D01*
X66206821Y-121488687D01*
X66081804Y-121501000D01*
X65998196Y-121501000D01*
X65873179Y-121488687D01*
X65873176Y-121488686D01*
X65873175Y-121488686D01*
X65712761Y-121440025D01*
X65712759Y-121440024D01*
X65712756Y-121440023D01*
X65564922Y-121361005D01*
X65435341Y-121254659D01*
X65328995Y-121125078D01*
X65249977Y-120977244D01*
X65201313Y-120816821D01*
X65184883Y-120650000D01*
X65201313Y-120483179D01*
X65249977Y-120322756D01*
X65328995Y-120174922D01*
X65435341Y-120045341D01*
X65564922Y-119938995D01*
X65712756Y-119859977D01*
X65712759Y-119859976D01*
X65712761Y-119859975D01*
X65873175Y-119811314D01*
X65873176Y-119811314D01*
X65873179Y-119811313D01*
X65998196Y-119799000D01*
X66081804Y-119799000D01*
X66206821Y-119811313D01*
X66206821Y-119811313D01*
G37*
G36*
X76366821Y-119811313D02*
X76366824Y-119811314D01*
X76366825Y-119811314D01*
X76527239Y-119859975D01*
X76527241Y-119859976D01*
X76527244Y-119859977D01*
X76675078Y-119938995D01*
X76804659Y-120045341D01*
X76911005Y-120174922D01*
X76990023Y-120322756D01*
X77038687Y-120483179D01*
X77055117Y-120650000D01*
X77038687Y-120816821D01*
X76990023Y-120977244D01*
X76911005Y-121125078D01*
X76804659Y-121254659D01*
X76675078Y-121361005D01*
X76527244Y-121440023D01*
X76527241Y-121440024D01*
X76527239Y-121440025D01*
X76366825Y-121488686D01*
X76366824Y-121488686D01*
X76366821Y-121488687D01*
X76241804Y-121501000D01*
X76158196Y-121501000D01*
X76033179Y-121488687D01*
X76033176Y-121488686D01*
X76033175Y-121488686D01*
X75872761Y-121440025D01*
X75872759Y-121440024D01*
X75872756Y-121440023D01*
X75724922Y-121361005D01*
X75595341Y-121254659D01*
X75488995Y-121125078D01*
X75409977Y-120977244D01*
X75361313Y-120816821D01*
X75344883Y-120650000D01*
X75361313Y-120483179D01*
X75409977Y-120322756D01*
X75488995Y-120174922D01*
X75595341Y-120045341D01*
X75724922Y-119938995D01*
X75872756Y-119859977D01*
X75872759Y-119859976D01*
X75872761Y-119859975D01*
X76033175Y-119811314D01*
X76033176Y-119811314D01*
X76033179Y-119811313D01*
X76158196Y-119799000D01*
X76241804Y-119799000D01*
X76366821Y-119811313D01*
X76366821Y-119811313D01*
G37*
G36*
X63666821Y-119811313D02*
X63666824Y-119811314D01*
X63666825Y-119811314D01*
X63827239Y-119859975D01*
X63827241Y-119859976D01*
X63827244Y-119859977D01*
X63975078Y-119938995D01*
X64104659Y-120045341D01*
X64211005Y-120174922D01*
X64290023Y-120322756D01*
X64338687Y-120483179D01*
X64355117Y-120650000D01*
X64338687Y-120816821D01*
X64290023Y-120977244D01*
X64211005Y-121125078D01*
X64104659Y-121254659D01*
X63975078Y-121361005D01*
X63827244Y-121440023D01*
X63827241Y-121440024D01*
X63827239Y-121440025D01*
X63666825Y-121488686D01*
X63666824Y-121488686D01*
X63666821Y-121488687D01*
X63541804Y-121501000D01*
X63458196Y-121501000D01*
X63333179Y-121488687D01*
X63333176Y-121488686D01*
X63333175Y-121488686D01*
X63172761Y-121440025D01*
X63172759Y-121440024D01*
X63172756Y-121440023D01*
X63024922Y-121361005D01*
X62895341Y-121254659D01*
X62788995Y-121125078D01*
X62709977Y-120977244D01*
X62661313Y-120816821D01*
X62644883Y-120650000D01*
X62661313Y-120483179D01*
X62709977Y-120322756D01*
X62788995Y-120174922D01*
X62895341Y-120045341D01*
X63024922Y-119938995D01*
X63172756Y-119859977D01*
X63172759Y-119859976D01*
X63172761Y-119859975D01*
X63333175Y-119811314D01*
X63333176Y-119811314D01*
X63333179Y-119811313D01*
X63458196Y-119799000D01*
X63541804Y-119799000D01*
X63666821Y-119811313D01*
X63666821Y-119811313D01*
G37*
G36*
X101766821Y-119811313D02*
X101766824Y-119811314D01*
X101766825Y-119811314D01*
X101927239Y-119859975D01*
X101927241Y-119859976D01*
X101927244Y-119859977D01*
X102075078Y-119938995D01*
X102204659Y-120045341D01*
X102311005Y-120174922D01*
X102390023Y-120322756D01*
X102438687Y-120483179D01*
X102455117Y-120650000D01*
X102438687Y-120816821D01*
X102390023Y-120977244D01*
X102311005Y-121125078D01*
X102204659Y-121254659D01*
X102075078Y-121361005D01*
X101927244Y-121440023D01*
X101927241Y-121440024D01*
X101927239Y-121440025D01*
X101766825Y-121488686D01*
X101766824Y-121488686D01*
X101766821Y-121488687D01*
X101641804Y-121501000D01*
X101558196Y-121501000D01*
X101433179Y-121488687D01*
X101433176Y-121488686D01*
X101433175Y-121488686D01*
X101272761Y-121440025D01*
X101272759Y-121440024D01*
X101272756Y-121440023D01*
X101124922Y-121361005D01*
X100995341Y-121254659D01*
X100888995Y-121125078D01*
X100809977Y-120977244D01*
X100761313Y-120816821D01*
X100744883Y-120650000D01*
X100761313Y-120483179D01*
X100809977Y-120322756D01*
X100888995Y-120174922D01*
X100995341Y-120045341D01*
X101124922Y-119938995D01*
X101272756Y-119859977D01*
X101272759Y-119859976D01*
X101272761Y-119859975D01*
X101433175Y-119811314D01*
X101433176Y-119811314D01*
X101433179Y-119811313D01*
X101558196Y-119799000D01*
X101641804Y-119799000D01*
X101766821Y-119811313D01*
X101766821Y-119811313D01*
G37*
G36*
X58586821Y-119811313D02*
X58586824Y-119811314D01*
X58586825Y-119811314D01*
X58747239Y-119859975D01*
X58747241Y-119859976D01*
X58747244Y-119859977D01*
X58895078Y-119938995D01*
X59024659Y-120045341D01*
X59131005Y-120174922D01*
X59210023Y-120322756D01*
X59258687Y-120483179D01*
X59275117Y-120650000D01*
X59258687Y-120816821D01*
X59210023Y-120977244D01*
X59131005Y-121125078D01*
X59024659Y-121254659D01*
X58895078Y-121361005D01*
X58747244Y-121440023D01*
X58747241Y-121440024D01*
X58747239Y-121440025D01*
X58586825Y-121488686D01*
X58586824Y-121488686D01*
X58586821Y-121488687D01*
X58461804Y-121501000D01*
X58378196Y-121501000D01*
X58253179Y-121488687D01*
X58253176Y-121488686D01*
X58253175Y-121488686D01*
X58092761Y-121440025D01*
X58092759Y-121440024D01*
X58092756Y-121440023D01*
X57944922Y-121361005D01*
X57815341Y-121254659D01*
X57708995Y-121125078D01*
X57629977Y-120977244D01*
X57581313Y-120816821D01*
X57564883Y-120650000D01*
X57581313Y-120483179D01*
X57629977Y-120322756D01*
X57708995Y-120174922D01*
X57815341Y-120045341D01*
X57944922Y-119938995D01*
X58092756Y-119859977D01*
X58092759Y-119859976D01*
X58092761Y-119859975D01*
X58253175Y-119811314D01*
X58253176Y-119811314D01*
X58253179Y-119811313D01*
X58378196Y-119799000D01*
X58461804Y-119799000D01*
X58586821Y-119811313D01*
X58586821Y-119811313D01*
G37*
G36*
X111926821Y-119811313D02*
X111926824Y-119811314D01*
X111926825Y-119811314D01*
X112087239Y-119859975D01*
X112087241Y-119859976D01*
X112087244Y-119859977D01*
X112235078Y-119938995D01*
X112364659Y-120045341D01*
X112471005Y-120174922D01*
X112550023Y-120322756D01*
X112598687Y-120483179D01*
X112615117Y-120650000D01*
X112598687Y-120816821D01*
X112550023Y-120977244D01*
X112471005Y-121125078D01*
X112364659Y-121254659D01*
X112235078Y-121361005D01*
X112087244Y-121440023D01*
X112087241Y-121440024D01*
X112087239Y-121440025D01*
X111926825Y-121488686D01*
X111926824Y-121488686D01*
X111926821Y-121488687D01*
X111801804Y-121501000D01*
X111718196Y-121501000D01*
X111593179Y-121488687D01*
X111593176Y-121488686D01*
X111593175Y-121488686D01*
X111432761Y-121440025D01*
X111432759Y-121440024D01*
X111432756Y-121440023D01*
X111284922Y-121361005D01*
X111155341Y-121254659D01*
X111048995Y-121125078D01*
X110969977Y-120977244D01*
X110921313Y-120816821D01*
X110904883Y-120650000D01*
X110921313Y-120483179D01*
X110969977Y-120322756D01*
X111048995Y-120174922D01*
X111155341Y-120045341D01*
X111284922Y-119938995D01*
X111432756Y-119859977D01*
X111432759Y-119859976D01*
X111432761Y-119859975D01*
X111593175Y-119811314D01*
X111593176Y-119811314D01*
X111593179Y-119811313D01*
X111718196Y-119799000D01*
X111801804Y-119799000D01*
X111926821Y-119811313D01*
X111926821Y-119811313D01*
G37*
G36*
X114466821Y-119811313D02*
X114466824Y-119811314D01*
X114466825Y-119811314D01*
X114627239Y-119859975D01*
X114627241Y-119859976D01*
X114627244Y-119859977D01*
X114775078Y-119938995D01*
X114904659Y-120045341D01*
X115011005Y-120174922D01*
X115090023Y-120322756D01*
X115138687Y-120483179D01*
X115155117Y-120650000D01*
X115138687Y-120816821D01*
X115090023Y-120977244D01*
X115011005Y-121125078D01*
X114904659Y-121254659D01*
X114775078Y-121361005D01*
X114627244Y-121440023D01*
X114627241Y-121440024D01*
X114627239Y-121440025D01*
X114466825Y-121488686D01*
X114466824Y-121488686D01*
X114466821Y-121488687D01*
X114341804Y-121501000D01*
X114258196Y-121501000D01*
X114133179Y-121488687D01*
X114133176Y-121488686D01*
X114133175Y-121488686D01*
X113972761Y-121440025D01*
X113972759Y-121440024D01*
X113972756Y-121440023D01*
X113824922Y-121361005D01*
X113695341Y-121254659D01*
X113588995Y-121125078D01*
X113509977Y-120977244D01*
X113461313Y-120816821D01*
X113444883Y-120650000D01*
X113461313Y-120483179D01*
X113509977Y-120322756D01*
X113588995Y-120174922D01*
X113695341Y-120045341D01*
X113824922Y-119938995D01*
X113972756Y-119859977D01*
X113972759Y-119859976D01*
X113972761Y-119859975D01*
X114133175Y-119811314D01*
X114133176Y-119811314D01*
X114133179Y-119811313D01*
X114258196Y-119799000D01*
X114341804Y-119799000D01*
X114466821Y-119811313D01*
X114466821Y-119811313D01*
G37*
G36*
X119546821Y-119811313D02*
X119546824Y-119811314D01*
X119546825Y-119811314D01*
X119707239Y-119859975D01*
X119707241Y-119859976D01*
X119707244Y-119859977D01*
X119855078Y-119938995D01*
X119984659Y-120045341D01*
X120091005Y-120174922D01*
X120170023Y-120322756D01*
X120218687Y-120483179D01*
X120235117Y-120650000D01*
X120218687Y-120816821D01*
X120170023Y-120977244D01*
X120091005Y-121125078D01*
X119984659Y-121254659D01*
X119855078Y-121361005D01*
X119707244Y-121440023D01*
X119707241Y-121440024D01*
X119707239Y-121440025D01*
X119546825Y-121488686D01*
X119546824Y-121488686D01*
X119546821Y-121488687D01*
X119421804Y-121501000D01*
X119338196Y-121501000D01*
X119213179Y-121488687D01*
X119213176Y-121488686D01*
X119213175Y-121488686D01*
X119052761Y-121440025D01*
X119052759Y-121440024D01*
X119052756Y-121440023D01*
X118904922Y-121361005D01*
X118775341Y-121254659D01*
X118668995Y-121125078D01*
X118589977Y-120977244D01*
X118541313Y-120816821D01*
X118524883Y-120650000D01*
X118541313Y-120483179D01*
X118589977Y-120322756D01*
X118668995Y-120174922D01*
X118775341Y-120045341D01*
X118904922Y-119938995D01*
X119052756Y-119859977D01*
X119052759Y-119859976D01*
X119052761Y-119859975D01*
X119213175Y-119811314D01*
X119213176Y-119811314D01*
X119213179Y-119811313D01*
X119338196Y-119799000D01*
X119421804Y-119799000D01*
X119546821Y-119811313D01*
X119546821Y-119811313D01*
G37*
G36*
X106846821Y-119811313D02*
X106846824Y-119811314D01*
X106846825Y-119811314D01*
X107007239Y-119859975D01*
X107007241Y-119859976D01*
X107007244Y-119859977D01*
X107155078Y-119938995D01*
X107284659Y-120045341D01*
X107391005Y-120174922D01*
X107470023Y-120322756D01*
X107518687Y-120483179D01*
X107535117Y-120650000D01*
X107518687Y-120816821D01*
X107470023Y-120977244D01*
X107391005Y-121125078D01*
X107284659Y-121254659D01*
X107155078Y-121361005D01*
X107007244Y-121440023D01*
X107007241Y-121440024D01*
X107007239Y-121440025D01*
X106846825Y-121488686D01*
X106846824Y-121488686D01*
X106846821Y-121488687D01*
X106721804Y-121501000D01*
X106638196Y-121501000D01*
X106513179Y-121488687D01*
X106513176Y-121488686D01*
X106513175Y-121488686D01*
X106352761Y-121440025D01*
X106352759Y-121440024D01*
X106352756Y-121440023D01*
X106204922Y-121361005D01*
X106075341Y-121254659D01*
X105968995Y-121125078D01*
X105889977Y-120977244D01*
X105841313Y-120816821D01*
X105824883Y-120650000D01*
X105841313Y-120483179D01*
X105889977Y-120322756D01*
X105968995Y-120174922D01*
X106075341Y-120045341D01*
X106204922Y-119938995D01*
X106352756Y-119859977D01*
X106352759Y-119859976D01*
X106352761Y-119859975D01*
X106513175Y-119811314D01*
X106513176Y-119811314D01*
X106513179Y-119811313D01*
X106638196Y-119799000D01*
X106721804Y-119799000D01*
X106846821Y-119811313D01*
X106846821Y-119811313D01*
G37*
G36*
X104306821Y-119811313D02*
X104306824Y-119811314D01*
X104306825Y-119811314D01*
X104467239Y-119859975D01*
X104467241Y-119859976D01*
X104467244Y-119859977D01*
X104615078Y-119938995D01*
X104744659Y-120045341D01*
X104851005Y-120174922D01*
X104930023Y-120322756D01*
X104978687Y-120483179D01*
X104995117Y-120650000D01*
X104978687Y-120816821D01*
X104930023Y-120977244D01*
X104851005Y-121125078D01*
X104744659Y-121254659D01*
X104615078Y-121361005D01*
X104467244Y-121440023D01*
X104467241Y-121440024D01*
X104467239Y-121440025D01*
X104306825Y-121488686D01*
X104306824Y-121488686D01*
X104306821Y-121488687D01*
X104181804Y-121501000D01*
X104098196Y-121501000D01*
X103973179Y-121488687D01*
X103973176Y-121488686D01*
X103973175Y-121488686D01*
X103812761Y-121440025D01*
X103812759Y-121440024D01*
X103812756Y-121440023D01*
X103664922Y-121361005D01*
X103535341Y-121254659D01*
X103428995Y-121125078D01*
X103349977Y-120977244D01*
X103301313Y-120816821D01*
X103284883Y-120650000D01*
X103301313Y-120483179D01*
X103349977Y-120322756D01*
X103428995Y-120174922D01*
X103535341Y-120045341D01*
X103664922Y-119938995D01*
X103812756Y-119859977D01*
X103812759Y-119859976D01*
X103812761Y-119859975D01*
X103973175Y-119811314D01*
X103973176Y-119811314D01*
X103973179Y-119811313D01*
X104098196Y-119799000D01*
X104181804Y-119799000D01*
X104306821Y-119811313D01*
X104306821Y-119811313D01*
G37*
G36*
X117006821Y-119811313D02*
X117006824Y-119811314D01*
X117006825Y-119811314D01*
X117167239Y-119859975D01*
X117167241Y-119859976D01*
X117167244Y-119859977D01*
X117315078Y-119938995D01*
X117444659Y-120045341D01*
X117551005Y-120174922D01*
X117630023Y-120322756D01*
X117678687Y-120483179D01*
X117695117Y-120650000D01*
X117678687Y-120816821D01*
X117630023Y-120977244D01*
X117551005Y-121125078D01*
X117444659Y-121254659D01*
X117315078Y-121361005D01*
X117167244Y-121440023D01*
X117167241Y-121440024D01*
X117167239Y-121440025D01*
X117006825Y-121488686D01*
X117006824Y-121488686D01*
X117006821Y-121488687D01*
X116881804Y-121501000D01*
X116798196Y-121501000D01*
X116673179Y-121488687D01*
X116673176Y-121488686D01*
X116673175Y-121488686D01*
X116512761Y-121440025D01*
X116512759Y-121440024D01*
X116512756Y-121440023D01*
X116364922Y-121361005D01*
X116235341Y-121254659D01*
X116128995Y-121125078D01*
X116049977Y-120977244D01*
X116001313Y-120816821D01*
X115984883Y-120650000D01*
X116001313Y-120483179D01*
X116049977Y-120322756D01*
X116128995Y-120174922D01*
X116235341Y-120045341D01*
X116364922Y-119938995D01*
X116512756Y-119859977D01*
X116512759Y-119859976D01*
X116512761Y-119859975D01*
X116673175Y-119811314D01*
X116673176Y-119811314D01*
X116673179Y-119811313D01*
X116798196Y-119799000D01*
X116881804Y-119799000D01*
X117006821Y-119811313D01*
X117006821Y-119811313D01*
G37*
G36*
X61126821Y-119811313D02*
X61126824Y-119811314D01*
X61126825Y-119811314D01*
X61287239Y-119859975D01*
X61287241Y-119859976D01*
X61287244Y-119859977D01*
X61435078Y-119938995D01*
X61564659Y-120045341D01*
X61671005Y-120174922D01*
X61750023Y-120322756D01*
X61798687Y-120483179D01*
X61815117Y-120650000D01*
X61798687Y-120816821D01*
X61750023Y-120977244D01*
X61671005Y-121125078D01*
X61564659Y-121254659D01*
X61435078Y-121361005D01*
X61287244Y-121440023D01*
X61287241Y-121440024D01*
X61287239Y-121440025D01*
X61126825Y-121488686D01*
X61126824Y-121488686D01*
X61126821Y-121488687D01*
X61001804Y-121501000D01*
X60918196Y-121501000D01*
X60793179Y-121488687D01*
X60793176Y-121488686D01*
X60793175Y-121488686D01*
X60632761Y-121440025D01*
X60632759Y-121440024D01*
X60632756Y-121440023D01*
X60484922Y-121361005D01*
X60355341Y-121254659D01*
X60248995Y-121125078D01*
X60169977Y-120977244D01*
X60121313Y-120816821D01*
X60104883Y-120650000D01*
X60121313Y-120483179D01*
X60169977Y-120322756D01*
X60248995Y-120174922D01*
X60355341Y-120045341D01*
X60484922Y-119938995D01*
X60632756Y-119859977D01*
X60632759Y-119859976D01*
X60632761Y-119859975D01*
X60793175Y-119811314D01*
X60793176Y-119811314D01*
X60793179Y-119811313D01*
X60918196Y-119799000D01*
X61001804Y-119799000D01*
X61126821Y-119811313D01*
X61126821Y-119811313D01*
G37*
G36*
X109386821Y-119811313D02*
X109386824Y-119811314D01*
X109386825Y-119811314D01*
X109547239Y-119859975D01*
X109547241Y-119859976D01*
X109547244Y-119859977D01*
X109695078Y-119938995D01*
X109824659Y-120045341D01*
X109931005Y-120174922D01*
X110010023Y-120322756D01*
X110058687Y-120483179D01*
X110075117Y-120650000D01*
X110058687Y-120816821D01*
X110010023Y-120977244D01*
X109931005Y-121125078D01*
X109824659Y-121254659D01*
X109695078Y-121361005D01*
X109547244Y-121440023D01*
X109547241Y-121440024D01*
X109547239Y-121440025D01*
X109386825Y-121488686D01*
X109386824Y-121488686D01*
X109386821Y-121488687D01*
X109261804Y-121501000D01*
X109178196Y-121501000D01*
X109053179Y-121488687D01*
X109053176Y-121488686D01*
X109053175Y-121488686D01*
X108892761Y-121440025D01*
X108892759Y-121440024D01*
X108892756Y-121440023D01*
X108744922Y-121361005D01*
X108615341Y-121254659D01*
X108508995Y-121125078D01*
X108429977Y-120977244D01*
X108381313Y-120816821D01*
X108364883Y-120650000D01*
X108381313Y-120483179D01*
X108429977Y-120322756D01*
X108508995Y-120174922D01*
X108615341Y-120045341D01*
X108744922Y-119938995D01*
X108892756Y-119859977D01*
X108892759Y-119859976D01*
X108892761Y-119859975D01*
X109053175Y-119811314D01*
X109053176Y-119811314D01*
X109053179Y-119811313D01*
X109178196Y-119799000D01*
X109261804Y-119799000D01*
X109386821Y-119811313D01*
X109386821Y-119811313D01*
G37*
G36*
X50013567Y-115674959D02*
X50144072Y-115700918D01*
X50389939Y-115802759D01*
X50610464Y-115950110D01*
X50611215Y-115950612D01*
X50799388Y-116138785D01*
X50799390Y-116138788D01*
X50947241Y-116360061D01*
X51049082Y-116605928D01*
X51101000Y-116866938D01*
X51101000Y-117133062D01*
X51049082Y-117394072D01*
X50947241Y-117639939D01*
X50799890Y-117860464D01*
X50799388Y-117861215D01*
X50611215Y-118049388D01*
X50611212Y-118049390D01*
X50389939Y-118197241D01*
X50144072Y-118299082D01*
X50013567Y-118325041D01*
X49883063Y-118351000D01*
X49616937Y-118351000D01*
X49486433Y-118325041D01*
X49355928Y-118299082D01*
X49110061Y-118197241D01*
X48888788Y-118049390D01*
X48888785Y-118049388D01*
X48700612Y-117861215D01*
X48700110Y-117860464D01*
X48552759Y-117639939D01*
X48450918Y-117394072D01*
X48399000Y-117133062D01*
X48399000Y-116866938D01*
X48450918Y-116605928D01*
X48552759Y-116360061D01*
X48700610Y-116138788D01*
X48700612Y-116138785D01*
X48888785Y-115950612D01*
X48889536Y-115950110D01*
X49110061Y-115802759D01*
X49355928Y-115700918D01*
X49486433Y-115674959D01*
X49616937Y-115649000D01*
X49883063Y-115649000D01*
X50013567Y-115674959D01*
X50013567Y-115674959D01*
G37*
G36*
X50013567Y-110674959D02*
X50144072Y-110700918D01*
X50389939Y-110802759D01*
X50610464Y-110950110D01*
X50611215Y-110950612D01*
X50799388Y-111138785D01*
X50799390Y-111138788D01*
X50947241Y-111360061D01*
X51049082Y-111605928D01*
X51101000Y-111866938D01*
X51101000Y-112133062D01*
X51049082Y-112394072D01*
X50947241Y-112639939D01*
X50799890Y-112860464D01*
X50799388Y-112861215D01*
X50611215Y-113049388D01*
X50611212Y-113049390D01*
X50389939Y-113197241D01*
X50144072Y-113299082D01*
X50013567Y-113325041D01*
X49883063Y-113351000D01*
X49616937Y-113351000D01*
X49486433Y-113325041D01*
X49355928Y-113299082D01*
X49110061Y-113197241D01*
X48888788Y-113049390D01*
X48888785Y-113049388D01*
X48700612Y-112861215D01*
X48700110Y-112860464D01*
X48552759Y-112639939D01*
X48450918Y-112394072D01*
X48399000Y-112133062D01*
X48399000Y-111866938D01*
X48450918Y-111605928D01*
X48552759Y-111360061D01*
X48700610Y-111138788D01*
X48700612Y-111138785D01*
X48888785Y-110950612D01*
X48889536Y-110950110D01*
X49110061Y-110802759D01*
X49355928Y-110700918D01*
X49486433Y-110674959D01*
X49616937Y-110649000D01*
X49883063Y-110649000D01*
X50013567Y-110674959D01*
X50013567Y-110674959D01*
G37*
G36*
X50013567Y-105674959D02*
X50144072Y-105700918D01*
X50389939Y-105802759D01*
X50610464Y-105950110D01*
X50611215Y-105950612D01*
X50799388Y-106138785D01*
X50799390Y-106138788D01*
X50947241Y-106360061D01*
X51010664Y-106513179D01*
X51049082Y-106605929D01*
X51096999Y-106846821D01*
X51101000Y-106866938D01*
X51101000Y-107133062D01*
X51049082Y-107394072D01*
X50947241Y-107639939D01*
X50799890Y-107860464D01*
X50799388Y-107861215D01*
X50611215Y-108049388D01*
X50611212Y-108049390D01*
X50389939Y-108197241D01*
X50144072Y-108299082D01*
X50013567Y-108325041D01*
X49883063Y-108351000D01*
X49616937Y-108351000D01*
X49486433Y-108325041D01*
X49355928Y-108299082D01*
X49110061Y-108197241D01*
X48888788Y-108049390D01*
X48888785Y-108049388D01*
X48700612Y-107861215D01*
X48700110Y-107860464D01*
X48552759Y-107639939D01*
X48450918Y-107394072D01*
X48399000Y-107133062D01*
X48399000Y-106866938D01*
X48403002Y-106846821D01*
X48450918Y-106605929D01*
X48489336Y-106513179D01*
X48552759Y-106360061D01*
X48700610Y-106138788D01*
X48700612Y-106138785D01*
X48888785Y-105950612D01*
X48889536Y-105950110D01*
X49110061Y-105802759D01*
X49355928Y-105700918D01*
X49486433Y-105674959D01*
X49616937Y-105649000D01*
X49883063Y-105649000D01*
X50013567Y-105674959D01*
X50013567Y-105674959D01*
G37*
G36*
X71286821Y-105841313D02*
X71286824Y-105841314D01*
X71286825Y-105841314D01*
X71447239Y-105889975D01*
X71447241Y-105889976D01*
X71447244Y-105889977D01*
X71595078Y-105968995D01*
X71724659Y-106075341D01*
X71831005Y-106204922D01*
X71910023Y-106352756D01*
X71958687Y-106513179D01*
X71975117Y-106680000D01*
X71958687Y-106846821D01*
X71910023Y-107007244D01*
X71831005Y-107155078D01*
X71724659Y-107284659D01*
X71595078Y-107391005D01*
X71447244Y-107470023D01*
X71447241Y-107470024D01*
X71447239Y-107470025D01*
X71286825Y-107518686D01*
X71286824Y-107518686D01*
X71286821Y-107518687D01*
X71161804Y-107531000D01*
X71078196Y-107531000D01*
X70953179Y-107518687D01*
X70953176Y-107518686D01*
X70953175Y-107518686D01*
X70792761Y-107470025D01*
X70792759Y-107470024D01*
X70792756Y-107470023D01*
X70644922Y-107391005D01*
X70515341Y-107284659D01*
X70408995Y-107155078D01*
X70329977Y-107007244D01*
X70281313Y-106846821D01*
X70264883Y-106680000D01*
X70281313Y-106513179D01*
X70329977Y-106352756D01*
X70408995Y-106204922D01*
X70515341Y-106075341D01*
X70644922Y-105968995D01*
X70792756Y-105889977D01*
X70792759Y-105889976D01*
X70792761Y-105889975D01*
X70953175Y-105841314D01*
X70953176Y-105841314D01*
X70953179Y-105841313D01*
X71078196Y-105829000D01*
X71161804Y-105829000D01*
X71286821Y-105841313D01*
X71286821Y-105841313D01*
G37*
G36*
X63666821Y-105841313D02*
X63666824Y-105841314D01*
X63666825Y-105841314D01*
X63827239Y-105889975D01*
X63827241Y-105889976D01*
X63827244Y-105889977D01*
X63975078Y-105968995D01*
X64104659Y-106075341D01*
X64211005Y-106204922D01*
X64290023Y-106352756D01*
X64338687Y-106513179D01*
X64355117Y-106680000D01*
X64338687Y-106846821D01*
X64290023Y-107007244D01*
X64211005Y-107155078D01*
X64104659Y-107284659D01*
X63975078Y-107391005D01*
X63827244Y-107470023D01*
X63827241Y-107470024D01*
X63827239Y-107470025D01*
X63666825Y-107518686D01*
X63666824Y-107518686D01*
X63666821Y-107518687D01*
X63541804Y-107531000D01*
X63458196Y-107531000D01*
X63333179Y-107518687D01*
X63333176Y-107518686D01*
X63333175Y-107518686D01*
X63172761Y-107470025D01*
X63172759Y-107470024D01*
X63172756Y-107470023D01*
X63024922Y-107391005D01*
X62895341Y-107284659D01*
X62788995Y-107155078D01*
X62709977Y-107007244D01*
X62661313Y-106846821D01*
X62644883Y-106680000D01*
X62661313Y-106513179D01*
X62709977Y-106352756D01*
X62788995Y-106204922D01*
X62895341Y-106075341D01*
X63024922Y-105968995D01*
X63172756Y-105889977D01*
X63172759Y-105889976D01*
X63172761Y-105889975D01*
X63333175Y-105841314D01*
X63333176Y-105841314D01*
X63333179Y-105841313D01*
X63458196Y-105829000D01*
X63541804Y-105829000D01*
X63666821Y-105841313D01*
X63666821Y-105841313D01*
G37*
G36*
X71286821Y-103301313D02*
X71286824Y-103301314D01*
X71286825Y-103301314D01*
X71447239Y-103349975D01*
X71447241Y-103349976D01*
X71447244Y-103349977D01*
X71595078Y-103428995D01*
X71724659Y-103535341D01*
X71831005Y-103664922D01*
X71910023Y-103812756D01*
X71958687Y-103973179D01*
X71975117Y-104140000D01*
X71958687Y-104306821D01*
X71910023Y-104467244D01*
X71831005Y-104615078D01*
X71724659Y-104744659D01*
X71595078Y-104851005D01*
X71447244Y-104930023D01*
X71447241Y-104930024D01*
X71447239Y-104930025D01*
X71286825Y-104978686D01*
X71286824Y-104978686D01*
X71286821Y-104978687D01*
X71161804Y-104991000D01*
X71078196Y-104991000D01*
X70953179Y-104978687D01*
X70953176Y-104978686D01*
X70953175Y-104978686D01*
X70792761Y-104930025D01*
X70792759Y-104930024D01*
X70792756Y-104930023D01*
X70644922Y-104851005D01*
X70515341Y-104744659D01*
X70408995Y-104615078D01*
X70329977Y-104467244D01*
X70281313Y-104306821D01*
X70264883Y-104140000D01*
X70281313Y-103973179D01*
X70329977Y-103812756D01*
X70408995Y-103664922D01*
X70515341Y-103535341D01*
X70644922Y-103428995D01*
X70792756Y-103349977D01*
X70792759Y-103349976D01*
X70792761Y-103349975D01*
X70953175Y-103301314D01*
X70953176Y-103301314D01*
X70953179Y-103301313D01*
X71078196Y-103289000D01*
X71161804Y-103289000D01*
X71286821Y-103301313D01*
X71286821Y-103301313D01*
G37*
G36*
X63666821Y-103301313D02*
X63666824Y-103301314D01*
X63666825Y-103301314D01*
X63827239Y-103349975D01*
X63827241Y-103349976D01*
X63827244Y-103349977D01*
X63975078Y-103428995D01*
X64104659Y-103535341D01*
X64211005Y-103664922D01*
X64290023Y-103812756D01*
X64338687Y-103973179D01*
X64355117Y-104140000D01*
X64338687Y-104306821D01*
X64290023Y-104467244D01*
X64211005Y-104615078D01*
X64104659Y-104744659D01*
X63975078Y-104851005D01*
X63827244Y-104930023D01*
X63827241Y-104930024D01*
X63827239Y-104930025D01*
X63666825Y-104978686D01*
X63666824Y-104978686D01*
X63666821Y-104978687D01*
X63541804Y-104991000D01*
X63458196Y-104991000D01*
X63333179Y-104978687D01*
X63333176Y-104978686D01*
X63333175Y-104978686D01*
X63172761Y-104930025D01*
X63172759Y-104930024D01*
X63172756Y-104930023D01*
X63024922Y-104851005D01*
X62895341Y-104744659D01*
X62788995Y-104615078D01*
X62709977Y-104467244D01*
X62661313Y-104306821D01*
X62644883Y-104140000D01*
X62661313Y-103973179D01*
X62709977Y-103812756D01*
X62788995Y-103664922D01*
X62895341Y-103535341D01*
X63024922Y-103428995D01*
X63172756Y-103349977D01*
X63172759Y-103349976D01*
X63172761Y-103349975D01*
X63333175Y-103301314D01*
X63333176Y-103301314D01*
X63333179Y-103301313D01*
X63458196Y-103289000D01*
X63541804Y-103289000D01*
X63666821Y-103301313D01*
X63666821Y-103301313D01*
G37*
G36*
X51101000Y-103351000D02*
X48399000Y-103351000D01*
X48399000Y-100649000D01*
X51101000Y-100649000D01*
X51101000Y-103351000D01*
X51101000Y-103351000D01*
G37*
G36*
X71286821Y-100761313D02*
X71286824Y-100761314D01*
X71286825Y-100761314D01*
X71447239Y-100809975D01*
X71447241Y-100809976D01*
X71447244Y-100809977D01*
X71595078Y-100888995D01*
X71724659Y-100995341D01*
X71831005Y-101124922D01*
X71910023Y-101272756D01*
X71958687Y-101433179D01*
X71975117Y-101600000D01*
X71958687Y-101766821D01*
X71910023Y-101927244D01*
X71831005Y-102075078D01*
X71724659Y-102204659D01*
X71595078Y-102311005D01*
X71447244Y-102390023D01*
X71447241Y-102390024D01*
X71447239Y-102390025D01*
X71286825Y-102438686D01*
X71286824Y-102438686D01*
X71286821Y-102438687D01*
X71161804Y-102451000D01*
X71078196Y-102451000D01*
X70953179Y-102438687D01*
X70953176Y-102438686D01*
X70953175Y-102438686D01*
X70792761Y-102390025D01*
X70792759Y-102390024D01*
X70792756Y-102390023D01*
X70644922Y-102311005D01*
X70515341Y-102204659D01*
X70408995Y-102075078D01*
X70329977Y-101927244D01*
X70281313Y-101766821D01*
X70264883Y-101600000D01*
X70281313Y-101433179D01*
X70329977Y-101272756D01*
X70408995Y-101124922D01*
X70515341Y-100995341D01*
X70644922Y-100888995D01*
X70792756Y-100809977D01*
X70792759Y-100809976D01*
X70792761Y-100809975D01*
X70953175Y-100761314D01*
X70953176Y-100761314D01*
X70953179Y-100761313D01*
X71078196Y-100749000D01*
X71161804Y-100749000D01*
X71286821Y-100761313D01*
X71286821Y-100761313D01*
G37*
G36*
X63666821Y-100761313D02*
X63666824Y-100761314D01*
X63666825Y-100761314D01*
X63827239Y-100809975D01*
X63827241Y-100809976D01*
X63827244Y-100809977D01*
X63975078Y-100888995D01*
X64104659Y-100995341D01*
X64211005Y-101124922D01*
X64290023Y-101272756D01*
X64338687Y-101433179D01*
X64355117Y-101600000D01*
X64338687Y-101766821D01*
X64290023Y-101927244D01*
X64211005Y-102075078D01*
X64104659Y-102204659D01*
X63975078Y-102311005D01*
X63827244Y-102390023D01*
X63827241Y-102390024D01*
X63827239Y-102390025D01*
X63666825Y-102438686D01*
X63666824Y-102438686D01*
X63666821Y-102438687D01*
X63541804Y-102451000D01*
X63458196Y-102451000D01*
X63333179Y-102438687D01*
X63333176Y-102438686D01*
X63333175Y-102438686D01*
X63172761Y-102390025D01*
X63172759Y-102390024D01*
X63172756Y-102390023D01*
X63024922Y-102311005D01*
X62895341Y-102204659D01*
X62788995Y-102075078D01*
X62709977Y-101927244D01*
X62661313Y-101766821D01*
X62644883Y-101600000D01*
X62661313Y-101433179D01*
X62709977Y-101272756D01*
X62788995Y-101124922D01*
X62895341Y-100995341D01*
X63024922Y-100888995D01*
X63172756Y-100809977D01*
X63172759Y-100809976D01*
X63172761Y-100809975D01*
X63333175Y-100761314D01*
X63333176Y-100761314D01*
X63333179Y-100761313D01*
X63458196Y-100749000D01*
X63541804Y-100749000D01*
X63666821Y-100761313D01*
X63666821Y-100761313D01*
G37*
G36*
X71286821Y-98221313D02*
X71286824Y-98221314D01*
X71286825Y-98221314D01*
X71447239Y-98269975D01*
X71447241Y-98269976D01*
X71447244Y-98269977D01*
X71595078Y-98348995D01*
X71724659Y-98455341D01*
X71831005Y-98584922D01*
X71910023Y-98732756D01*
X71958687Y-98893179D01*
X71975117Y-99060000D01*
X71958687Y-99226821D01*
X71910023Y-99387244D01*
X71831005Y-99535078D01*
X71724659Y-99664659D01*
X71595078Y-99771005D01*
X71447244Y-99850023D01*
X71447241Y-99850024D01*
X71447239Y-99850025D01*
X71286825Y-99898686D01*
X71286824Y-99898686D01*
X71286821Y-99898687D01*
X71161804Y-99911000D01*
X71078196Y-99911000D01*
X70953179Y-99898687D01*
X70953176Y-99898686D01*
X70953175Y-99898686D01*
X70792761Y-99850025D01*
X70792759Y-99850024D01*
X70792756Y-99850023D01*
X70644922Y-99771005D01*
X70515341Y-99664659D01*
X70408995Y-99535078D01*
X70329977Y-99387244D01*
X70281313Y-99226821D01*
X70264883Y-99060000D01*
X70281313Y-98893179D01*
X70329977Y-98732756D01*
X70408995Y-98584922D01*
X70515341Y-98455341D01*
X70644922Y-98348995D01*
X70792756Y-98269977D01*
X70792759Y-98269976D01*
X70792761Y-98269975D01*
X70953175Y-98221314D01*
X70953176Y-98221314D01*
X70953179Y-98221313D01*
X71078196Y-98209000D01*
X71161804Y-98209000D01*
X71286821Y-98221313D01*
X71286821Y-98221313D01*
G37*
G36*
X63666821Y-98221313D02*
X63666824Y-98221314D01*
X63666825Y-98221314D01*
X63827239Y-98269975D01*
X63827241Y-98269976D01*
X63827244Y-98269977D01*
X63975078Y-98348995D01*
X64104659Y-98455341D01*
X64211005Y-98584922D01*
X64290023Y-98732756D01*
X64338687Y-98893179D01*
X64355117Y-99060000D01*
X64338687Y-99226821D01*
X64290023Y-99387244D01*
X64211005Y-99535078D01*
X64104659Y-99664659D01*
X63975078Y-99771005D01*
X63827244Y-99850023D01*
X63827241Y-99850024D01*
X63827239Y-99850025D01*
X63666825Y-99898686D01*
X63666824Y-99898686D01*
X63666821Y-99898687D01*
X63541804Y-99911000D01*
X63458196Y-99911000D01*
X63333179Y-99898687D01*
X63333176Y-99898686D01*
X63333175Y-99898686D01*
X63172761Y-99850025D01*
X63172759Y-99850024D01*
X63172756Y-99850023D01*
X63024922Y-99771005D01*
X62895341Y-99664659D01*
X62788995Y-99535078D01*
X62709977Y-99387244D01*
X62661313Y-99226821D01*
X62644883Y-99060000D01*
X62661313Y-98893179D01*
X62709977Y-98732756D01*
X62788995Y-98584922D01*
X62895341Y-98455341D01*
X63024922Y-98348995D01*
X63172756Y-98269977D01*
X63172759Y-98269976D01*
X63172761Y-98269975D01*
X63333175Y-98221314D01*
X63333176Y-98221314D01*
X63333179Y-98221313D01*
X63458196Y-98209000D01*
X63541804Y-98209000D01*
X63666821Y-98221313D01*
X63666821Y-98221313D01*
G37*
G36*
X71286821Y-95681313D02*
X71286824Y-95681314D01*
X71286825Y-95681314D01*
X71447239Y-95729975D01*
X71447241Y-95729976D01*
X71447244Y-95729977D01*
X71595078Y-95808995D01*
X71724659Y-95915341D01*
X71831005Y-96044922D01*
X71910023Y-96192756D01*
X71958687Y-96353179D01*
X71975117Y-96520000D01*
X71958687Y-96686821D01*
X71910023Y-96847244D01*
X71831005Y-96995078D01*
X71724659Y-97124659D01*
X71595078Y-97231005D01*
X71447244Y-97310023D01*
X71447241Y-97310024D01*
X71447239Y-97310025D01*
X71286825Y-97358686D01*
X71286824Y-97358686D01*
X71286821Y-97358687D01*
X71161804Y-97371000D01*
X71078196Y-97371000D01*
X70953179Y-97358687D01*
X70953176Y-97358686D01*
X70953175Y-97358686D01*
X70792761Y-97310025D01*
X70792759Y-97310024D01*
X70792756Y-97310023D01*
X70644922Y-97231005D01*
X70515341Y-97124659D01*
X70408995Y-96995078D01*
X70329977Y-96847244D01*
X70281313Y-96686821D01*
X70264883Y-96520000D01*
X70281313Y-96353179D01*
X70329977Y-96192756D01*
X70408995Y-96044922D01*
X70515341Y-95915341D01*
X70644922Y-95808995D01*
X70792756Y-95729977D01*
X70792759Y-95729976D01*
X70792761Y-95729975D01*
X70953175Y-95681314D01*
X70953176Y-95681314D01*
X70953179Y-95681313D01*
X71078196Y-95669000D01*
X71161804Y-95669000D01*
X71286821Y-95681313D01*
X71286821Y-95681313D01*
G37*
G36*
X63666821Y-95681313D02*
X63666824Y-95681314D01*
X63666825Y-95681314D01*
X63827239Y-95729975D01*
X63827241Y-95729976D01*
X63827244Y-95729977D01*
X63975078Y-95808995D01*
X64104659Y-95915341D01*
X64211005Y-96044922D01*
X64290023Y-96192756D01*
X64338687Y-96353179D01*
X64355117Y-96520000D01*
X64338687Y-96686821D01*
X64290023Y-96847244D01*
X64211005Y-96995078D01*
X64104659Y-97124659D01*
X63975078Y-97231005D01*
X63827244Y-97310023D01*
X63827241Y-97310024D01*
X63827239Y-97310025D01*
X63666825Y-97358686D01*
X63666824Y-97358686D01*
X63666821Y-97358687D01*
X63541804Y-97371000D01*
X63458196Y-97371000D01*
X63333179Y-97358687D01*
X63333176Y-97358686D01*
X63333175Y-97358686D01*
X63172761Y-97310025D01*
X63172759Y-97310024D01*
X63172756Y-97310023D01*
X63024922Y-97231005D01*
X62895341Y-97124659D01*
X62788995Y-96995078D01*
X62709977Y-96847244D01*
X62661313Y-96686821D01*
X62644883Y-96520000D01*
X62661313Y-96353179D01*
X62709977Y-96192756D01*
X62788995Y-96044922D01*
X62895341Y-95915341D01*
X63024922Y-95808995D01*
X63172756Y-95729977D01*
X63172759Y-95729976D01*
X63172761Y-95729975D01*
X63333175Y-95681314D01*
X63333176Y-95681314D01*
X63333179Y-95681313D01*
X63458196Y-95669000D01*
X63541804Y-95669000D01*
X63666821Y-95681313D01*
X63666821Y-95681313D01*
G37*
G36*
X50013567Y-93674959D02*
X50144072Y-93700918D01*
X50389939Y-93802759D01*
X50610464Y-93950110D01*
X50611215Y-93950612D01*
X50799388Y-94138785D01*
X50799390Y-94138788D01*
X50947241Y-94360061D01*
X51040272Y-94584659D01*
X51049082Y-94605929D01*
X51081723Y-94770023D01*
X51101000Y-94866938D01*
X51101000Y-95133062D01*
X51049082Y-95394072D01*
X50947241Y-95639939D01*
X50834280Y-95808996D01*
X50799388Y-95861215D01*
X50611215Y-96049388D01*
X50611212Y-96049390D01*
X50389939Y-96197241D01*
X50144072Y-96299082D01*
X50013567Y-96325041D01*
X49883063Y-96351000D01*
X49616937Y-96351000D01*
X49486433Y-96325041D01*
X49355928Y-96299082D01*
X49110061Y-96197241D01*
X48888788Y-96049390D01*
X48888785Y-96049388D01*
X48700612Y-95861215D01*
X48665720Y-95808996D01*
X48552759Y-95639939D01*
X48450918Y-95394072D01*
X48399000Y-95133062D01*
X48399000Y-94866938D01*
X48418278Y-94770023D01*
X48450918Y-94605929D01*
X48459728Y-94584659D01*
X48552759Y-94360061D01*
X48700610Y-94138788D01*
X48700612Y-94138785D01*
X48888785Y-93950612D01*
X48889536Y-93950110D01*
X49110061Y-93802759D01*
X49355928Y-93700918D01*
X49486433Y-93674959D01*
X49616937Y-93649000D01*
X49883063Y-93649000D01*
X50013567Y-93674959D01*
X50013567Y-93674959D01*
G37*
G36*
X63666821Y-93141313D02*
X63666824Y-93141314D01*
X63666825Y-93141314D01*
X63827239Y-93189975D01*
X63827241Y-93189976D01*
X63827244Y-93189977D01*
X63975078Y-93268995D01*
X64104659Y-93375341D01*
X64211005Y-93504922D01*
X64290023Y-93652756D01*
X64338687Y-93813179D01*
X64355117Y-93980000D01*
X64338687Y-94146821D01*
X64290023Y-94307244D01*
X64211005Y-94455078D01*
X64104659Y-94584659D01*
X63975078Y-94691005D01*
X63827244Y-94770023D01*
X63827241Y-94770024D01*
X63827239Y-94770025D01*
X63666825Y-94818686D01*
X63666824Y-94818686D01*
X63666821Y-94818687D01*
X63541804Y-94831000D01*
X63458196Y-94831000D01*
X63333179Y-94818687D01*
X63333176Y-94818686D01*
X63333175Y-94818686D01*
X63172761Y-94770025D01*
X63172759Y-94770024D01*
X63172756Y-94770023D01*
X63024922Y-94691005D01*
X62895341Y-94584659D01*
X62788995Y-94455078D01*
X62709977Y-94307244D01*
X62661313Y-94146821D01*
X62644883Y-93980000D01*
X62661313Y-93813179D01*
X62709977Y-93652756D01*
X62788995Y-93504922D01*
X62895341Y-93375341D01*
X63024922Y-93268995D01*
X63172756Y-93189977D01*
X63172759Y-93189976D01*
X63172761Y-93189975D01*
X63333175Y-93141314D01*
X63333176Y-93141314D01*
X63333179Y-93141313D01*
X63458196Y-93129000D01*
X63541804Y-93129000D01*
X63666821Y-93141313D01*
X63666821Y-93141313D01*
G37*
G36*
X71286821Y-93141313D02*
X71286824Y-93141314D01*
X71286825Y-93141314D01*
X71447239Y-93189975D01*
X71447241Y-93189976D01*
X71447244Y-93189977D01*
X71595078Y-93268995D01*
X71724659Y-93375341D01*
X71831005Y-93504922D01*
X71910023Y-93652756D01*
X71958687Y-93813179D01*
X71975117Y-93980000D01*
X71958687Y-94146821D01*
X71910023Y-94307244D01*
X71831005Y-94455078D01*
X71724659Y-94584659D01*
X71595078Y-94691005D01*
X71447244Y-94770023D01*
X71447241Y-94770024D01*
X71447239Y-94770025D01*
X71286825Y-94818686D01*
X71286824Y-94818686D01*
X71286821Y-94818687D01*
X71161804Y-94831000D01*
X71078196Y-94831000D01*
X70953179Y-94818687D01*
X70953176Y-94818686D01*
X70953175Y-94818686D01*
X70792761Y-94770025D01*
X70792759Y-94770024D01*
X70792756Y-94770023D01*
X70644922Y-94691005D01*
X70515341Y-94584659D01*
X70408995Y-94455078D01*
X70329977Y-94307244D01*
X70281313Y-94146821D01*
X70264883Y-93980000D01*
X70281313Y-93813179D01*
X70329977Y-93652756D01*
X70408995Y-93504922D01*
X70515341Y-93375341D01*
X70644922Y-93268995D01*
X70792756Y-93189977D01*
X70792759Y-93189976D01*
X70792761Y-93189975D01*
X70953175Y-93141314D01*
X70953176Y-93141314D01*
X70953179Y-93141313D01*
X71078196Y-93129000D01*
X71161804Y-93129000D01*
X71286821Y-93141313D01*
X71286821Y-93141313D01*
G37*
G36*
X63666821Y-90601313D02*
X63666824Y-90601314D01*
X63666825Y-90601314D01*
X63827239Y-90649975D01*
X63827241Y-90649976D01*
X63827244Y-90649977D01*
X63975078Y-90728995D01*
X64104659Y-90835341D01*
X64211005Y-90964922D01*
X64290023Y-91112756D01*
X64290024Y-91112759D01*
X64290025Y-91112761D01*
X64338686Y-91273175D01*
X64338687Y-91273179D01*
X64355117Y-91440000D01*
X64338687Y-91606821D01*
X64290023Y-91767244D01*
X64211005Y-91915078D01*
X64104659Y-92044659D01*
X63975078Y-92151005D01*
X63827244Y-92230023D01*
X63827241Y-92230024D01*
X63827239Y-92230025D01*
X63666825Y-92278686D01*
X63666824Y-92278686D01*
X63666821Y-92278687D01*
X63541804Y-92291000D01*
X63458196Y-92291000D01*
X63333179Y-92278687D01*
X63333176Y-92278686D01*
X63333175Y-92278686D01*
X63172761Y-92230025D01*
X63172759Y-92230024D01*
X63172756Y-92230023D01*
X63024922Y-92151005D01*
X62895341Y-92044659D01*
X62788995Y-91915078D01*
X62709977Y-91767244D01*
X62661313Y-91606821D01*
X62644883Y-91440000D01*
X62661313Y-91273179D01*
X62661314Y-91273175D01*
X62709975Y-91112761D01*
X62709976Y-91112759D01*
X62709977Y-91112756D01*
X62788995Y-90964922D01*
X62895341Y-90835341D01*
X63024922Y-90728995D01*
X63172756Y-90649977D01*
X63172759Y-90649976D01*
X63172761Y-90649975D01*
X63333175Y-90601314D01*
X63333176Y-90601314D01*
X63333179Y-90601313D01*
X63458196Y-90589000D01*
X63541804Y-90589000D01*
X63666821Y-90601313D01*
X63666821Y-90601313D01*
G37*
G36*
X71286821Y-90601313D02*
X71286824Y-90601314D01*
X71286825Y-90601314D01*
X71447239Y-90649975D01*
X71447241Y-90649976D01*
X71447244Y-90649977D01*
X71595078Y-90728995D01*
X71724659Y-90835341D01*
X71831005Y-90964922D01*
X71910023Y-91112756D01*
X71910024Y-91112759D01*
X71910025Y-91112761D01*
X71958686Y-91273175D01*
X71958687Y-91273179D01*
X71975117Y-91440000D01*
X71958687Y-91606821D01*
X71910023Y-91767244D01*
X71831005Y-91915078D01*
X71724659Y-92044659D01*
X71595078Y-92151005D01*
X71447244Y-92230023D01*
X71447241Y-92230024D01*
X71447239Y-92230025D01*
X71286825Y-92278686D01*
X71286824Y-92278686D01*
X71286821Y-92278687D01*
X71161804Y-92291000D01*
X71078196Y-92291000D01*
X70953179Y-92278687D01*
X70953176Y-92278686D01*
X70953175Y-92278686D01*
X70792761Y-92230025D01*
X70792759Y-92230024D01*
X70792756Y-92230023D01*
X70644922Y-92151005D01*
X70515341Y-92044659D01*
X70408995Y-91915078D01*
X70329977Y-91767244D01*
X70281313Y-91606821D01*
X70264883Y-91440000D01*
X70281313Y-91273179D01*
X70281314Y-91273175D01*
X70329975Y-91112761D01*
X70329976Y-91112759D01*
X70329977Y-91112756D01*
X70408995Y-90964922D01*
X70515341Y-90835341D01*
X70644922Y-90728995D01*
X70792756Y-90649977D01*
X70792759Y-90649976D01*
X70792761Y-90649975D01*
X70953175Y-90601314D01*
X70953176Y-90601314D01*
X70953179Y-90601313D01*
X71078196Y-90589000D01*
X71161804Y-90589000D01*
X71286821Y-90601313D01*
X71286821Y-90601313D01*
G37*
G36*
X50013567Y-88674959D02*
X50144072Y-88700918D01*
X50389939Y-88802759D01*
X50535469Y-88900000D01*
X50611215Y-88950612D01*
X50799388Y-89138785D01*
X50799390Y-89138788D01*
X50947241Y-89360061D01*
X51049082Y-89605928D01*
X51101000Y-89866938D01*
X51101000Y-90133062D01*
X51049082Y-90394072D01*
X50947241Y-90639939D01*
X50799890Y-90860464D01*
X50799388Y-90861215D01*
X50611215Y-91049388D01*
X50611212Y-91049390D01*
X50389939Y-91197241D01*
X50144072Y-91299082D01*
X50013567Y-91325041D01*
X49883063Y-91351000D01*
X49616937Y-91351000D01*
X49486433Y-91325041D01*
X49355928Y-91299082D01*
X49110061Y-91197241D01*
X48888788Y-91049390D01*
X48888785Y-91049388D01*
X48700612Y-90861215D01*
X48700110Y-90860464D01*
X48552759Y-90639939D01*
X48450918Y-90394072D01*
X48399000Y-90133062D01*
X48399000Y-89866938D01*
X48450918Y-89605928D01*
X48552759Y-89360061D01*
X48700610Y-89138788D01*
X48700612Y-89138785D01*
X48888785Y-88950612D01*
X48964531Y-88900000D01*
X49110061Y-88802759D01*
X49355928Y-88700918D01*
X49486433Y-88674959D01*
X49616937Y-88649000D01*
X49883063Y-88649000D01*
X50013567Y-88674959D01*
X50013567Y-88674959D01*
G37*
G36*
X71286821Y-88061313D02*
X71286824Y-88061314D01*
X71286825Y-88061314D01*
X71447239Y-88109975D01*
X71447241Y-88109976D01*
X71447244Y-88109977D01*
X71595078Y-88188995D01*
X71724659Y-88295341D01*
X71831005Y-88424922D01*
X71910023Y-88572756D01*
X71910024Y-88572759D01*
X71910025Y-88572761D01*
X71948901Y-88700918D01*
X71958687Y-88733179D01*
X71975117Y-88900000D01*
X71958687Y-89066821D01*
X71910023Y-89227244D01*
X71831005Y-89375078D01*
X71724659Y-89504659D01*
X71595078Y-89611005D01*
X71447244Y-89690023D01*
X71447241Y-89690024D01*
X71447239Y-89690025D01*
X71286825Y-89738686D01*
X71286824Y-89738686D01*
X71286821Y-89738687D01*
X71161804Y-89751000D01*
X71078196Y-89751000D01*
X70953179Y-89738687D01*
X70953176Y-89738686D01*
X70953175Y-89738686D01*
X70792761Y-89690025D01*
X70792759Y-89690024D01*
X70792756Y-89690023D01*
X70644922Y-89611005D01*
X70515341Y-89504659D01*
X70408995Y-89375078D01*
X70329977Y-89227244D01*
X70281313Y-89066821D01*
X70264883Y-88900000D01*
X70281313Y-88733179D01*
X70291099Y-88700918D01*
X70329975Y-88572761D01*
X70329976Y-88572759D01*
X70329977Y-88572756D01*
X70408995Y-88424922D01*
X70515341Y-88295341D01*
X70644922Y-88188995D01*
X70792756Y-88109977D01*
X70792759Y-88109976D01*
X70792761Y-88109975D01*
X70953175Y-88061314D01*
X70953176Y-88061314D01*
X70953179Y-88061313D01*
X71078196Y-88049000D01*
X71161804Y-88049000D01*
X71286821Y-88061313D01*
X71286821Y-88061313D01*
G37*
G36*
X64351000Y-89751000D02*
X62649000Y-89751000D01*
X62649000Y-88049000D01*
X64351000Y-88049000D01*
X64351000Y-89751000D01*
X64351000Y-89751000D01*
G37*
G36*
X50013567Y-83674959D02*
X50144072Y-83700918D01*
X50389939Y-83802759D01*
X50610464Y-83950110D01*
X50611215Y-83950612D01*
X50799388Y-84138785D01*
X50799390Y-84138788D01*
X50947241Y-84360061D01*
X51049082Y-84605928D01*
X51101000Y-84866938D01*
X51101000Y-85133062D01*
X51049082Y-85394072D01*
X50947241Y-85639939D01*
X50799890Y-85860464D01*
X50799388Y-85861215D01*
X50611215Y-86049388D01*
X50611212Y-86049390D01*
X50389939Y-86197241D01*
X50144072Y-86299082D01*
X50013567Y-86325041D01*
X49883063Y-86351000D01*
X49616937Y-86351000D01*
X49486433Y-86325041D01*
X49355928Y-86299082D01*
X49110061Y-86197241D01*
X48888788Y-86049390D01*
X48888785Y-86049388D01*
X48700612Y-85861215D01*
X48700110Y-85860464D01*
X48552759Y-85639939D01*
X48450918Y-85394072D01*
X48399000Y-85133062D01*
X48399000Y-84866938D01*
X48450918Y-84605928D01*
X48552759Y-84360061D01*
X48700610Y-84138788D01*
X48700612Y-84138785D01*
X48888785Y-83950612D01*
X48889536Y-83950110D01*
X49110061Y-83802759D01*
X49355928Y-83700918D01*
X49486433Y-83674959D01*
X49616937Y-83649000D01*
X49883063Y-83649000D01*
X50013567Y-83674959D01*
X50013567Y-83674959D01*
G37*
G36*
X110737142Y-82718242D02*
X110885102Y-82779530D01*
X111018258Y-82868502D01*
X111131498Y-82981742D01*
X111220470Y-83114898D01*
X111281758Y-83262858D01*
X111313000Y-83419925D01*
X111313000Y-83580075D01*
X111281758Y-83737142D01*
X111254578Y-83802759D01*
X111220471Y-83885100D01*
X111131499Y-84018257D01*
X111018257Y-84131499D01*
X111007348Y-84138788D01*
X110885102Y-84220470D01*
X110737142Y-84281758D01*
X110580075Y-84313000D01*
X110419925Y-84313000D01*
X110262858Y-84281758D01*
X110114898Y-84220470D01*
X109992652Y-84138788D01*
X109981743Y-84131499D01*
X109868501Y-84018257D01*
X109779529Y-83885100D01*
X109745422Y-83802759D01*
X109718242Y-83737142D01*
X109687000Y-83580075D01*
X109687000Y-83419925D01*
X109718242Y-83262858D01*
X109779530Y-83114898D01*
X109868502Y-82981742D01*
X109981742Y-82868502D01*
X110114898Y-82779530D01*
X110262858Y-82718242D01*
X110419925Y-82687000D01*
X110580075Y-82687000D01*
X110737142Y-82718242D01*
X110737142Y-82718242D01*
G37*
G36*
X73237142Y-82718242D02*
X73385102Y-82779530D01*
X73518258Y-82868502D01*
X73631498Y-82981742D01*
X73720470Y-83114898D01*
X73781758Y-83262858D01*
X73813000Y-83419925D01*
X73813000Y-83580075D01*
X73781758Y-83737142D01*
X73754578Y-83802759D01*
X73720471Y-83885100D01*
X73631499Y-84018257D01*
X73518257Y-84131499D01*
X73507348Y-84138788D01*
X73385102Y-84220470D01*
X73237142Y-84281758D01*
X73080075Y-84313000D01*
X72919925Y-84313000D01*
X72762858Y-84281758D01*
X72614898Y-84220470D01*
X72492652Y-84138788D01*
X72481743Y-84131499D01*
X72368501Y-84018257D01*
X72279529Y-83885100D01*
X72245422Y-83802759D01*
X72218242Y-83737142D01*
X72187000Y-83580075D01*
X72187000Y-83419925D01*
X72218242Y-83262858D01*
X72279530Y-83114898D01*
X72368502Y-82981742D01*
X72481742Y-82868502D01*
X72614898Y-82779530D01*
X72762858Y-82718242D01*
X72919925Y-82687000D01*
X73080075Y-82687000D01*
X73237142Y-82718242D01*
X73237142Y-82718242D01*
G37*
G36*
X127570443Y-81105519D02*
X127636627Y-81112037D01*
X127749853Y-81146384D01*
X127806467Y-81163557D01*
X127945087Y-81237652D01*
X127962991Y-81247222D01*
X127998729Y-81276552D01*
X128100186Y-81359814D01*
X128183448Y-81461271D01*
X128212778Y-81497009D01*
X128212779Y-81497011D01*
X128296443Y-81653533D01*
X128296443Y-81653534D01*
X128347963Y-81823373D01*
X128365359Y-82000000D01*
X128347963Y-82176627D01*
X128313616Y-82289853D01*
X128296443Y-82346467D01*
X128222348Y-82485087D01*
X128212778Y-82502991D01*
X128183448Y-82538729D01*
X128100186Y-82640186D01*
X128005073Y-82718242D01*
X127962991Y-82752778D01*
X127962989Y-82752779D01*
X127806467Y-82836443D01*
X127749853Y-82853616D01*
X127636627Y-82887963D01*
X127570443Y-82894481D01*
X127504260Y-82901000D01*
X127415740Y-82901000D01*
X127349557Y-82894481D01*
X127283373Y-82887963D01*
X127170147Y-82853616D01*
X127113533Y-82836443D01*
X126957011Y-82752779D01*
X126957009Y-82752778D01*
X126914927Y-82718242D01*
X126819814Y-82640186D01*
X126736552Y-82538729D01*
X126707222Y-82502991D01*
X126697652Y-82485087D01*
X126623557Y-82346467D01*
X126606384Y-82289853D01*
X126572037Y-82176627D01*
X126554641Y-82000000D01*
X126572037Y-81823373D01*
X126623557Y-81653534D01*
X126623557Y-81653533D01*
X126707221Y-81497011D01*
X126707222Y-81497009D01*
X126736552Y-81461271D01*
X126819814Y-81359814D01*
X126921271Y-81276552D01*
X126957009Y-81247222D01*
X126974913Y-81237652D01*
X127113533Y-81163557D01*
X127170147Y-81146384D01*
X127283373Y-81112037D01*
X127349557Y-81105519D01*
X127415740Y-81099000D01*
X127504260Y-81099000D01*
X127570443Y-81105519D01*
X127570443Y-81105519D01*
G37*
G36*
X119950443Y-81105519D02*
X120016627Y-81112037D01*
X120129853Y-81146384D01*
X120186467Y-81163557D01*
X120325087Y-81237652D01*
X120342991Y-81247222D01*
X120378729Y-81276552D01*
X120480186Y-81359814D01*
X120563448Y-81461271D01*
X120592778Y-81497009D01*
X120592779Y-81497011D01*
X120676443Y-81653533D01*
X120676443Y-81653534D01*
X120727963Y-81823373D01*
X120745359Y-82000000D01*
X120727963Y-82176627D01*
X120693616Y-82289853D01*
X120676443Y-82346467D01*
X120602348Y-82485087D01*
X120592778Y-82502991D01*
X120563448Y-82538729D01*
X120480186Y-82640186D01*
X120385073Y-82718242D01*
X120342991Y-82752778D01*
X120342989Y-82752779D01*
X120186467Y-82836443D01*
X120129853Y-82853616D01*
X120016627Y-82887963D01*
X119950443Y-82894481D01*
X119884260Y-82901000D01*
X119795740Y-82901000D01*
X119729557Y-82894481D01*
X119663373Y-82887963D01*
X119550147Y-82853616D01*
X119493533Y-82836443D01*
X119337011Y-82752779D01*
X119337009Y-82752778D01*
X119294927Y-82718242D01*
X119199814Y-82640186D01*
X119116552Y-82538729D01*
X119087222Y-82502991D01*
X119077652Y-82485087D01*
X119003557Y-82346467D01*
X118986384Y-82289853D01*
X118952037Y-82176627D01*
X118934641Y-82000000D01*
X118952037Y-81823373D01*
X119003557Y-81653534D01*
X119003557Y-81653533D01*
X119087221Y-81497011D01*
X119087222Y-81497009D01*
X119116552Y-81461271D01*
X119199814Y-81359814D01*
X119301271Y-81276552D01*
X119337009Y-81247222D01*
X119354913Y-81237652D01*
X119493533Y-81163557D01*
X119550147Y-81146384D01*
X119663373Y-81112037D01*
X119729557Y-81105519D01*
X119795740Y-81099000D01*
X119884260Y-81099000D01*
X119950443Y-81105519D01*
X119950443Y-81105519D01*
G37*
G36*
X122490443Y-81105519D02*
X122556627Y-81112037D01*
X122669853Y-81146384D01*
X122726467Y-81163557D01*
X122865087Y-81237652D01*
X122882991Y-81247222D01*
X122918729Y-81276552D01*
X123020186Y-81359814D01*
X123103448Y-81461271D01*
X123132778Y-81497009D01*
X123132779Y-81497011D01*
X123216443Y-81653533D01*
X123216443Y-81653534D01*
X123267963Y-81823373D01*
X123285359Y-82000000D01*
X123267963Y-82176627D01*
X123233616Y-82289853D01*
X123216443Y-82346467D01*
X123142348Y-82485087D01*
X123132778Y-82502991D01*
X123103448Y-82538729D01*
X123020186Y-82640186D01*
X122925073Y-82718242D01*
X122882991Y-82752778D01*
X122882989Y-82752779D01*
X122726467Y-82836443D01*
X122669853Y-82853616D01*
X122556627Y-82887963D01*
X122490443Y-82894481D01*
X122424260Y-82901000D01*
X122335740Y-82901000D01*
X122269557Y-82894481D01*
X122203373Y-82887963D01*
X122090147Y-82853616D01*
X122033533Y-82836443D01*
X121877011Y-82752779D01*
X121877009Y-82752778D01*
X121834927Y-82718242D01*
X121739814Y-82640186D01*
X121656552Y-82538729D01*
X121627222Y-82502991D01*
X121617652Y-82485087D01*
X121543557Y-82346467D01*
X121526384Y-82289853D01*
X121492037Y-82176627D01*
X121474641Y-82000000D01*
X121492037Y-81823373D01*
X121543557Y-81653534D01*
X121543557Y-81653533D01*
X121627221Y-81497011D01*
X121627222Y-81497009D01*
X121656552Y-81461271D01*
X121739814Y-81359814D01*
X121841271Y-81276552D01*
X121877009Y-81247222D01*
X121894913Y-81237652D01*
X122033533Y-81163557D01*
X122090147Y-81146384D01*
X122203373Y-81112037D01*
X122269557Y-81105519D01*
X122335740Y-81099000D01*
X122424260Y-81099000D01*
X122490443Y-81105519D01*
X122490443Y-81105519D01*
G37*
G36*
X125030443Y-81105519D02*
X125096627Y-81112037D01*
X125209853Y-81146384D01*
X125266467Y-81163557D01*
X125405087Y-81237652D01*
X125422991Y-81247222D01*
X125458729Y-81276552D01*
X125560186Y-81359814D01*
X125643448Y-81461271D01*
X125672778Y-81497009D01*
X125672779Y-81497011D01*
X125756443Y-81653533D01*
X125756443Y-81653534D01*
X125807963Y-81823373D01*
X125825359Y-82000000D01*
X125807963Y-82176627D01*
X125773616Y-82289853D01*
X125756443Y-82346467D01*
X125682348Y-82485087D01*
X125672778Y-82502991D01*
X125643448Y-82538729D01*
X125560186Y-82640186D01*
X125465073Y-82718242D01*
X125422991Y-82752778D01*
X125422989Y-82752779D01*
X125266467Y-82836443D01*
X125209853Y-82853616D01*
X125096627Y-82887963D01*
X125030443Y-82894481D01*
X124964260Y-82901000D01*
X124875740Y-82901000D01*
X124809557Y-82894481D01*
X124743373Y-82887963D01*
X124630147Y-82853616D01*
X124573533Y-82836443D01*
X124417011Y-82752779D01*
X124417009Y-82752778D01*
X124374927Y-82718242D01*
X124279814Y-82640186D01*
X124196552Y-82538729D01*
X124167222Y-82502991D01*
X124157652Y-82485087D01*
X124083557Y-82346467D01*
X124066384Y-82289853D01*
X124032037Y-82176627D01*
X124014641Y-82000000D01*
X124032037Y-81823373D01*
X124083557Y-81653534D01*
X124083557Y-81653533D01*
X124167221Y-81497011D01*
X124167222Y-81497009D01*
X124196552Y-81461271D01*
X124279814Y-81359814D01*
X124381271Y-81276552D01*
X124417009Y-81247222D01*
X124434913Y-81237652D01*
X124573533Y-81163557D01*
X124630147Y-81146384D01*
X124743373Y-81112037D01*
X124809557Y-81105519D01*
X124875740Y-81099000D01*
X124964260Y-81099000D01*
X125030443Y-81105519D01*
X125030443Y-81105519D01*
G37*
G36*
X130901000Y-82901000D02*
X129099000Y-82901000D01*
X129099000Y-81099000D01*
X130901000Y-81099000D01*
X130901000Y-82901000D01*
X130901000Y-82901000D01*
G37*
G36*
X117410443Y-81105519D02*
X117476627Y-81112037D01*
X117589853Y-81146384D01*
X117646467Y-81163557D01*
X117785087Y-81237652D01*
X117802991Y-81247222D01*
X117838729Y-81276552D01*
X117940186Y-81359814D01*
X118023448Y-81461271D01*
X118052778Y-81497009D01*
X118052779Y-81497011D01*
X118136443Y-81653533D01*
X118136443Y-81653534D01*
X118187963Y-81823373D01*
X118205359Y-82000000D01*
X118187963Y-82176627D01*
X118153616Y-82289853D01*
X118136443Y-82346467D01*
X118062348Y-82485087D01*
X118052778Y-82502991D01*
X118023448Y-82538729D01*
X117940186Y-82640186D01*
X117845073Y-82718242D01*
X117802991Y-82752778D01*
X117802989Y-82752779D01*
X117646467Y-82836443D01*
X117589853Y-82853616D01*
X117476627Y-82887963D01*
X117410443Y-82894481D01*
X117344260Y-82901000D01*
X117255740Y-82901000D01*
X117189557Y-82894481D01*
X117123373Y-82887963D01*
X117010147Y-82853616D01*
X116953533Y-82836443D01*
X116797011Y-82752779D01*
X116797009Y-82752778D01*
X116754927Y-82718242D01*
X116659814Y-82640186D01*
X116576552Y-82538729D01*
X116547222Y-82502991D01*
X116537652Y-82485087D01*
X116463557Y-82346467D01*
X116446384Y-82289853D01*
X116412037Y-82176627D01*
X116394641Y-82000000D01*
X116412037Y-81823373D01*
X116463557Y-81653534D01*
X116463557Y-81653533D01*
X116547221Y-81497011D01*
X116547222Y-81497009D01*
X116576552Y-81461271D01*
X116659814Y-81359814D01*
X116761271Y-81276552D01*
X116797009Y-81247222D01*
X116814913Y-81237652D01*
X116953533Y-81163557D01*
X117010147Y-81146384D01*
X117123373Y-81112037D01*
X117189557Y-81105519D01*
X117255740Y-81099000D01*
X117344260Y-81099000D01*
X117410443Y-81105519D01*
X117410443Y-81105519D01*
G37*
G36*
X51101000Y-81351000D02*
X48399000Y-81351000D01*
X48399000Y-78649000D01*
X51101000Y-78649000D01*
X51101000Y-81351000D01*
X51101000Y-81351000D01*
G37*
G36*
X61183567Y-68674959D02*
X61314072Y-68700918D01*
X61559939Y-68802759D01*
X61780464Y-68950110D01*
X61781215Y-68950612D01*
X61969388Y-69138785D01*
X61969390Y-69138788D01*
X62117241Y-69360061D01*
X62219082Y-69605928D01*
X62219082Y-69605929D01*
X62271000Y-69866937D01*
X62271000Y-70133063D01*
X62245041Y-70263567D01*
X62219082Y-70394072D01*
X62117241Y-70639939D01*
X62017296Y-70789516D01*
X61969388Y-70861215D01*
X61781215Y-71049388D01*
X61781212Y-71049390D01*
X61559939Y-71197241D01*
X61314072Y-71299082D01*
X61183567Y-71325041D01*
X61053063Y-71351000D01*
X60786937Y-71351000D01*
X60656433Y-71325041D01*
X60525928Y-71299082D01*
X60280061Y-71197241D01*
X60058788Y-71049390D01*
X60058785Y-71049388D01*
X59870612Y-70861215D01*
X59822704Y-70789516D01*
X59722759Y-70639939D01*
X59620918Y-70394072D01*
X59594959Y-70263567D01*
X59569000Y-70133063D01*
X59569000Y-69866937D01*
X59620918Y-69605929D01*
X59620918Y-69605928D01*
X59722759Y-69360061D01*
X59870610Y-69138788D01*
X59870612Y-69138785D01*
X60058785Y-68950612D01*
X60059536Y-68950110D01*
X60280061Y-68802759D01*
X60525928Y-68700918D01*
X60656433Y-68674959D01*
X60786937Y-68649000D01*
X61053063Y-68649000D01*
X61183567Y-68674959D01*
X61183567Y-68674959D01*
G37*
G36*
X67351000Y-71351000D02*
X64649000Y-71351000D01*
X64649000Y-68649000D01*
X67351000Y-68649000D01*
X67351000Y-71351000D01*
X67351000Y-71351000D01*
G37*
G36*
X129846190Y-65210483D02*
X130374138Y-65429166D01*
X130849283Y-65746648D01*
X131253352Y-66150717D01*
X131570834Y-66625862D01*
X131789517Y-67153810D01*
X131901000Y-67714275D01*
X131901000Y-68285725D01*
X131789517Y-68846190D01*
X131570834Y-69374138D01*
X131253352Y-69849283D01*
X130849283Y-70253352D01*
X130374138Y-70570834D01*
X129846190Y-70789517D01*
X129285725Y-70901000D01*
X128714275Y-70901000D01*
X128153810Y-70789517D01*
X127625862Y-70570834D01*
X127150717Y-70253352D01*
X126746648Y-69849283D01*
X126429166Y-69374138D01*
X126210483Y-68846190D01*
X126099000Y-68285725D01*
X126099000Y-67714275D01*
X126210483Y-67153810D01*
X126429166Y-66625862D01*
X126746648Y-66150717D01*
X127150717Y-65746648D01*
X127625862Y-65429166D01*
X128153810Y-65210483D01*
X128714275Y-65099000D01*
X129285725Y-65099000D01*
X129846190Y-65210483D01*
X129846190Y-65210483D01*
G37*
G36*
X48846190Y-65210483D02*
X49374138Y-65429166D01*
X49849283Y-65746648D01*
X50253352Y-66150717D01*
X50570834Y-66625862D01*
X50789517Y-67153810D01*
X50901000Y-67714275D01*
X50901000Y-68285725D01*
X50789517Y-68846190D01*
X50570834Y-69374138D01*
X50253352Y-69849283D01*
X49849283Y-70253352D01*
X49374138Y-70570834D01*
X48846190Y-70789517D01*
X48285725Y-70901000D01*
X47714275Y-70901000D01*
X47153810Y-70789517D01*
X46625862Y-70570834D01*
X46150717Y-70253352D01*
X45746648Y-69849283D01*
X45429166Y-69374138D01*
X45210483Y-68846190D01*
X45099000Y-68285725D01*
X45099000Y-67714275D01*
X45210483Y-67153810D01*
X45429166Y-66625862D01*
X45746648Y-66150717D01*
X46150717Y-65746648D01*
X46625862Y-65429166D01*
X47153810Y-65210483D01*
X47714275Y-65099000D01*
X48285725Y-65099000D01*
X48846190Y-65210483D01*
X48846190Y-65210483D01*
G37*
G36*
X110737142Y-66218242D02*
X110885102Y-66279530D01*
X111018258Y-66368502D01*
X111131498Y-66481742D01*
X111220470Y-66614898D01*
X111281758Y-66762858D01*
X111313000Y-66919925D01*
X111313000Y-67080075D01*
X111281758Y-67237142D01*
X111220470Y-67385102D01*
X111131498Y-67518258D01*
X111018258Y-67631498D01*
X110885102Y-67720470D01*
X110737142Y-67781758D01*
X110580075Y-67813000D01*
X110419925Y-67813000D01*
X110262858Y-67781758D01*
X110114898Y-67720470D01*
X109981742Y-67631498D01*
X109868502Y-67518258D01*
X109779530Y-67385102D01*
X109718242Y-67237142D01*
X109687000Y-67080075D01*
X109687000Y-66919925D01*
X109718242Y-66762858D01*
X109779530Y-66614898D01*
X109868502Y-66481742D01*
X109981742Y-66368502D01*
X110114898Y-66279530D01*
X110262858Y-66218242D01*
X110419925Y-66187000D01*
X110580075Y-66187000D01*
X110737142Y-66218242D01*
X110737142Y-66218242D01*
G37*
G36*
X73237142Y-66218242D02*
X73385102Y-66279530D01*
X73518258Y-66368502D01*
X73631498Y-66481742D01*
X73720470Y-66614898D01*
X73781758Y-66762858D01*
X73813000Y-66919925D01*
X73813000Y-67080075D01*
X73781758Y-67237142D01*
X73720470Y-67385102D01*
X73631498Y-67518258D01*
X73518258Y-67631498D01*
X73385102Y-67720470D01*
X73237142Y-67781758D01*
X73080075Y-67813000D01*
X72919925Y-67813000D01*
X72762858Y-67781758D01*
X72614898Y-67720470D01*
X72481742Y-67631498D01*
X72368502Y-67518258D01*
X72279530Y-67385102D01*
X72218242Y-67237142D01*
X72187000Y-67080075D01*
X72187000Y-66919925D01*
X72218242Y-66762858D01*
X72279530Y-66614898D01*
X72368502Y-66481742D01*
X72481742Y-66368502D01*
X72614898Y-66279530D01*
X72762858Y-66218242D01*
X72919925Y-66187000D01*
X73080075Y-66187000D01*
X73237142Y-66218242D01*
X73237142Y-66218242D01*
G37*
M02*
